<?xml version="1.0" encoding="utf-8"?>
<!-- Generator: Adobe Illustrator 26.3.1, SVG Export Plug-In . SVG Version: 6.00 Build 0)  -->
<svg version="1.1" id="レイヤー_1" xmlns="http://www.w3.org/2000/svg" xmlns:xlink="http://www.w3.org/1999/xlink" x="0px"
	 y="0px" viewBox="0 0 1226 736" style="enable-background:new 0 0 1226 736;" xml:space="preserve">
<style type="text/css">
	.st0{fill:#DBDBDB;}
	.st1{fill:#C9C9C9;}
	.st2{fill:#FDFDFD;}
</style>
<g id="グループ_2355" transform="translate(-54.487 -1029.535)">
	<g id="グループ_2354" transform="translate(-37.513 378.245)">
		<g id="グループ_2350" transform="translate(92 651.29)">
			<path id="パス_1772" class="st0" d="M279.8,210.8c0-41-29.9-75.9-70.4-82.3l0,0h0c-4.2-0.7-8.5-1-12.8-1h-12.8v289.1
				c0,7.1,5.7,12.8,12.8,12.8s12.8-5.7,12.8-12.8c0,0,0,0,0,0V293.1C249.9,286.8,279.8,251.9,279.8,210.8"/>
			<path id="パス_1773" class="st0" d="M196.5,0c-7.1,0-12.8,5.7-12.8,12.8v71.1h25.6V12.8C209.3,5.7,203.6,0,196.5,0"/>
			<path id="パス_1774" class="st0" d="M296.7,38.3c-6.1-3.6-13.9-1.7-17.5,4.4v0l0,0l-0.4,0.6l-31.4,52.4l22,13.2l9-15.1
				c0.1-0.1,0.2-0.3,0.3-0.4l22.4-37.5C304.7,49.7,302.8,41.9,296.7,38.3"/>
			<path id="パス_1775" class="st0" d="M383.1,198h-69.5v25.6h69.5c7.1,0,12.8-5.7,12.8-12.8S390.2,198,383.1,198"/>
			<path id="パス_1776" class="st0" d="M301.1,365.9l-31.9-53.4l-22,13.1l10.4,17.4v0l21.5,36c3.6,6.1,11.5,8.1,17.6,4.4
				S304.7,372,301.1,365.9"/>
			<path id="パス_1777" class="st0" d="M143.8,91.4l-29.9-48.8c-3.6-6.1-11.5-8-17.6-4.4c-6.1,3.6-8,11.5-4.4,17.6
				c0,0.1,0.1,0.1,0.1,0.2l15.7,25.6l0,0l14.3,23.2L143.8,91.4z"/>
			<path id="パス_1778" class="st0" d="M51.3,198H12.8C5.7,198,0,203.8,0,210.8s5.7,12.8,12.8,12.8l0,0h69.5V198H51.3z"/>
			<path id="パス_1779" class="st0" d="M126.9,311.1L113.6,332l0,0l-21.4,33.6c-3.8,5.9-2.1,13.9,3.8,17.7s13.9,2.1,17.7-3.8
				c0,0,0-0.1,0.1-0.1l34.8-54.5L126.9,311.1z"/>
			<path id="パス_1780" class="st0" d="M364.3,101.9c-4.1-5.7-12.1-7-17.9-2.9l-1.9,1.3l-48.2,34.7l15,20.8l14.3-10.3
				c0.1-0.1,0.2-0.1,0.3-0.2l35.4-25.6C367.1,115.6,368.4,107.6,364.3,101.9"/>
			<path id="パス_1781" class="st0" d="M361.4,301.8L326,276.2c-0.1-0.1-0.2-0.1-0.3-0.1l-14.4-10.4l-15,20.8l48.2,34.7l1.9,1.3
				c5.7,4.1,13.7,2.8,17.9-2.9C368.4,313.9,367.1,305.9,361.4,301.8"/>
			<path id="パス_1782" class="st1" d="M209.3,128.6L209.3,128.6L209.3,128.6c-4.3-0.7-8.5-1-12.8-1h-12.8v134.3l64.9-116
				C237.3,136.8,223.7,130.8,209.3,128.6"/>
			<path id="パス_1783" class="st0" d="M168.6,195.7L47,99.4c-5.5-4.5-13.5-3.7-18,1.8s-3.7,13.5,1.8,18c0.1,0.1,0.2,0.2,0.3,0.3
				l114.1,90.5L31,302.3c-5.6,4.4-6.5,12.4-2.2,18c4.4,5.6,12.4,6.5,18,2.2c0.1-0.1,0.2-0.2,0.3-0.2L168.6,224L168.6,195.7z"/>
		</g>
		<g id="グループ_2352" transform="translate(262.259 1118.126)">
			<path id="パス_1772-2" class="st0" d="M175,131.9c0-25.7-18.7-47.5-44.1-51.5l0,0h0c-2.6-0.4-5.3-0.6-8-0.6h-8v180.8
				c0,4.4,3.6,8,8,8c4.4,0,8-3.6,8-8v-77.3C156.3,179.4,175,157.5,175,131.9"/>
			<path id="パス_1773-2" class="st0" d="M122.9,0c-4.4,0-8,3.6-8,8v44.5h16V8C130.9,3.6,127.3,0,122.9,0"/>
			<path id="パス_1774-2" class="st0" d="M185.6,23.9c-3.8-2.3-8.7-1-11,2.8l0,0l0,0l-0.2,0.4l-19.6,32.7l13.7,8.2l5.6-9.4
				c0.1-0.1,0.1-0.2,0.2-0.2l14-23.4C190.6,31.1,189.4,26.2,185.6,23.9C185.6,23.9,185.6,23.9,185.6,23.9"/>
			<path id="パス_1775-2" class="st0" d="M239.6,123.9h-43.4v16h43.4c4.4,0,8-3.6,8-8S244,123.9,239.6,123.9"/>
			<path id="パス_1776-2" class="st0" d="M188.3,228.8l-19.9-33.4l-13.7,8.2l6.5,10.9l0,0l13.4,22.5c2.3,3.8,7.2,5,11,2.8
				C189.3,237.5,190.6,232.6,188.3,228.8L188.3,228.8"/>
			<path id="パス_1777-2" class="st0" d="M89.9,57.2L71.2,26.6c-2.3-3.8-7.2-5-11-2.6c-3.8,2.3-5,7.2-2.6,11l0,0l9.8,16l0,0
				l8.9,14.5L89.9,57.2z"/>
			<path id="パス_1778-2" class="st0" d="M32.1,123.9H8c-4.4,0-8,3.6-8,8s3.6,8,8,8h43.4v-16H32.1z"/>
			<path id="パス_1779-2" class="st0" d="M79.4,194.5L71,207.6v0l-13.4,21c-2.4,3.7-1.3,8.7,2.4,11.1s8.7,1.3,11.1-2.4l21.8-34.1
				L79.4,194.5z"/>
			<path id="パス_1780-2" class="st0" d="M227.8,63.7c-2.6-3.6-7.6-4.4-11.2-1.8c0,0,0,0,0,0l-1.2,0.8l-30.1,21.7l9.4,13l9-6.5
				c0.1,0,0.1-0.1,0.2-0.1l22.1-16C229.6,72.3,230.4,67.3,227.8,63.7C227.8,63.7,227.8,63.7,227.8,63.7"/>
			<path id="パス_1781-2" class="st0" d="M226,188.7l-22.1-16c-0.1,0-0.1-0.1-0.2-0.1l-9-6.5l-9.4,13l30.1,21.7l1.2,0.8
				c3.6,2.6,8.6,1.8,11.2-1.8C230.4,196.3,229.6,191.3,226,188.7"/>
			<path id="パス_1782-2" class="st1" d="M130.9,80.4L130.9,80.4L130.9,80.4c-2.7-0.4-5.3-0.6-8-0.6h-8v84l40.6-72.5
				C148.4,85.6,139.9,81.8,130.9,80.4"/>
			<path id="パス_1783-2" class="st0" d="M105.4,122.4l-76-60.3c-3.5-2.7-8.5-2.2-11.2,1.3c-2.7,3.5-2.2,8.5,1.3,11.2l0,0
				l71.4,56.6l-71.5,57.8c-3.4,2.8-4,7.8-1.2,11.3c2.8,3.4,7.8,4,11.3,1.2l0,0l76-61.5V122.4z"/>
		</g>
		<g id="グループ_2351" transform="translate(502.201 951.781)">
			<path id="パス_1772-3" class="st0" d="M135.8,102.4c0-19.9-14.5-36.9-34.2-39.9h0c-2.1-0.3-4.1-0.5-6.2-0.5h-6.2v140.4
				c0,3.4,2.8,6.2,6.2,6.2c3.4,0,6.2-2.8,6.2-6.2c0,0,0,0,0,0v-60C121.3,139.2,135.8,122.3,135.8,102.4"/>
			<path id="パス_1773-3" class="st0" d="M95.4,0c-3.4,0-6.2,2.8-6.2,6.2c0,0,0,0,0,0v34.5h12.4V6.2C101.6,2.8,98.8,0,95.4,0
				C95.4,0,95.4,0,95.4,0"/>
			<path id="パス_1774-3" class="st0" d="M144,18.6c-2.9-1.8-6.8-0.8-8.5,2.1l0,0l0,0l-0.2,0.3l-15.2,25.4l10.7,6.4l4.4-7.3
				c0-0.1,0.1-0.1,0.1-0.2l10.9-18.2C148,24.1,147,20.3,144,18.6C144.1,18.6,144.1,18.6,144,18.6"/>
			<path id="パス_1775-3" class="st0" d="M186,96.2h-33.7v12.4H186c3.4,0,6.2-2.8,6.2-6.2C192.2,98.9,189.4,96.2,186,96.2"/>
			<path id="パス_1776-3" class="st0" d="M146.2,177.6l-15.5-25.9l-10.7,6.4l5,8.4l0,0l10.4,17.5c1.8,2.9,5.6,3.9,8.5,2.1
				S148,180.6,146.2,177.6L146.2,177.6"/>
			<path id="パス_1777-3" class="st0" d="M69.8,44.4L55.3,20.7c-1.8-2.9-5.6-3.8-8.5-2.1c-2.9,1.8-3.8,5.6-2.1,8.5l7.6,12.4l0,0
				l6.9,11.3L69.8,44.4z"/>
			<path id="パス_1778-3" class="st0" d="M24.9,96.2H6.2c-3.4,0-6.2,2.8-6.2,6.2c0,3.4,2.8,6.2,6.2,6.2c0,0,0,0,0,0h33.7V96.2
				H24.9z"/>
			<path id="パス_1779-3" class="st0" d="M61.6,151l-6.5,10.1v0l-10.4,16.3c-1.8,2.9-1,6.7,1.9,8.6c2.9,1.8,6.7,1,8.6-1.9l0,0
				l16.9-26.4L61.6,151z"/>
			<path id="パス_1780-3" class="st0" d="M176.9,49.5c-2-2.8-5.9-3.4-8.7-1.4c0,0,0,0,0,0l-0.9,0.7l-23.4,16.9l7.3,10.1l7-5
				c0,0,0.1-0.1,0.2-0.1l17.2-12.4C178.3,56.1,178.9,52.3,176.9,49.5C176.9,49.5,176.9,49.5,176.9,49.5"/>
			<path id="パス_1781-3" class="st0" d="M175.5,146.5l-17.2-12.4c0,0-0.1,0-0.1-0.1l-7-5l-7.3,10.1l23.4,16.9l0.9,0.6
				c2.8,2,6.6,1.5,8.7-1.3c2-2.8,1.5-6.6-1.3-8.7C175.6,146.6,175.5,146.5,175.5,146.5"/>
			<path id="パス_1782-3" class="st1" d="M101.6,62.4L101.6,62.4c-2.1-0.3-4.1-0.5-6.2-0.5h-6.2v65.2l31.5-56.3
				C115.2,66.4,108.6,63.5,101.6,62.4"/>
			<path id="パス_1783-3" class="st0" d="M81.9,95l-59-46.8c-2.7-2.1-6.6-1.7-8.7,1c-2.1,2.7-1.7,6.6,1,8.7l0,0l55.4,43.9
				l-55.5,44.9c-2.7,2.1-3.1,6-1,8.7c2.1,2.7,6,3.1,8.7,1c0,0,0.1,0,0.1-0.1l59-47.7L81.9,95z"/>
		</g>
	</g>
	<path id="パス_4665" class="st2" d="M697.8,1118.2c0.1,6.6-1.1,13.2-3.6,19.4c-2.3,5.3-6.2,9.8-11.2,12.8
		c-5,3.1-11.4,4.6-19.2,4.6s-14.1-1.5-19.1-4.6c-5-3-8.9-7.5-11.2-12.9c-2.6-6.1-3.8-12.7-3.7-19.4c-0.2-6.6,1.1-13.2,3.7-19.3
		c2.3-5.3,6.2-9.8,11.2-12.8c5-3,11.4-4.6,19.2-4.6c7.7,0,14.1,1.5,19.1,4.6c5,3,8.9,7.5,11.2,12.8
		C696.7,1105,697.9,1111.6,697.8,1118.2z M645.7,1118.2c0,7.5,1.4,13.4,4.3,17.7c2.9,4.3,7.5,6.5,13.8,6.5c6.5,0,11.1-2.2,13.9-6.5
		c2.8-4.3,4.2-10.2,4.2-17.7s-1.4-13.3-4.2-17.6c-2.8-4.3-7.4-6.5-13.8-6.5c-6.4,0-11,2.2-13.9,6.5
		C647.1,1104.8,645.7,1110.7,645.7,1118.2z M775.7,1082.6v46.2c0.1,4.7-1,9.2-3.2,13.3c-2.3,4.1-5.7,7.3-9.8,9.4
		c-4.4,2.3-9.9,3.4-16.5,3.4c-9.5,0-16.7-2.4-21.6-7.2s-7.4-11.2-7.4-19.2v-46h15.1v43.7c0,5.9,1.2,10.1,3.6,12.4
		c2.4,2.4,6,3.6,10.7,3.6c4.9,0,8.5-1.3,10.8-3.9s3.4-6.7,3.4-12.2v-43.6H775.7z M819,1082.6c9.7,0,16.9,1.8,21.6,5.3
		c4.6,3.5,6.9,8.9,6.9,16.1c0.1,3-0.6,5.9-1.8,8.6c-1.2,2.4-2.9,4.5-4.9,6.2c-2,1.7-4.2,3.1-6.5,4.2l21,31.1h-16.8l-17-27.4h-8.1
		v27.4h-15.1v-71.4H819z M817.9,1095h-4.6v19.3h4.9c5,0,8.6-0.8,10.8-2.5c2.2-1.7,3.2-4.1,3.2-7.4c0-3.4-1.2-5.8-3.5-7.2
		C826.4,1095.7,822.8,1095,817.9,1095z M923,1082.6c9.2,0,15.9,2,20.2,6c4.2,4,6.3,9.4,6.3,16.3c0,4-0.9,8-2.6,11.7
		c-1.9,3.7-4.9,6.8-8.7,8.7c-4,2.2-9.5,3.3-16.5,3.3h-6.5v25.4h-15.1v-71.4H923z M922.2,1095h-6.9v21.2h5c4.3,0,7.6-0.8,10.1-2.5
		c2.5-1.7,3.8-4.5,3.8-8.2C934.2,1098.5,930.2,1095,922.2,1095z M1032.8,1118.2c0.1,6.6-1.1,13.2-3.7,19.4
		c-2.3,5.3-6.2,9.8-11.2,12.8c-5,3.1-11.4,4.6-19.2,4.6s-14.1-1.5-19.1-4.6c-5-3-8.9-7.5-11.2-12.9c-2.6-6.1-3.8-12.7-3.7-19.4
		c-0.2-6.6,1.1-13.2,3.7-19.3c2.3-5.3,6.2-9.8,11.2-12.8c5-3,11.4-4.6,19.2-4.6c7.7,0,14.1,1.5,19.1,4.6c5,3,8.9,7.5,11.2,12.8
		C1031.7,1105,1032.9,1111.6,1032.8,1118.2z M980.7,1118.2c0,7.5,1.4,13.4,4.3,17.7c2.9,4.3,7.5,6.5,13.8,6.5
		c6.5,0,11.1-2.2,13.9-6.5c2.8-4.3,4.2-10.2,4.2-17.7c0-7.5-1.4-13.3-4.2-17.6c-2.8-4.3-7.4-6.5-13.8-6.5c-6.4,0-11,2.2-13.9,6.5
		C982.1,1104.8,980.7,1110.7,980.7,1118.2L980.7,1118.2z M1052.6,1154v-71.4h15.1v58.9h29v12.5H1052.6z M1140.8,1154h-32.5v-8.6
		l8.7-4v-46.2l-8.7-4v-8.6h32.5v8.6l-8.7,4v46.2l8.7,4V1154z M1188.3,1094.2c-5.8,0-10.2,2.2-13.3,6.5c-3.1,4.3-4.6,10.3-4.6,17.8
		c0,7.6,1.4,13.5,4.2,17.7c2.8,4.2,7.4,6.2,13.7,6.2c2.9,0,5.8-0.3,8.7-1c3.2-0.8,6.4-1.7,9.5-2.8v12.7c-3,1.2-6.1,2.2-9.3,2.8
		c-3.4,0.6-6.8,0.9-10.3,0.9c-7.4,0-13.5-1.5-18.2-4.6c-4.8-3.1-8.4-7.5-10.5-12.8c-2.4-6.1-3.5-12.7-3.4-19.2
		c-0.1-6.6,1.2-13.1,3.9-19.1c2.4-5.3,6.4-9.9,11.3-13c5-3.1,11.1-4.7,18.2-4.7c3.6,0,7.2,0.5,10.7,1.3c3.5,0.9,7,2.1,10.2,3.7
		l-4.9,12.3c-2.6-1.2-5.3-2.3-8.1-3.3C1193.7,1094.7,1191,1094.2,1188.3,1094.2z M1248.9,1112l14.9-29.4h16.3l-23.7,43.6v27.8h-15
		v-27.3l-23.7-44.1h16.4L1248.9,1112z"/>
</g>
</svg>
