<svg xmlns="http://www.w3.org/2000/svg" xmlns:xlink="http://www.w3.org/1999/xlink" width="320" height="295" viewBox="0 0 320 295">
  <defs>
    <clipPath id="clip-path">
      <rect id="長方形_631" data-name="長方形 631" width="320" height="295" transform="translate(0 645)" fill="none"/>
    </clipPath>
  </defs>
  <g id="マスクグループ_32" data-name="マスクグループ 32" transform="translate(0 -645)" clip-path="url(#clip-path)">
    <g id="グループ_2363" data-name="グループ 2363">
      <g id="グループ_2353" data-name="グループ 2353">
        <g id="グループ_2350" data-name="グループ 2350">
          <path id="パス_1772" data-name="パス 1772" d="M555.943,187.676a32.577,32.577,0,0,0-27.555-32.184h-.01a32.82,32.82,0,0,0-5-.383h-5v113.11a5.007,5.007,0,1,0,10.014,0V219.86a32.576,32.576,0,0,0,27.555-32.183" transform="translate(-354.504 546.096)" fill="#dbdbdb"/>
          <path id="パス_1773" data-name="パス 1773" d="M523.383,105.88a5.007,5.007,0,0,0-5.008,5.007V138.7H528.39V110.887a5.006,5.006,0,0,0-5.007-5.007" transform="translate(-354.504 545.41)" fill="#dbdbdb"/>
          <path id="パス_1774" data-name="パス 1774" d="M562.229,120.651a5.009,5.009,0,0,0-6.865,1.725v0h0l-.138.231-12.265,20.481,8.591,5.145,3.534-5.9c.034-.053.073-.1.105-.153l8.766-14.663a5.006,5.006,0,0,0-1.727-6.866" transform="translate(-354.162 545.606)" fill="#dbdbdb"/>
          <path id="パス_1775" data-name="パス 1775" d="M595.669,182.291H568.5V192.3h27.173a5.007,5.007,0,0,0,0-10.014" transform="translate(-353.807 546.474)" fill="#dbdbdb"/>
          <path id="パス_1776" data-name="パス 1776" d="M563.959,247.333,551.486,226.46l-8.6,5.137,4.064,6.8v0l8.406,14.068a5.008,5.008,0,0,0,8.6-5.137" transform="translate(-354.163 547.09)" fill="#dbdbdb"/>
          <path id="パス_1777" data-name="パス 1777" d="M503.248,141.436l-11.711-19.1A5.007,5.007,0,1,0,483,127.565l6.134,10.008h0l5.576,9.095Z" transform="translate(-355.008 545.606)" fill="#dbdbdb"/>
          <path id="パス_1778" data-name="パス 1778" d="M467.551,182.291H452.5a5.007,5.007,0,1,0,0,10.014h27.172V182.291Z" transform="translate(-355.492 546.474)" fill="#dbdbdb"/>
          <path id="パス_1779" data-name="パス 1779" d="M496.654,225.9l-5.222,8.178,0,.005-8.382,13.128a5.007,5.007,0,1,0,8.441,5.389l13.607-21.312Z" transform="translate(-355.008 547.082)" fill="#dbdbdb"/>
          <path id="パス_1780" data-name="パス 1780" d="M588.411,145.229a5.006,5.006,0,0,0-6.99-1.13l-.726.525-18.856,13.591,5.854,8.124,5.611-4.045c.041-.027.085-.048.127-.077l13.852-10a5.006,5.006,0,0,0,1.129-6.99" transform="translate(-353.898 545.929)" fill="#dbdbdb"/>
          <path id="パス_1781" data-name="パス 1781" d="M587.283,222.5l-13.852-10c-.032-.023-.069-.036-.1-.059l-5.635-4.062-5.855,8.124L580.7,230.1l.726.524a5.008,5.008,0,0,0,5.862-8.121" transform="translate(-353.898 546.838)" fill="#dbdbdb"/>
          <path id="パス_1782" data-name="パス 1782" d="M528.39,155.493h-.011a32.7,32.7,0,0,0-5-.383h-5v52.535l25.382-45.362a32.412,32.412,0,0,0-15.368-6.787" transform="translate(-354.504 546.096)" fill="#c9c9c9"/>
          <path id="パス_1783" data-name="パス 1783" d="M513.31,181.931l-47.56-37.7a5.006,5.006,0,1,0-6.219,7.847l44.653,35.394-44.692,36.159a5.007,5.007,0,1,0,6.3,7.785l47.521-38.446Z" transform="translate(-355.351 545.929)" fill="#dbdbdb"/>
        </g>
        <g id="グループ_2352" data-name="グループ 2352">
          <path id="パス_1772-2" data-name="パス 1772" d="M541.87,175.476a20.373,20.373,0,0,0-17.233-20.128h-.006a20.527,20.527,0,0,0-3.129-.24h-3.127v70.738a3.131,3.131,0,1,0,6.262,0V195.6a20.373,20.373,0,0,0,17.233-20.127" transform="translate(-314.823 710.022)" fill="#dbdbdb"/>
          <path id="パス_1773-2" data-name="パス 1773" d="M521.507,105.88a3.132,3.132,0,0,0-3.132,3.131v17.394h6.263V109.011a3.131,3.131,0,0,0-3.131-3.131" transform="translate(-314.823 728.034)" fill="#dbdbdb"/>
          <path id="パス_1774-2" data-name="パス 1774" d="M555.01,120.385a3.133,3.133,0,0,0-4.294,1.079h0l-.086.145-7.67,12.809,5.373,3.217,2.21-3.691c.022-.033.046-.062.066-.1l5.483-9.17a3.131,3.131,0,0,0-1.08-4.294" transform="translate(-323.818 722.889)" fill="#dbdbdb"/>
          <path id="パス_1775-2" data-name="パス 1775" d="M585.489,182.291H568.5v6.262h16.994a3.131,3.131,0,1,0,0-6.262" transform="translate(-333.162 700.076)" fill="#dbdbdb"/>
          <path id="パス_1776-2" data-name="パス 1776" d="M556.066,239.514l-7.8-13.054-5.376,3.212,2.542,4.254h0l5.257,8.8a3.132,3.132,0,0,0,5.377-3.212" transform="translate(-323.793 683.915)" fill="#dbdbdb"/>
          <path id="パス_1777-2" data-name="パス 1777" d="M495.385,133.384l-7.324-11.948a3.131,3.131,0,1,0-5.34,3.273l3.836,6.259h0l3.487,5.688Z" transform="translate(-301.609 722.889)" fill="#dbdbdb"/>
          <path id="パス_1778-2" data-name="パス 1778" d="M460.037,182.291h-9.413a3.131,3.131,0,1,0,0,6.262h16.993v-6.262Z" transform="translate(-288.888 700.076)" fill="#dbdbdb"/>
          <path id="パス_1779-2" data-name="パス 1779" d="M491.262,225.9,488,231.017l0,0-5.242,8.21a3.132,3.132,0,0,0,5.279,3.37l8.51-13.328Z" transform="translate(-301.609 684.119)" fill="#dbdbdb"/>
          <path id="パス_1780-2" data-name="パス 1780" d="M578.457,144.451a3.131,3.131,0,0,0-4.371-.706l-.454.328-11.792,8.5,3.661,5.08,3.509-2.529c.025-.017.053-.03.079-.048l8.663-6.253a3.131,3.131,0,0,0,.706-4.372" transform="translate(-330.727 714.396)" fill="#dbdbdb"/>
          <path id="パス_1781-2" data-name="パス 1781" d="M577.751,217.212l-8.663-6.253c-.02-.015-.043-.023-.063-.037l-3.524-2.54-3.662,5.08,11.793,8.5.454.328a3.132,3.132,0,1,0,3.666-5.079" transform="translate(-330.727 690.529)" fill="#dbdbdb"/>
          <path id="パス_1782-2" data-name="パス 1782" d="M524.639,155.349h-.007a20.455,20.455,0,0,0-3.129-.24h-3.127v32.855l15.874-28.369a20.27,20.27,0,0,0-9.611-4.245" transform="translate(-314.824 710.022)" fill="#c9c9c9"/>
          <path id="パス_1783-2" data-name="パス 1783" d="M492.454,167.4,462.71,143.829a3.131,3.131,0,1,0-3.89,4.907l27.926,22.135L458.8,193.485a3.131,3.131,0,1,0,3.938,4.869l29.719-24.044Z" transform="translate(-292.599 714.396)" fill="#dbdbdb"/>
        </g>
        <g id="グループ_2351" data-name="グループ 2351">
          <path id="パス_1772-3" data-name="パス 1772" d="M536.614,170.92a15.816,15.816,0,0,0-13.378-15.625h0a15.944,15.944,0,0,0-2.429-.186h-2.427v54.915a2.431,2.431,0,1,0,4.862,0V186.545a15.816,15.816,0,0,0,13.378-15.625" transform="translate(-231.014 637.966)" fill="#dbdbdb"/>
          <path id="パス_1773-3" data-name="パス 1773" d="M520.806,105.88a2.431,2.431,0,0,0-2.431,2.431v13.5h4.862v-13.5a2.431,2.431,0,0,0-2.431-2.431" transform="translate(-231.014 662.961)" fill="#dbdbdb"/>
          <path id="パス_1774-3" data-name="パス 1774" d="M552.315,120.286a2.432,2.432,0,0,0-3.333.837h0l-.067.112-5.955,9.944,4.171,2.5,1.715-2.865c.017-.026.036-.048.051-.074l4.256-7.119a2.43,2.43,0,0,0-.838-3.334" transform="translate(-243.495 655.821)" fill="#dbdbdb"/>
          <path id="パス_1775-3" data-name="パス 1775" d="M581.688,182.291H568.5v4.862h13.193a2.431,2.431,0,0,0,0-4.862" transform="translate(-256.461 624.164)" fill="#dbdbdb"/>
          <path id="パス_1776-3" data-name="パス 1776" d="M553.119,236.594l-6.055-10.134-4.173,2.494,1.973,3.3h0l4.081,6.83a2.431,2.431,0,0,0,4.174-2.494" transform="translate(-243.461 601.738)" fill="#dbdbdb"/>
          <path id="パス_1777-3" data-name="パス 1777" d="M492.449,130.377l-5.686-9.275a2.431,2.431,0,0,0-4.145,2.541L485.6,128.5h0l2.707,4.416Z" transform="translate(-212.676 655.822)" fill="#dbdbdb"/>
          <path id="パス_1778-3" data-name="パス 1778" d="M457.231,182.291h-7.308a2.431,2.431,0,1,0,0,4.862h13.192v-4.862Z" transform="translate(-195.023 624.164)" fill="#dbdbdb"/>
          <path id="パス_1779-3" data-name="パス 1779" d="M489.248,225.9l-2.535,3.971v0l-4.07,6.374a2.431,2.431,0,1,0,4.1,2.616l6.606-10.347Z" transform="translate(-212.677 602.021)" fill="#dbdbdb"/>
          <path id="パス_1780-3" data-name="パス 1780" d="M574.74,144.16a2.43,2.43,0,0,0-3.394-.548l-.353.255-9.155,6.6,2.842,3.944,2.724-1.964c.02-.013.041-.023.062-.037l6.725-4.854a2.43,2.43,0,0,0,.548-3.394" transform="translate(-253.081 644.036)" fill="#dbdbdb"/>
          <path id="パス_1781-3" data-name="パス 1781" d="M574.191,215.237l-6.725-4.854c-.016-.011-.034-.018-.049-.029l-2.736-1.972-2.843,3.944,9.155,6.6.353.254a2.431,2.431,0,0,0,2.846-3.943" transform="translate(-253.081 610.917)" fill="#dbdbdb"/>
          <path id="パス_1782-3" data-name="パス 1782" d="M523.238,155.3h-.005a15.874,15.874,0,0,0-2.429-.186h-2.427v25.506L530.7,158.59a15.737,15.737,0,0,0-7.461-3.3" transform="translate(-231.014 637.966)" fill="#c9c9c9"/>
          <path id="パス_1783-3" data-name="パス 1783" d="M484.665,161.979l-23.09-18.3a2.431,2.431,0,1,0-3.02,3.81l21.679,17.184-21.7,17.555a2.431,2.431,0,1,0,3.058,3.78l23.071-18.666Z" transform="translate(-200.173 644.036)" fill="#dbdbdb"/>
        </g>
      </g>
      <text id="OUR_POLICY" data-name="OUR POLICY" transform="translate(-1 697)" fill="#fdfdfd" font-size="49" font-family="NotoSans-Bold, Noto Sans" font-weight="700" letter-spacing="0.05em"><tspan x="0" y="0">OUR POLICY</tspan></text>
    </g>
  </g>
</svg>
