<?xml version="1.0" encoding="utf-8"?>
<!-- Generator: Adobe Illustrator 26.3.1, SVG Export Plug-In . SVG Version: 6.00 Build 0)  -->
<svg version="1.1" id="レイヤー_1" xmlns="http://www.w3.org/2000/svg" xmlns:xlink="http://www.w3.org/1999/xlink" x="0px"
	 y="0px" viewBox="0 0 17 232" style="enable-background:new 0 0 17 232;" xml:space="preserve">
<style type="text/css">
	.st0{enable-background:new    ;}
	.st1{fill:#5F5E5E;}
	.st2{fill:#707070;}
</style>
<g id="グループ_918" transform="translate(-43 -568)">
	<g class="st0">
		<path class="st1" d="M49.3,574.4c-0.8,0-1.4-0.3-1.8-0.8c-0.4-0.6-0.6-1.3-0.6-2.2c0-0.5,0-0.9,0.1-1.3c0.1-0.4,0.2-0.7,0.3-1h1
			c-0.1,0.3-0.2,0.6-0.3,1.1c-0.1,0.4-0.2,0.9-0.2,1.3c0,0.6,0.1,1.1,0.4,1.4c0.2,0.3,0.6,0.5,1,0.5c0.3,0,0.5-0.1,0.7-0.2
			c0.2-0.1,0.4-0.3,0.5-0.6c0.2-0.3,0.3-0.7,0.5-1.2c0.3-0.7,0.6-1.3,1-1.7c0.4-0.4,0.9-0.6,1.6-0.6c0.4,0,0.8,0.1,1.2,0.3
			s0.6,0.6,0.8,1c0.2,0.4,0.3,0.9,0.3,1.4c0,0.5,0,0.9-0.1,1.3c-0.1,0.4-0.2,0.8-0.3,1.1l-0.9-0.3c0.1-0.3,0.2-0.6,0.3-1
			c0.1-0.4,0.1-0.7,0.1-1.1c0-0.5-0.1-0.9-0.3-1.2c-0.2-0.3-0.5-0.4-0.9-0.4c-0.3,0-0.5,0.1-0.7,0.2c-0.2,0.1-0.4,0.3-0.5,0.6
			s-0.3,0.6-0.5,1.1c-0.2,0.5-0.4,0.9-0.6,1.3s-0.5,0.6-0.8,0.8C50.1,574.3,49.7,574.4,49.3,574.4z"/>
		<path class="st1" d="M54.7,580.2c0-0.9-0.3-1.6-0.9-2.2c-0.6-0.5-1.5-0.8-2.5-0.8c-1.1,0-1.9,0.2-2.5,0.7
			c-0.6,0.5-0.9,1.2-0.9,2.2c0,0.4,0,0.7,0.1,1.1c0.1,0.3,0.1,0.7,0.2,1h-0.9c-0.1-0.3-0.2-0.6-0.3-1c-0.1-0.3-0.1-0.7-0.1-1.2
			c0-0.9,0.2-1.6,0.5-2.2s0.9-1,1.5-1.3s1.4-0.4,2.3-0.4c0.9,0,1.6,0.2,2.3,0.5c0.7,0.3,1.2,0.8,1.5,1.4c0.4,0.6,0.6,1.4,0.6,2.2
			c0,0.9-0.2,1.7-0.5,2.4l-0.9-0.4c0.1-0.3,0.2-0.6,0.3-0.9C54.7,580.9,54.7,580.6,54.7,580.2z"/>
		<path class="st1" d="M55.6,586.8c0,1.1-0.2,1.9-0.6,2.4c-0.4,0.5-1,0.8-1.8,0.8c-0.5,0-0.8-0.1-1.1-0.3c-0.3-0.2-0.5-0.4-0.7-0.6
			c-0.2-0.3-0.3-0.5-0.4-0.8l-3.8,2.4v-1.3l3.5-2.1v-1.7H47v-1.1h8.6V586.8z M54.6,586.7v-1.2h-3.2v1.3c0,0.7,0.1,1.2,0.4,1.5
			c0.3,0.3,0.7,0.5,1.2,0.5c0.6,0,1-0.2,1.2-0.5C54.5,588,54.6,587.4,54.6,586.7z"/>
		<path class="st1" d="M51.3,599.7c-0.9,0-1.7-0.1-2.3-0.5c-0.7-0.3-1.2-0.7-1.5-1.3s-0.6-1.3-0.6-2.2c0-0.9,0.2-1.6,0.6-2.2
			s0.9-1,1.5-1.3c0.7-0.3,1.4-0.4,2.3-0.4c0.9,0,1.6,0.1,2.3,0.4c0.7,0.3,1.2,0.7,1.5,1.3c0.4,0.6,0.6,1.3,0.6,2.2
			c0,0.9-0.2,1.6-0.5,2.2c-0.4,0.6-0.9,1-1.5,1.3C53,599.6,52.2,599.7,51.3,599.7z M51.3,593c-1.1,0-1.9,0.2-2.5,0.7
			s-0.9,1.2-0.9,2.1s0.3,1.7,0.9,2.1c0.6,0.5,1.5,0.7,2.5,0.7s1.9-0.2,2.5-0.7c0.6-0.4,0.9-1.2,0.9-2.1c0-1-0.3-1.7-0.9-2.1
			S52.4,593,51.3,593z"/>
		<path class="st1" d="M47,602h8.6v1.1H48v3.7h-1V602z"/>
		<path class="st1" d="M47,608.6h8.6v1.1H48v3.7h-1V608.6z"/>
		<path class="st1" d="M51.4,625.6c-1.4,0-2.5-0.4-3.3-1.2c-0.7-0.8-1.1-1.9-1.1-3.3v-2.4h8.6v2.6c0,0.9-0.2,1.6-0.5,2.2
			c-0.3,0.6-0.8,1.1-1.4,1.5S52.3,625.6,51.4,625.6z M51.3,624.4c1.1,0,2-0.3,2.5-0.8s0.8-1.4,0.8-2.4v-1.4h-6.7v1.2
			C47.9,623.3,49.1,624.4,51.3,624.4z"/>
		<path class="st1" d="M51.3,635.3c-0.9,0-1.7-0.1-2.3-0.4c-0.7-0.3-1.2-0.7-1.5-1.3c-0.4-0.6-0.6-1.3-0.6-2.2
			c0-0.9,0.2-1.6,0.6-2.2c0.4-0.6,0.9-1,1.5-1.3c0.7-0.3,1.4-0.4,2.3-0.4c0.9,0,1.6,0.1,2.3,0.4c0.7,0.3,1.2,0.7,1.5,1.3
			c0.4,0.6,0.6,1.3,0.6,2.2c0,0.9-0.2,1.6-0.5,2.2c-0.4,0.6-0.9,1-1.5,1.3C53,635.1,52.2,635.3,51.3,635.3z M51.3,628.5
			c-1.1,0-1.9,0.2-2.5,0.7s-0.9,1.2-0.9,2.1c0,1,0.3,1.7,0.9,2.1c0.6,0.5,1.5,0.7,2.5,0.7s1.9-0.2,2.5-0.7s0.9-1.2,0.9-2.1
			c0-1-0.3-1.7-0.9-2.1S52.4,628.5,51.3,628.5z"/>
		<path class="st1" d="M55.6,647.3L47,645v-1.1l5.6-1.7c0.2-0.1,0.5-0.1,0.7-0.2c0.2-0.1,0.4-0.1,0.6-0.2c0.2,0,0.3-0.1,0.4-0.1
			c-0.1,0-0.3-0.1-0.7-0.1c-0.3-0.1-0.7-0.2-1.1-0.3l-5.6-1.6v-1.1l8.6-2.3v1.1l-5.2,1.3c-0.4,0.1-0.7,0.2-1.1,0.2
			c-0.3,0.1-0.7,0.1-1,0.2c0.3,0,0.7,0.1,1,0.2c0.4,0.1,0.7,0.2,1.1,0.3l5.2,1.5v1.1l-5.2,1.6c-0.4,0.1-0.7,0.2-1.1,0.3
			s-0.7,0.1-1,0.2c0.3,0,0.6,0.1,1,0.2c0.3,0.1,0.7,0.2,1.1,0.3l5.2,1.3V647.3z"/>
		<path class="st1" d="M47,655.7v-1.3l7.1-4.6v0c-0.3,0-0.6,0-1,0.1s-0.8,0-1.3,0H47v-1h8.6v1.2l-7.1,4.6v0c0.1,0,0.3,0,0.6,0
			s0.5,0,0.8,0s0.6,0,0.8,0h4.8v1H47z"/>
	</g>
	<path id="線_221" class="st2" d="M52,799.5h-1v-112h1V799.5z"/>
</g>
</svg>
