<?xml version="1.0" encoding="utf-8"?>
<!-- Generator: Adobe Illustrator 26.3.1, SVG Export Plug-In . SVG Version: 6.00 Build 0)  -->
<svg version="1.1" id="レイヤー_1" xmlns="http://www.w3.org/2000/svg" xmlns:xlink="http://www.w3.org/1999/xlink" x="0px"
	 y="0px" viewBox="0 0 261 206" style="enable-background:new 0 0 261 206;" xml:space="preserve">
<style type="text/css">
	.st0{fill:#FFFFFF;}
	.st1{font-family:'NotoSans-Bold';}
	.st2{font-size:7px;}
	.st3{letter-spacing:1;}
</style>
<g id="グループ_2362" transform="translate(-33 -82)">
	<g id="グループ_2237" transform="translate(11203.4 -1280)">
		<path id="線_287" class="st0" d="M-10910.4,1567.3h-260v-3h260V1567.3z"/>
		<text transform="matrix(1 0 0 1 -11166.9512 1481)" class="st0 st1 st2 st3">RECYCLE SERVICE</text>
		<g id="グループ_2235" transform="translate(-11166.951 1498.236)">
			<path id="パス_2980" class="st0" d="M19.8,11.1c0.9,0,1.7-0.1,2.6-0.1c0.7,0,0.8,0.3,0.8,1.1v1.2c0,0.8-0.1,1.2-0.8,1.2
				c-0.8,0-1.6-0.1-2.5-0.1c-0.3,0-0.7,0-0.7,0.4c0.3,0.8,0.7,1.5,1.2,2.1c0.9,1.3,1.9,2.5,3,3.6c0.1,0.1,0.3,0.3,0.3,0.5
				c-0.5,1.1-1.4,2-2.5,2.6c-0.6,0-2.5-2.6-2.8-3.1c-0.5-0.8-0.9-1.5-1.4-2.3c-0.2-0.3-0.3-0.5-0.4-0.5c-0.2,0-0.4,0.3-0.4,0.4
				c-1,2-2.4,3.8-4,5.4c-0.1,0.1-0.3,0.2-0.4,0.2c-0.6,0-2-1.3-2.4-1.8c-0.1-0.2-0.3-0.5-0.5-0.5c-0.1,0-1,0.3-1.2,0.3
				c-1.5,0.4-3.3,0.8-4.8,1c-0.8,0.1-0.8,0.2-1,0.5c-0.1,0.2-0.2,0.3-0.4,0.4c-0.3,0-0.5-0.6-0.8-1.6c-0.1-0.3-0.3-0.7-0.4-1.2
				C0.1,20.5,0.1,20.2,0,20c0-0.3,0.2-0.3,2.7-0.6c0.4-0.1,0.9-0.2,0.9-0.7v-4c0-0.4-0.3-0.7-0.7-0.7c-0.7,0-1.3,0.1-2,0.1
				c-0.5,0-0.6-0.2-0.6-0.9v-1.2C0.4,11.2,0.5,11,1,11c0.7,0,1.4,0.1,2.1,0.1c0.3,0,0.6-0.2,0.6-0.5c0,0,0-0.1,0-0.1
				c0-0.4-0.1-0.6-0.5-0.6s-0.8,0-1.2,0c-0.6,0-0.5-0.3-0.6-0.8C1.4,8.8,1.2,8.4,0.9,8.2C0.7,8,0,7.2,0,6.8c0-0.2,0.3-0.4,0.6-0.7
				c1.7-1.6,3.1-3.6,3.9-5.7C4.6,0.2,4.7,0,4.9,0C5,0,6.1,0.5,7,0.8c0.4,0.2,0.8,0.3,0.9,0.3c0.2,0.1,0.4,0.2,0.4,0.4
				c0,0.1-0.1,0.3-0.2,0.3C8,1.9,7.9,2,7.9,2.1C7.9,2.2,8,2.2,8,2.3c0.1,0.1,0.3,0.3,0.4,0.4C9.1,3.4,9.8,4,10.7,4.5
				c0.3,0,0.3-0.3,0.4-0.9c0.1-0.3,0.2-1.4,0.2-1.6c0-0.2,0-0.6,0.3-0.6C12.4,1.6,13.2,1.7,14,2c0.2,0,0.3,0.1,0.5,0.1
				c0.2,0,0.3-0.2,0.3-0.4c0-0.3-0.1-0.7-0.1-0.9c0-0.4,0.2-0.5,0.6-0.5s2.9,0.2,3.1,0.2c0.2,0.1,0.4,0.1,0.4,0.4
				c0,0.2-0.1,0.3-0.3,0.3c-0.3,0.2-0.4,0.4-0.4,0.7v2c0,0.4,0.3,0.7,0.7,0.7c0,0,0,0,0,0h1.2c0.8,0,1.6-0.1,2-0.1
				c0.4,0,0.5,0.3,0.5,0.9v1.7c0,0.6-0.1,0.9-0.5,0.9c-0.5,0-1.2-0.1-2-0.1H19c-0.4,0-0.7,0.4-0.7,0.8c0,0,0,0,0,0.1v0.3
				c0,0.4,0,0.9,0,1.2c0,0.4,0.3,0.8,0.7,0.8c0,0,0,0,0,0L19.8,11.1z M3.2,16c0.1,0.4,0.4,1.8,0.4,2.1c0,0.7-1.9,1-2.1,1
				c-0.4,0-0.4-0.3-0.5-0.6c-0.2-1-0.4-2.1-0.8-3.1c0-0.1-0.1-0.2-0.1-0.3c0-0.5,2.1-0.8,2.2-0.8C2.7,14.3,2.8,14.4,3.2,16L3.2,16z
				 M7.2,6.9c0.4,0,0.6,0,0.6-0.3c0-0.2-0.2-0.4-0.4-0.5C7.2,5.9,6.7,5.3,6.5,5.1C6.4,5,6.3,4.8,6.1,4.8S5.8,5.1,5.7,5.2
				C5.5,5.5,5.1,6,4.9,6.2C4.8,6.3,4.7,6.4,4.7,6.6c0,0.3,0.5,0.3,0.7,0.3L7.2,6.9z M7.1,10.6c0,0.3,0.2,0.5,0.5,0.5c0,0,0,0,0,0
				c0.6,0,1.1-0.1,1.7-0.1c0.5,0,0.6,0.2,0.6,0.9v1.2c0,0.6-0.1,0.9-0.5,0.9s-1-0.1-1.5-0.1c-0.4,0-0.7,0.3-0.7,0.7v3.4
				c0,0.3,0.3,0.5,0.6,0.5c0,0,0,0,0,0c0,0,0.8-0.1,0.8-0.3c0-0.1-0.4-0.2-0.5-0.3c-0.5-0.2-0.8-0.3-0.8-0.6c0-0.1,0-0.2,0.1-0.3
				c0.3-0.8,0.5-1.7,0.7-2.6c0.1-0.2,0.1-0.4,0.3-0.4c0.5,0.1,1.1,0.3,1.6,0.5c1,0.4,1.3,0.4,1.3,0.7c0,0.2-0.2,0.3-0.3,0.4
				c-0.3,0.1-0.3,0.2-0.5,0.9c-0.1,0.4-0.2,0.7-0.4,1c-0.1,0.2-0.1,0.3-0.1,0.5c0,0.1,0,0.2,0.1,0.3c0.1,0.4,0.1,0.8,0.1,1.2v0.3
				c0,0.2,0.1,0.3,0.3,0.3c0.6,0,3.5-4.6,3.5-5.4c0-0.3-0.4-0.4-0.6-0.4c-0.6,0-1.2,0.1-1.8,0.1c-0.8,0-0.8-0.3-0.8-1.3v-0.8
				c0-0.9,0.1-1.1,0.3-1.2c0.1,0,0.1-0.1,0.1-0.2c0-0.2-0.2-0.2-0.3-0.3c-0.3-0.1-1.2-0.5-1.2-0.8c0-0.2,0.1-0.3,0.2-0.5
				c0.4-1,0.7-2.1,0.9-3.2c0-0.1,0-0.1,0-0.2c0-0.1-0.1-0.1-0.2-0.1c-0.1,0-0.1,0.1-0.2,0.1c-0.1,0.1-0.2,0.3-0.3,0.4
				C9.6,6.8,9.4,6.9,9.4,7.3c0,0.1,0,0.4,0,0.7v1.2c0,0.5-0.1,0.7-0.6,0.7c-0.4,0-0.8,0-1.3,0c-0.3,0-0.5,0.2-0.5,0.5L7.1,10.6z
				 M13.8,8.1c-0.4,0-0.6,0.3-0.7,0.6c-0.2,0.6-0.4,1.2-0.7,1.8c0,0.1-0.1,0.2-0.1,0.4c0,0.2,0.2,0.3,0.4,0.3c0.4,0,0.7,0,1.1,0
				c0.8,0,0.9-0.3,0.9-2.3c0-0.4-0.3-0.7-0.7-0.7c0,0,0,0,0,0L13.8,8.1z M14.5,4.7c0.2,0,0.3-0.1,0.3-0.3V3.2c0-0.1-0.1-0.2-0.2-0.2
				c-0.3,0-0.4,0.5-0.5,1c0,0.1,0,0.3-0.1,0.4v0.1C14.1,4.6,14.2,4.7,14.5,4.7L14.5,4.7z"/>
			<path id="パス_2981" class="st0" d="M35,11.7c0.1,2-1.4,3.7-3.4,3.9c-0.1,0-0.3,0-0.4,0c-1.8,0.1-3.3-1.3-3.4-3.1
				c0-0.1,0-0.2,0-0.2c-0.1-2,1.4-3.7,3.4-3.8c0.1,0,0.3,0,0.4,0c1.8-0.1,3.3,1.2,3.4,3C35,11.6,35,11.6,35,11.7z"/>
			<path id="パス_2982" class="st0" d="M43.9,7.4c-1,0-2,0.1-3,0.1c-0.6,0-0.6-0.3-0.6-1.2V5c0-0.9,0.1-1.2,0.7-1.2
				c1,0,2,0.1,3,0.1h1.6c0.6,0,0.7-0.7,0.7-1.4c0-0.6-0.1-1.3-0.1-1.7c0-0.4,0.3-0.5,0.6-0.5s3.1,0.2,3.5,0.2c0.2,0,0.5,0.1,0.5,0.4
				c0,0.2-0.2,0.3-0.3,0.3C50,1.5,50,1.6,50,2.4v7.3c0,1-0.1,2.4-0.1,2.7c0,0.6,0.2,0.6,0.5,0.8c0.5,0.2,0.6,2.1,0.6,2.6
				s-0.1,0.5-0.7,0.6c-1.1,0.2-1.3,0.7-1.8,1.8c-0.9,1.6-2.1,2.9-3.5,3.9c-0.7,0.5-1.5,0.9-2.4,1.2c-0.9,0-2.1-1.8-2.1-2.4
				c0-0.3,0.4-0.5,0.6-0.6c1-0.4,3.2-1.8,3.2-2.4c0-0.2-0.2-0.2-0.4-0.2c-0.2,0-2.3,0.4-2.5,0.4c-0.2,0.1-0.3,0.2-0.4,0.3
				C41.1,18.7,41,19,40.8,19s-0.4-0.2-0.5-0.6c-0.3-1.1-0.5-2.1-0.7-3.2c0-0.4,0.2-0.5,0.7-0.5c1.2-0.1,3-0.3,4.2-0.5
				c0.6-0.1,1.6-0.1,1.6-0.9c0-0.3-0.2-0.6-0.5-0.6c-0.1,0-0.1,0-0.2,0h-1.2c-0.9,0-1.9,0.1-2.8,0.1c-0.6,0-0.6-0.3-0.6-1.1v-1.3
				c0-0.9,0.1-1.2,0.6-1.2c0.9,0,1.9,0.1,2.8,0.1h1.3c0.4,0,0.7-0.3,0.7-0.7c0,0,0,0,0,0V8.1c0-0.4-0.3-0.7-0.7-0.7c0,0,0,0,0,0
				L43.9,7.4z M52,2.4c0-0.4-0.1-1.4-0.1-1.6c0-0.3,0.3-0.4,0.5-0.4c0.9,0,2.2,0.1,3.1,0.1c0.3,0,0.7,0,0.7,0.4
				c0,0.2-0.1,0.2-0.3,0.4c-0.2,0.2-0.2,0.7-0.2,1.2v0.7c0,0.5,0.2,0.8,0.7,0.8h2c1,0,2-0.1,3-0.1c0.6,0,0.7,0.2,0.7,0.9v1.5
				c0,0.8-0.1,1-0.6,1c-1,0-2-0.1-3-0.1h-2c-0.4,0-0.7,0.3-0.7,0.7c0,0,0,0,0,0v0.7c0,0.4,0.3,0.7,0.7,0.7c0,0,0,0,0,0h1.2
				c1,0,2.1-0.1,3.2-0.1c0.6,0,0.7,0.3,0.7,1.1V12c0,0.8-0.1,1.1-0.7,1.1c-1.1,0-2.1-0.1-3.2-0.1h-1.2c-0.4,0-0.7,0.3-0.7,0.7
				c0,0,0,0,0,0v0.7c0,0.4,0.3,0.7,0.7,0.7c0,0,0,0,0,0h2.4c1,0,2-0.1,3-0.1c0.6,0,0.6,0.3,0.6,1.1v1.2c0,0.8-0.1,1.1-0.6,1.1
				c-1,0-2-0.1-3-0.1h-2.4c-0.7,0-0.7,0.7-0.7,1.2V20c0,1,0.1,1.9,0.1,2.9c0,0.7-0.3,0.7-1.2,0.7H53c-0.8,0-1.1-0.1-1.1-0.7
				c0-1.2,0.1-2.4,0.1-3.5L52,2.4z"/>
			<path id="パス_2983" class="st0" d="M86.5,11.1c0.9,0,1.7-0.1,2.6-0.1c0.7,0,0.8,0.3,0.8,1.1v1.2c0,0.8-0.1,1.2-0.8,1.2
				c-0.8,0-1.6-0.1-2.5-0.1c-0.3,0-0.7,0-0.7,0.4c0.3,0.8,0.7,1.5,1.2,2.1c0.9,1.3,1.9,2.5,3,3.6c0.1,0.1,0.3,0.3,0.3,0.5
				c-0.5,1.1-1.4,2-2.5,2.6c-0.6,0-2.5-2.6-2.8-3.1c-0.5-0.8-0.9-1.5-1.4-2.3c-0.2-0.3-0.3-0.5-0.4-0.5c-0.2,0-0.4,0.3-0.4,0.4
				c-1,2-2.4,3.8-4,5.4c-0.1,0.1-0.3,0.2-0.4,0.2c-0.6,0-2-1.3-2.4-1.8c-0.1-0.2-0.3-0.5-0.5-0.5c-0.1,0-1,0.3-1.2,0.3
				c-1.5,0.4-3.3,0.8-4.8,1c-0.8,0.1-0.8,0.2-1,0.5c-0.1,0.2-0.2,0.3-0.4,0.4c-0.3,0-0.5-0.6-0.8-1.6c-0.1-0.3-0.3-0.7-0.4-1.2
				c-0.1-0.2-0.2-0.5-0.2-0.7c0-0.3,0.2-0.3,2.7-0.6c0.4-0.1,0.9-0.2,0.9-0.7v-4c0-0.4-0.3-0.7-0.7-0.7c-0.7,0-1.3,0.1-2,0.1
				c-0.5,0-0.6-0.2-0.6-0.9v-1.2c0-0.7,0.1-0.9,0.6-0.9c0.7,0,1.4,0.1,2.1,0.1c0.3,0,0.6-0.2,0.6-0.5c0,0,0-0.1,0-0.1
				c0-0.4-0.1-0.6-0.5-0.6s-0.8,0-1.2,0c-0.6,0-0.5-0.3-0.6-0.8c-0.1-0.4-0.3-0.7-0.6-0.9c-0.3-0.3-0.9-1-0.9-1.4
				c0-0.2,0.3-0.4,0.6-0.7c1.7-1.6,3.1-3.6,3.9-5.7C71.2,0.2,71.3,0,71.5,0c0.1,0,1.3,0.4,2.1,0.8c0.4,0.2,0.8,0.3,0.9,0.3
				C74.8,1.2,75,1.3,75,1.6c0,0.1-0.1,0.3-0.2,0.3c-0.1,0-0.2,0.1-0.2,0.2c0,0.1,0.1,0.2,0.1,0.2C74.7,2.3,75,2.6,75,2.7
				c0.7,0.7,1.5,1.3,2.3,1.8c0.3,0,0.3-0.3,0.4-0.9C77.8,3.3,77.9,2.3,78,2c0-0.2,0-0.6,0.3-0.6c0.8,0.1,1.6,0.3,2.4,0.6
				c0.2,0,0.3,0.1,0.5,0.1c0.2,0,0.3-0.2,0.3-0.4c0-0.3-0.1-0.7-0.1-0.9c0-0.4,0.2-0.5,0.6-0.5s2.9,0.2,3.1,0.2
				c0.2,0.1,0.4,0.1,0.4,0.4c0,0.2-0.1,0.3-0.3,0.3c-0.3,0.2-0.4,0.4-0.4,0.7v2c0,0.4,0.3,0.7,0.7,0.7c0,0,0,0,0,0h1.2
				c0.8,0,1.6-0.1,2-0.1c0.4,0,0.5,0.3,0.5,0.9v1.7c0,0.6-0.1,0.9-0.5,0.9c-0.5,0-1.2-0.1-2-0.1h-1.2c-0.4,0-0.7,0.4-0.7,0.8
				c0,0,0,0,0,0.1v0.3c0,0.4,0,0.9,0,1.2c0,0.4,0.3,0.8,0.7,0.8c0,0,0,0,0,0L86.5,11.1z M69.8,16c0.1,0.4,0.4,1.8,0.4,2.1
				c0,0.7-1.9,1-2.1,1c-0.4,0-0.4-0.3-0.5-0.6c-0.2-1-0.4-2.1-0.8-3.1c0-0.1-0.1-0.2-0.1-0.3c0-0.5,2.1-0.8,2.2-0.8
				C69.4,14.3,69.4,14.4,69.8,16L69.8,16z M73.8,6.9c0.4,0,0.6,0,0.6-0.3c0-0.2-0.2-0.4-0.4-0.5c-0.2-0.2-0.7-0.7-0.9-0.9
				C73.1,5,73,4.8,72.8,4.8s-0.3,0.2-0.4,0.4c-0.2,0.2-0.6,0.7-0.7,1c-0.1,0.1-0.2,0.3-0.2,0.4c0,0.3,0.5,0.3,0.7,0.3L73.8,6.9z
				 M73.8,10.6c0,0.3,0.2,0.5,0.5,0.5c0,0,0,0,0,0c0.6,0,1.1-0.1,1.7-0.1c0.5,0,0.6,0.2,0.6,0.9v1.2c0,0.6-0.1,0.9-0.5,0.9
				s-1-0.1-1.5-0.1c-0.4,0-0.7,0.3-0.7,0.7v3.4c0,0.3,0.3,0.5,0.6,0.5c0,0,0,0,0,0c0,0,0.8-0.1,0.8-0.3c0-0.1-0.4-0.2-0.5-0.3
				c-0.5-0.2-0.8-0.3-0.8-0.6c0-0.1,0-0.2,0.1-0.3c0.3-0.8,0.5-1.7,0.7-2.6c0.1-0.2,0.1-0.4,0.3-0.4c0.5,0.1,1.1,0.3,1.6,0.5
				c1,0.4,1.3,0.4,1.3,0.7c0,0.2-0.2,0.3-0.3,0.4c-0.3,0.1-0.3,0.2-0.5,0.9c-0.1,0.4-0.2,0.7-0.4,1c-0.1,0.2-0.1,0.3-0.1,0.5
				c0,0.1,0,0.2,0.1,0.3c0.1,0.4,0.1,0.8,0.1,1.2v0.3c0,0.2,0.1,0.3,0.3,0.3c0.6,0,3.5-4.6,3.5-5.4c0-0.3-0.4-0.4-0.6-0.4
				c-0.6,0-1.2,0.1-1.8,0.1c-0.8,0-0.8-0.3-0.8-1.3v-0.8c0-0.9,0.1-1.1,0.3-1.2c0.1,0,0.1-0.1,0.1-0.2c0-0.2-0.2-0.2-0.3-0.3
				c-0.3-0.1-1.2-0.5-1.2-0.8c0-0.2,0.1-0.3,0.2-0.5c0.4-1,0.7-2.1,0.9-3.2c0-0.1,0-0.1,0-0.2c0-0.1-0.1-0.1-0.2-0.1
				C77.1,5.9,77,6,77,6c-0.1,0.1-0.2,0.3-0.3,0.4c-0.4,0.4-0.6,0.5-0.6,0.9c0,0.1,0,0.4,0,0.7v1.2c0,0.5-0.1,0.7-0.6,0.7
				c-0.4,0-0.8,0-1.3,0c-0.3,0-0.5,0.2-0.5,0.5L73.8,10.6z M80.5,8.1c-0.4,0-0.6,0.3-0.7,0.6c-0.2,0.6-0.4,1.2-0.7,1.8
				c0,0.1-0.1,0.2-0.1,0.4c0,0.2,0.2,0.3,0.4,0.3c0.4,0,0.7,0,1.1,0c0.8,0,0.9-0.3,0.9-2.3c0-0.4-0.3-0.7-0.7-0.7c0,0,0,0,0,0
				L80.5,8.1z M81.1,4.7c0.2,0,0.3-0.1,0.3-0.3V3.2c0-0.1-0.1-0.2-0.2-0.2c-0.3,0-0.4,0.5-0.5,1c0,0.1,0,0.3-0.1,0.4v0.1
				C80.8,4.6,80.9,4.7,81.1,4.7L81.1,4.7z"/>
			<path id="パス_2984" class="st0" d="M99,22.9c-1.1,0-2.3,0.1-3.4,0.1c-0.6,0-0.6-0.3-0.6-1v-1.5c0-0.8,0.1-1,0.7-1
				c1.1,0,2.2,0.1,3.4,0.1h0.3c0.2,0,0.6,0,0.6-0.4c-0.3-0.8-0.7-1.5-1.2-2.2c-0.1-0.1-0.1-0.2-0.2-0.3c-0.1-0.1-0.2-0.3-0.2-0.4
				c0-0.3,0.5-0.6,0.8-0.7c0.1-0.1,0.2-0.1,0.2-0.2s-0.1-0.1-0.2-0.1c-0.3,0-0.7,0-1,0c-0.6,0-0.6-0.4-0.6-1.1v-1.1
				c0-0.8,0.1-1.1,0.7-1.1c1,0,2.1,0.1,3.1,0.1h2.4c0.3,0,0.6-0.3,0.6-0.6v-0.5c0-0.3-0.1-0.4-0.3-0.4h-0.3c-0.7,0-1.4,0.1-2.1,0.1
				c-0.7,0-0.7-0.3-0.7-0.9c0-0.2,0-0.5-0.3-0.5c-0.1,0-0.3,0.1-0.4,0.2c-0.7,0.5-1.9,1.3-2.6,1.7c-0.2,0.2-0.5,0.3-0.8,0.3
				c-1,0-2.2-2-2.2-2.8c0-0.3,0.2-0.3,0.7-0.6c3.6-1.6,6.8-4.2,9-7.6c0.1-0.2,0.2-0.3,0.5-0.3c0.4,0,2.3,0.3,2.9,0.4
				c0.9,0.1,1.5,0.2,1.5,0.6c0,0.2-0.1,0.2-0.2,0.3c-0.1,0-0.1,0.1-0.1,0.2c0,0.2,0.3,0.5,0.5,0.7c2.2,2.3,4.8,4.1,7.7,5.3
				c0.7,0.3,0.9,0.4,0.9,0.7c0,0.9-0.9,3-1.7,3c-1.4-0.6-2.7-1.3-3.9-2.1c-0.1-0.1-0.2-0.1-0.4-0.2c-0.3,0-0.3,0.4-0.3,0.6
				c0,0.5-0.1,0.8-0.7,0.8c-0.7,0-1.4-0.1-2.1-0.1h-0.2c-0.2,0-0.3,0.1-0.3,0.4v0.6c0,0.3,0.3,0.6,0.6,0.6h2.3c1,0,2.1-0.1,3.1-0.1
				c0.6,0,0.7,0.2,0.7,1.1v1.2c0,0.7-0.1,1-0.7,1c-0.2,0-0.4,0-0.7,0c-0.1,0-0.3,0-0.3,0.2s0.5,0.3,0.8,0.5c0.2,0.1,0.5,0.2,0.5,0.5
				c0,0.2-0.3,0.3-0.4,0.3c-0.3,0.1-0.4,0.2-0.8,1c-0.2,0.3-0.3,0.6-0.6,1.1c-0.1,0.1-0.1,0.3-0.2,0.4c0,0.4,0.4,0.4,0.7,0.4
				c1,0,2.1-0.1,3.2-0.1c0.6,0,0.7,0.3,0.7,1v1.4c0,0.8-0.1,1.1-0.7,1.1c-1.1,0-2.3-0.1-3.4-0.1L99,22.9z M103.4,19.4
				c0.4,0,0.7-0.3,0.7-0.7c0,0,0,0,0,0v-2.9c0-0.4-0.3-0.7-0.7-0.7h-1.2c-0.2,0-0.6,0-0.6,0.3c0,0.2,0.1,0.3,0.2,0.4
				c0.6,0.8,1,1.7,1.4,2.7c0,0.3-0.4,0.5-0.7,0.6c0,0-0.1,0.1-0.1,0.2c0,0.2,0.2,0.2,0.3,0.2H103.4z M108.5,7.2c0.2,0,0.4,0,0.4-0.2
				c0-0.1-0.2-0.3-0.3-0.4c-0.7-0.6-1.4-1.2-2-1.9c-0.2-0.2-0.5-0.6-0.8-0.6s-0.8,0.5-1.5,1.2c-0.4,0.4-0.8,0.8-1.3,1.3
				c-0.1,0.1-0.3,0.3-0.3,0.4c0,0.2,0.2,0.2,0.6,0.2L108.5,7.2z M109.5,19.4c0.1,0,0.3,0,0.3-0.2c0-0.1-0.2-0.2-0.2-0.2
				c-0.2-0.1-0.6-0.3-0.6-0.6c0-0.2,0.2-0.5,0.3-0.6l0.1-0.3c0.4-0.7,0.7-1.4,1-2.1c0-0.3-0.3-0.4-0.6-0.4h-1
				c-0.4,0-0.7,0.3-0.7,0.7c0,0,0,0,0,0v2.9c0,0.4,0.3,0.7,0.7,0.7c0,0,0,0,0.1,0L109.5,19.4z"/>
			<path id="パス_2985" class="st0" d="M131.9,21.9c-0.1,0.1-0.2,0.1-0.3,0.1c-0.2,0-0.3-0.1-0.4-0.7c0-0.1-0.1-0.3-0.1-0.4
				c-0.1-0.5-0.3-1-0.4-1.5c0-0.3,0.2-0.3,1.1-0.4c1.4-0.1,1.7-0.1,1.7-0.4v-0.5c0-0.3-0.2-0.5-0.5-0.5h-1.9c-0.4,0-0.7,0.3-0.7,0.7
				c0,0,0,0,0,0V21c0,0.7,0.1,1.3,0.1,2c0,0.6-0.2,0.6-0.9,0.6h-1.5c-0.8,0-1-0.1-1-0.7c0-0.7,0-1.3,0-2v-2.5c0-0.8-0.1-1.6-0.1-2.2
				c0-0.9,0.7-0.9,1.4-0.9c0.8,0,1.7,0.1,2.5,0.1h2.4c0.2,0,0.3-0.1,0.3-0.3v-0.1c0-0.2-0.1-0.3-0.3-0.3h-1.8
				c-0.7,0-1.4,0.1-2.1,0.1c-0.8,0-1.2-0.2-1.2-1.1c0-0.5,0.1-0.9,0.1-1.4v-0.3c0-0.5-0.1-0.9-0.1-1.4c0-0.8,0.4-1.1,1.2-1.1
				c0.7,0,1.4,0.1,2.1,0.1h1.7c0.2,0,0.4,0,0.4-0.3c0-0.1-0.1-0.3-0.2-0.3c0,0,0,0,0,0c-1.4,0-2.7,0.1-4.1,0.1
				c-0.4,0-0.6-0.1-0.7-0.4c-0.1-0.5-0.2-0.9-0.2-1.4c0-0.4,0.3-0.4,0.8-0.4h0.4c2.8,0,5.7-0.2,8.4-0.4c0.2,0,0.2-0.1,0.2-0.1
				c0-0.1-0.1-0.1-0.2-0.1h-10.3c-0.3,0-0.6,0.2-0.6,0.6c0,0,0,0,0,0v0.9c0,5.6,0,9.9-1.5,14.7c-0.3,0.8-0.4,1-0.8,1
				c-0.6,0-3-0.6-3-1.4c0-0.3,0.1-0.5,0.2-0.8c1.4-3.1,1.5-7.7,1.5-11.4V3.5c0-0.4-0.1-0.8-0.1-1.2c0-1,0.5-1.2,1.5-1.2
				c0.9,0,1.7,0.1,2.6,0.1h12.1c0.8,0,1.6-0.1,2.3-0.1c0.8,0,1.8,0.1,1.8,1.1c0,0.2,0,0.4-0.1,0.7c0,0.2,0,0.4,0,0.6V4
				c0,0.5,0.1,0.9,0.1,1.4c0,0.9-0.8,1-1.6,1h-0.4c-0.3,0-0.6,0-0.6,0.3c0.1,0.3,0.3,0.7,0.5,1c0.1,0.1,0.2,0.3,0.2,0.4
				c0.1,0.1,0.2,0.3,0.2,0.5c0,0.1-0.1,0.3-0.2,0.3c0,0,0,0,0,0c-0.1,0-0.2,0-0.4-0.1c-0.1-0.1-0.3-0.1-0.4-0.1
				c-0.2,0-0.4,0-0.6,0.1c-1,0.1-1.7,0.2-2.2,0.2C137,9,136.9,9,136.9,9.3v0.1c0,0.2,0.1,0.3,0.3,0.3c0,0,0,0,0,0h2.1
				c0.7,0,1.4-0.1,2.1-0.1c0.8,0,1.2,0.2,1.2,1.1c0,0.5-0.1,0.9-0.1,1.4v0.3c0,0.4,0.1,0.9,0.1,1.4c0,0.8-0.4,1.1-1.2,1.1
				c-0.7,0-1.4-0.1-2.1-0.1h-2.1c-0.2,0-0.3,0.1-0.3,0.3v0.1c0,0.2,0.1,0.3,0.3,0.3h2.9c0.8,0,1.7-0.1,2.5-0.1
				c0.7,0,1.4,0.1,1.4,0.9c0,0.6-0.1,1.3-0.1,2.2v1c0,0.6,0.1,1.2,0.1,1.8c0,2.2-2.1,2.4-3.8,2.4c-0.6,0-0.8-0.2-1-1.3
				c-0.1-0.3-0.2-0.5-0.5-0.5c-0.2,0-0.2-0.3-0.3-0.5c0-0.3-0.3-0.5-0.6-0.5c-0.1,0-0.6,0.1-0.8,0.1c-0.9,0.2-1.9,0.3-2.8,0.4
				c-0.7,0.1-1.3,0.2-2,0.3C132,21.7,132,21.7,131.9,21.9z M139.5,4.2c0.2,0,0.3-0.2,0.3-0.3V3.8c0-0.2-0.2-0.3-0.3-0.3h-12.2
				c-0.2,0-0.3,0.2-0.3,0.3c0,0,0,0,0,0v0.1c0,0.2,0.1,0.3,0.3,0.3H139.5z M131.7,11.8c-0.2,0-0.3,0.2-0.3,0.3v0.1
				c0,0.2,0.2,0.3,0.3,0.3h1.5c0.2,0,0.3-0.2,0.3-0.3v-0.1c0-0.2-0.2-0.3-0.3-0.3H131.7z M137.2,11.8c-0.2,0-0.3,0.1-0.3,0.3
				c0,0,0,0,0,0v0.1c0,0.2,0.1,0.3,0.3,0.3c0,0,0,0,0,0h1.8c0.2,0,0.3-0.2,0.3-0.3v-0.1c0-0.2-0.2-0.3-0.3-0.3H137.2z M137.1,17.8
				c-0.2,0-0.3,0.1-0.3,0.3v0.3c0,0.2,0.1,0.3,0.2,0.3c0,0,0,0,0,0c0.2,0,0.5,0,0.5-0.2c0-0.1,0-0.2-0.1-0.2
				c-0.1-0.4-0.1-0.4-0.3-0.4H137.1z M140.8,18.4c0-0.3-0.3-0.6-0.6-0.6H140c-0.3,0-0.5,0.1-0.5,0.4c0,0.1,0.5,1.7,0.6,1.9
				c0.1,0.2,0.1,0.4,0.3,0.4c0.3,0,0.3-0.4,0.3-0.8L140.8,18.4z"/>
			<path id="パス_2986" class="st0" d="M161,1.5c0.3,0.1,0.6,0.2,0.6,0.3c0,0.1-0.2,0.3-0.5,0.5c-0.2,0.5-0.4,0.9-0.5,1.4
				c0,0.1,0,0.1-0.1,0.2c0,0.1,0,0.2,0,0.3c0,0.2,0.1,0.3,0.3,0.4c0.2,0,0.4-0.1,0.6-0.2c0.1-0.1,0.3-0.1,0.4-0.1
				c0.2,0,0.3,0.1,0.4,0.4c0.1,0.9,0.2,1.8,0.3,2.7c0,0.6-0.4,0.7-2.4,1.1c-0.9,0.2-0.9,0.3-1.2,1.2c-0.4,1.2-0.9,2.3-1.4,3.5
				c-0.7,1.5-1.4,3-2.1,4.5c-0.2,0.4-0.5,0.8-0.6,1.1c-0.1,0.3-0.2,0.4-0.6,0.4c-0.9,0-3.3-1.1-3.3-1.7c0.1-0.4,0.3-0.7,0.5-1
				c0.5-0.9,3.3-6,3.3-6.6c0-0.2-0.2-0.4-0.4-0.4c0,0,0,0,0,0c-0.2,0-0.7,0.1-0.8,0.1c-0.3,0-0.8,0.1-1.1,0.1
				c-0.5,0-0.8-0.2-0.9-2.4c0-0.2-0.1-0.7-0.1-0.9c0-0.4,0.2-0.5,0.5-0.5c0.4,0,1,0.1,1.6,0.1c2.3,0,2.7-0.1,2.9-0.7
				c0.4-1.3,0.6-2.6,0.6-4c0-0.2,0-0.4,0.2-0.4C157.4,0.6,160.5,1.4,161,1.5z M164.4,9.5c0.4,0.1,0.7,0.3,0.7,0.7
				c0,0.3-0.1,0.7-0.1,1.2c0,1.3,0.1,2.5,0.2,3.8c0,0.6,0.2,0.8,0.7,1c0.7,0.3,3.9,1.8,3.9,2.5c0,0.6-1.4,2.7-2.3,2.7
				c-0.2,0-0.6-0.2-1.1-0.7c-0.2-0.1-0.3-0.3-0.5-0.4c-0.1-0.1-0.3-0.2-0.4-0.2c-0.3,0-0.5,0.2-0.6,0.4c-0.2,0.4-0.5,0.9-0.9,1.2
				c-0.9,0.7-2,1.1-3.1,1c-2.4,0-5-1.2-5-3.9c0-2.6,2.3-3.7,4.5-3.7h0.2c0.3,0,0.6-0.2,0.6-0.5c0,0,0-0.1,0-0.1
				c0-0.4-0.2-2.7-0.3-3.5c-0.1-0.4-0.1-0.8-0.1-1.2c0-0.5,0.2-0.7,0.8-0.7C162.7,9.2,163.6,9.4,164.4,9.5z M159.9,18.9
				c0,0.5,0.5,0.8,0.9,0.8c0.6,0,0.8-0.3,0.8-0.8c0-0.3,0-0.6-0.8-0.6C160.4,18.2,159.9,18.4,159.9,18.9L159.9,18.9z M168.7,6.5
				c0.6,0.5,2.2,2.1,2.2,2.6c0,0.8-2.1,2.6-2.7,2.6c-0.3,0-0.5-0.4-0.7-0.7c-0.9-1.2-2-2.4-3.2-3.3c-0.2-0.2-0.5-0.3-0.5-0.5
				c0-0.4,1.6-2.5,2.4-2.5C166.7,4.7,168.3,6.1,168.7,6.5L168.7,6.5z"/>
			<path id="パス_2987" class="st0" d="M182.3,2c0.6-0.1,1.2-0.2,1.8-0.2c0.7,0,0.7,0,0.9,2.5c0.1,0.9,0.2,1.7,0.4,2.6
				c0.1,0.3,0.2,0.7,0.6,0.7c1.2-0.5,2.4-1.1,3.5-1.8c0.3-0.2,0.7-0.4,1.1-0.5c0.3,0,0.9,0.9,1.2,1.4c0.5,0.7,0.9,1.4,1.1,2.2
				c0,0.3-0.3,0.4-0.8,0.6c-0.1,0.1-0.2,0.1-0.4,0.1c-2.6,0.9-5.1,2.1-7.4,3.6c-1,0.6-2.5,1.7-2.5,3c0,1.7,3.3,1.7,4.4,1.7
				c2.2,0,4.4-0.2,6.6-0.7c0.1,0,0.2,0,0.3,0c0.2,0,0.3,0.2,0.4,0.5c0.1,0.8,0.1,1.7,0.1,2.5c0,0.9-0.2,1-1.1,1.2
				c-2.2,0.2-4.4,0.4-6.6,0.4c-2,0.1-3.9-0.3-5.7-1.1c-1.6-0.9-2.6-2.6-2.5-4.4c0.1-2.4,1.4-4.6,3.5-5.8c0.3-0.2,0.6-0.3,0.6-0.7
				c-0.1-0.5-0.2-1-0.4-1.5c-0.4-1.7-0.8-3.5-1.4-5.2c0-0.1-0.1-0.2-0.1-0.3C179.9,2.4,180.4,2.3,182.3,2z M194.2,4
				c0.4,0.5,0.7,1.1,0.9,1.7c0,0.5-1.4,1.3-1.7,1.3c-0.1,0-0.2-0.1-0.6-0.7c-0.5-0.8-0.8-1.3-1.3-2c-0.1-0.1-0.1-0.2-0.2-0.4
				c0-0.4,1.5-1.1,1.7-1.1C193.3,2.8,194,3.8,194.2,4L194.2,4z M196.2,1c0.3,0.3,0.5,0.6,0.7,1c0.4,0.5,0.7,1.1,1,1.7
				c0,0.5-1.4,1.3-1.7,1.3c-0.2,0-0.3-0.2-0.4-0.4c-0.5-0.8-1-1.6-1.6-2.4c-0.1-0.1-0.1-0.2-0.1-0.3c0-0.4,1.5-1.1,1.7-1.1
				C196,0.8,196.1,0.8,196.2,1z"/>
			<path id="パス_2988" class="st0" d="M9.7,47.6c0,0.7,0,1.4,0,2.1c0,1.7-0.2,2.6-2.3,2.7c-0.4,0-0.8,0-0.8,0.7
				c0,1.2,0.1,2.4,0.1,3.5c0,0.6-0.2,0.7-0.9,0.7H4.7c-0.8,0-0.9-0.2-0.9-0.7c0-1.3,0.1-2.6,0.1-3.9V42.2c0-0.2-0.2-0.3-0.3-0.3H3.5
				c-0.2,0-0.3,0.2-0.3,0.3v5.8c0,1.3,0.1,2.5,0.1,3.8c0,0.6-0.1,0.7-0.8,0.7H1.5c-0.6,0-0.7-0.1-0.7-1c0-0.7,0.1-2.2,0.1-3.4v-5.3
				c0-0.9,0-1.8,0-2.6c0-0.8,0.1-1.5,1.1-1.5c0.4,0,0.7,0.1,1.1,0.1c0.4,0,0.7-0.2,0.8-0.6c0,0,0,0,0-0.1v-1.3c0-0.6,0-1.1-0.1-1.7
				c0-0.1,0-0.2,0-0.2c0-0.3,0.2-0.4,0.5-0.4s2.3,0.1,2.9,0.2c0.3,0,0.4,0.1,0.4,0.3c0,0.1-0.2,0.3-0.3,0.4
				c-0.3,0.2-0.3,0.7-0.3,1.5v1.2c0,0.4,0.4,0.7,0.8,0.7c0,0,0,0,0,0c0.2,0,0.8-0.1,1-0.1c0.9,0,1.1,0.6,1.1,1.4c0,0.9,0,1.8,0,2.7
				L9.7,47.6z M6.7,48.8c0,0.3,0.2,0.3,0.4,0.3c0.3,0,0.3-0.2,0.3-0.9v-6c0-0.2-0.2-0.3-0.3-0.3H7c-0.2,0-0.3,0.1-0.3,0.3
				c0,0,0,0,0,0L6.7,48.8z M20.1,34.9c0.9,0,1.7-0.1,2.6-0.1c0.6,0,0.7,0.3,0.7,1v1c0,0.7-0.1,1-0.6,1c-0.9,0-1.8-0.1-2.6-0.1h-7
				c-0.9,0-1.8,0.1-2.7,0.1c-0.5,0-0.6-0.3-0.6-1v-1c0-0.7,0.1-0.9,0.6-0.9c0.9,0,1.7,0.1,2.6,0.1L20.1,34.9z M10.6,48.7
				c0-0.8-0.1-1.5-0.1-2c0-0.8,0.6-0.8,1.3-0.8c0.6,0,1.2,0,1.7,0h6.1c0.6,0,1.1,0,1.7,0s1.3,0,1.3,0.8c0,0.7-0.1,1.3-0.1,2v6.1
				c0,0.7,0.1,1.6,0.1,2.1c0,0.4-0.2,0.4-0.6,0.4h-1.6c-0.8,0-1,0-1-0.5c0-0.1,0-0.2,0-0.3c0-0.3-0.3-0.6-0.6-0.6h-4.5
				c-0.3,0-0.6,0.3-0.6,0.6c0,0,0,0,0,0v0.3c0,0.5-0.3,0.5-1,0.5h-1.6c-0.5,0-0.7-0.1-0.7-0.4c0-0.7,0.1-1.7,0.1-2.5L10.6,48.7z
				 M18.4,38.5c0.6,0,1.3-0.1,1.9-0.1c0.7,0,1.1,0.3,1.1,1c0,0.5-0.1,1-0.1,1.6v1.5c0,0.5,0.1,1.1,0.1,1.6c0,0.7-0.4,1-1.1,1
				c-0.6,0-1.3-0.1-1.9-0.1h-3.7c-0.6,0-1.3,0.1-1.9,0.1c-0.7,0-1.1-0.3-1.1-1c0-0.5,0.1-1,0.1-1.6v-1.5c0-0.6-0.1-1.1-0.1-1.6
				c0-0.8,0.3-1,1-1c0.6,0,1.3,0.1,1.9,0.1H18.4z M15,49.1c0-0.3-0.2-0.5-0.5-0.5c0,0,0,0,0,0h-0.4c-0.3,0-0.5,0.2-0.5,0.5
				c0,0,0,0,0,0v0.1c0,0.3,0.2,0.5,0.5,0.5c0,0,0,0,0,0h0.4C14.8,49.7,15,49.5,15,49.1C15,49.2,15,49.2,15,49.1L15,49.1z M15,52.6
				c0-0.3-0.2-0.5-0.5-0.5c0,0,0,0,0,0h-0.4c-0.3,0-0.5,0.2-0.5,0.5c0,0,0,0,0,0v0.1c0,0.3,0.2,0.5,0.5,0.5c0,0,0,0,0,0h0.4
				C14.8,53.2,15.1,53,15,52.6C15,52.7,15,52.7,15,52.6L15,52.6z M15,42c0,0.3,0.2,0.5,0.5,0.5h2.3c0.3,0,0.5-0.2,0.5-0.5v-0.3
				c0-0.3-0.2-0.5-0.5-0.5c0,0,0,0,0,0h-2.3c-0.3,0-0.5,0.2-0.5,0.5c0,0,0,0,0,0V42z M18,49.2c0,0.3,0.2,0.5,0.5,0.5H19
				c0.3,0,0.5-0.2,0.5-0.5v-0.1c0-0.3-0.2-0.5-0.5-0.5h-0.5C18.3,48.6,18.1,48.9,18,49.2L18,49.2z M18,52.7c0,0.3,0.2,0.5,0.5,0.5
				H19c0.3,0,0.5-0.2,0.5-0.5v-0.1c0-0.3-0.2-0.5-0.5-0.5h-0.5c-0.3,0-0.5,0.2-0.5,0.5C18,52.6,18,52.6,18,52.7L18,52.7z"/>
			<path id="パス_2989" class="st0" d="M46.1,37c1.2,0,2.3-0.1,3.5-0.1c0.7,0,0.7,0.3,0.7,1v1.4c0,0.8-0.1,1.1-0.7,1.1
				c-1.2,0-2.4-0.1-3.5-0.1h-12c-0.4,0-0.7,0.3-0.7,0.7c0,0,0,0,0,0V45c0,3.3-0.5,6.5-1.5,9.6c-0.3,0.8-0.7,1.7-1.2,2.4
				c-0.1,0.2-0.4,0.3-0.6,0.3c-0.7,0-2.8-0.9-2.8-1.7c0.1-0.2,0.2-0.5,0.3-0.7c0.1-0.1,0.1-0.2,0.1-0.2c1.4-3.3,2-6.8,1.9-10.3V41
				c0-0.9-0.1-1.8-0.1-2.7c0-1.1,0.7-1.3,1.6-1.3c1,0,2,0.1,3,0.1h2.6c0.4,0,0.7-0.3,0.7-0.7c0,0,0,0,0-0.1c0-0.5,0-1.2-0.1-1.6
				c0-0.1,0-0.2,0-0.3c0-0.3,0.3-0.4,0.6-0.4c0.2,0,0.3,0,0.7,0c1.1,0.1,2.6,0.2,3,0.3c0.3,0.1,0.4,0.1,0.4,0.4
				c0,0.2-0.1,0.3-0.3,0.4c-0.3,0.3-0.3,0.6-0.3,1.3c0,0.4,0.3,0.7,0.7,0.7L46.1,37z M38.9,51.3c-0.1,0.2-0.2,0.5-0.2,0.7
				c0,0.3,0.2,0.4,0.5,0.4S43,52,43.6,52c0.3,0,0.9,0,0.9-0.5c-0.5-1-1.1-2-1.7-2.9c-0.1-0.1-0.2-0.3-0.2-0.5c0-0.5,0.8-0.9,1.6-1.3
				c0.1-0.1,0.3-0.1,0.4-0.2c0.3-0.2,0.6-0.3,0.9-0.3c0.2,0,0.4,0.1,0.5,0.3c0.7,0.9,1.9,3,2.5,4.1c0.9,1.5,1.7,3.1,2.3,4.8
				c0,0.6-2.5,1.7-3,1.7c-0.4,0-0.5-0.4-1.1-1.6c-0.2-0.4-0.4-0.6-0.9-0.6c-0.2,0.1-10,1.4-11.1,1.5c-0.2,0-0.3,0.2-0.4,0.3
				c-0.1,0.2-0.2,0.3-0.4,0.3c-0.4,0-0.5-0.3-0.7-1.4c-0.1-0.4-0.4-2-0.4-2.3c0-0.5,0.3-0.5,1.1-0.5c0.6-0.1,0.8-0.1,1-0.7
				c1.2-3.6,2.3-7.2,3.1-10.9c0.1-0.3,0.1-0.6,0.5-0.6c0.2,0,2.1,0.5,3.1,0.8c0.4,0.1,1,0.3,1,0.6c0,0.2-0.1,0.2-0.3,0.3
				c-0.4,0.1-0.5,0.2-0.6,0.5C40.9,45.7,39.9,48.5,38.9,51.3L38.9,51.3z"/>
			<path id="パス_2990" class="st0" d="M67.3,35.2c0.4,0.5,0.9,0.9,1.3,1.4l0.3,0.3c0.5,0.5,1.5,1.5,1.5,1.8
				c0,0.2-0.2,0.2-0.5,0.2c-0.2,0-0.5,0.1-0.6,0.3c-1.1,0.8-2.1,1.6-3.2,2.5c-1.2,1-2.3,2-3.5,3c-0.3,0.2-0.4,0.5-0.5,0.8
				c0,0.4,0.6,1.1,1.1,1.6c0.1,0.1,0.1,0.2,0.2,0.3c1.4,1.4,2.9,2.8,4.5,4.1c0.8,0.7,2.1,1.9,2.1,2.4c0,0.8-2.3,2.9-3,2.9
				c-0.2,0-0.5-0.2-0.8-0.6c-1.6-1.9-3.3-3.6-5-5.3c-1-1-2-2-2.8-3.1c-0.6-0.7-0.9-1.6-0.9-2.5c0-0.7,0.2-1.4,0.6-1.9
				c1.1-1.2,2.3-2.3,3.6-3.2c1.8-1.4,3.4-3,4.9-4.8c0.1-0.2,0.3-0.4,0.5-0.4C67.1,35,67.2,35.1,67.3,35.2z"/>
			<path id="パス_2991" class="st0" d="M86.2,53.2c-0.3,0-0.6,0-0.6,0.3c0,0.2,0.3,0.6,0.5,0.8c0.2,0.2,0.4,0.5,0.5,0.6
				c0.1,0.2,0.2,0.4,0.3,0.6c0,0.2-0.1,0.3-0.3,0.3c-0.1,0-0.2,0-0.3-0.1c-0.1,0-0.3-0.1-0.4-0.1c-0.2,0-0.3,0-0.5,0.1
				c-2.1,0.7-4.3,1.2-6.4,1.5c-0.2,0-0.5,0.1-0.7,0.1c-0.5,0-0.7-0.6-1-1c-0.3-0.6-0.5-1.2-0.7-1.8c0-0.2,0.3-0.2,0.6-0.3
				c1.6-0.1,3.2-0.4,4.8-0.7c0.3-0.1,0.4-0.1,0.4-0.2c0-0.1-0.1-0.2-0.3-0.2c-0.3,0-0.7,0-1.1,0c-0.7,0-1.5-0.1-1.5-1.1
				c0-0.5,0.1-1.2,0.1-1.8v-5.9c0-0.7-0.1-1.3-0.1-1.8c0-0.9,0.6-1.1,1.4-1.1c0.8,0,1.7,0.1,2.5,0.1H93c0.8,0,1.7-0.1,2.5-0.1
				s1.4,0.1,1.4,1.1c0,0.5-0.1,1.2-0.1,1.8v5.9c0,0.7,0.1,1.3,0.1,1.8c0,1-0.6,1.1-1.4,1.1c-0.6,0-1.2-0.1-1.7-0.1
				c-0.1,0-0.3,0-0.3,0.2c0,0.2,0.2,0.2,0.5,0.3c1.7,0.4,3.3,0.7,5,0.9c0.4,0.1,0.6,0.1,0.6,0.3c0,0.2-0.6,2.7-1.8,2.7
				c-1.9-0.3-3.7-0.7-5.5-1.2c-0.8-0.2-1.7-0.5-2.5-0.9c-0.1-0.1-0.2-0.2-0.2-0.3c0-0.4,0.5-0.9,0.8-1.3c0.1-0.1,0.1-0.2,0.2-0.4
				c0-0.3-0.4-0.3-0.6-0.3L86.2,53.2z M94.5,34.7c0.8,0,1.5-0.1,2.3-0.1c0.8,0,1.9,0,1.9,1.2c0,0.4-0.1,0.9-0.1,1.6v0.7
				c0,0.7,0.1,1.2,0.1,1.6c0,1.1-1.1,1.2-1.9,1.2c-0.8,0-1.6-0.1-2.3-0.1H81.8c-0.8,0-1.6,0.1-2.4,0.1c-0.8,0-1.9-0.1-1.9-1.1
				c0-0.4,0.1-0.8,0.1-1.6v-0.7c0-0.8-0.1-1.3-0.1-1.6c0-1.1,1.1-1.2,1.9-1.2c0.8,0,1.5,0.1,2.3,0.1H94.5z M81.6,37.3
				c-0.3,0-0.5,0.2-0.5,0.5v0.1c0,0.3,0.2,0.5,0.5,0.5c0,0,0,0,0,0h1.5c0.3,0,0.5-0.2,0.5-0.5c0,0,0,0,0,0v-0.1
				c0-0.3-0.2-0.5-0.5-0.5c0,0,0,0,0,0H81.6z M93.1,44.4c0-0.2-0.1-0.3-0.3-0.3c0,0,0,0,0,0h-9.2c-0.2,0-0.3,0.2-0.3,0.3v0.2
				c0,0.2,0.2,0.3,0.3,0.3h9.2c0.2,0,0.3-0.1,0.3-0.3c0,0,0,0,0,0V44.4z M93.1,47.3c0-0.2-0.2-0.4-0.4-0.4c0,0,0,0,0,0h-9.1
				c-0.2,0-0.4,0.2-0.4,0.4c0,0,0,0,0,0v0.1c0,0.2,0.2,0.4,0.4,0.4c0,0,0,0,0,0h9.1c0.2,0,0.4-0.2,0.4-0.4
				C93.1,47.4,93.1,47.4,93.1,47.3L93.1,47.3z M93.1,50.3c0-0.2-0.2-0.5-0.4-0.5c0,0,0,0,0,0h-8.9c-0.3,0-0.5,0.2-0.5,0.4
				c0,0,0,0,0,0v0.1c0,0.3,0.2,0.5,0.5,0.5c0,0,0,0,0,0h8.9C92.9,50.8,93.1,50.6,93.1,50.3C93.1,50.3,93.1,50.3,93.1,50.3L93.1,50.3
				z M87.3,37.3c-0.3,0-0.5,0.2-0.5,0.5c0,0,0,0,0,0v0.1c0,0.3,0.2,0.5,0.5,0.5c0,0,0,0,0,0h1.5c0.3,0,0.5-0.2,0.5-0.5v-0.1
				c0-0.3-0.2-0.5-0.5-0.5H87.3z M93.1,37.3c-0.3,0-0.5,0.2-0.5,0.5c0,0,0,0,0,0v0.1c0,0.3,0.2,0.5,0.5,0.5c0,0,0,0,0,0h1.6
				c0.3,0,0.5-0.2,0.5-0.5c0,0,0,0,0,0v-0.1c0-0.3-0.2-0.5-0.5-0.5H93.1z"/>
			<path id="パス_2992" class="st0" d="M105.3,54.5c-0.1,0.2-0.2,0.4-0.4,0.4c-0.3,0-0.4-0.3-0.5-0.7c-0.1-0.5-0.7-2.4-0.7-2.8
				c0-0.5,0.4-0.6,0.8-0.6c0.5,0,1-0.4,1-0.9c0-0.1,0-0.1,0-0.2V38.9c0-0.3-0.2-0.6-0.5-0.6c0,0-0.1,0-0.1,0h-0.1
				c-0.8,0-0.8-0.3-0.8-1.2v-1.2c0-0.8,0.1-1.1,0.8-1.1c0.8,0,1.7,0.1,2.6,0.1h6c0.8,0,1.7-0.1,2.6-0.1c0.7,0,0.8,0.2,0.8,0.9
				c0,0.9,0.4,0.9,1.9,0.9h4.3c0.3,0,0.7,0,1.2,0c0.5-0.1,1.1,0.1,1.5,0.4c0.4,0.3,0.6,0.8,0.6,1.3c-0.2,1.8-0.5,3.6-1,5.4
				c-0.4,1.6-1,3.1-1.7,4.6c-0.1,0.2-0.2,0.4-0.2,0.6c0,0.8,2.5,3.5,3.2,4.1c0.2,0.2,0.5,0.5,0.5,0.8c0,0.7-1.8,2.6-2.5,2.6
				c-0.2,0-0.5-0.3-0.8-0.6c-0.1-0.1-0.1-0.1-0.2-0.2c-0.6-0.6-1.4-1.6-1.8-2.3c-0.2-0.3-0.4-0.6-0.8-0.6c-0.2,0-0.4,0.1-0.5,0.3
				c-0.5,0.6-3.1,3.6-3.8,3.6c-0.4,0-0.9-0.7-1.2-1c-0.1-0.1-0.3-0.4-0.4-0.4c-0.1,0-0.2,0.2-0.2,0.3c0,0.4,0,0.7,0,1.1
				c0,0.7-0.3,0.7-1.1,0.7h-1.4c-0.8,0-1.1-0.1-1.1-0.7c0-1,0.1-2,0.1-3c0-0.4-0.1-0.7-0.6-0.7c-0.5,0.1-0.9,0.2-1.4,0.3
				c-1.1,0.3-2.4,0.5-3.5,0.7C105.5,54.1,105.4,54.2,105.3,54.5z M109.6,38.2c-0.4,0-0.7,0.3-0.7,0.7c0,0,0,0,0,0v0.5
				c0,0.4,0.3,0.7,0.7,0.7c0,0,0,0,0,0h1c0.4,0,0.7-0.3,0.7-0.7v-0.5c0-0.4-0.3-0.7-0.7-0.7H109.6z M109.6,42.9
				c-0.4,0-0.7,0.3-0.7,0.7c0,0,0,0,0,0v0.5c0,0.4,0.3,0.7,0.7,0.7c0,0,0,0,0,0h1c0.4,0,0.7-0.3,0.7-0.7v-0.5c0-0.4-0.3-0.7-0.7-0.7
				H109.6z M109.6,47.8c-0.4,0-0.7,0.3-0.7,0.7c0,0,0,0,0,0v0.9c0,0.4,0.1,0.7,0.5,0.7c0.5-0.1,0.9-0.2,1.4-0.3
				c0.4-0.2,0.6-0.5,0.5-0.9v-0.3c0-0.4-0.3-0.7-0.7-0.7c0,0,0,0,0,0L109.6,47.8z M114.8,52.3c0,0.2,0,0.6,0.3,0.6
				c0.5,0,1.7-1.4,2.1-1.8c0.5-0.5,1.6-1.7,1.6-2.4c0-0.3-0.1-0.5-0.2-0.8c-0.8-1.8-1.5-3.8-1.9-5.7c-0.1-0.4-0.2-0.8-0.2-1.2
				c0-0.3,0.1-0.5,0.4-0.6c0.1,0,0.2-0.1,0.2-0.2c0-0.1-0.1-0.2-0.2-0.2c-0.1,0-0.1,0-0.3,0c-0.7,0-0.7-0.1-0.7-0.8
				c0-0.2,0-0.3,0-0.4c0-0.3-0.2-0.6-0.5-0.6c0,0-0.1,0-0.1,0c-0.3,0-0.5,0.2-0.5,0.5c0,0,0,0,0,0.1L114.8,52.3z M121.5,40.1h-0.6
				c-0.5,0-0.9,0.1-0.9,0.5c0,0.1,0.1,0.5,0.1,0.6c0.1,0.8,0.3,1.6,0.5,2.4c0.1,0.5,0.2,0.8,0.4,0.8c0.2,0,0.2-0.2,0.3-0.4
				c0.2-0.6,0.4-1.2,0.5-1.8c0.1-0.6,0.2-1.2,0.3-1.8C122.1,40.2,122,40.1,121.5,40.1L121.5,40.1z"/>
			<path id="パス_2993" class="st0" d="M137.2,39.3c0.3,0.1,0.5,0.1,0.5,0.4c0,0.1-0.1,0.2-0.3,0.3c-0.3,0.3-0.5,0.7-0.5,1.1
				c-0.2,1.2-0.3,2.4-0.3,3.6c0,1.7,0.3,3.4,0.9,4.9c0.2,0.4,0.7,1.3,1.2,1.3c0.6,0,1.2-1.1,1.4-1.5c0.2-0.3,0.4-0.6,0.8-0.6
				c0.8,0,2.7,1.5,2.7,2.1s-1.2,2-1.6,2.5c-0.7,1.1-1.9,1.7-3.2,1.8c-1.7-0.2-3.2-1.1-4.1-2.6c-1.9-2.7-2.1-6.4-2.1-9.5
				c0-0.5,0.1-3.6,0.1-3.9c0-0.3,0.2-0.4,0.4-0.4C133.6,38.6,136.6,39.2,137.2,39.3z M146.6,38.5c0.7,0,2.7,1.6,3.8,3.4
				c1,1.6,1.6,3.4,1.9,5.2c0.1,0.4,0.1,1,0.1,1.3c0,0.5-0.1,0.8-0.6,0.9c-0.8,0.3-1.6,0.4-2.4,0.4c-0.9,0-1-0.3-1-1.3
				c0-2.9-1.4-5.6-3.7-7.2c-0.2-0.1-0.2-0.3-0.3-0.4C144.3,40.2,145.8,38.5,146.6,38.5z"/>
			<path id="パス_2994" class="st0" d="M167.7,34.9c0.5,0.1,1.3,0.4,1.3,0.6c0,0.1-0.2,0.2-0.3,0.3c-0.4,0.2-0.5,0.6-0.7,1.4
				c-0.1,0.2-0.1,0.5-0.2,0.8c0,0.1,0,0.2-0.1,0.2c0,0.2,0.2,0.4,0.4,0.5c0,0,0.1,0,0.1,0c0.7-0.2,1.4-0.4,2.1-0.7
				c0.2-0.1,0.4-0.2,0.6-0.2c0.7,0,0.7,2.5,0.7,3.3c0,0.4-0.1,0.5-0.5,0.6c-1,0.3-2.7,0.7-3.7,0.9c-1.1,0.2-1.2,0.3-1.5,1.2
				c-1.3,3.9-3,7.7-4.9,11.3c-0.2,0.3-0.4,0.6-0.8,0.6s-3.1-1.2-3.1-1.9c0.1-0.4,0.3-0.7,0.5-1c1.7-2.6,3.1-5.5,4.2-8.4
				c0.1-0.2,0.2-0.4,0.2-0.6c0-0.4-0.3-0.4-0.6-0.4c-0.5,0-1.1,0.1-1.7,0.1c-0.5,0-0.9-0.1-1-0.6c-0.2-0.9-0.3-1.8-0.3-2.7
				c0-0.3,0.1-0.6,0.5-0.6c0.3,0,1.4,0.1,2.7,0.1c1.3,0,1.7,0,1.9-0.6c0.4-1.5,0.6-3.1,0.7-4.7c0-0.2,0.1-0.3,0.2-0.3
				C164.8,34.1,167.2,34.7,167.7,34.9z M167,50.8c1,1.3,3,1.5,4.5,1.5c1.3,0,2.6-0.2,3.9-0.5c0.1,0,0.2,0,0.3-0.1
				c0.4,0,0.5,0.6,0.5,1.4v0.8c0,1.4,0,1.7-0.5,1.8c-1.4,0.2-2.9,0.3-4.3,0.3c-1.8,0-4.3-0.2-5.8-1.3c-0.4-0.3-1.2-1-1.2-1.6
				c0-0.4,0.9-1.6,1.3-1.9c0.2-0.2,0.7-0.7,1-0.7C166.7,50.5,166.9,50.7,167,50.8L167,50.8z M169.5,43c2,0,3.9,0.3,5.8,0.8
				c0.4,0.1,0.6,0.2,0.6,0.6c-0.1,1-0.4,1.9-0.8,2.8c-0.1,0.2-0.3,0.3-0.5,0.3c-0.2,0-0.4-0.1-0.6-0.2c-1.4-0.5-2.9-0.8-4.4-0.7
				h-0.9c-0.6,0-0.8-0.1-0.8-0.5C168,43.2,168.5,43,169.5,43L169.5,43z"/>
			<path id="パス_2995" class="st0" d="M189.9,36.7c0.2,0.1,0.6,0.2,0.6,0.4c0,0.1-0.1,0.2-0.2,0.2c-0.4,0.2-0.5,0.5-0.6,1.2
				c-0.6,3.2-0.9,6.4-0.8,9.6c0,2,0,4.1,2,4.1c1.6-0.1,3.1-0.9,4.1-2.2c0.8-1.1,1.4-2.4,1.6-3.7c0.1-0.5,0.2-1,0.6-1
				c0.6,0,1.3,0.7,1.7,1c0.5,0.4,1.2,1.1,1.2,1.7c-0.2,1.1-0.6,2.2-1.1,3.1c-1.5,3-4.6,5-8,5c-1.9,0.1-3.7-0.7-4.9-2.1
				c-1.3-1.6-1.4-4.4-1.4-6.4c0-2.9,0.3-6.1,0.5-8.9c0.1-0.5,0.1-1.4,0.1-2c0-0.6,0-0.9,0.4-0.9C186.3,35.9,189.1,36.5,189.9,36.7z"
				/>
			<path id="パス_2996" class="st0" d="M216.6,35.6c0.1,0,0.4,0.1,0.4,0.3c0,0.2-0.1,0.3-0.2,0.4c-0.3,0.5-0.4,1-0.4,1.6
				c0,0.3,0.2,0.6,0.5,0.6c0,0,0,0,0,0c0.5,0,2.9-0.6,3.6-0.7c0.3-0.1,0.7-0.2,1-0.2c0.4,0,0.5,0.5,0.5,0.8c0.2,0.7,0.3,1.4,0.3,2.2
				c0,0.6-0.3,0.7-1.1,0.9c-1.3,0.2-2.6,0.4-3.9,0.6c-0.6,0.1-0.9,0.2-0.9,0.7c0,0.4,0.2,0.6,0.6,0.6c0.9-0.1,1.8-0.3,2.7-0.5
				c0.2-0.1,0.4-0.1,0.6-0.1c0.2,0,0.3,0.2,0.4,0.5c0.2,0.8,0.2,1.6,0.2,2.5c0,0.8-0.8,0.9-3.1,1.2c-1,0.1-1.2,0.2-1.2,0.7
				c0,1.4,0,1.6,0.8,1.9c1.1,0.4,4.5,1.8,4.5,3c0,0.6-1.1,2.5-1.9,2.5c-0.7-0.3-1.4-0.7-1.9-1.2c-0.3-0.3-0.7-0.5-1.1-0.6
				c-0.4,0-0.5,0.3-0.6,0.6c-0.8,2-2.9,2.6-4.9,2.6c-1.1,0-2.2-0.2-3.1-0.8c-1-0.7-1.6-1.8-1.6-3c0-1.1,0.6-2.2,1.5-2.8
				c1.2-0.7,2.6-1.1,4-1.1h0.3c0.3,0,0.5-0.2,0.5-0.5c0,0,0-0.1,0-0.1c0-0.3-0.2-0.6-0.5-0.7c0,0,0,0-0.1,0c-0.5,0-2,0.1-3.2,0.1
				c-1,0-1.2,0-1.4-0.7c-0.2-0.8-0.3-1.6-0.4-2.4c0-0.4,0.1-0.7,0.5-0.7c0.7,0,1.8,0.1,3.1,0.1h0.7c0.6,0,1.1-0.1,1.1-0.6
				c0-0.3-0.2-0.6-0.5-0.6c0,0-0.1,0-0.1,0c-0.9,0-2.4,0.1-3.6,0.1H208c-1,0-1.8,0-2-0.4c-0.2-0.9-0.3-1.8-0.3-2.7
				c0-0.4,0-0.8,0.5-0.8s3.2,0.2,4.9,0.2h0.6c0.6,0,1.1-0.1,1.1-0.6c0-0.2-0.1-1.7-0.2-2.1c-0.1-0.2-0.1-0.5-0.1-0.7
				c0-0.3,0.2-0.4,0.5-0.4C213.4,35.1,216,35.5,216.6,35.6z M210.2,52.5c0,0.6,0.9,0.6,1.4,0.6c0.7,0,1.5-0.2,1.5-1
				c0-0.4-0.3-0.4-0.8-0.4C211.8,51.7,210.2,51.8,210.2,52.5L210.2,52.5z"/>
			<path id="パス_2997" class="st0" d="M240.5,35c0.2,0,0.6,0.1,0.6,0.3c0,0.1-0.1,0.2-0.2,0.2c-0.2,0.2-0.4,0.5-0.4,0.8
				c0,0.3-0.1,0.8-0.1,1.2c0,0.7,0,1.1,0.8,1.1c2,0,4-0.3,6.1-0.3c0.4,0,0.7,0,0.7,1.8c0,0.6,0,1.3-0.2,1.9
				c-0.1,0.2-0.2,0.3-0.4,0.3c-0.1,0-2.9-0.2-3.7-0.2c-0.8,0-1.7,0-2.6,0c-0.4,0-0.7,0.2-0.7,0.6c0,0.1,0,0.1,0,0.2v0.6
				c0,0.5,0.1,1,0.4,1.4c0.5,1.1,0.7,2.3,0.7,3.5c0,4.1-2.8,9.1-4.1,9.1c-0.7-0.1-1.4-0.4-2.1-0.7c-0.7-0.3-1.3-0.6-1.3-0.9
				c0-0.2,0.3-0.5,0.5-0.7c0.5-0.5,1.7-1.6,1.7-2c0-0.3-0.2-0.3-0.5-0.3c-2.4-0.1-3.3-2.7-3.3-4.7c0-2.3,1-4.7,3.5-5.2
				c0.2,0,0.5-0.1,0.5-0.3c0-0.1-0.1-0.3-0.3-0.3c-0.3,0-2.2,0.2-2.6,0.3c-0.6,0.1-4.2,0.7-4.7,0.8c-0.2,0-0.3,0.1-0.5,0.1
				c-0.4,0-0.5-0.6-0.7-2.1c-0.1-0.8-0.1-1.4-0.1-1.6c0-0.4,0.1-0.4,0.7-0.5c2.3-0.1,4.6-0.3,6.7-0.4c0.7,0,1.3-0.1,1.3-0.9
				c0-0.9-0.1-1.9-0.2-2.8c0-0.1,0-0.1,0-0.2c0-0.2,0.1-0.4,0.3-0.4c0,0,0.1,0,0.1,0C237,34.5,239.9,34.9,240.5,35z M236.1,47.8
				c0,0.5,0.1,1.8,0.8,1.8s0.9-1.3,0.9-1.8c0-0.5-0.1-1.7-0.8-1.7C236.2,46.1,236.1,47.3,236.1,47.8L236.1,47.8z"/>
		</g>
	</g>
	<g id="グループ_2238" transform="translate(10610 -1359)">
		<g id="グループ_2234" transform="translate(-10337 1441)">
			<rect id="長方形_303" class="st0" width="1" height="119"/>
			<rect id="長方形_304" x="19" class="st0" width="1" height="119"/>
			<g id="グループ_1224" transform="translate(4.865 3.185)">
				<path id="パス_2508" class="st0" d="M8.9,4.9c0.4,0,0.8,0,1.2,0c0.3,0,0.4,0.1,0.4,0.5v0.5c0,0.4,0,0.5-0.4,0.5
					c-0.4,0-0.7,0-1.1,0c-0.1,0-0.3,0-0.3,0.2c0.1,0.3,0.3,0.7,0.5,0.9c0.4,0.6,0.8,1.1,1.3,1.6c0,0,0.1,0.1,0.1,0.2
					c-0.2,0.5-0.6,0.9-1.1,1.1c-0.3,0-1.1-1.2-1.3-1.4C8.1,8.7,7.9,8.4,7.7,8C7.6,7.9,7.6,7.8,7.5,7.8C7.4,7.8,7.3,7.9,7.3,8
					c-0.5,0.9-1.1,1.7-1.8,2.4c0,0.1-0.1,0.1-0.2,0.1c-0.3,0-0.9-0.6-1.1-0.8c0-0.1-0.1-0.2-0.2-0.2c0,0-0.5,0.1-0.5,0.1
					C2.8,9.8,2,9.9,1.3,10.1C1,10.1,1,10.1,0.9,10.3c0,0.1-0.1,0.2-0.2,0.2c-0.1,0-0.2-0.3-0.4-0.7C0.3,9.6,0.2,9.4,0.2,9.2
					c0-0.1-0.1-0.2-0.1-0.3c0-0.1,0.1-0.1,1.2-0.2c0.2,0,0.4-0.1,0.4-0.3V6.5c0-0.2-0.1-0.3-0.3-0.3c-0.3,0-0.6,0-0.9,0
					c-0.2,0-0.2-0.1-0.2-0.4V5.3c0-0.3,0-0.4,0.2-0.4c0.3,0,0.6,0,1,0c0.1,0,0.2-0.1,0.3-0.2c0,0,0,0,0,0c0-0.2-0.1-0.3-0.2-0.3
					s-0.3,0-0.5,0C0.7,4.4,0.7,4.2,0.7,4c0-0.2-0.1-0.3-0.2-0.4C0.4,3.5,0.1,3.2,0.1,3c0-0.1,0.1-0.2,0.3-0.3C1.1,2,1.7,1.1,2.1,0.2
					C2.1,0.1,2.1,0,2.2,0c0.1,0,0.6,0.2,0.9,0.3c0.2,0.1,0.4,0.1,0.4,0.1c0.1,0,0.2,0.1,0.2,0.2c0,0.1,0,0.1-0.1,0.1
					c-0.1,0-0.1,0-0.1,0.1c0,0,0,0.1,0.1,0.1c0.1,0.1,0.1,0.1,0.2,0.2c0.3,0.3,0.6,0.6,1,0.8C5,2,5,1.9,5,1.6C5,1.5,5.1,1,5.1,0.9
					c0-0.1,0-0.2,0.1-0.2c0.4,0.1,0.7,0.1,1.1,0.2c0.1,0,0.1,0,0.2,0c0.1,0,0.1-0.1,0.1-0.2c0-0.1,0-0.3,0-0.4
					c0-0.2,0.1-0.2,0.2-0.2s1.3,0.1,1.4,0.1s0.2,0,0.2,0.2c0,0.1-0.1,0.1-0.1,0.1C8.2,0.6,8.2,0.7,8.2,0.9v0.9
					c0,0.2,0.1,0.3,0.3,0.3c0,0,0,0,0,0H9c0.4,0,0.7,0,0.9,0s0.2,0.1,0.2,0.4v0.8c0,0.3,0,0.4-0.2,0.4c-0.2,0-0.5,0-0.9,0H8.5
					c-0.2,0-0.3,0.2-0.3,0.3c0,0,0,0,0,0v0.1c0,0.2,0,0.4,0,0.5c0,0.2,0.1,0.3,0.3,0.4c0,0,0,0,0,0L8.9,4.9z M1.5,7.1
					c0,0.2,0.2,0.8,0.2,0.9c0,0.3-0.9,0.4-0.9,0.4c-0.2,0-0.2-0.1-0.2-0.3C0.4,7.8,0.3,7.3,0.1,6.9c0,0,0-0.1,0-0.1
					c0-0.2,0.9-0.4,1-0.4C1.3,6.3,1.3,6.4,1.5,7.1z M3.2,3.1c0.2,0,0.3,0,0.3-0.1c0-0.1-0.1-0.2-0.2-0.2C3.3,2.6,3,2.4,3,2.3
					C2.9,2.2,2.9,2.1,2.8,2.1S2.6,2.2,2.6,2.3C2.5,2.4,2.3,2.6,2.2,2.7c-0.1,0-0.1,0.1-0.1,0.2c0,0.1,0.2,0.1,0.3,0.1L3.2,3.1z
					 M3.2,4.7c0,0.1,0.1,0.2,0.2,0.2c0,0,0,0,0,0c0.2,0,0.5,0,0.7,0c0.2,0,0.2,0.1,0.2,0.4v0.5c0,0.3,0,0.4-0.2,0.4s-0.4,0-0.7,0
					c-0.2,0-0.3,0.1-0.3,0.3V8c0,0.1,0.1,0.2,0.2,0.2c0,0,0,0,0,0c0,0,0.3,0,0.3-0.1C3.8,8.1,3.7,8,3.6,8C3.4,7.9,3.3,7.9,3.3,7.7
					c0-0.1,0-0.1,0-0.1c0.1-0.4,0.2-0.8,0.3-1.2c0-0.1,0-0.2,0.1-0.2C4,6.3,4.2,6.4,4.5,6.5C4.9,6.6,5,6.6,5,6.8
					c0,0.1-0.1,0.1-0.1,0.2C4.7,7,4.7,7,4.6,7.3c0,0.2-0.1,0.3-0.2,0.5c0,0.1,0,0.1,0,0.2c0,0.1,0,0.1,0,0.1c0,0.2,0,0.4,0,0.5v0.1
					c0,0.1,0,0.1,0.1,0.1c0.7-0.7,1.2-1.5,1.6-2.4c0-0.1-0.2-0.2-0.3-0.2c-0.3,0-0.5,0-0.8,0c-0.3,0-0.4-0.1-0.4-0.6V5.5
					c0-0.4,0-0.5,0.1-0.5c0,0,0,0,0-0.1c0-0.1-0.1-0.1-0.1-0.1C4.7,4.7,4.3,4.5,4.3,4.4c0-0.1,0-0.1,0.1-0.2
					c0.2-0.5,0.3-0.9,0.4-1.4c0,0,0-0.1,0-0.1c0,0,0-0.1-0.1-0.1c0,0-0.1,0-0.1,0.1c0,0.1-0.1,0.1-0.1,0.2C4.3,3,4.2,3.1,4.2,3.2
					c0,0.1,0,0.2,0,0.3v0.5c0,0.2,0,0.3-0.2,0.3c-0.2,0-0.4,0-0.6,0C3.3,4.4,3.2,4.5,3.2,4.7C3.2,4.6,3.2,4.6,3.2,4.7L3.2,4.7z
					 M6.2,3.6C6,3.6,5.9,3.7,5.9,3.9C5.8,4.1,5.7,4.4,5.6,4.6c0,0.1,0,0.1,0,0.2c0,0.1,0.1,0.1,0.2,0.1c0.2,0,0.3,0,0.5,0
					c0.4,0,0.4-0.1,0.4-1c0-0.2-0.1-0.3-0.3-0.3C6.3,3.6,6.3,3.6,6.2,3.6L6.2,3.6z M6.5,2.1c0.1,0,0.1-0.1,0.1-0.1V1.4
					c0,0,0-0.1-0.1-0.1c-0.1,0-0.2,0.2-0.2,0.4c0,0.1,0,0.1,0,0.2V2C6.3,2,6.4,2.1,6.5,2.1L6.5,2.1z"/>
				<path id="パス_2509" class="st0" d="M6.9,12.9c0.1,0.9-0.6,1.7-1.5,1.7c-0.1,0-0.1,0-0.2,0c-0.8,0-1.5-0.6-1.5-1.4
					c0,0,0-0.1,0-0.1c0-0.9,0.6-1.6,1.5-1.7c0.1,0,0.1,0,0.2,0c0.8-0.1,1.5,0.5,1.5,1.3C6.9,12.8,6.9,12.8,6.9,12.9z"/>
				<path id="パス_2510" class="st0" d="M2.2,20c-0.5,0-0.9,0-1.3,0c-0.3,0-0.3-0.1-0.3-0.5V19c0-0.4,0-0.5,0.3-0.5
					c0.4,0,0.9,0,1.3,0h0.7c0.3,0,0.3-0.3,0.3-0.6c0-0.3,0-0.6,0-0.8c0-0.2,0.1-0.2,0.3-0.2S4.9,16.9,5,17c0.1,0,0.2,0,0.2,0.2
					c0,0.1-0.1,0.1-0.1,0.1c-0.2,0.1-0.2,0.1-0.2,0.5v3.3c0,0.4,0,1.1,0,1.2c0,0.3,0.1,0.3,0.2,0.4c0.2,0.1,0.3,0.9,0.3,1.1
					S5.3,24,5,24c-0.5,0.1-0.6,0.3-0.8,0.8c-0.4,0.7-0.9,1.3-1.6,1.7C2.4,26.8,2,27,1.6,27.1c-0.4,0-1-0.8-1-1.1
					c0-0.1,0.2-0.2,0.3-0.3c0.4-0.2,1.4-0.8,1.4-1.1c0-0.1-0.1-0.1-0.2-0.1c-0.1,0-1,0.2-1.1,0.2C1.1,24.8,1,24.9,1,25
					c0,0.1-0.1,0.2-0.2,0.2s-0.2-0.1-0.2-0.3c-0.1-0.5-0.2-0.9-0.3-1.4c0-0.2,0.1-0.2,0.3-0.2c0.5,0,1.3-0.1,1.9-0.2
					c0.3,0,0.7,0,0.7-0.4c0-0.1-0.1-0.3-0.2-0.3c0,0-0.1,0-0.1,0H2.3c-0.4,0-0.8,0-1.3,0c-0.3,0-0.3-0.1-0.3-0.5v-0.6
					c0-0.4,0-0.5,0.3-0.5c0.4,0,0.8,0,1.3,0h0.6c0.2,0,0.3-0.1,0.3-0.3c0,0,0,0,0,0v-0.2c0-0.2-0.1-0.3-0.3-0.3c0,0,0,0,0,0L2.2,20z
					 M5.8,17.8c0-0.2,0-0.6,0-0.7c0-0.1,0.1-0.2,0.2-0.2c0.4,0,1,0,1.4,0c0.1,0,0.3,0,0.3,0.2c0,0.1-0.1,0.1-0.1,0.2
					c-0.1,0.1-0.1,0.3-0.1,0.5v0.3c0,0.2,0.1,0.4,0.3,0.4h0.9c0.4,0,0.9,0,1.3,0c0.3,0,0.3,0.1,0.3,0.4v0.6c0,0.4,0,0.5-0.3,0.5
					c-0.4,0-0.9,0-1.3,0H7.8c-0.2,0-0.3,0.1-0.3,0.3c0,0,0,0,0,0v0.3c0,0.2,0.1,0.3,0.3,0.3c0,0,0,0,0,0h0.5c0.5,0,0.9,0,1.4,0
					c0.3,0,0.3,0.1,0.3,0.5v0.6c0,0.4,0,0.5-0.3,0.5c-0.5,0-0.9,0-1.4,0H7.8c-0.2,0-0.3,0.1-0.3,0.3c0,0,0,0,0,0v0.3
					c0,0.2,0.1,0.3,0.3,0.3c0,0,0,0,0,0h1.1c0.5,0,0.9,0,1.4,0c0.2,0,0.3,0.1,0.3,0.5v0.5c0,0.4,0,0.5-0.3,0.5c-0.5,0-0.9,0-1.4,0
					H7.8c-0.3,0-0.3,0.3-0.3,0.5v0.1c0,0.4,0,0.9,0,1.3c0,0.3-0.1,0.3-0.5,0.3H6.2c-0.4,0-0.5,0-0.5-0.3c0-0.5,0-1,0-1.6L5.8,17.8z"
					/>
				<path id="パス_2511" class="st0" d="M8.9,33.9c0.4,0,0.8,0,1.2,0c0.3,0,0.4,0.1,0.4,0.5v0.5c0,0.4,0,0.5-0.4,0.5
					c-0.4,0-0.7,0-1.1,0c-0.1,0-0.3,0-0.3,0.2c0.1,0.3,0.3,0.7,0.5,0.9c0.4,0.6,0.8,1.1,1.3,1.6c0,0,0.1,0.1,0.1,0.2
					c-0.2,0.5-0.6,0.9-1.1,1.1c-0.3,0-1.1-1.2-1.3-1.4c-0.2-0.3-0.4-0.7-0.6-1c-0.1-0.1-0.1-0.2-0.2-0.2c-0.1,0-0.2,0.1-0.2,0.2
					c-0.5,0.9-1.1,1.7-1.8,2.4c0,0.1-0.1,0.1-0.2,0.1c-0.3,0-0.9-0.6-1.1-0.8c0-0.1-0.1-0.2-0.2-0.2c0,0-0.5,0.1-0.5,0.1
					C2.8,38.7,2,38.9,1.3,39C1,39.1,1,39.1,0.9,39.2c0,0.1-0.1,0.2-0.2,0.2c-0.1,0-0.2-0.3-0.4-0.7c-0.1-0.1-0.1-0.3-0.2-0.5
					c0-0.1-0.1-0.2-0.1-0.3c0-0.1,0.1-0.1,1.2-0.3c0.2,0,0.4-0.1,0.4-0.3v-1.8c0-0.2-0.1-0.3-0.3-0.3c-0.3,0-0.6,0-0.9,0
					c-0.2,0-0.2-0.1-0.2-0.4v-0.5c0-0.3,0-0.4,0.2-0.4c0.3,0,0.6,0,1,0c0.1,0,0.2-0.1,0.3-0.2c0,0,0,0,0,0c0-0.2-0.1-0.3-0.2-0.3
					s-0.3,0-0.5,0c-0.3,0-0.2-0.1-0.2-0.4c0-0.2-0.1-0.3-0.2-0.4c-0.1-0.1-0.4-0.5-0.4-0.6c0-0.1,0.1-0.2,0.3-0.3
					c0.8-0.7,1.4-1.6,1.7-2.5c0-0.1,0.1-0.2,0.2-0.2c0.1,0,0.6,0.2,0.9,0.3c0.2,0.1,0.4,0.1,0.4,0.1c0.1,0,0.2,0.1,0.2,0.2
					c0,0.1,0,0.1-0.1,0.1c-0.1,0-0.1,0-0.1,0.1c0,0,0,0.1,0.1,0.1s0.1,0.1,0.2,0.2c0.3,0.3,0.6,0.6,1,0.8C5,30.9,5,30.8,5,30.5
					c0-0.1,0.1-0.6,0.1-0.7c0-0.1,0-0.3,0.1-0.3c0.4,0.1,0.7,0.1,1.1,0.3c0.1,0,0.1,0,0.2,0c0.1,0,0.1-0.1,0.1-0.2
					c0-0.1,0-0.3,0-0.4c0-0.2,0.1-0.2,0.2-0.2s1.3,0.1,1.4,0.1s0.2,0,0.2,0.2c0,0.1-0.1,0.1-0.1,0.1c-0.1,0.1-0.2,0.2-0.2,0.3v0.9
					c0,0.2,0.1,0.3,0.3,0.3c0,0,0,0,0,0H9c0.4,0,0.7,0,0.9,0s0.2,0.1,0.2,0.4v0.8c0,0.3,0,0.4-0.2,0.4c-0.2,0-0.5,0-0.9,0H8.5
					c-0.2,0-0.3,0.2-0.3,0.3c0,0,0,0,0,0V33c0,0.2,0,0.4,0,0.5c0,0.2,0.1,0.3,0.3,0.4c0,0,0,0,0,0L8.9,33.9z M1.5,36.1
					c0,0.2,0.2,0.8,0.2,0.9c0,0.3-0.9,0.4-0.9,0.4c-0.2,0-0.2-0.1-0.2-0.3c-0.1-0.5-0.2-0.9-0.3-1.4c0,0,0-0.1,0-0.1
					c0-0.2,0.9-0.4,1-0.4C1.3,35.3,1.3,35.3,1.5,36.1L1.5,36.1z M3.2,32c0.2,0,0.3,0,0.3-0.1c0-0.1-0.1-0.2-0.2-0.2
					C3.3,31.5,3,31.3,3,31.2c-0.1-0.1-0.1-0.1-0.2-0.1s-0.1,0.1-0.2,0.2c-0.1,0.1-0.2,0.3-0.3,0.4c-0.1,0-0.1,0.1-0.1,0.2
					C2.2,32,2.4,32,2.5,32L3.2,32z M3.2,33.6c0,0.1,0.1,0.2,0.2,0.2c0,0,0,0,0,0c0.2,0,0.5,0,0.7,0c0.2,0,0.2,0.1,0.2,0.4v0.5
					c0,0.3,0,0.4-0.2,0.4s-0.4,0-0.7,0c-0.2,0-0.3,0.1-0.3,0.3V37c0,0.1,0.1,0.2,0.2,0.2c0,0,0,0,0,0c0,0,0.3,0,0.3-0.1
					C3.8,37,3.7,37,3.6,37c-0.2-0.1-0.4-0.1-0.4-0.3c0-0.1,0-0.1,0-0.1c0.1-0.4,0.2-0.8,0.3-1.2c0-0.1,0-0.2,0.1-0.2
					c0.2,0.1,0.5,0.1,0.7,0.2C4.9,35.6,5,35.6,5,35.7c0,0.1-0.1,0.1-0.1,0.2c-0.1,0-0.1,0.1-0.2,0.4c0,0.2-0.1,0.3-0.2,0.5
					c0,0.1,0,0.1,0,0.2c0,0.1,0,0.1,0,0.1c0,0.2,0,0.4,0,0.5v0.1c0,0.1,0,0.1,0.1,0.1c0,0,0,0,0,0c0.7-0.7,1.2-1.5,1.6-2.4
					c0-0.1-0.2-0.2-0.3-0.2c-0.3,0-0.5,0-0.8,0c-0.3,0-0.4-0.1-0.4-0.6v-0.4c0-0.4,0-0.5,0.1-0.5c0,0,0,0,0-0.1
					c0-0.1-0.1-0.1-0.1-0.1c-0.1-0.1-0.5-0.2-0.5-0.4c0-0.1,0-0.1,0.1-0.2c0.2-0.5,0.3-0.9,0.4-1.4c0,0,0-0.1,0-0.1
					c0,0,0-0.1-0.1-0.1c0,0-0.1,0-0.1,0.1c0,0.1-0.1,0.1-0.1,0.2C4.3,32,4.2,32,4.2,32.2c0,0.1,0,0.2,0,0.3V33c0,0.2,0,0.3-0.2,0.3
					c-0.2,0-0.4,0-0.6,0C3.3,33.3,3.2,33.4,3.2,33.6L3.2,33.6z M6.2,32.5c-0.2,0-0.3,0.1-0.3,0.3c-0.1,0.3-0.2,0.5-0.3,0.8
					c0,0.1,0,0.1,0,0.2c0,0.1,0.1,0.1,0.2,0.1c0.2,0,0.3,0,0.5,0c0.4,0,0.4-0.1,0.4-1c0-0.2-0.1-0.3-0.3-0.3
					C6.3,32.5,6.3,32.5,6.2,32.5L6.2,32.5z M6.5,31c0.1,0,0.1-0.1,0.1-0.1v-0.5c0,0,0-0.1-0.1-0.1c-0.1,0-0.2,0.2-0.2,0.4
					c0,0.1,0,0.1,0,0.2v0.1C6.3,31,6.4,31,6.5,31L6.5,31z"/>
				<path id="パス_2512" class="st0" d="M2.2,51.3c-0.5,0-1,0-1.5,0c-0.2,0-0.3-0.1-0.3-0.5v-0.7c0-0.3,0-0.5,0.3-0.5
					c0.5,0,1,0,1.5,0h0.1c0.1,0,0.2,0,0.2-0.2c-0.1-0.3-0.3-0.7-0.5-1C2,48.6,2,48.6,2,48.5c-0.1-0.1-0.1-0.1-0.1-0.2
					c0-0.1,0.2-0.2,0.3-0.3c0,0,0.1,0,0.1-0.1s-0.1-0.1-0.1-0.1c-0.1,0-0.3,0-0.5,0c-0.3,0-0.3-0.2-0.3-0.5v-0.5
					c0-0.4,0-0.5,0.3-0.5c0.5,0,0.9,0,1.4,0h1c0.1,0,0.3-0.1,0.3-0.3v-0.2c0-0.1,0-0.2-0.1-0.2H4.2c-0.3,0-0.6,0-0.9,0
					S3,45.7,3,45.4c0-0.1,0-0.2-0.1-0.2c-0.1,0-0.1,0-0.2,0.1c-0.3,0.2-0.9,0.6-1.2,0.8c-0.1,0.1-0.2,0.1-0.3,0.1
					c-0.5,0-1-0.9-1-1.2c0-0.1,0.1-0.1,0.3-0.3c1.6-0.7,3-1.9,4-3.4c0.1-0.1,0.1-0.1,0.2-0.1c0.2,0,1,0.1,1.3,0.2
					c0.4,0.1,0.7,0.1,0.7,0.3c0,0.1,0,0.1-0.1,0.1c0,0-0.1,0.1-0.1,0.1c0,0.1,0.1,0.2,0.2,0.3c1,1,2.1,1.8,3.4,2.3
					c0.3,0.1,0.4,0.2,0.4,0.3c0,0.4-0.4,1.3-0.8,1.3c-0.6-0.2-1.2-0.6-1.7-0.9c0,0-0.1-0.1-0.2-0.1c-0.1,0-0.1,0.2-0.1,0.3
					c0,0.2-0.1,0.3-0.3,0.3c-0.3,0-0.6,0-0.9,0H6.3c-0.1,0-0.1,0.1-0.1,0.2v0.3c0,0.1,0.1,0.3,0.3,0.3h1c0.5,0,0.9,0,1.4,0
					c0.3,0,0.3,0.1,0.3,0.5v0.5c0,0.3,0,0.5-0.3,0.5c-0.1,0-0.2,0-0.3,0c0,0-0.1,0-0.1,0.1s0.2,0.1,0.4,0.2c0.1,0,0.2,0.1,0.2,0.2
					c0,0.1-0.1,0.1-0.2,0.1c-0.1,0-0.2,0.1-0.4,0.5c-0.1,0.1-0.1,0.3-0.2,0.5c0,0.1-0.1,0.1-0.1,0.2c0,0.2,0.2,0.2,0.3,0.2
					c0.5,0,0.9,0,1.4,0c0.3,0,0.3,0.1,0.3,0.5v0.6c0,0.4,0,0.5-0.3,0.5c-0.5,0-1,0-1.5,0L2.2,51.3z M4.2,49.8c0.2,0,0.3-0.1,0.3-0.3
					c0,0,0,0,0,0v-1.3c0-0.2-0.1-0.3-0.3-0.3H3.6c-0.1,0-0.3,0-0.3,0.1c0,0.1,0,0.1,0.1,0.2c0.3,0.4,0.5,0.8,0.6,1.2
					c0,0.1-0.2,0.2-0.3,0.3c0,0-0.1,0-0.1,0.1c0,0.1,0.1,0.1,0.1,0.1L4.2,49.8z M6.4,44.4c0.1,0,0.2,0,0.2-0.1
					c0-0.1-0.1-0.1-0.1-0.2c-0.3-0.3-0.6-0.5-0.9-0.9C5.5,43.2,5.4,43,5.3,43s-0.4,0.2-0.7,0.5c-0.2,0.2-0.4,0.4-0.6,0.6
					c0,0-0.1,0.1-0.1,0.2s0.1,0.1,0.3,0.1L6.4,44.4z M6.9,49.8c0,0,0.1,0,0.1-0.1c0,0-0.1-0.1-0.1-0.1c-0.1-0.1-0.3-0.1-0.3-0.3
					c0-0.1,0.1-0.2,0.1-0.3L6.8,49C7,48.7,7.1,48.4,7.2,48c0-0.1-0.1-0.2-0.3-0.2H6.5c-0.2,0-0.3,0.1-0.3,0.3c0,0,0,0,0,0v1.3
					c0,0.2,0.1,0.3,0.3,0.3c0,0,0,0,0,0L6.9,49.8z"/>
				<path id="パス_2513" class="st0" d="M4.6,63.1c0,0-0.1,0.1-0.1,0.1c-0.1,0-0.1-0.1-0.2-0.3c0-0.1,0-0.1,0-0.2
					c-0.1-0.2-0.1-0.4-0.2-0.7c0-0.1,0.1-0.1,0.5-0.2c0.6,0,0.8,0,0.8-0.2v-0.2c0-0.1-0.1-0.2-0.2-0.2H4.2c-0.2,0-0.3,0.1-0.3,0.3
					c0,0,0,0,0,0v1.1c0,0.3,0,0.6,0,0.9c0,0.3-0.1,0.3-0.4,0.3H2.8c-0.3,0-0.4,0-0.4-0.3c0-0.3,0-0.6,0-0.9v-1.1c0-0.4,0-0.7,0-1
					c0-0.4,0.3-0.4,0.6-0.4c0.4,0,0.7,0,1.1,0h1c0.1,0,0.1-0.1,0.1-0.1v0C5.3,60,5.3,60,5.2,60H4.4c-0.3,0-0.6,0-0.9,0
					c-0.4,0-0.5-0.1-0.5-0.5c0-0.2,0-0.4,0-0.6v-0.1c0-0.2,0-0.4,0-0.6c0-0.4,0.2-0.5,0.5-0.5c0.3,0,0.6,0,0.9,0h0.8
					c0.1,0,0.2,0,0.2-0.1c0-0.1,0-0.1-0.1-0.1c0,0,0,0,0,0c-0.6,0-1.2,0-1.8,0c-0.2,0-0.2,0-0.3-0.2C3,57.1,3,56.9,3,56.7
					c0-0.2,0.1-0.2,0.4-0.2h0.2c1.3,0,2.5-0.1,3.7-0.2c0.1,0,0.1,0,0.1-0.1s0,0-0.1,0H2.7c-0.1,0-0.3,0.1-0.3,0.3c0,0,0,0,0,0v0.4
					c0.1,2.2-0.1,4.4-0.7,6.5c-0.1,0.4-0.2,0.4-0.4,0.4c-0.3,0-1.3-0.3-1.3-0.6c0-0.1,0-0.2,0.1-0.4c0.5-1.6,0.8-3.4,0.7-5.1v-2.9
					c0-0.2,0-0.4,0-0.5c0-0.4,0.2-0.5,0.6-0.5c0.4,0,0.8,0,1.2,0H8c0.4,0,0.7,0,1,0c0.4,0,0.8,0,0.8,0.5c0,0.1,0,0.2,0,0.3
					c0,0.1,0,0.2,0,0.3v0.3c0,0.2,0,0.4,0,0.6c0,0.4-0.4,0.5-0.7,0.5H8.9c-0.1,0-0.2,0-0.2,0.1c0.1,0.2,0.1,0.3,0.2,0.4
					C8.9,56.9,9,57,9,57c0.1,0.1,0.1,0.1,0.1,0.2c0,0.1,0,0.1-0.1,0.1c0,0,0,0,0,0c-0.1,0-0.1,0-0.2,0c-0.1,0-0.1,0-0.2,0
					c-0.1,0-0.2,0-0.3,0c-0.4,0-0.8,0.1-1,0.1c-0.5,0-0.6,0.1-0.6,0.2v0c0,0.1,0.1,0.1,0.1,0.1c0,0,0,0,0,0h0.9c0.3,0,0.6,0,0.9,0
					c0.4,0,0.5,0.1,0.5,0.5c0,0.2,0,0.4,0,0.6v0.1c0,0.2,0,0.4,0,0.6c0,0.4-0.2,0.5-0.5,0.5c-0.3,0-0.6,0-0.9,0H6.9
					c-0.1,0-0.1,0.1-0.1,0.1v0c0,0.1,0.1,0.1,0.1,0.1h1.3c0.4,0,0.8,0,1.1,0c0.3,0,0.6,0,0.6,0.4c0,0.3,0,0.6,0,1v0.4
					c0,0.3,0,0.5,0,0.8c0,1-0.9,1.1-1.7,1.1c-0.2,0-0.4-0.1-0.4-0.6c0-0.1-0.1-0.2-0.2-0.2c-0.1,0-0.1-0.1-0.1-0.2
					c0-0.1-0.1-0.2-0.3-0.2c0,0-0.3,0-0.3,0c-0.4,0.1-0.8,0.1-1.3,0.2C5.3,63,5.1,63,4.8,63C4.7,63,4.7,63,4.6,63.1z M8,55.3
					c0.1,0,0.1-0.1,0.1-0.1v0c0-0.1-0.1-0.1-0.1-0.1H2.5c-0.1,0-0.1,0.1-0.1,0.1c0,0,0,0,0,0v0c0,0.1,0.1,0.1,0.1,0.1H8z M4.5,58.7
					c-0.1,0-0.1,0.1-0.1,0.1v0c0,0.1,0.1,0.1,0.1,0.1h0.7c0.1,0,0.1-0.1,0.1-0.1v0c0-0.1-0.1-0.1-0.1-0.1H4.5z M6.9,58.7
					c-0.1,0-0.1,0.1-0.1,0.1c0,0,0,0,0,0v0c0,0.1,0.1,0.1,0.1,0.1c0,0,0,0,0,0h0.8c0.1,0,0.1-0.1,0.1-0.1v0c0-0.1-0.1-0.1-0.1-0.1
					H6.9z M6.9,61.3c-0.1,0-0.1,0.1-0.1,0.1v0.1c0,0.1,0,0.1,0.1,0.1c0,0,0,0,0,0c0.1,0,0.2,0,0.2-0.1c0,0,0-0.1,0-0.1
					C7.1,61.3,7.1,61.3,6.9,61.3L6.9,61.3z M8.5,61.6c0-0.2-0.1-0.3-0.3-0.3H8.2c-0.1,0-0.2,0.1-0.2,0.2c0,0,0.2,0.8,0.3,0.9
					c0,0.1,0,0.2,0.1,0.2c0.1,0,0.1-0.2,0.1-0.4L8.5,61.6z"/>
				<path id="パス_2514" class="st0" d="M1.8,67.6c0.1,0,0.3-0.1,0.3-0.3c0,0,0,0,0,0V67c0-0.5,0-0.9,0-1c0-0.1,0.1-0.2,0.2-0.2
					c0.3,0,0.9,0,1.3,0.1c0.1,0,0.2,0,0.2,0.2c0,0.1,0,0.1-0.1,0.2c-0.1,0-0.1,0.1-0.1,0.3v0.7c0,0.1,0.1,0.3,0.3,0.3c0,0,0,0,0,0H4
					c0,0,0.1,0,0.1-0.1s0-0.1-0.1-0.1c-0.1,0-0.4-0.2-0.4-0.3c0,0,0-0.1,0-0.1c0.2-0.3,0.3-0.6,0.4-0.9c0-0.1,0-0.1,0.1-0.1
					c0.2,0.1,0.5,0.2,0.7,0.3c0.3,0.1,0.4,0.2,0.4,0.3c0,0.1-0.1,0.1-0.1,0.1S5.1,66.8,5,66.9c0,0.1-0.1,0.2-0.2,0.4
					c0,0,0,0.1,0,0.1c0,0.1,0.1,0.1,0.2,0.1h0.2c0.2,0,0.2,0.1,0.2,0.4v0.6c0,0.3,0,0.4-0.2,0.4c-0.2,0-0.4,0-0.7,0
					c-0.1,0-0.2,0-0.2,0.1c0.3,0.4,0.7,0.7,1.1,0.9c0.1,0,0.2,0.1,0.2,0.2c0,0.3-0.8,0.9-1,0.9c-0.2,0-0.7-0.8-0.8-1
					c0,0-0.1-0.1-0.1-0.1c0,0-0.1,0-0.1,0.1c0,0,0,0,0,0c0,0.1,0,0.4,0,0.5c0,0.2-0.1,0.3-0.4,0.3H2.4c-0.2,0-0.4,0-0.4-0.2
					c0-0.1,0-0.3,0-0.4S2,70,2,70s-0.2,0.1-0.2,0.2c-0.1,0.2-0.7,0.8-0.8,0.8c-0.2,0-0.5-0.3-0.6-0.5S0,70.3,0,70.1
					c0-0.1,0.1-0.2,0.2-0.2c0.2-0.1,1-0.8,1-0.9c0-0.1-0.1-0.1-0.2-0.1c-0.2,0-0.4,0-0.5,0c-0.2,0-0.2-0.1-0.2-0.4v-0.6
					c0-0.3,0-0.4,0.2-0.4h0.1c0.1,0,0.1,0,0.1-0.1c0-0.1,0-0.1-0.1-0.2c-0.1-0.2-0.2-0.4-0.3-0.5c0,0-0.1-0.1-0.1-0.1
					c0-0.2,0.9-0.6,1-0.6C1.6,66,2,67,2,67c0,0.1-0.3,0.3-0.4,0.4c0,0-0.1,0.1-0.1,0.1c0,0,0,0,0.1,0L1.8,67.6z M3.6,71.6
					c0,0.2,0.2,0.3,0.3,0.3c0,0,0,0,0,0c0.4,0,0.8,0,1.2,0c0.3,0,0.3,0.1,0.3,0.4v0.6c0,0.3,0,0.4-0.3,0.4c-0.3,0-0.6,0-0.9,0
					c-0.1,0-0.2,0-0.2,0.1c0,0.2,0.8,0.9,1,1.1c0,0,0.1,0.1,0.1,0.1c-0.2,0.5-0.6,0.8-1,1c-0.2,0-0.8-0.8-0.9-0.9
					c0-0.1-0.1-0.1-0.2-0.1c-0.1,0-0.2,0.1-0.3,0.2C2.3,75,1.3,76.2,1,76.2c-0.3,0-1-1-1-1.2c0-0.1,0.1-0.1,0.2-0.2
					c0.6-0.4,1.2-0.9,1.6-1.5c0-0.1-0.1-0.1-0.2-0.1c-0.3,0-0.6,0-1,0c-0.3,0-0.3-0.1-0.3-0.4v-0.6c0-0.3,0-0.4,0.3-0.4
					c0.4,0,0.7,0,1.1,0c0.2,0,0.3-0.1,0.4-0.3c0,0,0,0,0,0v-0.1c0-0.1,0-0.2,0-0.2C2,71.1,2.1,71,2.2,71c0.4,0,0.7,0,1.2,0
					c0.3,0,0.4,0,0.4,0.1c0,0.1-0.1,0.1-0.1,0.2C3.6,71.4,3.5,71.5,3.6,71.6z M5.6,69.7c0-0.4,0-0.7,0-1.1c0-0.4,0.2-0.5,0.6-0.5
					h0.1c0.2,0,0.4-0.2,0.5-0.4c0,0,0,0,0,0c0-0.1-0.1-0.1-0.2-0.1c-0.3,0-0.6,0-0.9,0c-0.2,0-0.2-0.1-0.2-0.5v-0.6
					c0-0.3,0-0.4,0.2-0.4c0.3,0,0.6,0,1,0h2.4c0.4,0,0.8,0,1,0c0.2,0,0.2,0.1,0.2,0.4v0.7c0,0.3,0,0.4-0.2,0.4c-0.3,0-0.7,0-1,0H8.9
					c-0.3,0-0.5,0.2-0.6,0.4c0,0.2,0.2,0.2,0.3,0.2c0.3,0,0.6,0,0.9,0c0.4,0,0.6,0.1,0.6,0.5c0,0.4,0,0.7,0,1.1v2.7
					c0,0.4,0,0.7,0,1.1c0,0.5-0.3,0.5-0.7,0.5c0,0-0.1,0-0.1,0c0,0-0.1,0-0.1,0.1c0,0,0,0,0,0c0,0.1,1,0.7,1.2,0.8
					c0.1,0,0.2,0.1,0.2,0.2c0,0.3-0.6,1.1-0.9,1.1c-0.7-0.3-1.3-0.7-1.8-1.3c0-0.2,0.2-0.4,0.3-0.5c0.1-0.1,0.2-0.2,0.2-0.2
					c0-0.1-0.1-0.1-0.1-0.1h-1c-0.1,0-0.1,0-0.1,0.1s0.2,0.3,0.3,0.4c0,0,0,0,0,0c0.1,0.1,0.3,0.3,0.3,0.4c0,0.1-0.1,0.1-0.1,0.1
					c0,0-0.1,0-0.1,0H7.5c0,0-0.1,0-0.1,0c-0.5,0.4-1.1,0.8-1.8,1.1c-0.3,0-0.9-0.8-0.9-1c0-0.1,0.2-0.2,0.2-0.2
					c0.2-0.1,1.3-0.7,1.3-0.8c0-0.1-0.1-0.1-0.1-0.1s-0.1,0-0.1,0c-0.4,0-0.5-0.2-0.5-0.5c0-0.4,0-0.7,0-1.1L5.6,69.7z M8.4,69.6
					c0-0.1-0.1-0.1-0.1-0.1c0,0,0,0,0,0H7.4c-0.1,0-0.1,0.1-0.1,0.1c0,0,0,0,0,0v0.1c0,0.1,0.1,0.1,0.1,0.1c0,0,0,0,0,0h0.9
					C8.4,69.8,8.4,69.7,8.4,69.6C8.4,69.7,8.4,69.6,8.4,69.6L8.4,69.6z M8.4,71c0-0.1-0.1-0.1-0.1-0.1c0,0,0,0,0,0H7.4
					c-0.1,0-0.1,0.1-0.1,0.1c0,0,0,0,0,0v0.1c0,0.1,0,0.1,0.1,0.1c0,0,0,0,0,0h0.9C8.4,71.2,8.4,71.2,8.4,71
					C8.4,71.1,8.4,71.1,8.4,71L8.4,71z M8.4,72.5c0-0.1-0.1-0.1-0.1-0.1c0,0,0,0,0,0H7.4c-0.1,0-0.1,0.1-0.1,0.1c0,0,0,0,0,0v0.1
					c0,0.1,0.1,0.1,0.1,0.1c0,0,0,0,0,0h0.9C8.4,72.7,8.4,72.6,8.4,72.5C8.4,72.6,8.4,72.6,8.4,72.5L8.4,72.5z"/>
				<path id="パス_2515" class="st0" d="M8.7,80.4c0.8,0.8,1.2,1.8,1.2,2.9c0,1.6-0.9,3-2.3,3.8c-0.4,0.2-0.9,0.4-1.4,0.5
					c-0.4,0-1-1-1-1.4c0-0.1,0.1-0.1,0.4-0.2c1.3-0.2,2.3-1.3,2.4-2.6c0.1-1.1-0.6-2.2-1.7-2.5c-0.2,0-0.2,0.2-0.2,0.4
					C6.1,83,5.5,84.6,4.5,86c-0.4,0.5-1,0.9-1.6,0.9c-0.7,0-1.4-0.5-1.7-1.2c-0.3-0.5-0.4-1.1-0.4-1.7c0-2.7,2.1-4.9,4.7-4.9
					c0,0,0.1,0,0.1,0C6.8,79.2,7.9,79.6,8.7,80.4z M2.5,84.1c0,0.3,0.1,1.1,0.5,1.1c0.3,0,0.7-0.8,0.8-1c0.4-0.9,0.6-1.9,0.7-2.9
					c0-0.1,0-0.2-0.1-0.2C3.1,81.6,2.4,82.8,2.5,84.1z"/>
				<path id="パス_2516" class="st0" d="M4.4,98.7c-0.1,0-0.3,0-0.3,0.1c0,0.1,0.1,0.3,0.2,0.4c0.1,0.1,0.2,0.2,0.2,0.3
					c0.1,0.1,0.1,0.2,0.1,0.3c0,0.1-0.1,0.1-0.1,0.1c0,0-0.1,0-0.1,0c-0.1,0-0.1,0-0.2,0c-0.1,0-0.2,0-0.2,0
					c-0.9,0.3-1.9,0.5-2.9,0.6c-0.1,0-0.2,0-0.3,0c-0.2,0-0.3-0.3-0.4-0.5c-0.1-0.3-0.2-0.5-0.3-0.8c0-0.1,0.1-0.1,0.3-0.1
					c0.7-0.1,1.4-0.2,2.1-0.3c0.1,0,0.2,0,0.2-0.1s0-0.1-0.1-0.1c-0.1,0-0.3,0-0.5,0c-0.3,0-0.6,0-0.6-0.5c0-0.2,0-0.5,0-0.8v-2.6
					c0-0.3,0-0.6,0-0.8c0-0.4,0.3-0.5,0.6-0.5s0.7,0,1.1,0h4.3c0.4,0,0.7,0,1.1,0s0.6,0.1,0.6,0.5c0,0.2,0,0.5,0,0.8v2.6
					c0,0.3,0,0.6,0,0.8c0,0.4-0.3,0.5-0.6,0.5c-0.3,0-0.5,0-0.8,0c0,0-0.1,0-0.1,0.1s0.1,0.1,0.2,0.1c0.7,0.2,1.5,0.3,2.2,0.4
					c0.2,0,0.3,0,0.3,0.1c0,0.1-0.3,1.2-0.8,1.2c-0.8-0.1-1.6-0.3-2.4-0.5C6.8,100,6.4,99.9,6,99.7C6,99.7,6,99.6,6,99.5
					c0-0.2,0.2-0.4,0.4-0.6c0,0,0.1-0.1,0.1-0.2c0-0.1-0.2-0.1-0.3-0.1L4.4,98.7z M8.1,90.5c0.3,0,0.7,0,1,0s0.9,0,0.9,0.5
					c0,0.2,0,0.4,0,0.7V92c0,0.3,0,0.5,0,0.7c0,0.5-0.5,0.5-0.9,0.5c-0.3,0-0.7,0-1,0H2.5c-0.4,0-0.7,0-1,0s-0.9,0-0.9-0.5
					c0-0.2,0-0.4,0-0.7v-0.3c0-0.4,0-0.6,0-0.7c0-0.5,0.5-0.5,0.9-0.5c0.3,0,0.7,0,1,0L8.1,90.5z M2.4,91.6c-0.1,0-0.2,0.1-0.2,0.2
					v0c0,0.1,0.1,0.2,0.2,0.2l0,0H3c0.1,0,0.2-0.1,0.2-0.2c0,0,0,0,0,0v0c0-0.1-0.1-0.2-0.2-0.2c0,0,0,0,0,0H2.4z M7.5,94.8
					c0-0.1-0.1-0.1-0.1-0.1c0,0,0,0,0,0H3.3c-0.1,0-0.1,0.1-0.1,0.1v0.1c0,0.1,0.1,0.1,0.1,0.1h4.1c0.1,0,0.1-0.1,0.1-0.1
					C7.5,94.9,7.5,94.9,7.5,94.8L7.5,94.8z M7.5,96.1c0-0.1-0.1-0.2-0.2-0.2c0,0,0,0,0,0h-4c-0.1,0-0.2,0.1-0.2,0.2c0,0,0,0,0,0v0
					c0,0.1,0.1,0.2,0.2,0.2c0,0,0,0,0,0h4C7.4,96.3,7.5,96.2,7.5,96.1C7.5,96.1,7.5,96.1,7.5,96.1L7.5,96.1z M7.5,97.4
					c0-0.1-0.1-0.2-0.2-0.2c0,0,0,0,0,0h-4c-0.1,0-0.2,0.1-0.2,0.2c0,0,0,0,0,0v0c0,0.1,0.1,0.2,0.2,0.2c0,0,0,0,0,0h4
					C7.4,97.6,7.5,97.5,7.5,97.4C7.5,97.4,7.5,97.4,7.5,97.4L7.5,97.4z M4.9,91.6c-0.1,0-0.2,0.1-0.2,0.2c0,0,0,0,0,0v0
					c0,0.1,0.1,0.2,0.2,0.2h0.7c0.1,0,0.2-0.1,0.2-0.2l0,0v0c0-0.1-0.1-0.2-0.2-0.2H4.9z M7.5,91.6c-0.1,0-0.2,0.1-0.2,0.2
					c0,0,0,0,0,0v0c0,0.1,0.1,0.2,0.2,0.2c0,0,0,0,0,0h0.7c0.1,0,0.2-0.1,0.2-0.2c0,0,0,0,0,0v0c0-0.1-0.1-0.2-0.2-0.2c0,0,0,0,0,0
					H7.5z"/>
				<path id="パス_2517" class="st0" d="M1,111.5c0,0.1-0.1,0.2-0.2,0.2c-0.1,0-0.2-0.1-0.2-0.3c-0.1-0.2-0.3-1.1-0.3-1.2
					c0-0.2,0.2-0.2,0.4-0.3c0.2,0,0.4-0.2,0.4-0.4c0,0,0-0.1,0-0.1v-4.8c0-0.1-0.1-0.3-0.2-0.3c0,0,0,0-0.1,0h0
					c-0.3,0-0.4-0.1-0.4-0.5v-0.5c0-0.4,0-0.5,0.4-0.5c0.4,0,0.8,0,1.1,0h2.6c0.4,0,0.8,0,1.1,0c0.3,0,0.4,0.1,0.4,0.4
					c0,0.4,0.2,0.4,0.9,0.4h1.9c0.1,0,0.3,0,0.5,0c0.2,0,0.5,0,0.7,0.2c0.2,0.1,0.3,0.4,0.3,0.6c-0.1,0.8-0.2,1.6-0.5,2.4
					c-0.2,0.7-0.4,1.4-0.8,2c0,0.1-0.1,0.2-0.1,0.3c0,0.4,1.1,1.5,1.4,1.8c0.1,0.1,0.2,0.2,0.2,0.4c0,0.3-0.8,1.2-1.1,1.2
					c-0.1,0-0.2-0.1-0.4-0.3c0,0-0.1-0.1-0.1-0.1c-0.2-0.3-0.6-0.7-0.8-1c-0.1-0.1-0.2-0.3-0.3-0.3c-0.1,0-0.2,0.1-0.2,0.1
					c-0.2,0.3-1.4,1.6-1.7,1.6c-0.2,0-0.4-0.3-0.5-0.4c-0.1-0.1-0.1-0.2-0.2-0.2c0,0-0.1,0.1-0.1,0.1c0,0.2,0,0.3,0,0.5
					c0,0.3-0.1,0.3-0.5,0.3H4.1c-0.4,0-0.5,0-0.5-0.3c0-0.5,0-0.9,0-1.4c0-0.2-0.1-0.3-0.3-0.3c-0.2,0-0.4,0.1-0.6,0.1
					c-0.5,0.1-1,0.2-1.5,0.3C1.1,111.3,1.1,111.3,1,111.5z M2.9,104.3c-0.2,0-0.3,0.1-0.3,0.3c0,0,0,0,0,0v0.2
					c0,0.2,0.1,0.3,0.3,0.3c0,0,0,0,0,0h0.4c0.2,0,0.3-0.1,0.3-0.3v-0.2c0-0.2-0.1-0.3-0.3-0.3H2.9z M2.9,106.4
					c-0.2,0-0.3,0.1-0.3,0.3c0,0,0,0,0,0v0.2c0,0.2,0.1,0.3,0.3,0.3c0,0,0,0,0,0h0.4c0.2,0,0.3-0.1,0.3-0.3v-0.2
					c0-0.2-0.1-0.3-0.3-0.3H2.9z M2.9,108.5c-0.2,0-0.3,0.1-0.3,0.3c0,0,0,0,0,0v0.4c0,0.2,0,0.3,0.2,0.3c0.2,0,0.4-0.1,0.6-0.1
					c0.2-0.1,0.3-0.2,0.2-0.4v-0.1c0-0.2-0.1-0.3-0.3-0.3c0,0,0,0,0,0L2.9,108.5z M5.2,110.5c0,0.1,0,0.3,0.1,0.3
					c0.2,0,0.8-0.6,0.9-0.8c0.2-0.2,0.7-0.7,0.7-1c0-0.1,0-0.2-0.1-0.3c-0.4-0.8-0.7-1.7-0.8-2.5c0-0.2-0.1-0.3-0.1-0.5
					c0-0.1,0.1-0.2,0.2-0.3c0.1,0,0.1,0,0.1-0.1c0,0,0-0.1-0.1-0.1s-0.1,0-0.1,0c-0.3,0-0.3-0.1-0.3-0.4c0-0.1,0-0.1,0-0.2
					c0-0.1-0.1-0.3-0.2-0.3c0,0,0,0-0.1,0c-0.1,0-0.2,0.1-0.2,0.2c0,0,0,0,0,0L5.2,110.5z M8.2,105.1H8c-0.2,0-0.4,0-0.4,0.2
					c0,0,0,0.2,0,0.3c0.1,0.4,0.1,0.7,0.2,1.1c0.1,0.2,0.1,0.4,0.2,0.4s0.1-0.1,0.1-0.2c0.1-0.3,0.2-0.5,0.2-0.8
					c0.1-0.3,0.1-0.5,0.1-0.8C8.5,105.1,8.4,105.1,8.2,105.1L8.2,105.1z"/>
			</g>
		</g>
	</g>
</g>
</svg>
