<?xml version="1.0" encoding="utf-8"?>
<!-- Generator: Adobe Illustrator 26.3.1, SVG Export Plug-In . SVG Version: 6.00 Build 0)  -->
<svg version="1.1" id="レイヤー_1" xmlns="http://www.w3.org/2000/svg" xmlns:xlink="http://www.w3.org/1999/xlink" x="0px"
	 y="0px" viewBox="0 0 260 206" style="enable-background:new 0 0 260 206;" xml:space="preserve">
<style type="text/css">
	.st0{fill:#FFFFFF;}
	.st1{font-family:'NotoSans-Bold';}
	.st2{font-size:7px;}
	.st3{letter-spacing:1;}
</style>
<g id="グループ_2361" transform="translate(-33 -82)">
	<g id="グループ_2230" transform="translate(11097.936 -379)">
		<path id="線_286" class="st0" d="M-10819.5,666.1h-245.5v-3h245.5V666.1z"/>
		<text transform="matrix(1 0 0 1 -11061.4941 580)" class="st0 st1 st2 st3">OUR BUSINESS</text>
		<g id="グループ_2229" transform="translate(-11061.494 597.18)">
			<path id="パス_2998" class="st0" d="M17.9,9.6c1.3,0,2.6-0.1,3.8-0.1c0.7,0,0.8,0.4,0.8,1.3v1.7c0,1-0.1,1.4-0.8,1.4
				c-1.3,0-2.6-0.1-3.8-0.1H5c-1.3,0-2.5,0.1-3.8,0.1c-0.7,0-0.8-0.4-0.8-1.4v-1.7c0-1,0.1-1.3,0.8-1.3c1.3,0,2.5,0.1,3.8,0.1H17.9z
				"/>
			<path id="パス_2999" class="st0" d="M34.5,2.1c0,0.1-0.1,0.2-0.1,0.3c0,0.2,0.2,0.3,0.4,0.3c0.3,0,0.7,0,1.1,0
				c0.7,0,1.1,0.2,1.1,1c0,0.7,0,1.3,0,2v3.8c0,0.3,0.1,0.4,0.4,0.4c0.5,0,0.6,1.4,0.6,1.7c0,1-0.2,1.2-0.6,1.4
				c-0.2,0.1-0.3,0.4-0.3,0.6v4.8c0,0.6,0,1.2,0,1.7c0,1,0,1.6-0.7,2.2c-0.9,0.6-2,0.9-3.1,0.8c-0.8,0-1.3-0.2-1.4-1
				c-0.1-0.5-0.1-1-0.2-1.5c0-0.5,0-1.1,0.7-1.1c0.4,0,0.8,0.1,1.2,0.1c0.6,0,0.6-0.4,0.6-1.2v-4.2c0,0,0-0.2-0.1-0.2
				c-0.3,0.1-0.5,0.3-0.5,0.6c0,0.2,0,0.7,0,0.9v1.2c0,0.6,0,1.2,0,1.9c0,0.4-0.2,0.4-0.9,0.4h-0.1c-0.7,0-0.9,0-0.9-0.5
				c0-0.3,0.1-1,0.1-1.8v-1.7c0-0.2-0.1-0.6-0.3-0.6c-0.3,0-0.3,0.5-0.3,1c-0.1,2.1-0.4,4.3-0.9,6.3c-0.3,1.1-0.5,1.4-0.8,1.4
				c-0.5-0.1-0.9-0.2-1.3-0.4c-0.6-0.3-0.9-0.5-0.9-1c0-0.2,0-0.4,0.1-0.6c0.6-1.8,1-3.7,1-5.7c0,0,0-0.1,0-0.1c0,0-0.1,0.1-0.3,0.1
				c-0.3,0-0.4-0.5-0.6-1.6c-0.1-0.3-0.1-0.7-0.2-1.1c0-0.2,0-0.4,0-0.6c0-0.4,0.3-0.5,0.6-0.5c0.5-0.1,0.7-0.3,0.7-0.8V5.6
				c0-0.7,0-1.4,0-2c0-0.8,0.4-1,1.1-1c0.3,0,0.6,0,0.9,0c0.5,0,0.7-0.1,1.1-2c0-0.2,0-0.5,0.3-0.5c0.2,0,2.8,0.5,3.1,0.5
				c0.3,0,0.8,0.1,0.8,0.5c0,0.3-0.4,0.4-0.6,0.4c-0.1,0-0.2,0.1-0.2,0.2C34.7,1.8,34.6,1.9,34.5,2.1z M34.1,6.5
				c0-0.4-0.3-0.7-0.7-0.7c0,0,0,0,0,0h-1.6c-0.4,0-0.7,0.3-0.7,0.7c0,0,0,0,0,0v3.7c0,0.4,0,0.8,0.5,0.8c0.3,0,1.6-0.3,1.9-0.3
				c0.3,0,0.6-0.3,0.6-0.6c0,0,0,0,0,0L34.1,6.5z M32.7,6.2c0.3,0,0.4,0.1,0.8,1.4c0.2,0.6,0.4,1.2,0.5,1.9c0,0.7-1.6,1-1.7,1
				c-0.3,0-0.4-0.4-0.6-1.2c-0.1-0.5-0.3-1.2-0.6-2c0-0.1-0.1-0.2,0-0.3C31.2,6.5,32.5,6.2,32.7,6.2L32.7,6.2z M43.2,4.1
				c0-0.4-0.2-0.5-0.6-0.5c-0.6,0-0.6,0.7-0.6,1.2c0,1.4-0.4,2.8-1.1,4c-0.3,0.5-0.9,1.6-1.5,1.6c-0.5,0-2.3-1.2-2.3-1.8
				c0.1-0.3,0.3-0.6,0.5-0.8c1-1.6,1.5-3.5,1.4-5.3c0-1.3,0-1.7,1.1-1.7c0.4,0,0.8,0,1.1,0h2.7c0.4,0,0.7,0,1.1,0c0.9,0,1,0.3,1,1.2
				c0,0.4,0,0.9,0,1.3v2.1c0,0.7,0,1,0.4,1h0.1c0.2,0,0.5-0.1,0.5-1.7c0-0.5,0.1-0.9,0.7-0.9c0.6,0,1.2,0.1,1.7,0.3
				c0.4,0.1,0.6,0.2,0.6,0.7c0,0.9-0.2,1.9-0.4,2.8c-0.5,1.8-1.2,2-2.7,2h-1.8c-1.5,0-2.1-0.6-2.1-2.1c0-0.4,0-1,0-1.6L43.2,4.1z
				 M44.6,10.6c1,0,1.8-0.1,2-0.1c0.7,0,1,0.4,1.6,1.1c0.3,0.3,0.4,0.6,0.5,1c0,1-1.7,3.7-2.4,4.6c-0.1,0.1-0.2,0.3-0.3,0.5
				c0,0.3,0.2,0.4,0.5,0.6c1,0.6,2.1,1,3.2,1.4c0.2,0.1,0.5,0.2,0.5,0.5c0,0.5-1.2,2.6-2,2.6c-0.6,0-3.5-1.8-4.1-2.2
				c-0.2-0.1-0.4-0.2-0.6-0.2c-0.3,0-0.6,0.2-0.8,0.4c-0.6,0.4-3.2,2.1-3.8,2.1c-0.6,0-1.7-2.1-1.7-2.6c0-0.4,0.4-0.5,0.7-0.6
				c0.9-0.4,1.8-0.9,2.6-1.5c0.2-0.1,0.3-0.2,0.3-0.4c0-0.2-0.1-0.4-0.3-0.5c-0.6-0.7-1.1-1.5-1.5-2.4c0-0.3,0.4-0.6,0.6-0.7
				c0.1,0,0.2-0.1,0.2-0.2c0-0.1-0.1-0.1-0.2-0.1c-0.3,0-0.5,0-0.8,0c-0.5,0-0.6-0.2-0.6-0.7c0-0.7,0-1.2,0-1.5
				c0-0.9,0.1-1.1,0.6-1.1c0.7,0,1.4,0.1,2.1,0.1L44.6,10.6z M42.7,13.9c-0.2,0-0.4,0.1-0.4,0.3c0,0.1,0.6,1.1,0.9,1.1
				c0.4,0,0.9-1.1,0.9-1.3c0-0.2-0.2-0.2-0.7-0.2L42.7,13.9z"/>
			<path id="パス_3000" class="st0" d="M73.2,14.8c0,0.7,2.8,3.7,3.4,4.3c0.1,0.1,0.4,0.3,0.4,0.5c0,0.7-2,2-2.6,2
				c-0.2,0-0.3-0.1-0.5-0.2c-1.7-1.8-3.2-3.8-4.3-5.9c-0.9-1.6-1.6-3.3-2.1-5c-0.1-0.4-0.2-0.7-1-0.7c-0.3,0-0.9,0.1-0.9,0.4
				c0,0.2,0.2,0.3,0.4,0.5c2.5,2,3.4,5.3,3.4,8.2c0,1.5-0.1,3-1.6,3.7c-1.2,0.4-2.6,0.6-3.9,0.5c-1.6,0-2-0.4-2.1-2
				c0-0.3-0.2-0.5-0.5-0.5c-0.1,0-0.2,0-0.3,0.1c-1.2,0.6-2.5,1.2-3.8,1.6c-0.7,0-1.8-1.5-1.8-2.2c0-0.2,0.2-0.3,0.6-0.5
				c2.9-1,5.7-2.3,8.3-4.1c0.5-0.4,0.7-0.5,0.7-0.8c0-0.2-0.1-0.3-0.3-0.3c0,0,0,0,0,0c-0.1,0-0.2,0.1-0.4,0.2
				c-1.9,1.4-4,2.6-6.3,3.6c-0.3,0.2-0.7,0.3-1.1,0.4c-0.6,0-1.5-1.6-1.5-2.1c0-0.3,0.2-0.3,0.7-0.5c2.2-0.8,4.3-1.8,6.3-3
				c0.5-0.3,0.7-0.5,0.7-0.6c0-0.2-0.2-0.3-0.4-0.3c-0.1,0-0.3,0-0.4,0.1c-1.7,0.9-3.4,1.7-5.2,2.4c-0.3,0.1-0.6,0.2-1,0.3
				c-0.7,0-1.5-1.7-1.5-2.3c0-0.3,0.2-0.4,0.8-0.5c1.4-0.4,2.8-0.9,4.1-1.4c0.6-0.2,0.9-0.4,0.9-0.6c0-0.1-0.1-0.1-0.2-0.1
				c-0.1,0-0.1,0-0.3,0H60c-0.5,0-1,0-1.5,0c-0.6,0-0.8-0.1-0.8-0.8V8.8c0-0.3-0.3-0.6-0.6-0.6c0,0,0,0,0,0h-1.4
				c-0.5,0-0.9-0.1-0.9-0.6c0-0.4,0.1-0.9,0.1-1.4V5c0-0.8-0.1-1.4-0.1-1.7c0-0.9,1-0.9,1.7-0.9c1,0,1.9,0.1,2.9,0.1h3.7
				c0.4,0,0.7-0.3,0.7-0.7c0,0,0,0,0,0c0-0.2,0-0.9-0.1-1.1c0-0.1,0-0.2,0-0.2C63.8,0,64.1,0,64.4,0c0.7,0,2.5,0.1,3.3,0.2
				c0.6,0.1,0.7,0.2,0.7,0.4c0,0.1-0.1,0.2-0.3,0.4c-0.2,0.2-0.2,0.5-0.2,0.8c0,0.4,0.3,0.6,0.7,0.7h3.6c1,0,1.9-0.1,2.9-0.1
				c0.6,0,1.7,0,1.7,0.9c0,0.2-0.1,1-0.1,1.7v1.3c0,0.5,0.1,1,0.1,1.4c0,0.6-0.3,0.7-1.4,0.7c-0.3,0-0.6,0-0.9,0
				C74.1,8.3,74,8.7,74,9v0.2c0,0.3,0.4,0.7,0.8,1c0.4,0.4,0.9,1,1.5,1.5c0.3,0.3,0.5,0.5,0.5,0.7c0,0.2-0.1,0.3-0.3,0.3
				c-0.1,0-0.2,0-0.3-0.1c-0.1,0-0.1,0-0.2-0.1c-0.1,0-0.2,0-0.3,0.1c-0.5,0.4-0.9,0.6-1.2,0.8C73.7,14.2,73.2,14.4,73.2,14.8z
				 M70.4,6.6c0.7,0,1.4,0,2.1,0h0.2c0.2,0,0.4-0.1,0.4-0.4V5.9c0-0.2-0.1-0.3-0.3-0.3H58.9c-0.2,0-0.3,0.1-0.3,0.3v0.4
				c0,0.4,0,0.4,2.7,0.4L70.4,6.6z M65.7,18.4c0-0.2-0.1-0.3-0.3-0.3c-0.3,0.1-0.6,0.3-0.9,0.5c-0.2,0.2-0.5,0.3-0.7,0.5
				c-0.1,0.1-0.2,0.2-0.3,0.3c0,0.2,0.2,0.2,0.6,0.2C65.4,19.6,65.7,19.4,65.7,18.4z M72.5,9.8c-0.3,0-0.6,0-0.9,0
				c-0.5,0-0.7,0-0.7,0.4c0,0.2,0.1,0.3,0.2,0.5c0.1,0.3,0.2,0.6,0.6,0.6c0.6-0.2,1.2-0.7,1.5-1.2C73.1,9.8,72.8,9.8,72.5,9.8
				L72.5,9.8z"/>
			<path id="パス_3001" class="st0" d="M95.2,3c-0.2,0-0.3,0.1-0.3,0.3c0,0,0,0,0,0v0.1c0,0.2,0.2,0.3,0.3,0.3c0,0,0,0,0,0h5.8
				c0.7,0,1.3-0.1,1.9-0.1c1,0,1.2,0.1,1.2,0.9v2.8c0,0.4,0,0.9,0,1.2c0,0.5-0.3,0.6-1,0.6h-1.5c-0.7,0-1,0-1-0.6
				c0-0.3,0.1-0.7,0.1-1.2V6.5c0-0.4-0.3-0.7-0.7-0.7c0,0,0,0,0,0h-4.5c-0.4,0-0.7,0.3-0.7,0.7c0,0,0,0,0,0v1.6
				c0,0.9,0.1,1.9,0.1,2.6c0,0.6-0.3,0.7-1.1,0.7h-1.7c-0.8,0-1-0.1-1-0.7c0-0.7,0.1-1.6,0.1-2.6V6.6c0-0.4-0.3-0.7-0.7-0.7
				c0,0,0,0,0,0H86c-0.4,0-0.7,0.3-0.7,0.7v0.8c0,0.4,0,0.9,0,1.2c0,0.5-0.3,0.6-1,0.6h-1.5c-0.7,0-1,0-1-0.6c0-0.3,0.1-0.7,0.1-1.2
				V4.6c0-0.8,0.2-1,1.1-1c0.7,0,1.3,0.1,2,0.1h5.8c0.2,0,0.3-0.1,0.3-0.3c0,0,0,0,0,0V3.3C91.2,3.1,91,3,90.8,3h-3
				C87,3,86,3,85.1,3c-0.5,0-0.6-0.2-0.6-0.7V1.4c0-0.6,0.1-0.7,0.6-0.7c0.9,0,1.9,0.1,2.8,0.1h10.2c0.9,0,1.9-0.1,2.8-0.1
				c0.6,0,0.6,0.2,0.6,0.7v0.9c0,0.5-0.1,0.7-0.6,0.7c-0.9,0-1.9,0-2.8,0L95.2,3z M94.5,22.8c-1.9,0-3.1-0.2-3.1-2.4v-0.1
				c0-0.6-0.4-0.9-0.7-0.9h-2.4c-0.5,0-0.6,0-0.6,0.3c0,0.6-0.2,0.6-1.2,0.6h-1.3c-0.6,0-1-0.1-1-0.7c0-0.7,0.1-1.5,0.1-2.2v-2.4
				c0-0.7,0-1.4,0-2.1c0-0.8,0.2-1,1-1h15.9c0.9,0,1,0.2,1,1v4.2c0,0.6,0.1,0.9,0.7,0.9c0.5,0,2,0.3,2,1.1c-0.1,1-0.4,1.9-1,2.7
				c-0.5,0.8-1.4,1.1-2.3,1L94.5,22.8z M88.5,6.6c0.5,0,1.1,0,1.5,0c0.4,0,0.4,0.2,0.4,0.6v0.7c0,0.5,0,0.6-0.5,0.6
				c-0.3,0-0.9-0.1-1.4-0.1h-0.7c-0.6,0-1.2,0.1-1.4,0.1c-0.5,0-0.5-0.2-0.5-0.7V7.2c0-0.5,0.1-0.6,0.5-0.6c0.3,0,0.7,0,1.3,0H88.5z
				 M88.5,9.2c0.5,0,1.1,0,1.5,0c0.4,0,0.4,0.2,0.4,0.6v0.6c0,0.5,0,0.7-0.5,0.7c-0.3,0-0.9-0.1-1.4-0.1h-0.7
				c-0.6,0-1.2,0.1-1.4,0.1c-0.5,0-0.5-0.2-0.5-0.7V9.7c0-0.5,0.1-0.6,0.5-0.6c0.3,0,0.7,0.1,1.3,0.1L88.5,9.2z M91.1,14.7
				c0.2,0,0.3-0.1,0.3-0.3v-0.1c0-0.2-0.1-0.3-0.3-0.3H88c-0.2,0-0.3,0.2-0.3,0.3c0,0,0,0,0,0v0.1c0,0.2,0.1,0.3,0.3,0.3
				c0,0,0,0,0,0H91.1z M87.9,16.6c-0.2,0-0.3,0.1-0.3,0.3c0,0,0,0,0,0V17c0,0.2,0.1,0.3,0.3,0.3h3.2c0.2,0,0.3-0.1,0.3-0.3v-0.1
				c0-0.1-0.1-0.3-0.2-0.3c0,0,0,0,0,0H87.9z M98.3,14.7c0.2,0,0.3-0.1,0.3-0.3v-0.1c0-0.2-0.1-0.3-0.3-0.3h-3.2
				c-0.2,0-0.3,0.1-0.3,0.3v0.1c0,0.2,0.1,0.3,0.3,0.3H98.3z M95.1,16.6c-0.2,0-0.3,0.1-0.3,0.3c0,0,0,0,0,0V17
				c0,0.2,0.1,0.3,0.3,0.3h3.3c0.2,0,0.3-0.1,0.3-0.3c0,0,0,0,0,0v-0.1c0-0.2-0.1-0.3-0.3-0.3c0,0,0,0,0,0H95.1z M95.3,19.4
				c-0.2,0-0.4,0.2-0.4,0.4l0,0c0,0.4,0.6,0.5,0.9,0.5h4.8c0.3,0,0.9,0,0.9-0.5c0-0.4-0.3-0.4-0.6-0.4h-0.1c-0.8,0-1.6,0-2.5,0
				L95.3,19.4z M98.3,6.6c0.5,0,1.2,0,1.5,0c0.4,0,0.4,0.2,0.4,0.7v0.7c0,0.4,0,0.6-0.5,0.6c-0.3,0-0.9-0.1-1.4-0.1h-0.8
				c-0.6,0-1.1,0.1-1.4,0.1c-0.4,0-0.5-0.2-0.5-0.7V7.2c0-0.5,0.1-0.6,0.5-0.6c0.3,0,0.7,0,1.2,0H98.3z M98.3,9.2c0.5,0,1.2,0,1.5,0
				c0.4,0,0.4,0.2,0.4,0.6v0.7c0,0.5,0,0.6-0.5,0.6c-0.3,0-0.9-0.1-1.4-0.1h-0.8c-0.6,0-1.1,0.1-1.4,0.1c-0.4,0-0.5-0.2-0.5-0.7V9.8
				c0-0.5,0.1-0.6,0.5-0.6c0.3,0,0.6,0.1,1.2,0.1H98.3z"/>
			<path id="パス_3002" class="st0" d="M113.5,1.2c0-0.1,0-0.5,0-0.6c0-0.1,0-0.2,0-0.2c0-0.3,0.3-0.3,0.5-0.3
				c0.8,0,2.2,0,2.6,0.1c0.2,0,0.8,0,0.8,0.4c0,0.2-0.1,0.2-0.2,0.3c-0.1,0.1-0.2,0.2-0.2,0.4c0,0.4,0.4,0.4,0.7,0.4
				c1,0,2.1,0,3.1,0c0.5,0,0.5,0.2,0.5,0.9v0.6c0,0.7,0,0.9-0.5,0.9c-1.1,0-2.2,0-3.3,0h-0.2c-0.2,0-0.3,0.1-0.4,0.3c0,0,0,0,0,0
				c0,0.2,0.2,0.3,0.4,0.3h0.9c1,0,2,0,3,0c0.6,0,0.6,0.3,0.6,0.9v0.5c0,0.6,0,0.9-0.6,0.9c-1,0-2,0-3,0h-0.9
				c-0.2,0-0.4,0.1-0.4,0.3c0,0.1,0.1,0.3,0.3,0.3c0.7,0,1.4,0,2.2,0c0.8,0,1.7,0,1.7,0.7c0,0.3-0.1,0.7-0.1,1.4v0.3
				c0,0.3,0,0.5,0,0.7c0,0.5-0.1,0.6-0.1,0.8s0.2,0.3,0.4,0.4c0.8,0.1,1.3,0.1,1.3,0.3c0,0.1-0.1,0.2-0.3,0.3
				c-0.2,0.2-0.3,0.4-0.2,0.7c0,0.3,0.2,0.5,0.6,0.5h5.1c1,0,2-0.1,3-0.1c0.7,0,0.7,0.2,0.7,1v0.8c0,0.7-0.1,0.8-0.7,0.8
				c-0.7,0-1.3-0.1-2-0.1c-0.1,0-0.4,0-0.4,0.2s0.4,0.5,0.7,0.7l0.3,0.2c0.2,0.1,0.6,0.4,0.6,0.7c0,0.2-0.2,0.3-0.4,0.3
				c-0.1,0-0.2,0-0.3,0c-0.2,0-0.4,0.1-0.6,0.2c-0.2,0.1-0.4,0.2-0.5,0.3c-0.5,0.3-0.7,0.4-0.7,0.5c0,0.2,0.3,0.3,0.6,0.4
				c0.9,0.4,1.9,0.6,2.9,0.7c0.4,0.1,0.6,0.1,0.6,0.5c0,0.6-0.6,2.5-1.7,2.5c-1.3-0.3-2.6-0.7-3.9-1.3c-1-0.5-2-1-3-1.7
				c-0.1-0.1-0.3-0.2-0.4-0.2c-0.3,0-0.3,0.3-0.3,0.4v0.2c0,0.7,0,1.2-0.7,1.3c-1.3,0.3-7.8,1-9.2,1c-0.3,0-0.4,0.1-0.4,0.3
				c0,0.2-0.2,0.3-0.4,0.3c-0.3,0-0.4-0.5-0.6-1.2c-0.1-0.3-0.1-0.5-0.2-0.8c-0.1-0.2-0.1-0.5-0.2-0.7c0-0.4,0.3-0.4,0.6-0.4h0.2
				c0.7,0,1.5-0.1,2.2-0.2c0.4,0,0.6-0.3,0.6-0.5c0-0.3-0.2-0.5-0.5-0.5c0,0-0.1,0-0.2,0c-1.2,0.3-2.4,0.5-3.7,0.7
				c-0.1,0-0.2,0-0.3,0c-0.5,0-0.7-0.6-0.8-1c-0.1-0.4-0.2-0.9-0.2-1.3c0-0.4,0.3-0.4,1-0.5c1.6-0.2,2.5-0.3,4.1-0.6
				c0.1,0,0.3-0.1,0.3-0.2c0-0.2-0.2-0.2-0.4-0.2h-1.1c-1,0-2,0.1-3.1,0.1c-0.6,0-0.7-0.2-0.7-0.8v-1c0-0.7,0-0.8,0.7-0.8
				c1,0,2,0.1,3,0.1h5.2c0.4,0,0.5-0.2,0.5-0.4c0-0.2,0-0.6-0.4-0.6c-0.4,0-0.9,0-0.9-1.3c0-0.2,0-0.8,0.3-0.8h0.2
				c0.3,0,0.3-0.1,0.3-0.4c0-0.2,0-0.4-0.3-0.4h-0.4c-0.2,0-0.3,0.1-0.3,0.3c0,0,0,0,0,0c0,0.9,0.1,1.8,0.1,2.7c0,0.6-0.3,0.6-1,0.6
				h-1.5c-0.7,0-1-0.1-1-0.6c0-0.8,0-1.7,0-2.5V9.7c0-0.2-0.1-0.3-0.3-0.3c0,0,0,0,0,0h-0.1c-0.2,0-0.3,0.1-0.3,0.2c0,0,0,0,0,0.1
				v0.1c0,0.7,0,1.3,0,2c0,0.5-0.3,0.5-0.8,0.5h-1.3c-0.7,0-0.9-0.1-0.9-0.5c0-0.7,0-1.4,0-2.1V9.4c0-0.7,0-1.1,0-1.4
				c0-0.6,0.7-0.7,1.7-0.7c0.6,0,1.2,0,1.8,0c0.2,0,0.3-0.1,0.3-0.3c0-0.2-0.1-0.3-0.4-0.3h-0.7c-1,0-2,0-3,0
				c-0.5,0-0.6-0.3-0.6-0.7V5.3c0-0.6,0-0.8,0.6-0.8h0.7c0.1,0,0.1,0,0.1-0.1c0-0.1-0.2-0.1-0.2-0.1C109.7,4.2,109,4,109,3.6
				c0-0.1,0.1-0.3,0.1-0.4c0.4-0.9,0.7-1.8,0.9-2.8c0-0.2,0.1-0.3,0.4-0.3c0.3,0,1,0.2,1.3,0.2c1.1,0.2,1.5,0.3,1.5,0.6
				c0,0.2-0.1,0.2-0.3,0.3c-0.1,0.1-0.2,0.1-0.2,0.3c0,0.2,0.2,0.3,0.4,0.3C113.3,1.7,113.5,1.4,113.5,1.2z M112.3,3.9
				c-0.3,0-0.5,0.2-0.6,0.5c0,0.1,0.2,0.1,0.4,0.1h1.1c0.1,0,0.3-0.1,0.3-0.3c0,0,0,0,0,0c0-0.2-0.1-0.3-0.3-0.3c0,0,0,0,0,0
				L112.3,3.9z M117.9,18.9c0,0.3,0.2,0.6,0.6,0.7c0,0,0.1,0,0.1,0c0.2,0,2-0.3,2.4-0.3c0.2,0,0.5-0.1,0.5-0.3
				c0-0.1-0.1-0.3-0.2-0.3c-0.3-0.3-0.9-0.9-1.1-1.2c-0.1-0.2-0.3-0.3-0.6-0.4c-0.3,0-0.5,0.1-0.7,0.3c-0.1,0.1-0.2,0.1-0.4,0.2
				c-0.4,0.1-0.6,0.5-0.6,0.9V18.9z M122.2,3.9c0-0.7,0-1.4-0.1-2.1c0-0.1,0-0.2,0-0.2c0-0.3,0.2-0.3,0.5-0.3c0.4,0,2.4,0.2,2.9,0.2
				c0.4,0,0.6,0,0.6,0.4c0,0.2-0.2,0.3-0.3,0.5c-0.2,0.2-0.3,0.5-0.3,1.2V6c0,0.8,0.1,1.6,0.1,2.5c0,0.8,0.5,0.8,1,0.8
				c0.6,0,0.6-0.3,0.6-1.1V2c0-1-0.1-1.5-0.1-1.7c0-0.3,0.3-0.3,0.6-0.3c0.6,0,1.9,0.1,2.6,0.1c0.3,0,0.8,0,0.8,0.4
				c0,0.2-0.1,0.3-0.3,0.4c-0.2,0.2-0.2,0.3-0.2,1.2v5.5c0,0.4,0.1,1.4,0.1,1.7c0,2-0.5,3.2-3.5,3.2c-1.4,0-1.7-0.2-1.8-1.8
				c0-0.5-0.2-0.7-0.7-0.7h-1.5c-0.5,0-0.8-0.1-0.8-0.6c0-1.2,0.1-2.3,0.1-3.5L122.2,3.9z M123.6,15.9c-0.2,0-0.4,0-0.4,0.2
				c0.3,0.5,0.8,0.9,1.4,1.1c0.3-0.1,0.6-0.2,0.8-0.4c0.1-0.1,0.3-0.2,0.4-0.3c0.2-0.1,0.4-0.3,0.4-0.5c0-0.2-0.3-0.2-0.6-0.2
				L123.6,15.9z"/>
			<path id="パス_3003" class="st0" d="M141.3,21.6c-0.3,0-0.5,0.2-0.5,0.5v0.2c0,0.6-0.2,0.7-1,0.7h-1.5c-1.1,0-1.4-0.1-1.4-0.6
				c0-1,0.1-2,0.1-3.1v-3.5c0-0.9,0-1.7,0-2.5c0-1,0.6-1.2,1.4-1.2s1.7,0.1,2.6,0.1h1.6c0.9,0,1.7-0.1,2.6-0.1
				c0.9,0,1.5,0.2,1.5,1.2c0,0.8-0.1,1.6-0.1,2.5v3.5c0,1,0.1,2,0.1,3.1c0,0.6-0.3,0.7-1.2,0.7H144c-0.8,0-1.1-0.1-1.1-0.7v-0.3
				c0-0.3-0.2-0.5-0.5-0.5L141.3,21.6z M140.7,17.9c0,0.4,0.3,0.7,0.7,0.7c0,0,0,0,0,0h0.9c0.4,0,0.7-0.3,0.7-0.7v-1.6
				c0-0.4-0.3-0.7-0.7-0.7h-0.9c-0.4,0-0.7,0.3-0.7,0.7V17.9z M153.5,7.2c0,1,0.1,2,0.1,3.1c0,0.6-0.3,0.6-1.1,0.6H151
				c-0.9,0-1.1,0-1.3-0.4c0-0.1-0.1-0.3-0.6-0.3h-3.4c-0.5,0-0.5,0.1-0.6,0.3c-0.1,0.3-0.3,0.4-1.3,0.4h-1.5c-0.8,0-1.1-0.1-1.1-0.6
				c0-1,0.1-2,0.1-3.1V4.8c0-0.8-0.1-1.7-0.1-2.5c0-1,0.6-1.2,1.5-1.2c0.9,0,1.8,0.1,2.6,0.1h4.1c0.9,0,1.7-0.1,2.6-0.1
				s1.5,0.2,1.5,1.2c0,0.8,0,1.6,0,2.5L153.5,7.2z M145.2,6.5c0,0.4,0.3,0.7,0.7,0.7c0,0,0,0,0,0h3.1c0.4,0,0.7-0.3,0.7-0.7
				c0,0,0,0,0,0V5c0-0.4-0.3-0.7-0.7-0.7c0,0,0,0,0,0h-3.1c-0.4,0-0.7,0.3-0.7,0.7c0,0,0,0,0,0L145.2,6.5z M152.5,21.6
				c-0.3,0-0.5,0.2-0.5,0.5v0.3c0,0.6-0.3,0.7-1.1,0.7h-1.5c-1,0-1.3-0.1-1.3-0.6c0-1,0.1-2,0.1-3.1v-3.5c0-0.9,0-1.7,0-2.5
				c0-1,0.6-1.2,1.4-1.2c0.9,0,1.7,0.1,2.6,0.1h1.7c0.9,0,1.7-0.1,2.6-0.1c0.9,0,1.5,0.2,1.5,1.2c0,0.8-0.1,1.6-0.1,2.5v3.5
				c0,1,0.1,2,0.1,3.1c0,0.6-0.3,0.7-1.2,0.7h-1.4c-1,0-1.3-0.1-1.3-0.6c0-0.1,0-0.2,0-0.3c0-0.3-0.2-0.5-0.5-0.5c0,0,0,0,0,0
				L152.5,21.6z M151.9,17.9c0,0.4,0.3,0.7,0.7,0.7c0,0,0,0,0,0h0.8c0.4,0,0.7-0.3,0.7-0.7c0,0,0,0,0,0v-1.6c0-0.4-0.3-0.7-0.7-0.7
				c0,0,0,0,0,0h-0.8c-0.4,0-0.7,0.3-0.7,0.7L151.9,17.9z"/>
			<path id="パス_3004" class="st0" d="M181.5,5.3c1.7,1.7,2.7,4.1,2.7,6.5c0,3.5-2,6.8-5.1,8.4c-0.9,0.5-1.9,0.9-3,1.1
				c-0.9,0-2.2-2.3-2.2-3c0-0.2,0.2-0.3,1-0.5c2.9-0.8,5.3-2.6,5.3-5.8c0-4-3-5.5-3.8-5.5c-0.4,0-0.5,0.5-0.5,0.9
				c-0.3,3.5-1.3,7.8-3.6,10.6c-0.8,1.2-2.2,2-3.7,2.1c-1.7-0.1-3.1-1.1-3.8-2.6c-0.6-1.2-0.9-2.5-0.8-3.8
				c-0.1-5.9,4.6-10.8,10.5-10.9c0.1,0,0.2,0,0.2,0C177.2,2.6,179.6,3.6,181.5,5.3z M167.6,13.6c0,0.6,0.2,2.5,1,2.5
				c0.6,0,1.5-1.7,1.7-2.2c0.8-2.1,1.4-4.2,1.6-6.5c0-0.2-0.1-0.4-0.3-0.4C170.9,7,167.6,9.3,167.6,13.6z"/>
			<path id="パス_3005" class="st0" d="M7.9,39.4c0.4,0,0.7-0.3,0.7-0.7c0,0,0,0,0,0v-0.5c0-0.4-0.3-0.7-0.7-0.7c0,0,0,0,0,0H2.5
				c-0.6,0-1.2,0.1-1.8,0.1c-0.7,0-0.7-0.2-0.7-1v-1.1c0-1,0-1.2,0.7-1.2c0.4,0,1.1,0.1,1.8,0.1H9c0.7,0,1.3-0.1,2-0.1
				c0.7,0,1.4,0.1,1.4,1s0,1.8,0,2.7v2.5c0,0.8,0.1,1.6,0.1,2.4c0,0.6-0.3,0.7-1.2,0.7H9.7c-0.7,0-1,0-1.1-0.4
				c0-0.1-0.1-0.2-0.2-0.2H5.5c-1.5,0-1.2,0-1.4,1.5c0,0.1,0,0.1,0,0.2c0,0.4,0.3,0.5,0.6,0.5h4.5c0.5,0,1.4-0.1,2-0.1
				c1.6,0,1.6,0.7,1.6,1.5c0,2.5-0.5,5-1.3,7.3c-0.3,0.8-0.9,1.5-1.7,1.9c-1.3,0.5-2.6,0.7-4,0.6c-1.2,0-1.9,0-2.2-0.8
				c-0.2-0.7-0.3-1.3-0.3-2c0-0.8,0.4-0.9,1-0.9c0.6,0,1.1,0.1,1.9,0.1c1,0,1.5-0.1,1.9-0.7c0.5-0.9,0.7-2,0.7-3.1
				c0-0.6-0.3-0.7-1.2-0.7H4.3c-0.3,0-0.6,0.2-0.7,0.5C3.5,49,3.3,49,3,49c-0.5,0-1,0-1.6-0.1c-0.5-0.1-1.2-0.2-1.2-0.7
				c0-0.3,0.2-1.4,0.3-2.7c0.2-1.7,0.3-3.3,0.4-4.9c0.1-1.1,0.6-1.2,1.9-1.2c0.8,0,1.5,0,2.3,0L7.9,39.4z M20.6,51.7
				c0,1.4,0,2.8,0,4.1c0,0.7-0.3,0.7-1.2,0.7h-1.6c-0.9,0-1.1-0.1-1.1-0.7c0-1.4,0.1-2.8,0.1-4.1V35.8c0-0.6,0-1.2-0.1-1.8
				c0-0.3,0.3-0.4,0.5-0.4c1,0,1.8,0,3,0.1c0.5,0,0.8,0.1,0.8,0.4c0,0.2-0.1,0.2-0.3,0.4c-0.2,0.2-0.3,0.4-0.2,0.7L20.6,51.7z"/>
			<path id="パス_3006" class="st0" d="M28.3,53.6c-0.1,0.2-0.2,0.4-0.4,0.4c-0.3,0-0.4-0.3-0.5-0.7c-0.1-0.5-0.7-2.4-0.7-2.7
				c0-0.5,0.4-0.6,0.8-0.6c0.5,0,1-0.4,1-0.9c0-0.1,0-0.1,0-0.2V38.2c0-0.3-0.2-0.6-0.5-0.6c0,0-0.1,0-0.1,0h-0.1
				c-0.8,0-0.8-0.3-0.8-1.2v-1.2c0-0.8,0.1-1.1,0.8-1.1c0.8,0,1.7,0.1,2.5,0.1h5.9c0.8,0,1.7-0.1,2.5-0.1c0.7,0,0.8,0.2,0.8,0.9
				c0,0.9,0.4,0.9,1.9,0.9h4.2c0.3,0,0.7,0,1.2,0c0.5-0.1,1,0.1,1.5,0.4c0.4,0.3,0.6,0.8,0.6,1.3c-0.2,1.8-0.5,3.6-1,5.3
				c-0.4,1.5-1,3.1-1.7,4.5C46.1,47.6,46,47.8,46,48c0,0.8,2.5,3.4,3.1,4.1c0.2,0.2,0.5,0.5,0.5,0.8c0,0.7-1.8,2.6-2.4,2.6
				c-0.2,0-0.5-0.3-0.8-0.6c-0.1-0.1-0.1-0.1-0.2-0.2c-0.6-0.6-1.3-1.6-1.8-2.2c-0.2-0.3-0.4-0.6-0.8-0.6c-0.2,0-0.4,0.1-0.5,0.3
				c-0.5,0.6-3.1,3.6-3.7,3.6c-0.4,0-0.9-0.7-1.2-1c-0.1-0.1-0.3-0.4-0.4-0.4c-0.1,0-0.2,0.2-0.2,0.3c0,0.4,0,0.7,0,1.1
				c0,0.7-0.3,0.7-1.1,0.7h-1.4c-0.8,0-1.1-0.1-1.1-0.7c0-1,0.1-2,0.1-3c0-0.4-0.1-0.7-0.6-0.7c-0.5,0.1-0.9,0.2-1.4,0.3
				c-1.1,0.3-2.3,0.5-3.4,0.7C28.4,53.2,28.4,53.3,28.3,53.6z M32.5,37.5c-0.4,0-0.7,0.3-0.7,0.7c0,0,0,0,0,0v0.5
				c0,0.4,0.3,0.7,0.7,0.7c0,0,0,0,0,0h1c0.4,0,0.7-0.3,0.7-0.7v-0.5c0-0.4-0.3-0.7-0.7-0.7H32.5z M32.5,42.2
				c-0.4,0-0.7,0.3-0.7,0.7c0,0,0,0,0,0v0.5c0,0.4,0.3,0.7,0.7,0.7c0,0,0,0,0,0h1c0.4,0,0.7-0.3,0.7-0.7v-0.5c0-0.4-0.3-0.7-0.7-0.7
				H32.5z M32.5,47c-0.4,0-0.7,0.3-0.7,0.7c0,0,0,0,0,0v0.9c0,0.4,0.1,0.7,0.5,0.7c0.5,0,0.9-0.1,1.4-0.3c0.4-0.2,0.6-0.5,0.5-0.9
				v-0.3c0-0.4-0.3-0.7-0.7-0.7c0,0,0,0,0,0L32.5,47z M37.7,51.5c0,0.2,0,0.6,0.3,0.6c0.5,0,1.7-1.4,2.1-1.8
				c0.5-0.5,1.5-1.6,1.5-2.3c0-0.3-0.1-0.5-0.2-0.8c-0.8-1.8-1.5-3.7-1.9-5.7c-0.1-0.4-0.2-0.8-0.2-1.2c0-0.3,0.1-0.5,0.4-0.6
				c0.1,0,0.2-0.1,0.2-0.2c0-0.1,0-0.2-0.2-0.2c-0.1,0-0.1,0-0.3,0c-0.7,0-0.7-0.1-0.7-0.8c0-0.2,0-0.3,0-0.4c0-0.3-0.2-0.6-0.5-0.6
				c0,0-0.1,0-0.1,0c-0.3,0-0.5,0.2-0.5,0.5c0,0,0,0,0,0.1L37.7,51.5z M44.3,39.4h-0.6c-0.5,0-0.9,0.1-0.9,0.5
				c0,0.1,0.1,0.5,0.1,0.6c0.1,0.8,0.3,1.6,0.5,2.4c0.1,0.5,0.2,0.8,0.4,0.8c0.2,0,0.2-0.2,0.3-0.4c0.2-0.6,0.4-1.2,0.5-1.8
				c0.1-0.6,0.2-1.2,0.3-1.8C44.9,39.4,44.7,39.4,44.3,39.4L44.3,39.4z"/>
			<path id="パス_3007" class="st0" d="M65.4,34.8c0.2,0.1,0.4,0.2,0.4,0.4c0,0.2-0.1,0.2-0.2,0.3c-0.4,0.2-0.6,0.3-0.9,1.2
				l-0.5,1.4c-0.1,0.1-0.1,0.3-0.1,0.4c0,0.5,0.4,0.6,1.2,0.7c0.6,0.1,1.2,0.1,1.8,0.1c0.5,0,0.8,0,0.8,0.6
				c-0.1,0.8-0.2,1.5-0.4,2.2c-0.2,0.7-0.3,0.9-0.7,0.9c-1.1,0-2.1-0.2-3.1-0.3c-0.1,0-0.1,0-0.2,0c-0.6,0-0.7,0.5-0.8,1l0,0.2
				c0,0.1,0,0.3,0,0.4c0,0.7,0.7,0.7,2.5,0.7c0.7,0,1.1,0,1.1,0.5c0,0.8-0.2,1.6-0.5,2.4c-0.2,0.5-0.4,0.8-1,0.8
				c-0.7,0-1.4-0.1-2.1-0.2c-0.1,0-0.1,0-0.2,0c-0.5,0-0.6,0.5-0.6,0.8v0.2c0,0.6,0.1,1.1,0.4,1.6c0.5,0.8,1.5,1.2,2.4,1.1
				c0.9,0,1.9-0.2,2.7-0.6c0.5-0.4,0.9-1,0.8-1.6c-0.1-1.2-0.3-2.4-0.8-3.6c-0.1-0.2-0.1-0.4-0.1-0.6c0-0.3,0.2-0.5,0.9-0.8
				c0.7-0.3,1.4-0.4,2.1-0.5c0.5,0,0.6,0.5,0.8,1.3c0.5,1.5,0.8,3,0.8,4.5c0.1,1.7-0.8,3.4-2.2,4.3c-1.6,0.9-3.3,1.4-5.2,1.3
				c-4.3,0-6.6-2.5-6.6-6.8c0-0.3,0.1-1.1,0.1-1.1c0-0.6-0.4-0.7-0.8-0.8c-1.7-0.6-2-0.8-2-1.2c0.1-0.6,0.2-1.2,0.4-1.7
				c0.2-0.7,0.4-1.4,0.9-1.4c0.3,0,0.5,0.1,0.7,0.3c0.3,0.2,0.7,0.4,1.1,0.5c0.2,0,0.5-0.1,0.6-0.6c0.1-0.3,0.1-0.5,0.2-0.8
				c0-0.5-0.3-0.7-0.7-0.8c-2.1-0.8-2.2-1-2.2-1.4c0-0.5,0.6-3.1,1.3-3.1c0.3,0.1,0.7,0.2,0.9,0.5c0.4,0.3,0.9,0.5,1.3,0.7
				c0.4,0,0.5-0.3,0.6-0.7c0.2-0.7,0.6-2,0.8-3c0.1-0.4,0.1-0.6,0.4-0.6C62.9,33.9,64.2,34.4,65.4,34.8z"/>
			<path id="パス_3008" class="st0" d="M84.4,54.4c0,0.7,0.1,1.6,0.1,2.2s-0.3,0.7-1.1,0.7h-1.5c-0.7,0-1-0.1-1-0.7
				c0-0.5,0.1-1.4,0.1-2.2v-4.8c0-0.2,0-0.5-0.3-0.5c-0.2,0-0.3,0.1-0.4,0.2c-0.3,0.2-0.6,0.4-0.9,0.5c-0.5,0-2-1.8-2-2.5
				c0-0.3,0.2-0.5,0.5-0.6c2.5-2,4.6-4.3,6.2-7c0.1-0.2,0.2-0.3,0.4-0.3c0.7,0.3,1.3,0.6,1.9,1c0.2,0.1,0.4,0.3,0.5,0.3
				c0.3,0.2,0.7,0.4,0.7,0.7c0,0.3-0.4,0.3-0.6,0.4c-0.3,0-0.4,0.2-0.5,0.4c-0.6,1-1.3,1.9-2.1,2.9c-0.1,0.1-0.2,0.2-0.2,0.4
				c0,0.2,0.1,0.2,0.3,0.2c0.2,0,0.6,0.1,0.6,0.4c0,0.2-0.1,0.2-0.2,0.4c-0.2,0.4-0.3,0.8-0.3,1.2L84.4,54.4z M85.5,35.6
				c0.2,0.1,0.7,0.4,0.7,0.7s-0.4,0.3-0.6,0.3c-0.3,0-0.4,0.1-0.5,0.3c-1.2,1.6-2.6,3.1-4.1,4.4c-0.1,0.1-0.1,0.1-0.2,0.2
				c-0.4,0.3-1.1,0.9-1.5,0.9c-0.6,0-1.9-1.7-1.9-2.2c0-0.3,0.2-0.4,0.5-0.6c1.9-1.3,3.5-2.9,4.8-4.8c0.2-0.4,0.3-0.4,0.4-0.4
				c0.8,0.3,1.5,0.7,2.2,1.2C85.3,35.5,85.4,35.5,85.5,35.6L85.5,35.6z M96.7,52.5c0,0.7,0,1.4,0,2c0,2.7-2.7,2.9-4.7,2.9
				c-0.5,0-1.2,0-1.5-0.5c-0.3-0.7-0.5-1.5-0.5-2.4c0-0.4,0-1,0.6-1c0.3,0,0.9,0.1,1.6,0.1c0.7,0,0.7-0.2,0.7-1.5v-6.1
				c0-0.4-0.3-0.7-0.7-0.7c0,0,0,0,0,0h-2c-0.9,0-1.9,0.1-2.8,0.1c-0.6,0-0.8-0.2-0.8-0.9v-1.7c0-0.7,0.1-1,0.8-1
				c0.9,0,1.9,0.1,2.8,0.1h6.6c0.9,0,1.9-0.1,2.8-0.1c0.6,0,0.8,0.2,0.8,0.9v1.7c0,0.7-0.1,1-0.8,1c-0.7,0-1.4-0.1-2.1-0.1
				c-0.6,0-0.8,0.2-0.8,0.8L96.7,52.5z M95.5,35.5c0.9,0,1.7-0.1,2.6-0.1c0.7,0,0.8,0.4,0.8,1.1v1.3c0,0.9-0.1,1.2-0.8,1.2
				c-0.9,0-1.7-0.1-2.6-0.1h-4.4c-0.8,0-1.7,0.1-2.5,0.1c-0.7,0-0.8-0.3-0.8-1.2v-1.3c0-0.8,0-1.1,0.7-1.1c0.9,0,1.7,0.1,2.6,0.1
				H95.5z"/>
			<path id="パス_3009" class="st0" d="M120.3,47.4c0,3.2-2.3,5.3-5.1,6.4c-1.3,0.5-2.6,0.9-4,1c-0.5,0-0.7-0.3-0.9-0.7
				c-0.3-0.6-0.5-1.3-0.6-2c0-0.4,0.4-0.5,1-0.6c2.3-0.2,6.3-1.3,6.3-4.2c0-1.4-1.1-2-2.3-2c-2.2,0-5.3,1.3-7.2,2.5
				c-0.3,0.2-0.6,0.3-0.9,0.3c-0.9,0-2.1-2.1-2.1-2.9c0-0.4,0.3-0.5,1.1-0.7c0.5-0.1,1.3-0.5,1.8-0.6c2.1-0.8,5-1.8,7.3-1.8
				C117.8,42.1,120.3,44,120.3,47.4z"/>
			<path id="パス_3010" class="st0" d="M125,42.3c-0.2-0.9-0.3-1.8-0.4-2.7c0-0.8,0.4-0.8,1.7-0.9c3.7-0.2,7.4-0.6,11.1-1
				c1.8-0.2,3.8-0.5,5.7-0.8c0.1,0,0.2,0,0.2,0c0.5,0,0.6,0.4,0.7,0.8c0.2,0.9,0.3,1.9,0.3,2.8c0,0.5-0.3,0.5-1.3,0.5
				c-1.2-0.1-2.5,0.1-3.6,0.5c-3.1,1.1-5.2,4.1-5.2,7.4c0,2.4,1.2,3.1,3.5,3.1c0.7,0,1.5-0.1,1.8-0.1c0.5,0,0.6,0.1,0.6,0.6
				c0,1-0.2,2-0.4,3c-0.2,0.5-0.5,0.6-1.1,0.6c-4.7,0-8.6-1.2-8.6-6.7c0-2.3,0.7-4.5,2.1-6.3c0.1-0.2,0.2-0.4,0.3-0.6
				c0-0.2-0.2-0.4-0.5-0.4c-0.5,0-0.9,0.1-1.4,0.2c-1.3,0.3-3.1,0.6-4.4,1c-0.1,0-0.3,0-0.4,0.1C125.2,43.4,125.1,42.7,125,42.3z"/>
			<path id="パス_3011" class="st0" d="M157.1,53.8c0,1.4-2.1,2.3-2.9,2.3c-0.6,0-0.7-0.4-1-1c-0.4-0.8-1.5-2.1-2.1-2.1
				c-0.3,0-0.6,0.2-0.9,0.5c-0.2,0.2-0.5,0.5-0.7,0.5c-0.6,0-2-2.8-2-3.4c0-0.3,0.2-0.4,0.5-0.6c0.6-0.3,4.7-2.8,5-3.1
				c0.2-0.3,0.2-0.6,0.2-0.9v-1c0-0.3-0.2-0.6-0.5-0.6c0,0,0,0,0,0c-0.1,0-0.7,0.1-0.9,0.1c-0.5,0.1-0.9,0.2-1.4,0.2
				c-0.5,0-1,0-1-2.7c0-1,0-1,1-1.1c0.7,0,1.5-0.1,2.2-0.2c0.3,0,0.5-0.1,0.7-0.4c0.2-0.7,0.2-1.5,0.2-2.3v-0.4c0-0.5,0-1.1,0-1.2
				c0-0.2,0.1-0.4,0.3-0.4c0,0,0.1,0,0.1,0c0.6,0,3,0.5,3.7,0.7c0.2,0.1,0.5,0.1,0.5,0.3c0,0.1-0.2,0.2-0.3,0.3
				c-0.3,0.2-0.5,0.5-0.5,0.9c-0.1,0.6-0.2,0.9-0.2,1c0,0.3,0.2,0.5,0.5,0.5c0.3-0.1,0.5-0.1,0.8-0.2c0.2-0.1,0.4-0.1,0.7-0.2
				c0.4,0,0.7,0.6,0.8,1.5c0.1,0.5,0.1,1,0.1,1.5c0,0.6-0.3,0.7-2.4,1c-0.4,0.1-0.8,0.3-0.8,0.8c0,0.4,0.1,0.7,0.5,0.7
				c0.2,0,0.4-0.1,0.6-0.2c1.1-0.4,2.2-0.5,3.4-0.6c3.1,0,6,1.7,6,5.2c0,1.6-0.8,3.1-2,4c-1.3,1-3.8,1.3-5.5,1.3
				c-0.7,0-1.2,0-1.4-0.4c-0.3-0.8-0.4-1.6-0.4-2.4c0-0.5,0.1-1,0.6-1c0.2,0,0.7,0.1,0.9,0.1c0.3,0,0.8,0.1,1.1,0.1
				c1.1,0,2.9-0.3,2.9-1.7c-0.1-1.1-1.1-2-2.3-1.8c0,0,0,0,0,0c-1.4,0-2.7,0.4-3.9,1.1c-0.2,0.2-0.4,0.5-0.3,0.9
				c0,0.3,0.1,1.1,0.1,1.4C156.9,51.5,157.1,53.5,157.1,53.8z M153.3,51.9c0-0.3,0-0.6-0.3-0.6c-0.2,0-0.4,0.2-0.6,0.3
				c-0.1,0.1-0.2,0.2-0.2,0.3c0,0.2,0.1,0.3,0.5,0.6c0.1,0.1,0.2,0.1,0.3,0.2c0.2,0,0.2-0.2,0.2-0.3L153.3,51.9z M166.3,40.8
				c0.6,0.5,1.5,1.2,2,1.8c0.2,0.1,0.3,0.3,0.3,0.5c0,0.7-1.5,2.4-2.1,2.4c-0.2,0-0.4-0.2-0.6-0.4c-1.1-1-2.3-2-3.6-2.9
				c-0.3-0.2-0.6-0.4-0.6-0.7c0-0.4,0.7-1.2,1-1.4c0-0.1,0.1-0.1,0.2-0.2c0.3-0.4,0.7-0.8,1-0.8C164.8,39.6,165.6,40.2,166.3,40.8
				L166.3,40.8z"/>
			<path id="パス_3012" class="st0" d="M179.3,37.6c0.4,0.2,0.5,0.3,0.5,0.4c0,0.2-0.1,0.2-0.2,0.2c-0.6,0.3-1,0.9-1.1,1.5
				c-0.5,1.2-0.7,2.5-0.8,3.8c0,0.2,0,0.4,0.2,0.4c0.2,0,0.3-0.1,0.4-0.5c0.1-0.3,0.3-0.6,0.6-0.6c0.3,0,1.4,0.7,1.4,1.1
				c0,0.1,0,0.3-0.1,0.4c-0.8,1.6-1.3,3.4-1.5,5.2v0.6c0,0.6-0.5,0.8-1,1c-0.5,0.2-1,0.3-1.5,0.3c-0.8,0-1-0.6-1.2-1.2
				c-0.6-2-0.9-4-0.9-6c0-1.9,0.2-3.7,0.6-5.6c0.2-0.7,0.3-1.3,0.5-2c0.1-0.4,0.2-0.7,0.4-0.7C176.8,36.5,178,37,179.3,37.6z
				 M185.3,35.8c0.6-0.1,1.3-0.2,1.9-0.3c0.5,0,0.6,0.2,0.7,0.8c0.5,2.5,0.8,5.1,0.8,7.7c0,4.3-0.7,8.1-3.8,11.4
				c-0.5,0.5-1.5,1.6-2.3,1.6c-0.4,0-1.1-0.7-1.4-1c-0.6-0.6-1.2-1.1-1.2-1.5c0-0.2,0.1-0.3,0.4-0.5c1.4-0.9,2.5-2.2,3.3-3.8
				c0.8-1.8,1.1-3.8,1.1-5.8c0-2.5-0.3-5.1-0.9-7.5c0-0.1,0-0.3,0-0.4C183.8,36.1,184.2,36,185.3,35.8L185.3,35.8z"/>
			<path id="パス_3013" class="st0" d="M206.2,35.9c0.1,0,0.4,0.1,0.4,0.3c0,0.2-0.1,0.3-0.2,0.4c-0.3,0.5-0.4,1-0.4,1.6
				c0,0.3,0.2,0.6,0.5,0.6c0,0,0,0,0,0c0.5,0,2.9-0.6,3.6-0.7c0.3-0.1,0.7-0.2,1-0.2c0.4,0,0.5,0.5,0.5,0.8c0.2,0.7,0.2,1.4,0.3,2.2
				c0,0.6-0.3,0.7-1.1,0.9c-1.3,0.2-2.6,0.4-3.9,0.6c-0.6,0.1-0.9,0.2-0.9,0.7c0,0.4,0.2,0.6,0.6,0.6c0.9-0.1,1.8-0.3,2.7-0.5
				c0.2-0.1,0.4-0.1,0.6-0.1c0.2,0,0.3,0.2,0.4,0.5c0.2,0.8,0.2,1.6,0.2,2.4c0,0.8-0.8,0.9-3.1,1.2c-1,0.1-1.2,0.2-1.2,0.7
				c0,1.4,0,1.6,0.8,1.8c1.1,0.4,4.4,1.8,4.4,3c0,0.6-1.1,2.5-1.9,2.5c-0.7-0.3-1.4-0.6-1.9-1.2c-0.3-0.3-0.7-0.5-1.1-0.6
				c-0.4,0-0.5,0.3-0.6,0.6c-0.8,2-2.8,2.5-4.8,2.5c-1.1,0-2.2-0.2-3.1-0.8c-1-0.7-1.6-1.8-1.6-3c0-1.1,0.5-2.1,1.4-2.8
				c1.2-0.7,2.5-1.1,3.9-1h0.3c0.3,0,0.5-0.2,0.5-0.5c0,0,0-0.1,0-0.1c0-0.3-0.2-0.6-0.5-0.7c0,0,0,0-0.1,0c-0.5,0-2,0.1-3.1,0.1
				c-1,0-1.2,0-1.4-0.7c-0.2-0.8-0.3-1.6-0.4-2.4c0-0.4,0.1-0.7,0.5-0.7c0.7,0,1.8,0.1,3,0.1h0.7c0.6,0,1.1-0.1,1.1-0.6
				c0-0.3-0.2-0.6-0.5-0.6c0,0-0.1,0-0.1,0c-0.9,0-2.4,0.1-3.6,0.1h-0.8c-1,0-1.8,0-2-0.4c-0.2-0.9-0.3-1.8-0.3-2.7
				c0-0.4,0-0.8,0.5-0.8s3.1,0.2,4.8,0.2h0.6c0.6,0,1.1-0.1,1.1-0.6c0-0.2-0.1-1.6-0.2-2.1c-0.1-0.2-0.1-0.5-0.1-0.7
				c0-0.3,0.2-0.4,0.5-0.4C203.1,35.4,205.6,35.8,206.2,35.9z M199.9,52.6c0,0.6,0.9,0.6,1.4,0.6c0.7,0,1.5-0.2,1.5-1
				c0-0.4-0.3-0.4-0.8-0.4C201.5,51.8,199.9,51.8,199.9,52.6z"/>
			<path id="パス_3014" class="st0" d="M229.3,35.3c0.2,0,0.6,0.1,0.6,0.3c0,0.1-0.1,0.2-0.2,0.2c-0.2,0.2-0.4,0.5-0.4,0.8
				c0,0.3-0.1,0.8-0.1,1.2c0,0.7,0,1.1,0.8,1.1c2,0,4-0.3,6-0.3c0.4,0,0.7,0,0.7,1.8c0,0.6,0,1.3-0.2,1.9c-0.1,0.2-0.2,0.3-0.4,0.3
				c-0.1,0-2.9-0.2-3.6-0.2c-0.8,0-1.7,0-2.6,0c-0.4,0-0.7,0.2-0.7,0.6c0,0.1,0,0.1,0,0.2v0.6c0,0.5,0.1,1,0.4,1.4
				c0.5,1.1,0.7,2.2,0.7,3.4c0,4.1-2.8,9-4.1,9c-0.7-0.1-1.4-0.4-2-0.7c-0.7-0.3-1.3-0.6-1.3-0.9c0-0.2,0.3-0.5,0.5-0.7
				c0.5-0.5,1.7-1.6,1.7-2c0-0.3-0.2-0.3-0.5-0.3c-2.3-0.1-3.2-2.7-3.2-4.6c0-2.3,1-4.7,3.5-5.1c0.2,0,0.5-0.1,0.5-0.3
				c0-0.1-0.1-0.3-0.3-0.3c-0.3,0-2.1,0.2-2.5,0.3c-0.6,0.1-4.1,0.7-4.7,0.8c-0.1,0-0.3,0.1-0.5,0.1c-0.4,0-0.5-0.6-0.7-2.1
				c-0.1-0.8-0.1-1.4-0.1-1.6c0-0.4,0.1-0.4,0.7-0.5c2.3-0.1,4.6-0.3,6.6-0.4c0.7,0,1.2-0.1,1.2-0.9c0-0.9-0.1-1.8-0.2-2.8
				c0-0.1,0-0.1,0-0.2c0-0.2,0.1-0.4,0.3-0.4c0,0,0.1,0,0.1,0C225.9,34.8,228.8,35.2,229.3,35.3z M224.9,47.9c0,0.5,0.1,1.8,0.8,1.8
				s0.9-1.3,0.9-1.8c0-0.5-0.1-1.6-0.8-1.6C225.1,46.3,224.9,47.4,224.9,47.9L224.9,47.9z"/>
		</g>
	</g>
	<g id="グループ_2228" transform="translate(-831.421 -176)">
		<g id="グループ_1227" transform="translate(1104 258)">
			<rect id="長方形_303" x="0" class="st0" width="0.9" height="75.6"/>
			<rect id="長方形_304" x="19.5" class="st0" width="0.9" height="75.6"/>
			<g id="グループ_1226" transform="translate(5.104 7.848)">
				<path id="パス_2518" class="st0" d="M8.5,6.8c0.4,0.7,0.9,1.4,1.6,2c0,0,0.2,0.2,0.2,0.2c0,0.3-0.9,0.9-1.2,0.9
					c-0.1,0-0.2,0-0.2-0.1C8.1,9,7.4,8.1,6.9,7.1c-0.4-0.7-0.7-1.5-1-2.3C5.8,4.6,5.8,4.5,5.4,4.5C5.3,4.5,5,4.5,5,4.7
					c0,0.1,0.1,0.1,0.2,0.2c1.1,1,1.6,2.3,1.6,3.8c0,0.7,0,1.4-0.7,1.7c-0.6,0.2-1.2,0.3-1.8,0.2c-0.7,0-0.9-0.2-1-0.9
					c0-0.1-0.1-0.2-0.2-0.2c-0.1,0-0.1,0-0.2,0C2.3,9.8,1.8,10,1.2,10.2c-0.3,0-0.8-0.7-0.8-1c0-0.1,0.1-0.2,0.3-0.2
					C2,8.5,3.3,7.9,4.4,7.1c0.2-0.2,0.3-0.2,0.3-0.4c0-0.1-0.1-0.1-0.1-0.2c0,0,0,0,0,0c-0.1,0-0.1,0-0.2,0.1
					C3.5,7.3,2.6,7.9,1.5,8.3C1.4,8.4,1.2,8.4,1,8.5c-0.3,0-0.7-0.7-0.7-1c0-0.1,0.1-0.2,0.3-0.2c1-0.4,2-0.8,2.9-1.4
					c0.2-0.1,0.3-0.2,0.3-0.3S3.8,5.5,3.7,5.5c-0.1,0-0.1,0-0.2,0.1C2.8,5.9,2,6.3,1.2,6.6C1,6.7,0.9,6.7,0.7,6.7C0.4,6.7,0,6,0,5.7
					c0-0.1,0.1-0.2,0.3-0.2C1,5.3,1.7,5,2.3,4.8c0.3-0.1,0.4-0.2,0.4-0.3c0,0,0-0.1-0.1-0.1s-0.1,0-0.1,0h0c-0.2,0-0.5,0-0.7,0
					c-0.3,0-0.3,0-0.3-0.4V4c0-0.2-0.1-0.3-0.3-0.3H0.5c-0.2,0-0.4,0-0.4-0.3c0-0.2,0-0.4,0-0.6V2.3c0-0.4,0-0.6,0-0.8
					c0-0.4,0.5-0.4,0.8-0.4c0.5,0,0.9,0,1.3,0h1.7c0.2,0,0.3-0.1,0.3-0.3c0,0,0,0,0,0c0-0.1,0-0.4,0-0.5c0,0,0-0.1,0-0.1
					C4.2,0,4.3,0,4.5,0C4.8,0,5.6,0.1,6,0.1c0.3,0,0.3,0.1,0.3,0.2c0,0.1,0,0.1-0.1,0.2S6.1,0.6,6.1,0.8c0,0.2,0.1,0.3,0.3,0.3h1.7
					c0.5,0,0.9,0,1.3,0c0.3,0,0.8,0,0.8,0.4c0,0.1,0,0.5,0,0.8v0.6c0,0.2,0,0.5,0,0.6c0,0.3-0.2,0.3-0.6,0.3c-0.1,0-0.3,0-0.4,0
					C8.9,3.8,8.9,4,8.9,4.1v0.1c0,0.1,0.2,0.3,0.4,0.5c0.2,0.2,0.4,0.5,0.7,0.7c0.1,0.1,0.2,0.2,0.2,0.3c0,0.1-0.1,0.1-0.1,0.1
					c0,0-0.1,0-0.1,0c0,0-0.1,0-0.1,0c0,0-0.1,0-0.1,0C9.5,6,9.3,6.1,9.1,6.2C8.7,6.5,8.5,6.6,8.5,6.8z M7.2,3c0.3,0,0.6,0,1,0h0.1
					c0.1,0,0.2,0,0.2-0.2V2.7c0-0.1-0.1-0.1-0.1-0.1H2c-0.1,0-0.1,0.1-0.1,0.1v0.2c0,0.2,0,0.2,1.2,0.2L7.2,3z M5.1,8.4
					C5.1,8.4,5,8.3,5,8.3C4.8,8.3,4.7,8.4,4.6,8.5C4.5,8.6,4.3,8.7,4.2,8.7c-0.1,0-0.1,0.1-0.1,0.2C4.1,9,4.2,9,4.4,9
					C5,9,5.1,8.9,5.1,8.4L5.1,8.4z M8.2,4.5c-0.1,0-0.3,0-0.4,0c-0.2,0-0.3,0-0.3,0.2c0,0.1,0,0.2,0.1,0.2c0,0.1,0.1,0.3,0.3,0.3
					c0.3-0.1,0.5-0.3,0.7-0.6C8.5,4.5,8.4,4.5,8.2,4.5L8.2,4.5z"/>
				<path id="パス_2519" class="st0" d="M6.1,13.8C6.1,13.8,6,13.9,6,14c0,0,0,0,0,0v0c0,0.1,0.1,0.1,0.1,0.1c0,0,0,0,0,0h2.6
					c0.3,0,0.6,0,0.9,0c0.4,0,0.5,0.1,0.5,0.4v1.3c0,0.2,0,0.4,0,0.5c0,0.2-0.1,0.3-0.5,0.3H9.1c-0.3,0-0.5,0-0.5-0.3
					c0-0.1,0-0.3,0-0.5v-0.4c0-0.2-0.1-0.3-0.3-0.3c0,0,0,0,0,0h-2c-0.2,0-0.3,0.1-0.3,0.3c0,0,0,0,0,0v0.7c0,0.4,0,0.9,0,1.2
					c0,0.3-0.1,0.3-0.5,0.3H4.7c-0.3,0-0.5,0-0.5-0.3c0-0.3,0-0.8,0-1.2v-0.7c0-0.2-0.1-0.3-0.3-0.3c0,0,0,0,0,0H1.9
					c-0.2,0-0.3,0.1-0.3,0.3v0.4c0,0.2,0,0.4,0,0.5c0,0.2-0.1,0.3-0.5,0.3H0.5c-0.3,0-0.5,0-0.5-0.3c0-0.1,0-0.3,0-0.5v-1.3
					c0-0.4,0.1-0.4,0.5-0.4c0.3,0,0.6,0,0.9,0h2.7c0.1,0,0.1-0.1,0.2-0.1c0,0,0,0,0,0v0c0-0.1-0.1-0.1-0.2-0.1H2.8
					c-0.4,0-0.9,0-1.3,0c-0.2,0-0.3-0.1-0.3-0.3v-0.4c0-0.3,0-0.3,0.3-0.3c0.4,0,0.9,0,1.3,0h4.7c0.4,0,0.9,0,1.3,0
					c0.3,0,0.3,0.1,0.3,0.3v0.4c0,0.2,0,0.3-0.3,0.3c-0.4,0-0.9,0-1.3,0L6.1,13.8z M5.8,22.9c-0.9,0-1.4-0.1-1.4-1.1v-0.1
					c0-0.3-0.2-0.4-0.3-0.4H3c-0.2,0-0.3,0-0.3,0.1c0,0.3-0.1,0.3-0.6,0.3H1.5c-0.3,0-0.4,0-0.4-0.3c0-0.3,0-0.7,0-1v-1.1
					c0-0.3,0-0.6,0-1c0-0.4,0.1-0.4,0.5-0.4h7.3c0.4,0,0.4,0.1,0.4,0.4v1.9c0,0.3,0,0.4,0.3,0.4c0.2,0,0.9,0.2,0.9,0.5
					c-0.1,0.4-0.2,0.9-0.5,1.2C9.9,22.8,9.4,23,9,22.9L5.8,22.9z M3.1,15.5c0.2,0,0.5,0,0.7,0c0.2,0,0.2,0.1,0.2,0.3v0.3
					c0,0.2,0,0.3-0.2,0.3c-0.1,0-0.4,0-0.6,0H2.7c-0.3,0-0.5,0-0.7,0c-0.2,0-0.2-0.1-0.2-0.3v-0.3c0-0.2,0-0.3,0.2-0.3
					c0.1,0,0.3,0,0.6,0L3.1,15.5z M3.1,16.7c0.2,0,0.5,0,0.7,0c0.2,0,0.2,0.1,0.2,0.3v0.3c0,0.2,0,0.3-0.2,0.3c-0.1,0-0.4,0-0.6,0
					H2.7c-0.3,0-0.5,0-0.7,0c-0.2,0-0.2-0.1-0.2-0.3v-0.3c0-0.2,0-0.3,0.2-0.3c0.1,0,0.3,0,0.6,0H3.1z M4.3,19.2
					c0.1,0,0.1-0.1,0.2-0.2v0c0-0.1-0.1-0.1-0.2-0.2H2.8c-0.1,0-0.1,0.1-0.1,0.1c0,0,0,0,0,0v0c0,0.1,0.1,0.1,0.1,0.2c0,0,0,0,0,0
					H4.3z M2.8,20.1c-0.1,0-0.1,0.1-0.1,0.1c0,0,0,0,0,0v0.1c0,0.1,0.1,0.1,0.1,0.1h1.5c0.1,0,0.1-0.1,0.1-0.1v-0.1
					c0-0.1,0-0.1-0.1-0.1c0,0,0,0,0,0H2.8z M7.6,19.2c0.1,0,0.1-0.1,0.2-0.2v0c0-0.1-0.1-0.1-0.2-0.2H6.1C6,18.9,6,19,6,19v0
					c0,0.1,0.1,0.1,0.2,0.2H7.6z M6.1,20.1C6,20.1,6,20.1,6,20.2c0,0,0,0,0,0v0.1c0,0.1,0.1,0.1,0.1,0.1h1.5c0.1,0,0.1-0.1,0.1-0.1
					c0,0,0,0,0,0v-0.1c0-0.1-0.1-0.1-0.1-0.1c0,0,0,0,0,0H6.1z M6.2,21.4c-0.1,0-0.2,0.1-0.2,0.2c0,0,0,0,0,0c0,0.2,0.3,0.2,0.4,0.2
					h2.2c0.1,0,0.4,0,0.4-0.2c0-0.2-0.1-0.2-0.3-0.2h0c-0.4,0-0.8,0-1.1,0H6.2z M7.6,15.5c0.2,0,0.5,0,0.7,0c0.2,0,0.2,0.1,0.2,0.3
					v0.3c0,0.2,0,0.3-0.2,0.3c-0.1,0-0.4,0-0.7,0H7.2c-0.3,0-0.5,0-0.6,0c-0.2,0-0.2-0.1-0.2-0.3v-0.3c0-0.2,0-0.3,0.2-0.3
					c0.1,0,0.3,0,0.6,0H7.6z M7.6,16.7c0.2,0,0.5,0,0.7,0c0.2,0,0.2,0.1,0.2,0.3v0.3c0,0.2,0,0.3-0.2,0.3c-0.1,0-0.4,0-0.7,0H7.2
					c-0.3,0-0.5,0-0.6,0c-0.2,0-0.2-0.1-0.2-0.3v-0.3c0-0.2,0-0.3,0.2-0.3c0.1,0,0.3,0,0.5,0L7.6,16.7z"/>
				<path id="パス_2520" class="st0" d="M8.6,27.1c0.8,0.8,1.2,1.9,1.2,3c0,1.6-0.9,3.1-2.3,3.8c-0.4,0.2-0.9,0.4-1.4,0.5
					c-0.4,0-1-1.1-1-1.4c0-0.1,0.1-0.2,0.4-0.2c1.4-0.2,2.4-1.3,2.4-2.7C8.1,29,7.4,28,6.3,27.6C6.1,27.6,6,27.8,6,28
					c-0.1,1.7-0.6,3.4-1.7,4.9c-0.4,0.6-1,0.9-1.7,1c-0.8,0-1.4-0.5-1.8-1.2c-0.3-0.5-0.4-1.1-0.4-1.7c0-2.7,2.1-5,4.8-5
					c0,0,0.1,0,0.1,0C6.6,25.9,7.8,26.3,8.6,27.1z M2.3,30.9c0,0.3,0.1,1.1,0.5,1.1c0.3,0,0.7-0.8,0.8-1c0.4-0.9,0.6-1.9,0.7-3
					c0-0.1,0-0.2-0.2-0.2C2.9,28.4,2.2,29.6,2.3,30.9L2.3,30.9z"/>
				<path id="パス_2521" class="st0" d="M3.9,39.6c0.2,0,0.3-0.1,0.3-0.3c0,0,0,0,0,0v-0.2c0-0.2-0.1-0.3-0.3-0.3c0,0,0,0,0,0H1.4
					c-0.3,0-0.6,0-0.8,0c-0.3,0-0.3-0.1-0.3-0.4v-0.5c0-0.5,0-0.5,0.3-0.5c0.2,0,0.5,0,0.8,0h3c0.3,0,0.6,0,0.9,0s0.6,0,0.6,0.4
					s0,0.8,0,1.2v1.2c0,0.4,0,0.7,0,1.1c0,0.3-0.2,0.3-0.5,0.3H4.7c-0.3,0-0.4,0-0.5-0.2c0,0-0.1-0.1-0.1-0.1H2.8
					c-0.7,0-0.6,0-0.6,0.7c0,0,0,0.1,0,0.1c0,0.2,0.1,0.2,0.3,0.2h2c0.2,0,0.6,0,0.9,0c0.7,0,0.7,0.3,0.7,0.7c0,1.1-0.2,2.3-0.6,3.4
					c-0.1,0.4-0.4,0.7-0.8,0.9c-0.6,0.2-1.2,0.3-1.8,0.3c-0.6,0-0.9,0-1-0.4c-0.1-0.3-0.1-0.6-0.1-0.9c0-0.4,0.2-0.4,0.5-0.4
					c0.3,0,0.5,0,0.9,0c0.5,0,0.7,0,0.9-0.3C4.2,45,4.3,44.5,4.3,44c0-0.3-0.2-0.3-0.6-0.3H2.2c-0.1,0-0.3,0.1-0.3,0.2
					C1.9,44,1.8,44,1.6,44c-0.2,0-0.5,0-0.7-0.1c-0.2,0-0.5-0.1-0.5-0.3c0-0.2,0.1-0.6,0.1-1.2c0.1-0.8,0.2-1.5,0.2-2.3
					c0-0.5,0.3-0.5,0.9-0.5c0.3,0,0.7,0,1,0L3.9,39.6z M9.7,45.3c0,0.6,0,1.3,0,1.9c0,0.3-0.1,0.3-0.5,0.3H8.5c-0.4,0-0.5,0-0.5-0.3
					c0-0.6,0-1.3,0-1.9V38c0-0.3,0-0.6,0-0.8C7.9,37,8,37,8.2,37c0.5,0,0.8,0,1.4,0c0.2,0,0.4,0,0.4,0.2c0,0.1,0,0.1-0.1,0.2
					c-0.1,0.1-0.1,0.2-0.1,0.3L9.7,45.3z"/>
				<path id="パス_2522" class="st0" d="M0.8,58.6c0,0.1-0.1,0.2-0.2,0.2c-0.2,0-0.2-0.2-0.2-0.3C0.3,58.2,0,57.4,0,57.2
					C0,57,0.2,57,0.4,56.9c0.2,0,0.4-0.2,0.5-0.4c0,0,0-0.1,0-0.1v-4.9c0-0.1-0.1-0.3-0.2-0.3c0,0,0,0-0.1,0h0
					c-0.3,0-0.4-0.1-0.4-0.5v-0.5c0-0.4,0-0.5,0.4-0.5c0.4,0,0.8,0,1.2,0h2.7c0.4,0,0.8,0,1.2,0c0.3,0,0.4,0.1,0.4,0.4
					c0,0.4,0.2,0.4,0.9,0.4h1.9c0.1,0,0.3,0,0.5,0c0.2,0,0.5,0,0.7,0.2c0.2,0.1,0.3,0.4,0.3,0.6c-0.1,0.8-0.2,1.6-0.5,2.4
					c-0.2,0.7-0.4,1.4-0.8,2.1c0,0.1-0.1,0.2-0.1,0.3c0,0.4,1.1,1.6,1.4,1.9c0.1,0.1,0.2,0.2,0.2,0.4c0,0.3-0.8,1.2-1.1,1.2
					c-0.1,0-0.2-0.2-0.4-0.3c0,0-0.1-0.1-0.1-0.1c-0.3-0.3-0.6-0.7-0.8-1c-0.1-0.1-0.2-0.3-0.3-0.3c-0.1,0-0.2,0.1-0.2,0.1
					c-0.2,0.3-1.4,1.6-1.7,1.6c-0.2,0-0.4-0.3-0.5-0.4c-0.1-0.1-0.1-0.2-0.2-0.2c0,0-0.1,0.1-0.1,0.2c0,0.2,0,0.3,0,0.5
					c0,0.3-0.1,0.3-0.5,0.3H3.9c-0.4,0-0.5,0-0.5-0.3c0-0.5,0-0.9,0-1.4c0-0.2-0.1-0.3-0.3-0.3C3,57.9,2.8,58,2.6,58
					c-0.5,0.1-1.1,0.2-1.6,0.3C0.8,58.4,0.8,58.5,0.8,58.6z M2.7,51.2c-0.2,0-0.3,0.1-0.3,0.3c0,0,0,0,0,0v0.2
					c0,0.2,0.1,0.3,0.3,0.3h0h0.5c0.2,0,0.3-0.1,0.3-0.3v-0.2c0-0.2-0.1-0.3-0.3-0.3H2.7z M2.7,53.4c-0.2,0-0.3,0.1-0.3,0.3
					c0,0,0,0,0,0v0.2c0,0.2,0.1,0.3,0.3,0.3c0,0,0,0,0,0h0.5c0.2,0,0.3-0.1,0.3-0.3v-0.2c0-0.2-0.1-0.3-0.3-0.3H2.7z M2.7,55.6
					c-0.2,0-0.3,0.1-0.3,0.3c0,0,0,0,0,0v0.4c0,0.2,0,0.3,0.2,0.3c0.2,0,0.4-0.1,0.6-0.1c0.2-0.1,0.3-0.2,0.2-0.4v-0.2
					c0-0.2-0.1-0.3-0.3-0.3c0,0,0,0,0,0L2.7,55.6z M5.1,57.6c0,0.1,0,0.3,0.1,0.3c0.2,0,0.8-0.6,1-0.8c0.2-0.2,0.7-0.8,0.7-1.1
					c0-0.1,0-0.2-0.1-0.3c-0.4-0.8-0.7-1.7-0.9-2.6c0-0.2-0.1-0.4-0.1-0.5c0-0.1,0.1-0.2,0.2-0.3c0.1,0,0.1,0,0.1-0.1
					c0,0,0-0.1-0.1-0.1s-0.1,0-0.1,0c-0.3,0-0.3-0.1-0.3-0.4c0-0.1,0-0.1,0-0.2c0-0.1-0.1-0.3-0.2-0.3c0,0,0,0-0.1,0
					c-0.1,0-0.2,0.1-0.2,0.2c0,0,0,0,0,0L5.1,57.6z M8.1,52.1H7.8c-0.2,0-0.4,0-0.4,0.2c0,0,0,0.2,0,0.3c0.1,0.4,0.1,0.7,0.2,1.1
					C7.8,53.9,7.8,54,7.9,54S8,54,8,53.9c0.1-0.3,0.2-0.5,0.2-0.8c0.1-0.3,0.1-0.5,0.1-0.8C8.4,52.1,8.3,52.1,8.1,52.1L8.1,52.1z"/>
			</g>
		</g>
	</g>
</g>
</svg>
