<?xml version="1.0" encoding="utf-8"?>
<!-- Generator: Adobe Illustrator 26.3.1, SVG Export Plug-In . SVG Version: 6.00 Build 0)  -->
<svg version="1.1" id="レイヤー_1" xmlns="http://www.w3.org/2000/svg" xmlns:xlink="http://www.w3.org/1999/xlink" x="0px"
	 y="0px" viewBox="0 0 262 206" style="enable-background:new 0 0 262 206;" xml:space="preserve">
<style type="text/css">
	.st0{fill:#FFFFFF;}
	.st1{font-family:'NotoSans-Bold';}
	.st2{font-size:7px;}
	.st3{letter-spacing:1;}
</style>
<g id="グループ_2360" transform="translate(-31.063 -82)">
	<g id="グループ_2188" transform="translate(-312.535 -25.237)">
		<g id="グループ_916" transform="translate(345.913 240.109)">
			<path id="パス_1469" class="st0" d="M6.8,11.4c0,1,0,1.9,0,2.9c0,1.1-0.1,1.3-1.5,1.3H3.6c-1,0-1.2-0.2-1.2-0.8
				c0-0.9,0.1-2.1,0.1-3.3V5.8c0-0.9,0-1.8,0-2.7c0-0.2,0-0.6,0-0.8S2.5,2,2.7,2C3,2,5.3,2.3,5.8,2.3c0.2,0,0.3,0,0.4,0.1
				c0.6,0.1,0.9,0.1,0.9,0.3c0,0.4-0.4,0.1-0.4,1.5L6.8,11.4z M17.1,9.3c0,2.1,0,4.2-0.3,6.4c-0.2,2.5-1.4,4.8-3.2,6.4
				c-0.5,0.4-2.6,2-3.1,2c-0.4,0-1.4-0.8-1.8-1.1c-0.4-0.3-1.5-1.1-1.5-1.5c0-0.2,0.5-0.5,0.8-0.6c2.3-1.3,4.1-2.7,4.5-5.5
				c0.3-1.8,0.4-3.7,0.4-5.6V4.3c0-0.7,0-1.4-0.1-2c0-0.2,0-0.4-0.1-0.6c0-0.2,0.1-0.3,0.3-0.3c0.8,0,3.2,0.3,4,0.4
				c0.2,0,0.5,0.1,0.5,0.3c0,0.1-0.1,0.2-0.2,0.4C17.1,3,17,3.5,17.1,4L17.1,9.3z"/>
			<path id="パス_1470" class="st0" d="M28.8,7.1c0.3,0,0.9,0,0.9-0.6V5.3c0-1.2-0.1-2.3-0.1-3.5c0-0.2,0-0.3,0.2-0.3
				c0.5,0,2.2,0.1,2.9,0.1c0.9,0,1.5,0.1,1.5,0.4c0,0.1-0.1,0.2-0.2,0.3c-0.2,0.2-0.3,0.5-0.3,0.8v3.2c0,0.3,0.2,0.6,0.5,0.7
				c0,0,0.1,0,0.1,0h3.4c0.5,0,0.6-0.4,0.6-0.8c0-0.8-0.1-3.8-0.1-4.4c0-0.1,0-0.2,0-0.3c0-0.2,0.2-0.4,0.4-0.4c0,0,0,0,0,0
				c0.4,0,2,0.1,2.5,0.1c0.9,0,1.9,0.1,1.9,0.4c0,0.5-0.4,0.1-0.4,1.3v1.5c0,0.5,0,1,0,1.5c0,0.8,0.2,1,0.9,1h0.3
				C44.6,7,46.8,7,47,7c0.6,0,0.7,0.2,0.7,1.5v1.2c0,0.9-0.1,1.3-0.9,1.3c-1,0-2-0.1-3-0.1h-0.3c-0.8,0-1,0.1-1,1
				c0,4.6-0.9,7.7-4.9,10.4c-0.9,0.6-1.9,1.2-3,1.5c-0.4,0-1.2-0.8-1.7-1.4C32.6,22,32,21.4,32,21c0-0.4,0.5-0.5,1.3-0.8
				c4.2-1.7,5.2-4,5.2-8.4c0-0.4-0.1-0.8-0.6-0.8h-3.3c-0.3,0-0.6,0.3-0.6,0.6V13c0,1.1,0,2.6,0,3c0,1,0,1.1-1,1.1H31
				c-1.2,0-1.4-0.1-1.4-0.7c0-1.1,0.1-2.3,0.1-3.4v-1.5c0-0.4-0.3-0.7-0.7-0.7h-0.5c-1.1,0-2.1,0.1-2.8,0.1c-0.8,0-0.8-0.7-0.8-1.7
				v-1c0-1.1,0.1-1.3,0.7-1.3c0.6,0,1.9,0.1,2.9,0.1L28.8,7.1z"/>
			<path id="パス_1471" class="st0" d="M66,19.3c0,0.7,0,1.5,0,2.2c0,0.5,0,1,0,1.5c0,0.8-0.5,0.9-1.8,0.9h-1.1
				c-1.3,0-1.5-0.2-1.5-0.8c0-1.2,0.1-2.4,0.1-3.7v-6.1c0-0.4-0.1-0.7-0.5-0.7c-0.3,0.1-0.6,0.2-0.8,0.4c-0.7,0.5-4.5,3-5.1,3
				s-3.2-2.5-3.2-3.2c0-0.3,0.3-0.4,0.6-0.5c1.8-0.8,3.6-1.7,5.3-2.8C60.6,8,63,6,65,3.7c0.9-1.1,1.8-2.2,2.5-3.4
				C67.5,0.2,67.6,0,67.8,0c1.2,0.6,2.4,1.4,3.5,2.3c0.3,0.2,0.5,0.5,0.5,0.7c0,0.2-0.2,0.2-0.4,0.3c-0.4,0-0.7,0.2-1,0.5
				c-0.7,0.7-1.8,2.1-3.9,4.2C66.3,8.2,66,8.8,66,9.3L66,19.3z"/>
			<path id="パス_1472" class="st0" d="M93.6,4.6c0.5,0,1-0.1,1.5-0.2c0.1,0,0.2,0,0.3,0c0.8,0,2.2,2,2.2,2.4
				c-0.1,0.3-0.3,0.7-0.5,1c-0.3,0.4-0.5,0.9-0.8,1.4c-3.4,6.4-6.2,10.2-12.6,13.7c-0.6,0.3-1.1,0.6-1.8,0.8c-0.5,0-1.7-1-2.1-1.4
				c-0.3-0.3-1-0.9-1-1.2c0-0.3,0.4-0.5,0.7-0.7c0.1,0,0.2-0.1,0.2-0.1c4.3-1.9,7.9-5,10.5-9c0.5-0.7,0.9-1.4,1.1-2.3
				c0-0.4-0.4-0.4-0.7-0.4h-3.9c-0.5,0-0.7,0.3-0.9,0.7c-0.7,1-1.5,1.9-2.4,2.8c-0.4,0.4-1.6,1.7-2.1,1.7c-1.1-0.4-2.1-1-3-1.7
				c-0.2-0.2-0.3-0.4-0.4-0.6c0-0.2,0.1-0.3,0.3-0.4c1.6-1.3,3.1-2.8,4.3-4.5C84.1,4.7,85.1,2.9,86,1c0.1-0.4,0.3-0.8,0.5-0.8
				c0.2,0,3.1,1.4,3.5,1.7c0.3,0.1,0.7,0.3,0.7,0.5c0,0.1-0.1,0.2-0.2,0.2c-0.5,0.4-0.9,0.9-1.1,1.5c0,0.3,0.2,0.4,0.5,0.5L93.6,4.6
				z"/>
			<path id="パス_1473" class="st0" d="M110.8,3.7c0.5,0.1,1,0.1,1,0.3c0,0.1-0.1,0.2-0.2,0.3c-0.2,0.3-0.3,0.5-0.3,1
				c0,0.3,0,0.7,0,1c0,2.3-0.1,4.7-0.5,7c-0.6,2.9-2,5.5-4,7.6c-0.3,0.3-0.8,0.8-1.1,0.8c-0.9-0.3-1.8-0.7-2.6-1.3
				c-0.3-0.2-0.7-0.4-0.7-0.8c0-0.2,0.2-0.4,0.4-0.6c4-3.4,4.5-7.1,4.5-12c0-1.2-0.1-3.1-0.1-3.2c0-0.2,0.1-0.3,0.4-0.3
				C108,3.4,110.1,3.6,110.8,3.7z M117.5,13.5c0,1.1,0.1,1.5,0.5,1.5c1,0,5.2-4,6.1-4.9c0.1-0.1,0.3-0.4,0.6-0.4
				c0.4,0,0.8,0.8,1.2,1.5c0.3,0.5,0.6,1.1,0.7,1.7c0,0.5-0.8,1.2-1.3,1.6c-0.1,0.1-0.2,0.2-0.2,0.2c-1.3,1.1-2.6,2.2-3.9,3.3
				c-1.1,0.9-2.3,1.7-3.4,2.7c-0.3,0.2-0.7,0.6-1,0.6c-0.9-0.2-1.7-0.6-2.4-1.1c-0.5-0.2-1.2-0.7-1.2-1.3c0-0.5,0.1-1.8,0.1-3.3V7.2
				c0-0.5,0-1.4,0-2.3c0-0.6,0-1.2-0.1-1.6c0-0.1,0-0.1,0-0.2c0-0.2,0.1-0.2,0.3-0.2c0.1,0,1.2,0.1,1.4,0.1c0.4,0.1,2.3,0.3,2.7,0.3
				c0.2,0.1,0.4,0.1,0.4,0.3c0,0.2-0.1,0.3-0.2,0.4c-0.2,0.3-0.3,0.7-0.3,1c0,0.8,0,1.6,0,2.4L117.5,13.5z"/>
			<path id="パス_1474" class="st0" d="M131.5,5.2c0-0.8,0.3-0.9,3.3-1c0.5,0,1.2-0.1,1.9-0.1c3.4-0.2,11.3-1.1,14.6-1.7
				c0.1,0,0.2,0,0.3,0c0.5,0,0.6,0.4,0.7,0.9c0.2,1,0.3,2,0.4,3c0,0.5-0.3,0.5-1.5,0.5c-1.3-0.1-2.6,0.1-3.9,0.5
				c-3.4,1.2-5.6,4.4-5.6,7.9c0,2.6,1.4,3.3,3.7,3.3c0.7,0,1.6-0.1,2-0.1c0.5,0,0.7,0.1,0.7,0.6c0,1.1-0.2,2.1-0.5,3.2
				c-0.2,0.5-0.6,0.6-1.2,0.6c-5,0-9.2-1.3-9.2-7.2c0-2.5,0.8-4.9,2.3-6.9c0.1-0.1,0.1-0.3,0.2-0.4c0-0.2-0.2-0.4-0.5-0.4
				c-0.5,0-1,0.1-1.5,0.2c-1.4,0.3-3.3,0.7-4.7,1.1c-0.1,0-0.3,0.1-0.4,0.1c-0.6,0-0.8-1.2-0.9-2.1C131.6,6.5,131.5,5.9,131.5,5.2z
				 M149.5,9.7c0.7,0.8,1.4,1.7,1.8,2.7c0,0.5-1.5,1.4-1.7,1.4c-0.1,0-0.2-0.1-0.5-0.6c-0.5-0.8-1.1-1.5-1.7-2.3
				c-0.1-0.1-0.1-0.2-0.1-0.3c0-0.4,1.5-1.2,1.8-1.2C149.2,9.4,149.4,9.6,149.5,9.7L149.5,9.7z M154.9,10.7c0,0.5-1.4,1.4-1.7,1.4
				c-0.2,0-0.3-0.2-0.4-0.4c-0.5-0.8-1.1-1.6-1.7-2.4c-0.1-0.1-0.2-0.3-0.2-0.4c0-0.4,1.5-1.2,1.8-1.2
				C153.5,8.6,154.3,9.6,154.9,10.7L154.9,10.7z"/>
			<path id="パス_1475" class="st0" d="M2.7,46.5c0-0.4-0.3-0.7-0.8-0.7c-0.3,0-0.7,0.1-1.1,0.1c-0.5,0-0.6-0.3-0.6-1.2V43
				c0-0.8,0.1-1.1,0.6-1.1c0.4,0,0.7,0,1.1,0c0.4,0.1,0.7-0.2,0.7-0.6c0-0.1,0-0.1,0-0.2v-2c0-1.3-0.1-2.1-0.1-2.4
				c0-0.4,0.2-0.4,0.5-0.4c0.4,0,3.4,0.2,3.8,0.2c0.2,0,0.6,0.1,0.6,0.4c0,0.3-0.2,0.4-0.5,0.5c-0.3,0.2-0.3,0.4-0.3,0.7v3
				c0,0.4,0.3,0.7,0.7,0.7H8c0.5,0,0.6,0.3,0.6,1.1v1.5c0,1-0.1,1.3-0.6,1.3c-0.2,0-0.4,0-0.6,0c-0.4,0-0.7,0.3-0.7,0.7v4.7
				c0,0.3,0.2,0.6,0.6,0.7c0.3,0,0.5-0.1,0.8-0.2c0.1,0,0.3-0.1,0.4-0.1c0.5,0,0.5,0.6,0.5,1.7v0.9c0,0.6-0.1,0.8-0.6,1.1
				c-1,0.4-4.8,1.8-5.9,2.2c-0.7,0.2-0.6,0.2-0.8,0.8c-0.1,0.1-0.1,0.2-0.3,0.2c-0.3,0-0.5-0.7-0.7-1.6c-0.1-0.4-0.2-0.8-0.3-1.2
				C0.1,55.3,0,54.8,0,54.3c0-0.5,0.4-0.5,0.8-0.5c1.5-0.3,1.8-0.4,1.9-1.5L2.7,46.5z M18.1,49.9c0,1.2,0.1,2.5,0.1,3.8
				c0,0.7-0.3,0.7-1.1,0.7h-1.5c-0.9,0-1.2-0.1-1.2-0.7c0-1.3,0.1-2.6,0.1-3.8v-1.7c0-0.2-0.1-0.4-0.4-0.4c0,0,0,0,0,0
				c-0.5,0-0.9,0.7-0.9,1.3v5.7c0,1,0,1.3,1.2,1.3H19c1.2,0,1.4-0.4,1.7-1.8c0.1-0.5,0.1-0.7,0.6-0.7c0.7,0,1.5,0.2,2.1,0.4
				c0.7,0.2,1.1,0.5,1.1,1.2c-0.1,1.2-0.5,2.4-1.2,3.5c-0.8,0.8-1.9,1.2-3,1.1h-7.1c-2.2,0-3.8-0.2-3.8-2.9c0-0.7,0-1.3,0-2v-4.5
				c0-0.5-0.2-0.5-0.7-0.5c-0.5,0-1.6-2.8-1.6-3.1c0-0.5,0.6-0.7,1.4-1c0.6-0.2,1-0.7,1-1.3V42c0-0.7,0-1.4-0.1-2.1
				c0-0.1,0-0.2,0-0.2c0-0.4,0.2-0.4,0.5-0.4c0.8,0,2.2,0.1,3.1,0.1c0.4,0,0.9,0,0.9,0.4c0,0.2-0.2,0.3-0.4,0.4
				c-0.2,0.2-0.3,0.4-0.2,0.7V43c0,0.3,0,0.8,0.4,0.8c0.5,0,0.9-0.6,0.9-1.3v-3.9c0-1.3-0.1-2.1-0.1-2.4c0-0.3,0.2-0.3,0.5-0.3
				c0.9,0,2,0.1,2.9,0.1c0.4,0,0.8,0.1,0.8,0.4c0,0.2-0.1,0.2-0.2,0.4c-0.2,0.2-0.3,0.4-0.2,0.7c0,0.4,0,1.8,0,2.3v1.2
				c0,0.4,0.1,0.7,0.4,0.7c0.6-0.2,1.2-0.4,1.8-0.7c0.5-0.2,1-0.4,1.5-0.4c0.7,0,1.3,0.4,1.7,0.9c0.2,0.4,0.2,0.9,0.2,1.4v0.6
				c0,1.4,0,6.5-0.1,7.6c-0.2,1.8-1.8,2.2-3.3,2.2c-0.4,0-1,0-1.2-0.5c-0.3-0.8-0.4-1.7-0.4-2.6c0-0.2,0-0.7,0.3-0.7h0.4
				c0.4,0,0.5,0,0.5-3.1c0-0.4,0-0.8-0.4-0.8c-0.8,0-1.4,0.7-1.3,1.4L18.1,49.9z"/>
			<path id="パス_1476" class="st0" d="M31.6,45.9c0-0.5-0.2-0.9-0.8-0.9c-0.2,0-0.5,0-0.8,0c-0.6,0-0.7-0.3-0.7-1v-1.6
				c0-0.8,0.1-1,0.7-1c0.2,0,0.7,0,0.8,0c0.5,0,0.8-0.4,0.8-0.9c0-0.9,0-1.7,0-2.5c0-0.5,0-0.9-0.1-1.4c0-0.1,0-0.1,0-0.2
				c0-0.3,0.2-0.3,0.5-0.3c0.4,0,2.8,0.1,3.3,0.2c0.2,0,0.8,0,0.8,0.4c0,0.2-0.2,0.3-0.5,0.4c-0.3,0.1-0.3,0.2-0.3,1v2.5
				c0,0.4,0.3,0.8,0.7,0.8c0,0,0,0,0.1,0h0.1c0.6,0,0.7,0.3,0.7,1.2v1.3c0,0.9-0.1,1.2-0.7,1.2h-0.1c-0.4,0-0.8,0.3-0.8,0.8
				c0,0,0,0,0,0.1v4c0,0.3,0,0.7,0.4,0.7c0.1,0,0.6-0.2,0.8-0.2c0,0,0.1,0,0.1,0c0.4,0,0.4,1,0.4,1.6v0.3c0,0.7,0,1-0.6,1.2
				c-2,0.8-3.2,1.1-5.2,1.8c-0.3,0.1-0.6,0.3-0.8,0.7c-0.1,0.1-0.1,0.2-0.2,0.2c-0.3,0-0.4-0.5-0.7-1.6c-0.3-0.7-0.5-1.5-0.6-2.2
				c0-0.3,0.3-0.3,1.1-0.4c0.2,0,0.4-0.1,0.7-0.1c0.8-0.1,0.9-0.6,0.9-1.3L31.6,45.9z M41.4,43.5c-1,0-2,0.1-3,0.1
				c-0.7,0-0.8-0.3-0.8-1.1v-1.2c0-1.1,0.1-1.3,0.8-1.3c1,0,2,0.1,3,0.1h3.1c0.4,0,0.8-0.3,0.8-0.7c0,0,0-0.1,0-0.1V39
				c0-0.8,0-1.7,0-2.6c0-0.5,0.3-0.7,0.7-0.7c0.2,0,0.5,0,1.1,0.1c0.9,0,1.8,0.1,2.6,0.3c0,0,0.1,0,0.1,0c0.1,0,0.1,0,0.2-0.1
				c0.6-0.3,1.2-0.5,1.8-0.7c0.4,0,0.8,1.1,1,1.5c0.3,0.6,0.5,1.2,0.7,1.8c0,0.3-0.6,0.6-0.9,0.7c-0.1,0.1-0.2,0.1-0.2,0.2
				s0.1,0.2,0.2,0.2c0.8,0,0.8,0.3,0.8,1.3v1.2c0,0.8-0.1,1.2-0.8,1.2c-0.9,0-1.7-0.1-2.6-0.1H50c-0.4,0-0.8,0.3-0.8,0.7
				c0,0,0,0.1,0,0.1c0,1.1,0,1.8,0.1,2.7c0,0.5,0,0.8,0.2,0.8c0.1,0,0.2-0.2,0.3-0.3c0.3-0.8,0.5-1.5,0.7-2.3
				c0.1-0.2,0.1-0.5,0.4-0.5c0.3,0.1,0.6,0.2,1,0.4c0.8,0.4,1.5,0.7,2.2,1.1c0.2,0,0.3,0.2,0.3,0.4c0,0.3-0.4,0.3-0.5,0.3
				c-0.3,0.1-0.5,0.5-0.6,0.8c-0.7,2-1.6,3.9-2.7,5.7c-0.1,0.2-0.2,0.4-0.2,0.6c0,0.2,0.3,1.3,0.5,1.3c0.3,0,0.4-1.7,0.4-2
				c0-0.2,0-0.4,0.4-0.4c0.7,0,1.4,0.3,1.9,0.7c0.3,0.2,0.5,0.6,0.4,1c0,1.1-0.2,2.1-0.5,3.2c-0.5,1.3-1.2,2.6-2.7,2.6
				c-1.4,0-2-1-2.6-2c-0.1-0.2-0.3-0.4-0.6-0.4c-0.2,0-0.4,0.1-0.5,0.3c-0.4,0.4-2.2,2.2-2.7,2.2c-1-0.5-1.8-1.2-2.3-2.2
				c0-0.3,0.6-0.8,1.1-1.2c0.1-0.1,0.3-0.2,0.4-0.3c0.1-0.1,0.1-0.1,0.1-0.2c0-0.1-0.1-0.1-0.2-0.1c-0.1,0-0.2,0-0.2,0
				c-0.3,0.1-0.9,0.2-1.1,0.3c-0.7,0.2-4.1,0.8-4.5,0.9c-0.2,0.1-0.3,0.3-0.4,0.5c-0.1,0.1-0.2,0.2-0.3,0.2c-0.2,0-0.3-0.2-0.4-0.3
				c-0.2-0.5-0.4-1.1-0.5-1.6c-0.2-0.6-0.3-1.1-0.4-1.7c0-0.2,0.1-0.2,1-0.3c1.6-0.1,6.7-0.8,8.2-1.2c0.1,0,0.2-0.1,0.2-0.1
				c0.3,0,0.3,0.5,0.3,0.9v0.2c0,0.1,0.1,0.3,0.2,0.3c0.1,0,0.4-0.2,0.5-0.5c0.2-0.2,0.3-0.4,0.3-0.7c0-0.2,0-0.3-0.1-0.5
				c-0.6-2.8-0.9-5.7-0.8-8.6c0-0.6-0.3-0.9-0.9-0.9L41.4,43.5z M41.7,44.5c0.7,0,1.3-0.1,1.9-0.1c0.9,0,1.2,0.4,1.2,1.3
				c0,0.6-0.1,1.2-0.1,1.9V49c0,0.6,0.1,1.2,0.1,1.9c0,0.9-0.3,1.3-1.2,1.3c-0.6,0-1.2-0.1-1.9-0.1H41c-0.3,0-0.4,0.1-0.4,0.6
				c0,0.6-0.1,0.6-1.4,0.6H39c-1.1,0-1.2-0.1-1.2-0.8c0-0.3,0-0.8,0-1.4v-3.5c0-0.6-0.1-1.2-0.1-1.9c0-0.9,0.3-1.3,1.2-1.3
				c0.6,0,1.2,0.1,1.9,0.1L41.7,44.5z M40.7,48.8c0,0.3,0.3,0.5,0.5,0.5h0.1c0.3,0,0.5-0.2,0.5-0.5v-0.9c0-0.3-0.3-0.5-0.5-0.5h-0.1
				c-0.3,0-0.5,0.2-0.5,0.5c0,0,0,0,0,0V48.8z M49.2,39.1c0,0.4,0.3,0.8,0.7,0.8c0,0,0.1,0,0.1,0c0.5,0,0.8,0,0.8-0.4
				c-0.3-0.9-0.7-1.8-1.1-2.6c0-0.1-0.1-0.2-0.2-0.2c-0.3,0-0.4,0.6-0.4,1.3C49.1,38.4,49.2,38.8,49.2,39.1L49.2,39.1z"/>
			<path id="パス_1477" class="st0" d="M65.1,37.2c0.7-0.1,1.5-0.2,2.2-0.2c0.7,0,0.8,0.1,1,2.1c0.1,1.1,0.2,2.2,0.5,3.3
				c0.1,0.3,0.2,0.7,0.6,0.7c1.2-0.5,2.4-1.1,3.5-1.8c0.7-0.4,1.4-0.8,2.1-1.1c0.3,0,0.9,0.8,1.2,1.5c0.5,0.7,0.9,1.5,1.1,2.3
				c0,0.3-0.3,0.4-0.9,0.6c-0.1,0.1-0.2,0.1-0.4,0.1c-3,1.1-5.9,2.6-8.6,4.3c-1.3,0.8-3.2,2-3.2,3.5c0,1.8,3.4,1.8,4.7,1.8
				c1.4,0,2.8-0.1,4.1-0.2c0.6-0.1,2.4-0.4,2.9-0.5c0.1,0,0.2,0,0.3,0c0.3,0,0.4,0.5,0.4,0.7c0.1,0.8,0.1,1.7,0.1,2.5
				c0,0.8,0,1.1-0.7,1.2c-2.5,0.3-5,0.5-7.4,0.5c-2,0.1-4.1-0.3-5.9-1.2c-1.7-0.9-2.7-2.7-2.7-4.6c0-2.7,1.9-4.9,4.1-6.3
				c0.4-0.2,0.7-0.4,0.7-0.8c0-0.2-0.1-0.4-0.2-0.7c-0.2-0.7-0.4-1.5-0.6-2.3c-0.3-1.4-0.7-2.8-1.1-4.2c0-0.1-0.1-0.2-0.1-0.3
				C62.8,37.6,63.2,37.5,65.1,37.2z"/>
			<path id="パス_1478" class="st0" d="M97.9,55.1c0,1.5,0.1,3,0.1,4.4c0,0.7-0.3,0.8-1.2,0.8H95c-0.8,0-1.2-0.1-1.2-0.8
				c0-1.5,0.1-3,0.1-4.5v-1.9c0-0.2,0-0.6-0.2-0.6c-0.2,0-0.3,0.2-0.4,0.3c-1.5,1.8-3.2,3.3-5.2,4.6c-0.7,0.5-1.5,1-2.4,1.3
				c-0.4,0-1-0.7-1.6-1.5c-0.3-0.3-0.6-0.8-0.7-1.2c0-0.4,0.5-0.5,0.8-0.7c2.5-1.3,4.8-3,6.7-5.1c0.1-0.1,0.4-0.5,0.4-0.7
				s-0.1-0.2-0.5-0.2h-2.9c-1.2,0-2.4,0.1-3.6,0.1c-0.7,0-0.7-0.3-0.7-1.1v-1.5c0-0.8,0.1-1.1,0.7-1.1c1.2,0,2.4,0.1,3.6,0.1h5.1
				c0.4,0,0.8-0.3,0.8-0.8c0,0,0,0,0,0v-1.5c0-0.4-0.3-0.8-0.8-0.8c0,0,0,0,0,0h-3.3c-1.1,0-2.2,0.1-3.3,0.1c-0.7,0-0.7-0.3-0.7-1.1
				v-1.4c0-0.8,0.1-1.1,0.7-1.1c1.1,0,2.2,0.1,3.3,0.1H93c0.9,0,1-0.4,1-1.4c0-0.4-0.1-1.1-0.1-1.4c0-0.1,0-0.2,0-0.3
				c0-0.4,0.3-0.4,0.6-0.4c0.7,0,2.7,0.1,3.5,0.1c0.2,0,0.6,0.1,0.6,0.4c0,0.2-0.1,0.2-0.3,0.4c-0.3,0.3-0.3,0.5-0.3,1.7
				c0,0.6,0.4,0.8,1,0.8h3.1c1.1,0,2.2-0.1,3.3-0.1c0.7,0,0.7,0.3,0.7,1.1v1.5c0,0.8-0.1,1.1-0.8,1.1c-1.1,0-2.2-0.1-3.3-0.1h-3.3
				c-0.4,0-0.8,0.3-0.8,0.8c0,0,0,0,0,0V45c0,0.4,0.3,0.8,0.8,0.8c0,0,0,0,0,0h5.1c1.2,0,2.4-0.1,3.6-0.1c0.7,0,0.7,0.3,0.7,1.1v1.5
				c0,0.8-0.1,1.1-0.7,1.1c-1.2,0-2.4-0.1-3.6-0.1h-2.8c-0.3,0-0.6,0-0.6,0.2c0.8,0.9,1.6,1.7,2.6,2.4c1.6,1.3,3.4,2.5,5.2,3.6
				c0.1,0.1,0.4,0.2,0.4,0.4c0,0.6-1.7,2.8-2.3,2.8c-0.6,0-3.9-2.4-4.5-2.9c-1.2-1-2.3-2-3.3-3.2c-0.1-0.1-0.2-0.1-0.3-0.2
				c-0.2,0-0.2,0.2-0.2,0.5L97.9,55.1z"/>
			<path id="パス_1479" class="st0" d="M132.3,46.3c0,0.2,0.2,0.3,0.5,0.3h0.7c1,0,2-0.1,3-0.1c0.6,0,0.7,0.3,0.7,1.1v1.5
				c0,0.8-0.1,1.1-0.7,1.1c-1.2,0-2.4-0.1-3.6-0.1h-2.3c-0.3,0-0.5,0.1-0.5,0.3s0.4,0.6,0.7,0.9c1.8,1.7,3.8,3.2,6,4.4
				c0.5,0.3,0.7,0.3,0.7,0.7c0,0.7-1.4,2.7-2.2,2.7c-0.6,0-3-1.8-3.6-2.3c-1.4-1.1-2.7-2.2-3.8-3.5c-0.1-0.1-0.3-0.4-0.5-0.4
				c-0.2,0-0.2,0.2-0.2,0.5V55c0,1.5,0.1,3,0.1,4.5c0,0.7-0.3,0.7-1.2,0.7h-1.6c-0.9,0-1.2-0.1-1.2-0.7c0-1.5,0.1-3,0.1-4.5v-1.5
				c0-0.3-0.1-0.4-0.2-0.4c-0.1,0-0.2,0.1-0.2,0.2c-1.6,1.9-3.4,3.4-5.5,4.7c-0.7,0.5-1.5,0.9-2.3,1.1c-0.7,0-2.1-2.1-2.1-2.7
				c0-0.3,0.3-0.4,1.1-0.9c2.2-1.1,4.1-2.5,5.8-4.3c0.2-0.2,0.5-0.5,0.5-0.7c0-0.3-0.3-0.3-0.6-0.3h-2.1c-1.2,0-2.4,0.1-3.6,0.1
				c-0.7,0-0.7-0.3-0.7-1.2v-1.2c0-0.9,0.1-1.2,0.7-1.2c1.2,0,2.4,0.1,3.6,0.1h0.3c0.3,0,0.4-0.1,0.4-0.3c-0.4-0.9-0.9-1.8-1.4-2.6
				c-0.1-0.1-0.1-0.2-0.2-0.4c0-0.2,0.4-0.5,0.6-0.6c0.1,0,0.2-0.1,0.2-0.2c0-0.1-0.1-0.1-0.4-0.1c-0.5,0-1,0-1.4,0
				c-0.7,0-0.8-0.3-0.8-1.2v-1.5c0-0.8,0.1-1.1,0.7-1.1c1.1,0,2.2,0.1,3.3,0.1h3.6c0.6,0,0.9-0.3,0.9-1v-0.4c0-0.4-0.1-1.1-0.1-1.3
				c0-0.4,0.3-0.4,0.6-0.4c1,0,2.1,0.1,3.1,0.1c0.5,0,0.9,0.1,0.9,0.4c0,0.2-0.1,0.3-0.3,0.4c-0.2,0.3-0.3,0.6-0.2,1v0.3
				c0,0.7,0.2,0.9,0.9,0.9h3.5c1.1,0,2.2-0.1,3.3-0.1c0.7,0,0.7,0.3,0.7,1.1v1.5c0,0.8-0.1,1.2-0.7,1.2c-0.5,0-1.1,0-1.6,0
				c-0.1,0-0.3,0-0.3,0.2s0.2,0.2,0.3,0.2c0.5,0.2,1.3,0.5,1.3,0.8c0,0.3-0.2,0.4-0.5,0.4c-0.3,0-0.5,0.2-0.7,0.4
				c-0.1,0.1-0.1,0.2-0.3,0.4C132.8,45.3,132.5,45.8,132.3,46.3z M120.9,42.3c-0.4,0-0.7,0.1-0.7,0.4c0,0.3,0.2,0.5,0.3,0.7
				c0.4,0.6,0.7,1.3,1,2.1c0,0.3-0.5,0.6-0.8,0.7c-0.1,0.1-0.2,0.1-0.2,0.2s0.1,0.1,0.4,0.1h1.6c0.4,0,0.8-0.3,0.8-0.8c0,0,0,0,0,0
				v-2.8c0-0.4-0.3-0.8-0.8-0.8c0,0,0,0,0,0L120.9,42.3z M127.9,42.3c-0.4,0-0.8,0.3-0.8,0.8c0,0,0,0,0,0v3.2c0,0.2,0.2,0.4,0.4,0.4
				c0.5,0,0.7-0.5,1-0.9c0.6-1,1.1-2,1.5-3c0-0.4-0.5-0.4-0.8-0.4L127.9,42.3z"/>
			<path id="パス_1480" class="st0" d="M154.9,36.8c0.5,0.2,0.8,0.4,0.8,0.7c0,0.2-0.3,0.3-0.5,0.4c-0.4,0.2-0.6,0.6-0.7,1
				c0,0.2,0.1,0.3,0.3,0.3c0.8-0.1,1.5-0.3,2.2-0.6c0.2-0.1,0.5-0.2,0.8-0.2c0.6,0,0.7,0.6,0.8,1.1c0.2,0.7,0.3,1.5,0.3,2.2
				c0,0.4-0.2,0.5-1.7,0.8s-3.3,0.6-5,0.8c-0.9,0.1-0.9,0.7-0.9,0.7c0,0.1,0.1,0.2,0.2,0.2c0.1,0,0.2,0,0.2-0.1
				c0.7-0.3,1.5-0.4,2.3-0.4c0.7,0,1.4,0.1,2,0.4c0.6,0.3,1.1,0.9,1.3,1.5c0.1,0.2,0.3,0.3,0.5,0.3c0.9-0.3,1.7-0.8,2.5-1.3
				c0.2-0.1,0.4-0.2,0.5-0.3c0.1-0.1,0.2-0.1,0.4-0.1c0.7,0,1.6,3.1,1.6,3.7c0,0.4-0.3,0.4-0.8,0.6c-1.3,0.5-2.1,0.8-3.4,1.4
				c-0.7,0.3-0.8,0.5-0.8,1.2c0,0.3,0,1,0,1.6c0,1.7,0,1.8-1.5,1.8c-1.9,0-2.4-0.1-2.4-0.9c0-0.2,0-0.5,0.1-0.7v-0.1
				c0-0.2-0.1-0.4-0.3-0.4c0,0,0,0,0,0c-0.3,0-1.6,0.9-1.6,1.8c0,1.4,2.3,1.4,3.3,1.4c1.7,0,3.4-0.3,5.1-0.7
				c0.2-0.1,0.5-0.1,0.7-0.1c0.7,0,0.7,1,0.7,2.7c0,1-0.1,1.3-0.8,1.5c-1.7,0.2-3.5,0.3-5.3,0.3c-1.6,0.1-3.3-0.2-4.8-0.9
				c-1.7-0.7-2.8-2.4-2.8-4.2c0-2.6,1.9-4,3.9-5.2c0.5-0.3,1-0.6,1.5-0.8c0.2-0.1,0.5-0.2,0.5-0.5c0-0.4-0.4-0.7-0.8-0.7
				c0,0,0,0,0,0c-1.4,0.2-2.6,0.8-3.7,1.6c-1.2,1.1-2.2,2.4-2.9,3.9c-0.1,0.2-0.2,0.3-0.4,0.3c-0.6,0-3.4-1.5-3.4-2.2
				c0-0.2,0.2-0.4,0.5-0.7c1.1-1.3,2.9-4.1,3.7-5.3c0.1-0.1,0.2-0.2,0.2-0.4c0-0.2-0.2-0.4-0.4-0.4c-0.3,0-0.7,0-1.1,0
				c-0.9,0-1-0.1-1-2.1c0-1.7,0.1-1.7,1-1.7c0.6,0,1.6,0.1,2.5,0.1c1.3,0,1.6-0.1,1.8-0.5c0.6-1.1,1-2.2,1.3-3.4
				c0.1-0.4,0.1-0.6,0.4-0.6C152.7,35.9,153.8,36.3,154.9,36.8z"/>
			<path id="パス_1481" class="st0" d="M189,42.3c1.3,1.4,2,3.2,2,5.1c0,4.5-3.3,7.5-7.2,9c-1.8,0.7-3.6,1.1-5.5,1.4
				c-0.6,0-0.9-0.5-1.1-1c-0.4-0.8-0.7-1.7-0.8-2.6c0-0.5,0.6-0.7,1-0.7c1.8-0.1,3.6-0.5,5.2-1.2c2-0.9,4-2.4,4-4.9c0-2-1.5-3-3.4-3
				c-3.6,0-7.6,2-10.6,3.7c-0.2,0.2-0.5,0.3-0.8,0.3c-1.2,0-2.8-2.8-2.8-3.9c0-0.4,0.4-0.5,0.7-0.6c2.4-0.7,4.8-1.6,7.1-2.4
				c2-0.8,4.2-1.2,6.3-1.3C185.3,40,187.4,40.8,189,42.3z"/>
			<path id="パス_1482" class="st0" d="M208.6,36.9c0.3,0.1,0.6,0.2,0.6,0.4c0,0.1-0.2,0.3-0.5,0.5c-0.2,0.5-0.4,1-0.5,1.5
				c0,0.1,0,0.1-0.1,0.2c0,0.1,0,0.2,0,0.3c0,0.2,0.1,0.4,0.3,0.4c0.2,0,0.4-0.1,0.6-0.2c0.1-0.1,0.3-0.1,0.5-0.1
				c0.2,0,0.3,0.1,0.4,0.4c0.1,0.9,0.2,1.9,0.3,2.8c0,0.6-0.4,0.7-2.5,1.1c-1,0.2-1,0.4-1.3,1.2c-0.5,1.2-1,2.5-1.5,3.7
				c-0.7,1.6-1.4,3.2-2.3,4.8c-0.2,0.4-0.5,0.8-0.7,1.1c-0.1,0.3-0.2,0.4-0.6,0.4c-0.9,0-3.5-1.1-3.5-1.8c0.1-0.4,0.3-0.8,0.6-1.1
				c0.5-0.9,3.5-6.3,3.5-7c0-0.2-0.2-0.4-0.4-0.4c0,0,0,0,0,0c-0.2,0-0.7,0.1-0.9,0.1c-0.3,0-0.9,0.1-1.2,0.1c-0.6,0-0.8-0.2-1-2.6
				c0-0.2-0.1-0.7-0.1-1c0-0.4,0.2-0.5,0.5-0.5c0.5,0,1.1,0.1,1.7,0.1c2.5,0,2.8-0.1,3.1-0.8c0.4-1.4,0.6-2.8,0.7-4.2
				c0-0.2,0-0.4,0.2-0.4C204.8,36,208.1,36.8,208.6,36.9z M212.2,45.4c0.5,0.1,0.7,0.3,0.7,0.8c0,0.3-0.1,0.8-0.1,1.2
				c0,1.4,0.1,2.7,0.2,4c0,0.7,0.2,0.8,0.8,1.1c0.8,0.3,4.2,1.9,4.2,2.7c0,0.6-1.5,2.8-2.4,2.8c-0.2,0-0.6-0.2-1.2-0.7
				c-0.2-0.1-0.3-0.3-0.5-0.4c-0.1-0.1-0.3-0.2-0.4-0.2c-0.3,0-0.5,0.2-0.6,0.5c-0.2,0.5-0.5,0.9-0.9,1.3c-0.9,0.7-2.1,1.1-3.3,1
				c-2.6,0-5.3-1.2-5.3-4.2c0-2.7,2.4-3.9,4.8-3.9h0.2c0.3,0,0.6-0.2,0.7-0.5c0,0,0-0.1,0-0.1c0-0.5-0.2-2.9-0.3-3.7
				c-0.1-0.4-0.1-0.8-0.1-1.3c0-0.6,0.2-0.8,0.8-0.8C210.4,45.1,211.3,45.2,212.2,45.4L212.2,45.4z M207.5,55.4
				c0.1,0.5,0.5,0.9,1,0.8c0.6,0,0.8-0.3,0.8-0.9c0-0.4,0-0.7-0.8-0.7C208,54.6,207.5,54.8,207.5,55.4L207.5,55.4z M216.8,42.2
				c0.6,0.6,2.3,2.2,2.3,2.8c0,0.8-2.2,2.7-2.9,2.7c-0.3,0-0.6-0.4-0.8-0.7c-1-1.3-2.1-2.5-3.4-3.5c-0.2-0.2-0.5-0.4-0.5-0.6
				c0-0.4,1.7-2.7,2.5-2.7C214.6,40.3,216.4,41.8,216.8,42.2L216.8,42.2z"/>
			<path id="パス_1483" class="st0" d="M238.1,37.1c0.7,0.7,1.7,1.8,2.6,2.7c0.2,0.2,0.3,0.4,0.4,0.6c0,0.2-0.2,0.2-0.5,0.2
				c-0.3,0-0.5,0.1-0.7,0.3c-1.1,0.9-2.3,1.7-3.4,2.7c-1.3,1.1-2.5,2.1-3.6,3.2c-0.3,0.2-0.5,0.5-0.5,0.9c0,0.5,0.9,1.4,1.4,1.9
				c1.8,1.8,3.9,3.6,6,5.6c0.5,0.3,0.8,0.8,0.9,1.4c0,0.8-2.5,3.1-3.2,3.1c-0.3-0.1-0.6-0.3-0.8-0.6c-1.5-1.8-3.6-3.9-5.4-5.7
				c-1.1-1-2.1-2.1-3-3.3c-0.6-0.7-0.9-1.7-1-2.6c0-0.7,0.2-1.4,0.7-2c1.1-1.3,2.4-2.4,3.7-3.4c2-1.5,3.8-3.3,5.3-5.2
				c0.1-0.1,0.2-0.2,0.4-0.2C237.5,36.5,237.8,36.8,238.1,37.1z M244,45.5c0,0.5-1.3,1.5-1.7,1.5c-0.1,0-0.3-0.2-0.6-0.5
				c-0.5-0.7-1.1-1.4-1.7-2c-0.1-0.1-0.3-0.3-0.3-0.4c0-0.4,1.4-1.3,1.7-1.3C242.5,43.5,243.4,44.5,244,45.5z M245,40.8
				c0.2,0.2,0.7,0.7,1.1,1.2c0.5,0.6,1,1.1,1,1.3c0,0.5-1.3,1.5-1.6,1.5c-0.2,0-0.3-0.2-0.4-0.3c-0.6-0.8-1.2-1.5-1.9-2.2
				c-0.1-0.1-0.3-0.3-0.3-0.4c0-0.4,1.4-1.4,1.7-1.4C244.7,40.5,244.8,40.7,245,40.8L245,40.8z"/>
		</g>
		<path id="線_222" class="st0" d="M595.3,312.3l-251.7-0.2v-3l251.7,0.2L595.3,312.3z"/>
		<text transform="matrix(1 0 0 1 347.033 226.135)" class="st0 st1 st2 st3">OUR POLICY</text>
	</g>
	<g id="グループ_2189" transform="translate(272.579 82)">
		<rect id="長方形_303" x="0" class="st0" width="0.9" height="106.2"/>
		<g id="グループ_926" transform="translate(5.354 13.117)">
			<path id="パス_1530" class="st0" d="M1.4,4.4c-0.4,0-0.7,0-1,0C0.2,4.4,0.2,4.3,0.2,4V3.3c0-0.4,0-0.5,0.3-0.5s0.6,0,1,0h0.1
				c0.2,0,0.3-0.1,0.3-0.3c0,0,0,0,0,0V2.3c0-0.1-0.1-0.2-0.2-0.2c-0.1,0-0.5,0-0.6,0.1c0,0-0.1,0-0.1,0C0.8,2.2,0.7,2,0.5,1.7
				C0.4,1.5,0.3,1.3,0.3,1.1c0-0.2,0.2-0.2,0.4-0.2C1.8,0.8,2.9,0.5,3.9,0C3.9,0,4,0,4.1,0c0.2,0,0.2,0.1,0.5,0.3
				C4.6,0.4,5.2,1,5.3,1.1c0,0,0.1,0.1,0.1,0.2c0,0.1-0.1,0.1-0.1,0.1c0,0-0.1,0-0.1,0c0,0-0.1,0-0.1,0c0,0-0.9,0.3-1,0.3
				C3.6,1.8,3.5,1.9,3.5,2.1v0.5c0,0.2,0.1,0.3,0.3,0.3c0,0,0,0,0,0H4c0.4,0,0.7,0,1,0S5.2,3,5.2,3.3V4c0,0.3,0,0.5-0.3,0.5
				c-0.2,0-0.5,0-0.7,0C4.2,4.4,4,4.4,4,4.5c0.3,0.5,0.7,1,1.1,1.4c0.1,0,0.1,0.1,0.1,0.2c0,0.3-0.6,1-1,1c-0.2,0-0.4-0.4-0.5-0.5
				c0,0-0.1-0.1-0.2-0.1S3.5,6.6,3.5,6.6v1.7c0,0.5,0,1.1,0,1.6c0,0.3-0.1,0.3-0.5,0.3H2.4c-0.4,0-0.5,0-0.5-0.3c0-0.5,0-1.1,0-1.6
				V8c0,0,0-0.1,0-0.1S1.7,8,1.7,8C1.6,8.2,1.4,8.7,1.2,8.7C1,8.7,0,8.1,0,7.7c0-0.1,0.1-0.3,0.3-0.5C0.8,6.6,1.2,5.8,1.5,5
				c0.1-0.1,0.1-0.3,0.1-0.4C1.7,4.4,1.6,4.4,1.4,4.4L1.4,4.4z M6.9,6.8c0,0.1-0.2,0.8-0.2,0.9s0,0.1,0.1,0.1s0.7-0.1,0.8-0.1
				s0.3-0.1,0.3-0.2C7.8,7.2,7.7,6.9,7.6,6.6C7.6,6.5,7.5,6.4,7.5,6.3c0-0.3,1.1-0.6,1.4-0.6c0.1,0,0.3,0.1,0.3,0.2
				c0.2,0.5,0.4,1,0.6,1.5c0.2,0.7,0.4,1.4,0.6,2.1c0,0.3-0.4,0.4-0.6,0.5c-0.3,0.1-0.5,0.2-0.8,0.2c-0.2,0-0.3-0.2-0.3-0.4
				C8.5,9.2,8.4,9,8.3,9C8.1,9,7.9,9.1,7.6,9.2C6.8,9.3,5.9,9.5,5.1,9.7c-0.1,0-0.2,0.1-0.3,0.2c-0.1,0.1-0.2,0.2-0.3,0.2
				c-0.1,0-0.2-0.3-0.3-0.9c0-0.1-0.1-0.3-0.1-0.5c0-0.1,0-0.2,0-0.3c0-0.2,0.1-0.2,0.4-0.2l0.3,0C5.1,8.1,5,8,5.2,7.3
				c0.5-2.2,0.9-4.4,1.2-6.7c0-0.3,0-0.5,0.2-0.5c0.5,0.1,1,0.2,1.5,0.3c0.1,0,0.3,0.1,0.3,0.2c0,0.1-0.1,0.2-0.2,0.2
				C8.2,0.8,8.1,0.9,8.1,1C7.8,2.9,7.4,4.9,6.9,6.8L6.9,6.8z"/>
			<path id="パス_1531" class="st0" d="M5.4,12.3c0.2,0.1,0.6,0.2,0.6,0.3c0,0.1-0.1,0.1-0.1,0.1c-0.2,0.1-0.2,0.3-0.3,0.6
				c0,0.1-0.1,0.2-0.1,0.4c0,0,0,0.1,0,0.1c0,0.1,0.1,0.2,0.2,0.2c0,0,0,0,0,0c0.3-0.1,0.6-0.2,0.9-0.3c0.1,0,0.2-0.1,0.3-0.1
				c0.3,0,0.3,1.1,0.3,1.5c0,0.2,0,0.2-0.2,0.3c-0.5,0.1-1.2,0.3-1.6,0.4c-0.5,0.1-0.5,0.1-0.7,0.5c-0.6,1.7-1.3,3.4-2.2,5
				c-0.1,0.1-0.2,0.3-0.4,0.3s-1.4-0.5-1.4-0.9c0-0.2,0.1-0.3,0.2-0.4c0.8-1.2,1.4-2.4,1.9-3.7c0-0.1,0.1-0.2,0.1-0.3
				c0-0.2-0.1-0.2-0.2-0.2c-0.2,0-0.5,0-0.8,0s-0.4,0-0.5-0.3c-0.1-0.4-0.1-0.8-0.1-1.2c0-0.1,0-0.3,0.2-0.3c0.1,0,0.6,0.1,1.2,0.1
				c0.6,0,0.8,0,0.8-0.3c0.2-0.7,0.3-1.4,0.3-2.1c0-0.1,0-0.1,0.1-0.1C4.1,11.9,5.2,12.2,5.4,12.3z M5.1,19.4c0.5,0.5,1.3,0.7,2,0.7
				c0.6,0,1.2-0.1,1.7-0.2c0,0,0.1,0,0.1,0c0.2,0,0.2,0.2,0.2,0.6v0.3c0,0.6,0,0.8-0.2,0.8c-0.6,0.1-1.3,0.1-1.9,0.1
				c-0.9,0.1-1.8-0.2-2.6-0.6c-0.2-0.1-0.5-0.5-0.5-0.7c0-0.2,0.4-0.7,0.6-0.9c0.1-0.1,0.3-0.3,0.4-0.3C5,19.2,5,19.3,5.1,19.4
				L5.1,19.4z M6.2,15.9c0.9,0,1.7,0.1,2.6,0.3c0.2,0,0.3,0.1,0.3,0.3c0,0.4-0.2,0.9-0.3,1.3c0,0.1-0.1,0.1-0.2,0.1
				c-0.1,0-0.2,0-0.3-0.1c-0.6-0.2-1.3-0.3-2-0.3H5.9c-0.3,0-0.3,0-0.3-0.2C5.5,16,5.8,15.9,6.2,15.9L6.2,15.9z"/>
			<path id="パス_1532" class="st0" d="M5.7,24.9c0,0.1,0,0.1-0.1,0.2c-0.2,0.2-0.3,0.5-0.3,0.7c0,0.1,0.1,0.2,0.2,0.2
				c0.6-0.1,1.3-0.3,1.9-0.5c0.1,0,0.2-0.1,0.3-0.1c0.2,0,0.2,0.1,0.3,0.5c0.1,0.3,0.1,0.6,0.1,0.9c0,0.2-0.1,0.3-0.6,0.4
				c-0.6,0.1-1.6,0.3-2.3,0.3c-0.2,0-0.4,0-0.5,0.2c-0.1,0.2-0.1,0.3-0.1,0.5c0,0.1,0.1,0.1,0.2,0.1c0,0,0.1,0,0.1,0
				c0.5-0.2,1-0.4,1.5-0.4c1.3-0.1,2.4,0.9,2.5,2.3c0,0.1,0,0.2,0,0.3c0,2.6-2.8,3.2-4.8,3.2c-0.5,0-0.5-0.1-0.6-0.5
				c-0.1-0.3-0.1-0.6-0.2-1c0-0.2,0.1-0.3,0.3-0.3c0,0,0,0,0,0C3.9,32,4.2,32,4.6,32c1,0,2.7-0.3,2.7-1.5c0-0.5-0.3-0.9-0.8-0.9
				c0,0,0,0-0.1,0c-0.8,0-1.6,0.4-2.3,1c-0.1,0.1-0.2,0.3-0.4,0.4c-0.1,0.1-0.2,0.2-0.3,0.2c-0.3-0.1-0.7-0.2-0.9-0.4
				c-0.2-0.1-0.3-0.2-0.3-0.5c0-0.2,0.1-0.3,0.2-0.5C2.7,29.3,2.9,28.7,3,28c0-0.1-0.1-0.2-0.2-0.2c0,0,0,0,0,0
				c-0.1,0-0.9,0.1-1.3,0.1c-0.2,0-0.3-0.1-0.4-0.3C1,27.3,1,26.9,0.9,26.5c0-0.2,0-0.3,0.2-0.3c0.1,0,0.9,0.1,1.7,0.1
				c0.5,0,0.6,0,0.8-1.6c0-0.3,0.1-0.5,0.2-0.5C4.2,24.2,5.7,24.6,5.7,24.9z"/>
			<path id="パス_1533" class="st0" d="M1.6,37.4c0.1-0.2,0.1-0.4,0.1-0.6c0-0.2,0-0.3,0.2-0.3c0.6,0.2,1.1,0.4,1.7,0.6
				c0.2,0.1,0.3,0.2,0.3,0.2s0,0.1-0.1,0.1c-0.2,0.1-0.4,0.3-0.4,0.5c-0.4,1-0.7,2.1-0.7,3.2c0,0.6,0,0.9,0.1,0.9
				c0.1,0,0.1-0.1,0.2-0.2c0.1-0.1,0.1-0.2,0.3-0.2s0.6,0.4,0.6,0.6c-0.2,0.5-0.4,1.1-0.5,1.7c0,0.1,0,0.4,0,0.5c0,0.1,0,0.2,0,0.3
				c0,0.4-0.8,0.8-1.2,0.8c-0.2,0-0.3-0.1-0.5-0.6c-0.5-1.1-0.8-2.4-0.7-3.7C1.1,40,1.2,38.7,1.6,37.4z M4.8,42.3
				c0.4,0.5,1,0.8,1.6,0.8c0.8,0,1.7-0.1,2.5-0.4c0.1,0,0.2,0,0.3,0c0.1,0,0.2,0.1,0.2,0.2c0,0.4,0.1,0.8,0.1,1.2
				c0,0.1,0,0.2-0.2,0.3c-0.9,0.2-1.9,0.3-2.8,0.4c-1.8,0-2.6-0.9-2.6-1.2c0-0.2,0.6-1.4,0.8-1.4C4.8,42.2,4.8,42.3,4.8,42.3
				L4.8,42.3z M4.8,37.4c0.1,0,0.2,0,0.4,0c0.5,0.1,1,0.2,1.5,0.2c0.6,0,1.1-0.1,1.7-0.2c0.1,0,0.2,0,0.2,0c0.2,0,0.3,0.2,0.3,0.4
				c0,0.3,0.1,0.6,0.1,0.9c0,0.3,0,0.4-0.3,0.4c-0.6,0.1-1.3,0.1-1.9,0.1c-0.7,0-1.4-0.1-2.1-0.2c-0.1-0.1-0.1-0.4-0.1-0.5
				C4.5,37.6,4.5,37.4,4.8,37.4L4.8,37.4z"/>
			<path id="パス_1534" class="st0" d="M8.7,49.9c0.5,0.6,0.8,1.3,0.8,2.1c-0.1,1.8-1.3,3.3-3,3.8c-0.7,0.3-1.5,0.5-2.3,0.6
				c-0.3,0-0.4-0.2-0.5-0.4c-0.2-0.3-0.3-0.7-0.4-1.1c0-0.2,0.2-0.3,0.4-0.3c0.8,0,1.5-0.2,2.2-0.5c0.9-0.3,1.6-1.1,1.7-2
				c0-0.7-0.5-1.3-1.2-1.3c-0.1,0-0.1,0-0.2,0c-1.6,0.1-3.1,0.7-4.5,1.5c-0.1,0.1-0.2,0.1-0.3,0.1c-0.5,0-1.2-1.2-1.2-1.6
				c0-0.2,0.1-0.2,0.3-0.2c1-0.3,2-0.7,3-1c0.8-0.3,1.7-0.5,2.6-0.5C7.1,49,8,49.3,8.7,49.9z"/>
			<path id="パス_1535" class="st0" d="M3,60.5c0.1,0,0.2,0.1,0.2,0.2c0,0,0,0.1-0.1,0.1C3,61,3,61.2,2.9,61.3
				c-0.1,0.5-0.1,1.1-0.1,1.6c0,0.7,0.1,1.5,0.4,2.2c0.1,0.2,0.3,0.6,0.5,0.6s0.5-0.5,0.6-0.6c0.1-0.1,0.2-0.3,0.4-0.3
				c0.3,0,1.2,0.6,1.2,0.9s-0.5,0.9-0.7,1.1c-0.3,0.5-0.8,0.8-1.4,0.8c-0.8-0.1-1.4-0.5-1.8-1.1c-0.7-1.3-1-2.8-0.9-4.2
				c0-0.2,0-1.6,0.1-1.8c0-0.1,0.1-0.2,0.2-0.2C1.4,60.2,2.8,60.5,3,60.5z M7.2,60.2c0.7,0.3,1.3,0.8,1.7,1.5
				c0.4,0.7,0.7,1.5,0.8,2.3c0,0.2,0.1,0.5,0.1,0.6c0,0.2-0.1,0.3-0.3,0.4c-0.3,0.1-0.7,0.2-1.1,0.2C8,65.2,8,65.1,8,64.6
				c0-1.3-0.6-2.5-1.7-3.2c-0.1,0-0.1-0.1-0.1-0.2C6.2,61,6.9,60.2,7.2,60.2L7.2,60.2z"/>
			<path id="パス_1536" class="st0" d="M0.8,73.2c-0.1-0.4-0.2-0.8-0.2-1.2c0-0.4,0.2-0.4,0.8-0.4c1.7-0.1,3.3-0.2,5-0.5
				c0.8-0.1,1.7-0.2,2.5-0.4c0,0,0.1,0,0.1,0c0.2,0,0.3,0.2,0.3,0.4c0.1,0.4,0.1,0.8,0.1,1.3c0,0.2-0.1,0.2-0.6,0.2
				c-0.6,0-1.1,0-1.6,0.2c-1.4,0.5-2.3,1.8-2.3,3.3c0,1.1,0.6,1.4,1.6,1.4c0.3,0,0.7,0,0.8,0c0.2,0,0.3,0,0.3,0.2
				c0,0.5-0.1,0.9-0.2,1.3c-0.1,0.2-0.2,0.3-0.5,0.3c-2.1,0-3.9-0.5-3.9-3c0-1,0.3-2,0.9-2.8C4,73.4,4,73.3,4,73.2
				c0-0.1-0.1-0.2-0.2-0.2c-0.2,0-0.4,0.1-0.6,0.1c-0.6,0.1-1.4,0.3-2,0.5c-0.1,0-0.1,0-0.2,0C0.9,73.6,0.8,73.3,0.8,73.2z"/>
		</g>
		<rect id="長方形_304" x="19.5" class="st0" width="0.9" height="106.2"/>
	</g>
</g>
</svg>
