<?xml version="1.0" encoding="utf-8"?>
<!-- Generator: Adobe Illustrator 26.3.1, SVG Export Plug-In . SVG Version: 6.00 Build 0)  -->
<svg version="1.1" id="レイヤー_1" xmlns="http://www.w3.org/2000/svg" xmlns:xlink="http://www.w3.org/1999/xlink" x="0px"
	 y="0px" viewBox="0 0 878 229" style="enable-background:new 0 0 878 229;" xml:space="preserve">
<style type="text/css">
	.st0{fill:#FFFFFF;}
	.st1{font-family:'NotoSans-Bold';}
	.st2{font-size:19px;}
	.st3{letter-spacing:2;}
</style>
<g id="グループ_2187" transform="translate(-343.598 -208)">
	<g id="グループ_916" transform="translate(349 277.209)">
		<path id="パス_1469" class="st0" d="M14.6,24.7c0,2.1,0.1,4.2,0.1,6.2c0,2.3-0.1,2.8-3.2,2.8H7.9c-2.2,0-2.7-0.4-2.7-1.8
			c0-1.9,0.2-4.5,0.2-7V12.5c0-1.9,0-3.9-0.1-5.9c0-0.5-0.1-1.2-0.1-1.7s0.1-0.6,0.5-0.6c0.8,0,5.7,0.6,6.9,0.7
			c0.4,0.1,0.6,0.1,0.9,0.1c1.3,0.1,2,0.2,2,0.6c0,0.8-0.9,0.2-0.9,3.3L14.6,24.7z M36.8,20.1c0.1,4.6-0.1,9.2-0.6,13.7
			c-0.8,5.6-2.6,10.1-7,13.9c-1.1,0.9-5.5,4.4-6.7,4.4c-0.9,0-3-1.7-3.8-2.3c-0.8-0.6-3.2-2.3-3.2-3.3c0-0.5,1.2-1.1,1.6-1.3
			c5-2.8,8.8-5.9,9.7-11.9c0.5-4,0.8-8,0.8-12v-12c0-1.5,0-2.9-0.2-4.4c-0.1-0.4-0.1-0.8-0.1-1.2C27.4,3.2,27.6,3,28,3
			c1.6,0,6.9,0.6,8.7,0.9c0.4,0.1,1.1,0.1,1.1,0.6c0,0.3-0.2,0.5-0.5,0.8c-0.4,0.5-0.5,2.2-0.5,3.3L36.8,20.1z"/>
		<path id="パス_1470" class="st0" d="M62.1,15.2c0.6,0,1.9-0.1,1.9-1.3v-2.5c0-2.5-0.1-5-0.1-7.6c0-0.4,0.1-0.6,0.5-0.6
			c1.2,0,4.8,0.2,6.3,0.3C72.6,3.6,74,3.7,74,4.3C74,4.6,73.8,4.8,73.7,5c-0.4,0.5-0.6,1.2-0.6,1.8v7c-0.1,0.7,0.4,1.4,1.2,1.5
			c0.1,0,0.1,0,0.2,0h7.3c1,0,1.3-0.8,1.3-1.7c0-1.6-0.1-8.1-0.2-9.4c0-0.2-0.1-0.5-0.1-0.7c0-0.4,0.4-0.8,0.8-0.8c0,0,0,0,0,0
			c0.8,0,4.3,0.2,5.3,0.2C90.9,2.9,93,3,93,3.6c0,1-0.9,0.1-0.9,2.9v3.3c0,1.1-0.1,2.1-0.1,3.2c0,1.7,0.4,2.2,1.9,2.2h0.7
			c1.5-0.1,6.2-0.2,6.7-0.2c1.3,0,1.6,0.5,1.6,3.3v2.6c0,1.9-0.1,2.8-1.9,2.8c-2.1,0-4.3-0.1-6.4-0.1h-0.7c-1.7,0-2,0.3-2,2
			c-0.1,10-1.9,16.6-10.5,22.4c-1.1,0.8-5.3,3.2-6.5,3.2c-0.8,0-2.5-1.7-3.6-2.9c-0.9-0.9-2.3-2.3-2.3-3.2c0-0.8,1.1-1.1,2.8-1.8
			c9-3.7,11.2-8.7,11.2-18.1c0-0.9-0.3-1.8-1.3-1.8h-7.1c-0.7,0-1.3,0.6-1.3,1.3V28c0,2.4,0.1,5.7,0.1,6.4c0,2-0.1,2.5-2.2,2.5h-4.1
			c-2.6,0-3-0.2-3-1.5c0-2.5,0.1-4.9,0.1-7.3v-3.2c0-0.8-0.7-1.5-1.5-1.5h-1.2c-2.3,0-4.6,0.2-6.1,0.2c-1.8,0-1.8-1.5-1.8-3.7v-2.2
			c0-2.4,0.2-2.9,1.6-2.9c1.2,0,4.1,0.2,6.3,0.2L62.1,15.2z"/>
		<path id="パス_1471" class="st0" d="M142.3,41.6c0,1.6,0.1,3.2,0.1,4.7c0,1.1,0.1,2.2,0.1,3.3c0,1.8-1,1.9-3.9,1.9h-2.4
			c-2.8,0-3.2-0.4-3.2-1.7c0-2.6,0.1-5.3,0.1-7.9V28.8c0-0.9-0.3-1.5-1.1-1.5c-0.6,0.1-1.2,0.5-1.7,0.9c-1.6,1.1-9.7,6.5-11,6.5
			s-6.9-5.4-6.9-6.9c0-0.6,0.7-0.9,1.2-1.1c4-1.7,7.8-3.8,11.4-6.1c5.5-3.5,10.6-7.8,14.9-12.6c2-2.3,3.8-4.7,5.4-7.3
			c0.1-0.3,0.4-0.7,0.8-0.7c0.9,0,5.8,3.6,7.6,4.9c0.7,0.5,1.2,1.1,1.2,1.5c0,0.4-0.4,0.5-0.8,0.6c-0.8,0.1-1.5,0.4-2.1,1
			c-1.4,1.4-4,4.6-8.4,9.1c-0.9,0.7-1.4,1.8-1.3,3L142.3,41.6z"/>
		<path id="パス_1472" class="st0" d="M201.7,10c1.1,0,2.2-0.1,3.3-0.4c0.2,0,0.4-0.1,0.6-0.1c1.8,0,4.8,4.3,4.8,5.1
			c-0.2,0.7-0.6,1.4-1.1,2c-0.6,0.9-1.1,1.9-1.6,2.9c-7.3,13.7-13.3,21.9-27.1,29.6c-0.9,0.5-3,1.6-3.8,1.6c-1.1,0-3.6-2.2-4.5-3
			c-0.7-0.6-2-1.9-2-2.7c0-0.6,0.8-1.1,1.6-1.5c0.2-0.1,0.4-0.2,0.5-0.2c9.2-4.1,17.1-10.9,22.6-19.3c0.6-1,2.3-3.7,2.3-4.9
			c0-0.8-0.8-0.8-1.5-0.8h-8.4c-1,0-1.5,0.7-2,1.4c-1.6,2.1-3.3,4.2-5.2,6.1c-0.8,0.8-3.5,3.7-4.5,3.7c-1.2,0-5.4-2.9-6.4-3.7
			c-0.4-0.3-0.7-0.8-0.8-1.3c0-0.4,0.3-0.7,0.6-0.9c3.5-2.8,6.7-6.1,9.3-9.7c2.7-3.6,5-7.6,6.7-11.8c0.3-0.8,0.6-1.6,1.1-1.6
			c0.5,0,6.6,3,7.6,3.6c0.7,0.3,1.4,0.6,1.4,1.1c0,0.3-0.3,0.4-0.5,0.5c-1.2,0.8-2,2-2.3,3.3c0,0.6,0.5,0.9,1.1,1.1L201.7,10z"/>
		<path id="パス_1473" class="st0" d="M238.9,8c1.1,0.1,2,0.2,2,0.7c0,0.2-0.2,0.5-0.4,0.6c-0.5,0.6-0.6,1-0.6,2.2
			c0,0.7,0.1,1.4,0.1,2.1c0.1,5-0.3,10-1.1,15c-1.3,6.2-4.3,11.8-8.7,16.3c-0.6,0.6-1.6,1.7-2.4,1.7c-1.2,0-4.5-2-5.7-2.8
			c-0.6-0.4-1.6-0.9-1.6-1.7c0-0.5,0.5-0.9,0.9-1.3c8.6-7.4,9.6-15.2,9.6-25.9c0-2.7-0.2-6.7-0.2-7c0-0.5,0.3-0.6,0.8-0.6
			C232.7,7.4,237.4,7.8,238.9,8z M253.4,29.2c0,2.4,0.1,3.2,1.2,3.2c2.1,0,11.3-8.7,13.2-10.5c0.3-0.3,0.7-0.8,1.2-0.8
			c0.8,0,1.8,1.8,2.6,3.2c0.5,0.8,1.5,2.7,1.5,3.6c0,1.1-1.7,2.5-2.8,3.5c-0.2,0.2-0.4,0.4-0.5,0.5c-2.8,2.4-5.5,4.7-8.4,7
			c-2.4,1.9-4.9,3.7-7.3,5.8c-0.6,0.5-1.5,1.3-2.2,1.3c-0.9,0-4.4-1.8-5.3-2.3c-1-0.5-2.5-1.4-2.5-2.8c0-1.2,0.2-3.8,0.2-7.1V15.5
			c0-1.2,0.1-3.1,0.1-4.9c0-1.3-0.1-2.6-0.1-3.4c0-0.2-0.1-0.3-0.1-0.5c0-0.4,0.3-0.5,0.6-0.5c0.1,0,2.5,0.2,3,0.3
			c0.9,0.1,5,0.6,5.9,0.7c0.5,0.1,0.8,0.2,0.8,0.6c0,0.4-0.3,0.6-0.5,0.8c-0.5,0.6-0.7,1.4-0.6,2.2c-0.1,1.8-0.1,3.5-0.1,5.3
			L253.4,29.2z"/>
		<path id="パス_1474" class="st0" d="M283.3,11.2c0-1.8,0.6-1.9,7.1-2.2c1.2-0.1,2.5-0.1,4.2-0.2c7.4-0.5,24.4-2.4,31.5-3.7
			c0.2,0,0.4-0.1,0.6-0.1c1.1,0,1.2,0.8,1.5,1.9c0.4,2.1,0.7,4.3,0.8,6.5c0,1.1-0.6,1.1-3.2,1.2c-3.1,0.1-5.4,0-8.4,1.1
			c-7.2,2.6-12.1,9.4-12.1,17.1c0,5.6,2.9,7.1,8.1,7.1c1.5,0,3.4-0.2,4.2-0.2c1.1,0,1.5,0.2,1.5,1.3c0,2.3-0.4,4.6-1,6.9
			c-0.5,1.2-1.3,1.3-2.5,1.3c-10.8,0-19.9-2.8-19.9-15.5c0-5.9,1.8-10.2,5-14.9c0.2-0.3,0.3-0.6,0.4-0.9c0-0.5-0.4-0.9-1.1-0.9
			c-1.1,0.1-2.1,0.3-3.2,0.5c-3.1,0.6-7.1,1.5-10.2,2.3c-0.3,0.1-0.5,0.1-0.8,0.1c-1.2,0-1.6-2.6-1.9-4.5
			C283.6,14.1,283.4,12.7,283.3,11.2z M322.2,21c0.8,0.9,4,4.9,4,5.7c0,1.2-3.2,3-3.7,3c-0.3,0-0.4-0.2-1.2-1.3
			c-1.1-1.7-2.3-3.2-3.6-4.9c-0.2-0.2-0.3-0.4-0.3-0.6c0-0.8,3.3-2.6,3.9-2.6C321.6,20.3,322,20.7,322.2,21L322.2,21z M333.9,23.1
			c0,1.2-3.1,3-3.7,3c-0.4,0-0.7-0.5-0.9-0.8c-1.1-1.8-2.4-3.5-3.7-5.1c-0.2-0.2-0.4-0.5-0.5-0.9c0-0.8,3.2-2.6,3.9-2.6
			C329.6,16.8,333.9,22.4,333.9,23.1z"/>
		<path id="パス_1475" class="st0" d="M5.7,100.2c0-0.9-0.8-1.6-1.6-1.6c-0.7,0-1.6,0.1-2.3,0.1c-1.1,0-1.2-0.7-1.2-2.5v-3.6
			c0-1.8,0.1-2.3,1.3-2.3c0.8,0,1.6,0.1,2.3,0.1c0.8,0.1,1.5-0.4,1.6-1.2c0-0.1,0-0.3,0-0.4v-4.3c0-2.9-0.2-4.5-0.2-5.2
			c0-0.8,0.5-0.9,1.2-0.9c0.8,0,7.4,0.4,8.2,0.4c0.5,0.1,1.3,0.2,1.3,0.8c0,0.6-0.5,0.8-1.2,1.2c-0.6,0.4-0.7,0.8-0.7,1.5v6.5
			c0,0.8,0.7,1.5,1.5,1.5h1.4c1.1,0,1.2,0.7,1.2,2.3V96c0,2.2-0.1,2.8-1.3,2.8c-0.5,0-0.9-0.1-1.3-0.1c-0.9,0-1.6,0.7-1.6,1.5v10.2
			c-0.1,0.7,0.5,1.4,1.2,1.5c0.6,0,1.1-0.2,1.6-0.4c0.3-0.1,0.5-0.2,0.8-0.2c1.1,0,1.2,1.3,1.2,3.6v1.9c0,1.2-0.2,1.8-1.2,2.3
			c-2.1,0.9-10.2,3.9-12.7,4.7c-1.4,0.5-1.3,0.5-1.8,1.8c-0.1,0.2-0.2,0.5-0.6,0.5c-0.6,0-1-1.4-1.5-3.5c-0.2-0.8-0.4-1.6-0.7-2.5
			c-0.3-0.9-0.5-1.9-0.6-2.9c0-1,0.9-1.1,1.7-1.2c3.3-0.6,3.9-0.8,4-3.2L5.7,100.2z M39.1,107.6c0,2.7,0.2,5.4,0.2,8.2
			c0,1.4-0.6,1.5-2.4,1.5h-3.2c-1.9,0-2.6-0.1-2.6-1.5c0-2.8,0.2-5.5,0.2-8.3v-3.7c0-0.5-0.3-0.9-0.8-0.9c0,0,0,0,0,0
			c-1.2,0-1.9,1.4-1.9,2.9v12.4c0,2.2,0.1,2.9,2.6,2.9h9.8c2.6,0,3.1-0.8,3.7-3.9c0.2-1,0.2-1.4,1.3-1.4c1.6,0.1,3.1,0.4,4.6,0.9
			c1.5,0.5,2.5,1,2.5,2.6c-0.2,2.7-1.2,5.3-2.7,7.5c-1.5,2-4.1,2.4-6.4,2.4H28.6c-4.8,0-8.3-0.5-8.3-6.3c0-1.4,0.1-2.8,0.1-4.2V109
			c0-1.1-0.5-1.1-1.5-1.1c-1.2,0-3.5-6.1-3.5-6.6c0-1.1,1.3-1.5,2.9-2.1c1.3-0.3,2.2-1.5,2.1-2.9v-5.7c0-1.5,0-3-0.2-4.5
			c0-0.2-0.1-0.3-0.1-0.5c0-0.8,0.5-0.8,1.1-0.8c1.8,0,4.8,0.2,6.7,0.3c0.8,0.1,1.9,0.1,1.9,0.8c0,0.5-0.5,0.6-0.8,0.9
			c-0.4,0.4-0.6,0.9-0.5,1.4v4.5c0,0.6,0,1.7,0.9,1.7c1,0,1.9-1.3,1.9-2.8v-8.3c0-2.9-0.2-4.6-0.2-5.2c0-0.7,0.5-0.7,1.1-0.7
			c1.9,0,4.3,0.1,6.2,0.2c0.9,0.1,1.8,0.1,1.8,0.9c0,0.4-0.2,0.5-0.5,0.8c-0.4,0.4-0.5,0.9-0.5,1.4c-0.1,0.8-0.1,4-0.1,5v2.6
			c0,0.8,0.1,1.6,0.9,1.6c1.3-0.4,2.6-1,3.8-1.6c1-0.5,2.1-0.8,3.2-0.9c1.5,0,2.8,0.8,3.6,2c0.4,0.9,0.5,1.9,0.4,2.9v1.2
			c0,2.9-0.1,14.1-0.3,16.4c-0.5,3.9-3.8,4.8-7.2,4.8c-0.9,0-2.1-0.1-2.5-1.1c-0.6-1.8-0.9-3.7-0.9-5.6c0-0.5,0-1.5,0.7-1.5h0.8
			c0.8,0,1.2,0,1.2-6.7c0-0.9,0-1.6-0.8-1.6c-1.3,0-2.7,0.9-2.9,3.1L39.1,107.6z"/>
		<path id="パス_1476" class="st0" d="M68.1,98.9c0-1.1-0.5-1.9-1.7-1.9C66,97,65.2,97,64.6,97c-1.3,0-1.4-0.6-1.4-2.2v-3.4
			c0-1.6,0.1-2.2,1.4-2.2c0.5,0,1.4,0.1,1.8,0.1c1.2,0,1.6-0.8,1.7-1.9c0.1-2,0.1-3.6,0.1-5.3c0-1-0.1-2-0.2-3
			c0-0.2-0.1-0.3-0.1-0.5c0-0.6,0.5-0.7,1.1-0.7c0.9,0,6,0.3,7.1,0.4c0.5,0.1,1.8,0.1,1.8,0.9c0,0.4-0.5,0.6-1,0.9
			c-0.6,0.3-0.7,0.4-0.7,2.1v5.3c-0.1,0.9,0.6,1.7,1.5,1.8c0.1,0,0.1,0,0.2,0h0.3c1.3,0,1.4,0.6,1.4,2.5v2.8c0,1.9-0.1,2.5-1.4,2.5
			h-0.3c-0.9,0-1.6,0.7-1.6,1.7c0,0.1,0,0.1,0,0.2v8.6c0,0.7,0.1,1.6,0.9,1.6c0.3,0,1.3-0.3,1.6-0.4c0.1-0.1,0.2-0.1,0.3-0.1
			c0.8,0,0.8,2.2,0.8,3.5v0.7c0,1.4-0.1,2.1-1.3,2.6c-4.2,1.6-6.8,2.5-11.2,3.9c-0.7,0.2-1.4,0.7-1.6,1.5c-0.2,0.2-0.3,0.4-0.5,0.4
			c-0.6,0-0.9-1.2-1.6-3.5c-0.5-1.5-1-3.1-1.3-4.7c0-0.6,0.6-0.7,2.4-0.9c0.4-0.1,0.9-0.1,1.5-0.2c1.7-0.3,1.9-1.2,1.9-2.8
			L68.1,98.9z M89.2,93.8c-2.2,0-4.4,0.1-6.6,0.1c-1.6,0-1.7-0.7-1.7-2.5v-2.6c0-2.5,0.2-2.8,1.8-2.8c2.2,0,4.3,0.1,6.5,0.1h6.7
			c0.9,0.1,1.7-0.6,1.8-1.5c0-0.1,0-0.2,0-0.3V84c0-1.8-0.1-3.7-0.1-5.5c0-1,0.6-1.4,1.6-1.4c0.4,0,1,0,2.4,0.1c2,0.2,5,0.3,5.7,0.7
			c0.1,0.1,0.2,0.1,0.3,0.1c0.2,0,0.2,0,0.4-0.1c1.2-0.6,2.5-1.1,3.9-1.4c0.8,0,1.6,2.3,2.1,3.3c0.6,1.3,1.2,2.6,1.6,4
			c0,0.6-1.3,1.2-1.9,1.4c-0.2,0.1-0.4,0.2-0.4,0.5s0.3,0.4,0.5,0.4c1.6,0,1.7,0.7,1.7,2.8v2.6c0,1.8-0.1,2.5-1.6,2.5
			c-1.9,0-3.7-0.1-5.6-0.1h-0.5c-0.9,0-1.7,0.7-1.7,1.6c0,0.1,0,0.1,0,0.2c0,2.4,0.1,3.9,0.1,5.9c0,1,0,1.8,0.4,1.8
			c0.3,0,0.5-0.5,0.6-0.7c0.6-1.8,1.1-3.2,1.5-5c0.1-0.5,0.1-1.2,0.8-1.2c0.7,0.2,1.4,0.5,2,0.8c1.6,0.8,3.2,1.5,4.7,2.4
			c0.4,0.1,0.6,0.4,0.6,0.8c0,0.7-0.9,0.7-1,0.7c-0.7,0.1-1.1,1.2-1.3,1.8c-1.6,4.2-3.5,8.4-5.8,12.3c-0.3,0.4-0.4,0.8-0.4,1.3
			c0,0.4,0.6,2.8,1.1,2.8c0.6,0,0.8-3.7,0.8-4.3c0.1-0.4,0.1-0.9,0.9-0.9c1.5,0.1,2.9,0.6,4.1,1.5c0.7,0.5,1,1.4,0.9,2.2
			c0,2.3-0.4,4.6-1.1,6.8c-1,2.8-2.6,5.6-5.8,5.6c-2.9,0-4.4-2-5.7-4.4c-0.3-0.5-0.6-0.9-1.2-0.9c-0.5,0.1-0.9,0.3-1.2,0.7
			c-0.9,0.9-4.8,4.8-5.9,4.8s-5-3.6-5-4.7c0-0.6,1.3-1.6,2.5-2.5c0.3-0.2,0.6-0.4,0.9-0.7c0.2-0.1,0.3-0.2,0.3-0.4
			c0-0.2-0.2-0.3-0.4-0.3c-0.1,0-0.4,0.1-0.5,0.1c-0.6,0.2-1.9,0.5-2.5,0.6c-1.5,0.4-8.9,1.8-9.7,2c-0.5,0.1-0.7,0.6-0.9,1.1
			c-0.1,0.2-0.4,0.3-0.6,0.3c-0.4,0-0.6-0.3-0.8-0.7c-0.5-1.1-0.9-2.3-1.2-3.5c-0.4-1.2-0.7-2.4-0.8-3.7c0-0.5,0.2-0.5,2.1-0.7
			c3.5-0.3,14.4-1.8,17.7-2.5c0.2-0.1,0.3-0.1,0.5-0.1c0.6,0,0.7,1.2,0.7,2v0.5c0,0.3,0.1,0.7,0.5,0.7c0.3,0,0.8-0.5,1.2-1
			c0.4-0.4,0.6-1,0.6-1.5c0-0.4-0.1-0.8-0.2-1.1c-1.3-6.1-1.8-12.3-1.8-18.4c0-1.3-0.6-1.9-2-1.9L89.2,93.8z M89.9,95.9
			c1.5,0,2.8-0.2,4-0.2c2,0,2.6,0.9,2.6,2.9c0,1.3-0.1,2.7-0.1,4v3c0,1.3,0.1,2.7,0.1,4.1c0,1.9-0.7,2.8-2.6,2.8
			c-1.3,0-2.6-0.2-4-0.2h-1.5c-0.7,0-0.8,0.2-0.8,1.2c0,1.3-0.3,1.3-3,1.3H84c-2.4,0-2.7-0.2-2.7-1.8c0-0.7,0.1-1.6,0.1-2.9v-7.6
			c0-1.3-0.1-2.7-0.1-4c0-1.9,0.6-2.9,2.6-2.9c1.3,0,2.6,0.2,4.1,0.2L89.9,95.9z M87.6,105.1c0,0.6,0.6,1.1,1.2,1.1h0.1
			c0.6,0,1.1-0.5,1.2-1.1v-1.9c0-0.6-0.5-1.1-1.2-1.1h-0.1c-0.6,0-1.1,0.5-1.2,1.1c0,0,0,0,0,0L87.6,105.1z M106,84.3
			c-0.1,0.9,0.6,1.7,1.5,1.8c0.1,0,0.2,0,0.2,0c1,0,1.8-0.1,1.8-0.9c0-0.6-2-4.7-2.4-5.6c-0.1-0.1-0.1-0.4-0.4-0.4
			c-0.6,0-0.8,1.3-0.8,2.8C105.9,82.9,106,83.7,106,84.3L106,84.3z"/>
		<path id="パス_1477" class="st0" d="M140.3,80.2c1.6-0.2,3.2-0.4,4.7-0.5c1.6,0,1.7,0.1,2.1,4.5c0.1,2.4,0.5,4.8,1,7.1
			c0.2,0.7,0.5,1.5,1.3,1.5c1.1,0,6.3-3.1,7.6-3.9c0.9-0.5,3.9-2.3,4.6-2.3c0.6,0,1.9,1.8,2.7,3.2c0.6,1.1,2.4,3.9,2.4,5
			c0,0.6-0.6,0.9-1.9,1.3c-0.2,0.1-0.5,0.2-0.8,0.3c-6.4,2.4-12.6,5.5-18.4,9.3c-2.8,1.8-6.9,4.4-6.9,7.4c0,3.9,7.4,3.9,10.1,3.9
			c3,0,5.9-0.1,8.9-0.5c1.2-0.2,5.3-0.8,6.2-1.1c0.2,0,0.4-0.1,0.6-0.1c0.6,0,0.8,1,0.8,1.5c0.2,1.7,0.2,3.6,0.2,5.3
			c0,1.8-0.1,2.3-1.6,2.7c-2.7,0.7-12.8,1-16,1c-4.6,0-8.7-0.3-12.8-2.6c-3.6-2-5.9-5.9-5.9-10c0-5.8,4.2-10.7,8.8-13.6
			c0.9-0.5,1.4-0.8,1.4-1.8c0-0.5-0.2-1-0.4-1.4c-0.5-1.6-0.9-3.2-1.3-4.9c-0.7-3-1.5-6-2.5-9c-0.1-0.2-0.1-0.5-0.2-0.7
			C135.4,81.1,136.1,80.7,140.3,80.2z"/>
		<path id="パス_1478" class="st0" d="M211,118.7c0,3.2,0.2,6.4,0.2,9.5c0,1.5-0.6,1.7-2.6,1.7h-3.8c-1.8,0-2.5-0.1-2.5-1.6
			c0-3.2,0.2-6.4,0.2-9.6v-4.1c0-0.4,0-1.3-0.5-1.3c-0.4,0-0.6,0.4-0.8,0.6c-3.2,3.9-6.9,7.2-11.1,10c-0.9,0.6-4.3,2.8-5.2,2.8
			c-0.9,0-2.2-1.5-3.5-3.2c-0.5-0.6-1.5-1.9-1.5-2.6s1-1.2,1.8-1.6c5.4-2.8,10.4-6.6,14.5-11.1c0.2-0.3,0.9-1,0.9-1.4
			s-0.2-0.5-1.1-0.5h-6.1c-2.5,0-5.1,0.1-7.7,0.1c-1.4,0-1.5-0.6-1.5-2.3v-3.2c0-1.8,0.1-2.4,1.5-2.4c2.6,0,5.2,0.1,7.7,0.1h10.9
			c0.9,0,1.6-0.7,1.6-1.6c0,0,0,0,0,0v-3.2c0-0.9-0.7-1.6-1.6-1.6c0,0,0,0,0,0h-7.1c-2.4,0-4.7,0.1-7.1,0.1c-1.5,0-1.6-0.6-1.6-2.4
			v-3.1c0-1.8,0.1-2.4,1.6-2.4c2.4,0,4.7,0.1,7.1,0.1h6.7c1.9,0,2-0.9,2-3c0-0.8-0.1-2.3-0.2-3.1c0-0.2-0.1-0.4-0.1-0.6
			c0-0.8,0.6-0.8,1.2-0.8c1.5,0,5.9,0.1,7.5,0.2c0.5,0.1,1.3,0.2,1.3,0.9c0,0.4-0.3,0.5-0.6,0.9c-0.6,0.6-0.6,1.1-0.6,3.7
			c0,1.3,0.8,1.8,2,1.8h6.8c2.4,0,4.7-0.1,7.1-0.1c1.5,0,1.6,0.6,1.6,2.3v3.2c0,1.8-0.1,2.4-1.6,2.4c-2.4,0-4.7-0.1-7.1-0.1h-7.2
			c-0.9,0-1.6,0.7-1.6,1.6c0,0,0,0,0,0V97c0,0.9,0.7,1.6,1.6,1.6c0,0,0,0,0,0h10.9c2.5,0,5.1-0.1,7.7-0.1c1.4,0,1.5,0.6,1.5,2.3v3.2
			c0,1.8-0.1,2.4-1.5,2.4c-2.6,0-5.2-0.1-7.7-0.1h-6c-0.6,0-1.2,0-1.2,0.5c0,0.6,4.2,4.2,5.6,5.3c3.5,2.9,7.3,5.5,11.2,7.7
			c0.3,0.2,0.8,0.4,0.8,0.8c0,1.3-3.6,6-4.9,6c-1.3,0-8.3-5.2-9.7-6.3c-2.5-2.1-4.9-4.4-7.1-6.8c-0.1-0.2-0.4-0.3-0.6-0.4
			c-0.4,0-0.5,0.4-0.5,1.1L211,118.7z"/>
		<path id="パス_1479" class="st0" d="M285.1,99.8c0,0.5,0.4,0.6,1.2,0.6h1.5c2.2,0,4.4-0.1,6.6-0.1c1.3,0,1.5,0.7,1.5,2.3v3.2
			c0,1.6-0.1,2.3-1.5,2.3c-2.6,0-5.2-0.2-7.7-0.2h-5c-0.6,0-1.1,0.1-1.1,0.7s0.8,1.3,1.5,1.9c3.9,3.7,8.2,6.9,12.9,9.4
			c1.1,0.6,1.4,0.7,1.4,1.4c0,1.5-3.1,5.9-4.7,5.9c-1.2,0-6.6-4-7.8-4.9c-3-2.3-5.7-4.8-8.3-7.6c-0.2-0.2-0.6-0.8-1-0.8
			c-0.4,0-0.5,0.4-0.5,1.1v3.5c0,3.2,0.2,6.4,0.2,9.7c0,1.5-0.6,1.6-2.6,1.6H268c-1.9,0-2.6-0.1-2.6-1.6c0-3.2,0.2-6.4,0.2-9.7v-3.3
			c0-0.6-0.2-0.9-0.5-0.9c-0.2,0-0.4,0.2-0.5,0.4c-3.4,4-7.4,7.4-11.9,10.1c-0.9,0.5-4.2,2.5-5,2.5c-1.5,0-4.5-4.5-4.5-5.9
			c0-0.6,0.6-0.9,2.4-1.9c4.7-2.3,8.9-5.5,12.4-9.3c0.4-0.4,1-1.1,1-1.5c0-0.6-0.6-0.6-1.3-0.6h-4.6c-2.6,0-5.2,0.2-7.7,0.2
			c-1.4,0-1.5-0.7-1.5-2.6v-2.7c0-1.9,0.1-2.6,1.5-2.6c2.6,0,5.2,0.1,7.7,0.1h0.6c0.6,0,0.9-0.2,0.9-0.6c0-0.5-2.6-4.9-3-5.7
			c-0.2-0.2-0.3-0.5-0.4-0.8c0-0.5,0.8-1.1,1.2-1.3c0.2,0,0.4-0.2,0.4-0.5c0-0.2-0.3-0.3-0.8-0.3c-1,0-2,0.1-3,0.1
			c-1.6,0-1.7-0.6-1.7-2.5v-3.2c0-1.8,0.1-2.4,1.6-2.4c2.3,0,4.7,0.1,7.1,0.1h7.8c1.3,0,1.9-0.7,1.9-2.2v-0.8c0-0.9-0.2-2.3-0.2-2.9
			c0-0.8,0.6-0.8,1.2-0.8c2.1,0,4.6,0.1,6.7,0.2c1,0.1,1.9,0.1,1.9,0.8c0,0.4-0.3,0.6-0.6,0.9c-0.4,0.6-0.6,1.4-0.5,2.1v0.6
			c0,1.4,0.5,2,2,2h7.6c2.4,0,4.7-0.1,7.1-0.1c1.5,0,1.6,0.6,1.6,2.4v3.2c0,1.8-0.1,2.5-1.5,2.5c-1.2,0-2.3-0.1-3.5-0.1
			c-0.2,0-0.6,0.1-0.6,0.4s0.4,0.5,0.6,0.5c1.1,0.5,2.8,1.1,2.8,1.8c0,0.6-0.5,0.8-1,0.8c-0.6,0-1.2,0.4-1.5,0.9
			c-0.1,0.2-0.3,0.5-0.6,0.9C286.3,97.6,285.6,98.7,285.1,99.8z M260.6,91.2c-0.9,0-1.5,0.2-1.5,0.8c0.1,0.6,0.3,1.1,0.7,1.6
			c0.5,0.8,2.1,3.7,2.1,4.5c0,0.6-1.1,1.3-1.6,1.6c-0.2,0.1-0.5,0.3-0.5,0.5s0.3,0.3,0.8,0.3h3.4c0.9,0,1.6-0.7,1.6-1.6c0,0,0,0,0,0
			v-6c0-0.9-0.7-1.6-1.7-1.6c0,0,0,0,0,0H260.6z M275.6,91.2c-0.9,0-1.6,0.7-1.6,1.6c0,0,0,0,0,0v6.9c0,0.5,0.4,0.8,0.9,0.8
			c1.1,0,1.6-1,2-1.9c0.5-0.9,3.2-5.7,3.2-6.4c0-0.9-1-0.9-1.7-0.9H275.6z"/>
		<path id="パス_1480" class="st0" d="M333.9,79.3c1.1,0.5,1.8,0.9,1.8,1.4c0,0.5-0.6,0.6-1.1,0.8c-0.8,0.5-1.3,1.3-1.6,2.2
			c0,0.5,0.3,0.6,0.7,0.6c1.6-0.3,3.2-0.7,4.7-1.3c0.5-0.2,1.1-0.4,1.6-0.4c1.3,0,1.6,1.2,1.8,2.3c0.4,1.6,0.6,3.1,0.7,4.7
			c0,0.9-0.5,1.1-3.7,1.7s-7.2,1.3-10.8,1.7c-1.9,0.2-2,1.5-2,1.6c0,0.3,0.3,0.4,0.5,0.4c0.2,0,0.4-0.1,0.5-0.2
			c1.6-0.6,3.3-0.9,5-0.9c1.5-0.1,2.9,0.3,4.2,0.9c1.3,0.7,2.3,1.9,2.8,3.3c0.1,0.4,0.6,0.7,1,0.7c0.6,0,3.7-1.8,5.4-2.8
			c0.5-0.3,0.9-0.5,1.2-0.6c0.2-0.1,0.5-0.2,0.8-0.3c1.5,0,3.5,6.7,3.5,8.1c0,0.8-0.6,0.9-1.8,1.3c-2.8,1.1-4.6,1.8-7.3,2.9
			c-1.4,0.6-1.6,1.1-1.6,2.7c0,0.7,0.1,2.1,0.1,3.4c0,3.7-0.1,3.8-3.3,3.8c-4,0-5.3-0.2-5.3-2c0-0.5,0-1.1,0.1-1.6v-0.3
			c0-0.4-0.3-0.8-0.7-0.8c0,0,0,0,0,0c-0.6,0-3.5,1.9-3.5,3.9c0,2.9,5,2.9,7,2.9c3.7-0.1,7.3-0.6,10.9-1.5c0.5-0.1,1-0.2,1.5-0.2
			c1.4,0,1.5,2.1,1.5,5.9c0,2.2-0.1,2.8-1.8,3.2c-3.8,0.5-7.6,0.7-11.4,0.7c-4.1,0-6.8-0.3-10.2-1.9c-3.7-1.5-6.1-5.1-6-9.1
			c0-5.5,4.2-8.7,8.4-11.2c1-0.6,2.2-1.2,3.2-1.8c0.5-0.2,1-0.5,1-1.2c-0.1-0.9-0.9-1.6-1.8-1.5c0,0,0,0,0,0c-2.2,0-6.3,2-8,3.4
			c-2.8,2.2-4.5,5.3-6.2,8.3c-0.1,0.4-0.5,0.6-0.9,0.6c-1.3,0-7.3-3.3-7.3-4.7c0-0.5,0.4-0.8,1.1-1.6c2.4-2.8,6.2-8.8,8.1-11.5
			c0.2-0.2,0.3-0.5,0.4-0.8c0-0.5-0.4-0.8-0.9-0.8c-0.7,0-1.5,0.1-2.3,0.1c-2,0-2.2-0.2-2.2-4.6c0-3.6,0.2-3.7,2.1-3.7
			c1.3,0,3.4,0.1,5.3,0.1c2.9,0,3.4-0.2,3.9-1.1c1.2-2.3,2.2-4.7,2.8-7.3c0.2-0.9,0.3-1.3,0.9-1.3C327.4,76.5,333,78.9,333.9,79.3z"
			/>
		<path id="パス_1481" class="st0" d="M407.3,91.2c2.8,3,4.3,6.9,4.3,10.9c0,9.6-7.1,16.1-15.5,19.4c-2.6,1.1-9,2.9-11.8,2.9
			c-1.3,0-1.9-1-2.5-2.1c-0.6-1.2-1.8-4.3-1.8-5.6c0-1.2,1.3-1.4,2.2-1.5c3.9-0.2,7.7-1.1,11.3-2.7c4.4-2,8.5-5.3,8.5-10.5
			c0-4.4-3.3-6.6-7.3-6.6c-7.8,0-16.3,4.2-23,7.9c-0.5,0.4-1.1,0.6-1.8,0.6c-2.5,0-6.1-6.1-6.1-8.4c0-0.9,0.8-1.1,1.5-1.3
			c5.2-1.5,10.3-3.4,15.4-5.1c4.5-1.5,8.9-2.8,13.6-2.8C399.3,86.5,404,87.7,407.3,91.2z"/>
		<path id="パス_1482" class="st0" d="M449.6,79.6c0.7,0.2,1.3,0.4,1.3,0.8c0,0.3-0.4,0.6-1.1,1.1c-0.4,0.2-0.8,2.3-1.1,3.3
			c-0.1,0.2-0.1,0.3-0.1,0.5c0,0.2-0.1,0.4-0.1,0.6c0,0.4,0.3,0.8,0.7,0.8c0.4-0.1,0.9-0.2,1.3-0.4c0.3-0.1,0.7-0.2,1-0.2
			c0.5,0,0.7,0.3,0.8,0.9c0.3,2,0.5,4.1,0.6,6.1c0,1.3-0.8,1.6-5.4,2.4c-2,0.4-2.1,0.8-2.8,2.6c-1,2.7-2.1,5.3-3.3,8
			c-1.5,3.5-3.1,7-4.9,10.3c-0.5,0.8-1.1,1.8-1.4,2.5c-0.3,0.6-0.5,0.9-1.3,0.9c-2,0-7.6-2.5-7.6-4c0.3-0.8,0.7-1.6,1.2-2.3
			c1.2-2,7.6-13.6,7.6-15.1c0-0.5-0.5-0.9-1-0.9c0,0,0,0,0,0c-0.4,0-1.5,0.1-1.9,0.2c-0.6,0.1-1.9,0.2-2.6,0.2
			c-1.2,0-1.8-0.5-2.2-5.5c-0.1-0.5-0.2-1.5-0.2-2c0-0.8,0.5-1.1,1.2-1.1c1,0,2.4,0.1,3.7,0.1c5.3,0,6.1-0.1,6.7-1.6
			c0.8-3,1.3-6,1.5-9.1c0-0.5,0-0.9,0.4-0.9C441.4,77.5,448.5,79.3,449.6,79.6z M457.5,98c1,0.2,1.5,0.6,1.5,1.7
			c0,0.6-0.1,1.6-0.1,2.7c0,2.9,0.2,5.8,0.4,8.7c0.1,1.4,0.4,1.8,1.7,2.3c1.6,0.6,9,4.1,9,5.7c0,1.3-3.3,6.1-5.2,6.1
			c-0.5,0-1.3-0.5-2.6-1.5c-0.4-0.3-0.7-0.6-1.1-0.9c-0.3-0.2-0.6-0.4-0.9-0.3c-0.6,0-1.1,0.4-1.3,1c-0.5,1-1.2,2-2,2.8
			c-1.8,1.8-4.6,2.2-7.1,2.2c-5.6,0-11.4-2.7-11.4-9c0-5.9,5.2-8.4,10.4-8.4h0.5c0.7,0.1,1.3-0.5,1.4-1.2c0-0.1,0-0.2,0-0.2
			c0-1-0.5-6.2-0.7-8c-0.1-0.9-0.2-1.8-0.2-2.8c0-1.2,0.5-1.7,1.8-1.7C453.6,97.2,455.5,97.5,457.5,98L457.5,98z M447.2,119.3
			c0.1,1.1,1.1,1.9,2.2,1.8c1.3,0,1.8-0.7,1.8-1.9c0-0.8-0.1-1.4-1.8-1.4C448.4,117.7,447.2,118.2,447.2,119.3L447.2,119.3z
			 M467.3,91c1.3,1.2,5,4.7,5,6c0,1.8-4.7,5.9-6.2,5.9c-0.7,0-1.2-0.9-1.6-1.5c-2.1-2.9-4.5-5.4-7.3-7.6c-0.5-0.4-1.1-0.8-1.1-1.2
			c0-0.9,3.7-5.7,5.4-5.7C462.6,86.8,466.4,90.1,467.3,91L467.3,91z"/>
		<path id="パス_1483" class="st0" d="M513.2,79.9c1.6,1.6,3.7,3.8,5.6,5.8c0.4,0.3,0.7,0.8,0.8,1.3c0,0.4-0.4,0.4-1.1,0.4
			c-0.5,0-1.1,0.2-1.5,0.6c-2.5,1.9-4.9,3.7-7.3,5.7c-2.8,2.3-5.3,4.5-7.8,6.9c-0.7,0.4-1.1,1.1-1.2,1.9c0,1.2,1.9,3.1,3,4.2
			c3.9,3.9,8.3,7.8,13,12.1c1.2,1.1,2,2.2,2,2.9c0,1.8-5.3,6.7-6.9,6.7c-0.7-0.2-1.3-0.7-1.7-1.3c-3.2-4-7.7-8.4-11.7-12.4
			c-2.3-2.2-4.5-4.6-6.5-7.1c-1.3-1.6-2-3.6-2-5.6c0-1.6,0.5-3.1,1.4-4.4c1.6-2.3,5.6-5.4,8.1-7.4c4.3-3.3,8.1-7.1,11.4-11.3
			c0.2-0.3,0.4-0.4,0.8-0.5C511.9,78.6,512.5,79.2,513.2,79.9z M526,98.1c0,1.1-2.9,3.3-3.6,3.3c-0.2,0-0.6-0.4-1.2-1.2
			c-1.1-1.5-2.4-2.9-3.7-4.3c-0.3-0.3-0.6-0.6-0.6-0.9c0-0.8,3-2.9,3.7-2.9C521.1,92.2,526,97.3,526,98.1z M528,87.9
			c0.4,0.4,1.5,1.5,2.5,2.5c1.2,1.3,2.1,2.3,2.1,2.8c0,1.1-2.9,3.3-3.5,3.3c-0.4,0-0.7-0.5-0.9-0.7c-1.3-1.6-2.7-3.2-4.2-4.7
			c-0.2-0.2-0.6-0.6-0.6-0.9c0-0.9,3-3,3.7-3C527.4,87.3,527.7,87.7,528,87.9z"/>
	</g>
	<path id="線_222" class="st0" d="M886.2,431l-542.6-0.4v-3l542.6,0.4L886.2,431z"/>
	<text transform="matrix(1 0 0 1 349 252)" class="st0 st1 st2 st3">OUR POLICY</text>
	<g id="グループ_2186" transform="translate(1177.477 207.503)">
		<rect id="長方形_303" x="-0.5" y="0.5" class="st0" width="2" height="229"/>
		<g id="グループ_926" transform="translate(11.063 28.769)">
			<path id="パス_1530" class="st0" d="M3.1,9.5c-0.8,0-1.5,0-2.1,0c-0.6,0-0.6-0.3-0.6-1V7.2c0-0.8,0.1-1,0.6-1
				c0.6,0,1.3,0.1,2.1,0.1h0.3c0.4,0,0.7-0.3,0.7-0.7c0,0,0,0,0,0V5c0-0.3-0.1-0.3-0.4-0.3c-0.1,0-1,0.1-1.2,0.1c-0.1,0-0.2,0-0.3,0
				c-0.5,0-0.8-0.4-1.2-1.1C0.8,3.3,0.6,2.8,0.6,2.3c0-0.3,0.4-0.4,0.9-0.4C3.8,1.6,6.1,1,8.3,0.1C8.5,0,8.6,0,8.7,0
				c0.4,0,0.5,0.2,1.1,0.7C10,1,11.1,2.2,11.3,2.5c0.1,0.1,0.1,0.2,0.1,0.3c0,0.1-0.1,0.2-0.3,0.2c-0.1,0-0.2,0-0.2,0
				c-0.1,0-0.2,0-0.3,0c-0.1,0-1.8,0.6-2.1,0.6c-0.9,0.2-1,0.4-1,0.9v1.1c0,0.4,0.3,0.7,0.7,0.7c0,0,0,0,0,0h0.3
				c0.8,0,1.5-0.1,2.1-0.1c0.6,0,0.6,0.2,0.6,0.9v1.5c0,0.7,0,1-0.6,1c-0.5,0-1,0-1.5,0c-0.1,0-0.6,0-0.6,0.2c0,0.5,2,2.6,2.4,3.1
				c0.1,0.1,0.2,0.3,0.2,0.4c0,0.6-1.4,2.1-2.1,2.1c-0.3,0-0.9-0.8-1.1-1.1C7.9,14.2,7.8,14,7.7,14s-0.1,0.2-0.1,0.2v3.7
				c0,1.2,0.1,2.3,0.1,3.5c0,0.6-0.3,0.7-1.1,0.7H5.1c-0.8,0-1,0-1-0.7c0-1.2,0-2.3,0-3.5v-0.7c0-0.1,0-0.2-0.1-0.2
				s-0.3,0.3-0.3,0.4c-0.2,0.4-0.7,1.3-1.1,1.3c-0.5,0-2.6-1.3-2.6-2c0-0.3,0.3-0.7,0.6-1.1c1.1-1.5,2-3.1,2.7-4.9
				c0.1-0.3,0.2-0.6,0.3-1c0-0.2-0.2-0.2-0.3-0.2L3.1,9.5z M14.8,14.6c-0.1,0.3-0.4,1.7-0.4,1.9c0,0.2,0.1,0.3,0.3,0.3
				c0.2,0,1.5-0.2,1.8-0.3c0.3,0,0.6-0.1,0.6-0.4c-0.2-0.6-0.4-1.2-0.6-1.8c-0.1-0.2-0.2-0.4-0.2-0.7c0-0.7,2.3-1.3,2.9-1.3
				c0.3,0,0.6,0.1,0.7,0.4c0.5,1.1,0.9,2.2,1.3,3.3c0.5,1.5,0.9,3,1.2,4.5c0,0.7-0.8,0.9-1.4,1.1c-0.5,0.2-1.1,0.3-1.7,0.4
				c-0.5,0-0.6-0.3-0.7-0.8c-0.3-1.4-0.3-1.7-0.6-1.7c-0.5,0.1-0.9,0.2-1.4,0.3c-1.8,0.4-3.7,0.8-5.5,1.2c-0.3,0-0.5,0.2-0.7,0.4
				c-0.1,0.2-0.3,0.4-0.6,0.4c-0.3,0-0.4-0.6-0.7-1.9c-0.1-0.3-0.1-0.7-0.2-1.1c-0.1-0.2-0.1-0.4-0.1-0.6c0-0.4,0.2-0.4,0.8-0.5
				l0.6-0.1c0.9-0.1,0.8-0.2,1.2-1.9c1.1-4.8,1.9-9.6,2.5-14.4c0.1-0.7,0.1-1.2,0.5-1.2c1.1,0.2,2.2,0.4,3.3,0.7
				c0.2,0,0.6,0.1,0.6,0.4c0,0.2-0.2,0.3-0.4,0.4c-0.2,0.1-0.3,0.3-0.3,0.5C16.7,6.3,15.9,10.5,14.8,14.6L14.8,14.6z"/>
			<path id="パス_1531" class="st0" d="M11.6,26.5c0.5,0.1,1.2,0.3,1.2,0.6c0,0.1-0.1,0.2-0.2,0.2c-0.3,0.2-0.4,0.6-0.7,1.4
				c0,0.2-0.1,0.5-0.2,0.8c0,0.1,0,0.1,0,0.2c0,0.2,0.2,0.4,0.4,0.4c0,0,0,0,0.1,0c0.7-0.1,1.3-0.4,2-0.6c0.2-0.1,0.4-0.1,0.6-0.2
				c0.7,0,0.7,2.4,0.7,3.2c0,0.3-0.1,0.5-0.5,0.6c-1,0.3-2.6,0.7-3.5,0.9c-1.1,0.2-1.1,0.2-1.4,1.1C8.7,38.9,7.1,42.5,5.2,46
				c-0.2,0.3-0.3,0.6-0.8,0.6s-3-1.1-3-1.8c0.1-0.4,0.3-0.7,0.5-1c1.6-2.5,3-5.2,4-8.1c0.1-0.2,0.1-0.4,0.2-0.6
				c0-0.3-0.3-0.4-0.5-0.4c-0.5,0-1.1,0.1-1.6,0.1c-0.5,0-0.8-0.1-1-0.6c-0.2-0.9-0.2-1.7-0.3-2.6c0-0.3,0-0.6,0.4-0.6
				c0.2,0,1.3,0.1,2.6,0.1c1.2,0,1.6,0,1.8-0.6C8,29,8.2,27.5,8.4,26c0-0.1,0-0.3,0.2-0.3C8.9,25.7,11.2,26.4,11.6,26.5z M11,41.8
				c1,1.2,2.9,1.5,4.3,1.5c1.3,0,2.5-0.1,3.7-0.5c0.1,0,0.2,0,0.3,0c0.4,0,0.4,0.5,0.4,1.3v0.7c0,1.3,0,1.6-0.4,1.8
				c-1.4,0.2-2.8,0.3-4.1,0.3c-1.7,0-4.1-0.2-5.6-1.3c-0.4-0.3-1.2-1-1.2-1.5c0-0.4,0.9-1.5,1.2-1.9c0.2-0.2,0.6-0.7,0.9-0.7
				C10.7,41.4,10.9,41.7,11,41.8L11,41.8z M13.4,34.3c1.9,0,3.7,0.3,5.6,0.7c0.3,0.1,0.6,0.2,0.6,0.6c-0.1,0.9-0.3,1.8-0.7,2.7
				c-0.1,0.2-0.3,0.3-0.5,0.3c-0.2,0-0.4-0.1-0.6-0.2c-1.3-0.5-2.8-0.7-4.2-0.7h-0.9c-0.6,0-0.7-0.1-0.7-0.5
				C11.9,34.5,12.4,34.3,13.4,34.3L13.4,34.3z"/>
			<path id="パス_1532" class="st0" d="M12.3,53.6c0,0.1-0.1,0.2-0.2,0.4c-0.4,0.5-0.6,1-0.7,1.6c0,0.3,0.2,0.4,0.4,0.4
				c1.4-0.2,2.7-0.6,4-1.1c0.2-0.1,0.5-0.2,0.7-0.2c0.4,0,0.4,0.3,0.6,1.1c0.2,0.7,0.2,1.4,0.3,2c0,0.5-0.3,0.6-1.2,0.8
				c-1.4,0.3-3.6,0.6-5,0.7c-0.4,0-0.8,0.1-1,0.4c-0.1,0.3-0.2,0.7-0.3,1.1c0,0.2,0.1,0.3,0.3,0.3c0.1,0,0.2,0,0.2-0.1
				c1-0.5,2.1-0.8,3.2-0.8c2.8-0.1,5.3,2,5.4,4.9c0,0.2,0,0.4,0,0.6c0,5.6-6,6.8-10.4,6.8c-1,0-1.2-0.2-1.4-1.2
				c-0.2-0.7-0.3-1.4-0.4-2.1c0-0.3,0.3-0.6,0.6-0.6c0,0,0,0,0,0C8.4,68.9,9.1,69,9.9,69c2.1,0,5.7-0.6,5.7-3.3c0.1-1-0.7-1.9-1.7-2
				c-0.1,0-0.1,0-0.2,0c-1.8,0.1-3.6,0.9-4.9,2.2c-0.2,0.3-0.5,0.7-0.8,1c-0.1,0.3-0.4,0.4-0.7,0.5c-0.7-0.1-1.4-0.4-2-0.9
				c-0.4-0.3-0.7-0.5-0.7-1c0-0.4,0.2-0.7,0.3-1c0.6-1.3,1.1-2.6,1.4-4c0-0.2-0.2-0.4-0.4-0.4c0,0,0,0,0,0c-0.1,0-1.9,0.2-2.8,0.2
				c-0.4,0.1-0.8-0.2-0.8-0.6c-0.2-0.8-0.4-1.7-0.4-2.6c0-0.4,0.1-0.6,0.5-0.6c0.2,0,1.9,0.2,3.7,0.2c1.1,0,1.3-0.1,1.7-3.5
				c0.1-0.6,0.1-1,0.5-1C9,52.1,12.3,53,12.3,53.6z"/>
			<path id="パス_1533" class="st0" d="M3.4,80.7c0.1-0.5,0.2-0.9,0.3-1.3c0.1-0.5,0.1-0.7,0.4-0.7c1.2,0.4,2.4,0.8,3.6,1.3
				c0.5,0.2,0.6,0.4,0.6,0.5c0,0.1-0.1,0.1-0.2,0.2c-0.4,0.2-0.8,0.5-0.9,1c-0.9,2.2-1.4,4.6-1.5,7c0,1.3,0,2,0.3,2
				c0.2,0,0.3-0.2,0.4-0.4c0.1-0.2,0.3-0.5,0.6-0.5c0.3,0,1.3,0.8,1.3,1.2c0,0.3-1.1,2.2-1.1,3.6c0,0.2,0,0.8,0.1,1.2
				c0,0.2,0.1,0.5,0.1,0.7C7.5,97.3,5.7,98,5,98c-0.5,0-0.7-0.3-1.1-1.2c-1.1-2.5-1.7-5.2-1.6-7.9C2.3,86.2,2.7,83.4,3.4,80.7z
				 M10.4,91.2c0.8,1.1,2.1,1.7,3.4,1.6c1.8,0,3.6-0.3,5.4-0.8c0.2-0.1,0.4-0.1,0.6-0.1c0.3,0,0.5,0.3,0.5,0.5
				c0.1,0.8,0.1,1.7,0.1,2.5c0,0.3,0,0.5-0.3,0.6c-2,0.5-4,0.7-6.1,0.8c-3.9,0-5.7-2-5.7-2.5c0-0.5,1.2-2.9,1.8-2.9
				C10.3,91,10.4,91.2,10.4,91.2L10.4,91.2z M10.4,80.6c0.3,0,0.5,0,0.8,0.1c1.1,0.2,2.1,0.3,3.2,0.3c1.2,0,2.4-0.2,3.6-0.5
				c0.2,0,0.3-0.1,0.5-0.1c0.5,0,0.6,0.5,0.7,0.9c0.1,0.7,0.1,1.3,0.1,2c0,0.6-0.1,0.8-0.7,0.9c-1.4,0.2-2.7,0.3-4.1,0.3
				c-0.7,0-4.1-0.1-4.6-0.5c-0.2-0.2-0.2-0.9-0.2-1.2C9.7,81,9.8,80.6,10.4,80.6L10.4,80.6z"/>
			<path id="パス_1534" class="st0" d="M18.8,107.7c1.2,1.2,1.8,2.9,1.8,4.6c0,4-3,6.7-6.5,8.1c-1.6,0.6-3.2,1-4.9,1.2
				c-0.6,0-0.8-0.4-1-0.9c-0.4-0.7-0.6-1.5-0.8-2.3c0-0.5,0.5-0.6,0.9-0.6c1.6-0.1,3.2-0.5,4.7-1.1c1.8-0.8,3.6-2.2,3.6-4.4
				c0-1.8-1.4-2.7-3.1-2.7c-3.3,0-6.8,1.8-9.6,3.3c-0.2,0.2-0.5,0.2-0.7,0.2c-1.1,0-2.6-2.5-2.6-3.5c0-0.4,0.3-0.5,0.6-0.5
				c2.2-0.6,4.3-1.4,6.4-2.1c1.8-0.7,3.8-1.1,5.7-1.2C15.4,105.6,17.3,106.3,18.8,107.7z"/>
			<path id="パス_1535" class="st0" d="M6.5,130.5c0.2,0,0.5,0.1,0.5,0.3c0,0.1-0.1,0.2-0.2,0.3c-0.3,0.3-0.4,0.7-0.5,1.1
				c-0.2,1.1-0.3,2.3-0.3,3.4c0,1.6,0.3,3.2,0.9,4.7c0.2,0.4,0.6,1.2,1.2,1.2c0.6,0,1.1-1,1.3-1.4c0.2-0.3,0.4-0.6,0.8-0.6
				c0.7,0,2.6,1.4,2.6,2s-1.1,1.9-1.5,2.4c-0.7,1-1.8,1.7-3.1,1.8c-1.6-0.2-3.1-1.1-3.9-2.5c-1.8-2.5-2-6.1-2-9.1
				c0-0.5,0.1-3.4,0.1-3.8c0-0.3,0.1-0.4,0.4-0.4C3.1,129.9,5.9,130.4,6.5,130.5z M15.5,129.7c0.7,0,2.6,1.5,3.7,3.3
				c0.9,1.5,1.6,3.2,1.8,5c0,0.4,0.1,1,0.1,1.3c0,0.5-0.1,0.7-0.6,0.9c-0.8,0.2-1.5,0.4-2.3,0.4c-0.9,0-0.9-0.3-1-1.2
				c0-2.7-1.4-5.3-3.6-6.9c-0.1-0.1-0.2-0.2-0.2-0.4C13.4,131.4,14.8,129.7,15.5,129.7z"/>
			<path id="パス_1536" class="st0" d="M1.6,157.7c-0.2-0.9-0.3-1.7-0.4-2.6c0-0.8,0.3-0.8,1.6-0.8c3.6-0.2,7.2-0.5,10.8-1
				c1.8-0.2,3.7-0.5,5.5-0.8c0.1,0,0.1,0,0.2,0c0.4,0,0.6,0.4,0.6,0.8c0.2,0.9,0.3,1.8,0.3,2.7c0,0.5-0.3,0.5-1.3,0.5
				c-1.2-0.1-2.4,0.1-3.5,0.4c-3,1.1-5,3.9-5.1,7.2c0,2.3,1.2,3,3.4,3c0.6,0,1.4-0.1,1.8-0.1c0.4,0,0.6,0.1,0.6,0.5
				c0,1-0.1,1.9-0.4,2.9c-0.2,0.5-0.5,0.6-1,0.6c-4.6,0-8.4-1.2-8.4-6.5c0-2.2,0.7-4.3,2-6.1c0.1-0.2,0.2-0.3,0.2-0.5
				c0-0.2-0.2-0.4-0.4-0.4c-0.4,0-0.9,0.1-1.3,0.2c-1.3,0.2-3,0.6-4.2,1c-0.1,0-0.2,0-0.4,0C1.9,158.7,1.7,158,1.6,157.7z"/>
		</g>
		<rect id="長方形_304" x="41.5" y="0.5" class="st0" width="2" height="229"/>
	</g>
</g>
</svg>
