<?xml version="1.0" encoding="utf-8"?>
<!-- Generator: Adobe Illustrator 26.3.1, SVG Export Plug-In . SVG Version: 6.00 Build 0)  -->
<svg version="1.1" id="レイヤー_1" xmlns="http://www.w3.org/2000/svg" xmlns:xlink="http://www.w3.org/1999/xlink" x="0px"
	 y="0px" viewBox="0 0 878 193" style="enable-background:new 0 0 878 193;" xml:space="preserve">
<style type="text/css">
	.st0{fill:#FFFFFF;}
</style>
<g id="グループ_2358" transform="translate(-343.6 -238.225)">
	<path id="パス_4669" class="st0" d="M871.5,430.6H343.6v-3h527.9V430.6z"/>
	<g id="グループ_927" transform="translate(73 -17)">
		<g id="グループ_1227">
			<rect id="長方形_303" x="1104" y="258" class="st0" width="2" height="163"/>
			<rect id="長方形_304" x="1146" y="258" class="st0" width="2" height="163"/>
			<g id="グループ_1226" transform="translate(1238.167 -176.784)">
				<path id="パス_2518" class="st0" d="M-104.7,466.3c0,0.7,2.7,3.7,3.3,4.2c0.1,0.1,0.3,0.3,0.3,0.5c0,0.7-1.9,2-2.6,2
					c-0.2,0-0.3-0.1-0.4-0.2c-1.7-1.7-3.1-3.7-4.3-5.8c-0.9-1.6-1.6-3.2-2.1-4.9c-0.1-0.4-0.2-0.7-1-0.7c-0.2,0-0.9,0-0.9,0.4
					c0,0.1,0.2,0.3,0.4,0.5c2.5,1.9,3.4,5.3,3.4,8.1c0,1.5-0.1,2.9-1.6,3.7c-1.2,0.4-2.5,0.6-3.8,0.5c-1.6,0-2-0.4-2.1-2
					c0-0.2-0.1-0.5-0.4-0.5c-0.1,0-0.2,0-0.3,0.1c-1.2,0.6-2.5,1.2-3.7,1.6c-0.7,0-1.8-1.5-1.8-2.2c0-0.2,0.2-0.3,0.6-0.5
					c2.9-0.9,5.7-2.3,8.2-4.1c0.5-0.4,0.7-0.5,0.7-0.8c0-0.2-0.1-0.3-0.3-0.3c0,0,0,0,0,0c-0.1,0-0.2,0.1-0.4,0.2
					c-1.9,1.4-4,2.6-6.2,3.5c-0.3,0.2-0.7,0.3-1.1,0.4c-0.6,0-1.4-1.5-1.4-2.1c0-0.2,0.2-0.3,0.7-0.5c2.2-0.8,4.3-1.8,6.2-2.9
					c0.5-0.3,0.7-0.5,0.7-0.6c0-0.2-0.2-0.2-0.3-0.2c-0.1,0-0.3,0-0.4,0.1c-1.6,0.9-3.4,1.7-5.1,2.3c-0.3,0.1-0.6,0.2-0.9,0.3
					c-0.7,0-1.5-1.7-1.5-2.3c0-0.3,0.2-0.3,0.8-0.5c1.4-0.4,2.7-0.8,4.1-1.4c0.6-0.2,0.9-0.4,0.9-0.6c0-0.1-0.1-0.1-0.2-0.1
					c-0.1,0-0.1,0-0.3,0h-0.1c-0.5,0-1,0-1.5,0c-0.6,0-0.8-0.1-0.8-0.8v-0.2c0-0.3-0.3-0.6-0.6-0.6h-1.3c-0.4,0-0.9,0-0.9-0.6
					c0-0.3,0.1-0.9,0.1-1.3v-1.3c0-0.8-0.1-1.4-0.1-1.7c0-0.9,1-0.9,1.7-0.9c1,0,1.9,0.1,2.9,0.1h3.7c0.4,0,0.7-0.3,0.7-0.7
					c0,0,0,0,0,0c0-0.2-0.1-0.9-0.1-1.1c0-0.1,0-0.1,0-0.2c0-0.3,0.3-0.4,0.6-0.4c0.7,0,2.5,0.1,3.3,0.2c0.6,0,0.7,0.2,0.7,0.4
					c0,0.1-0.1,0.2-0.3,0.4c-0.2,0.1-0.2,0.4-0.2,0.8c0,0.4,0.3,0.6,0.7,0.6h3.6c1,0,1.9-0.1,2.9-0.1c0.6,0,1.7,0,1.7,0.9
					c0,0.2-0.1,1-0.1,1.7v1.3c0,0.5,0.1,1,0.1,1.4c0,0.6-0.3,0.6-1.4,0.6c-0.3,0-0.6,0-0.8,0c-0.5,0-0.6,0.4-0.6,0.8v0.2
					c0,0.2,0.4,0.7,0.8,1c0.4,0.4,0.9,1,1.4,1.5c0.3,0.3,0.5,0.5,0.5,0.7c0,0.2-0.1,0.3-0.3,0.3c-0.1,0-0.2,0-0.2-0.1
					c-0.1,0-0.1,0-0.2,0c-0.1,0-0.2,0-0.2,0.1c-0.5,0.3-0.9,0.6-1.2,0.8C-104.3,465.7-104.7,465.9-104.7,466.3z M-107.5,458.3
					c0.7,0,1.4,0,2.1,0h0.2c0.2,0,0.4-0.1,0.4-0.4v-0.4c0-0.2-0.1-0.3-0.3-0.3h-13.7c-0.2,0-0.3,0.1-0.3,0.3v0.4
					c0,0.4,0,0.4,2.6,0.4L-107.5,458.3z M-112.2,469.9c0-0.2-0.1-0.3-0.3-0.3c-0.3,0.1-0.6,0.3-0.9,0.5c-0.2,0.1-0.4,0.3-0.7,0.5
					c-0.1,0.1-0.2,0.2-0.2,0.3c0,0.2,0.2,0.2,0.6,0.2C-112.5,471.1-112.2,470.9-112.2,469.9L-112.2,469.9z M-105.4,461.4
					c-0.3,0-0.6,0-0.9,0c-0.4,0-0.7,0-0.7,0.4c0,0.2,0.1,0.3,0.2,0.5c0.1,0.2,0.2,0.6,0.6,0.6c0.6-0.2,1.2-0.7,1.5-1.2
					C-104.9,461.4-105.1,461.4-105.4,461.4L-105.4,461.4z"/>
				<path id="パス_2519" class="st0" d="M-109.9,481.5c-0.2,0-0.3,0.1-0.3,0.3c0,0,0,0,0,0v0.1c0,0.2,0.1,0.3,0.3,0.3c0,0,0,0,0,0
					h5.7c0.7,0,1.3,0,1.9,0c0.9,0,1.2,0.1,1.2,0.9v2.7c0,0.4,0.1,0.9,0.1,1.2c0,0.5-0.3,0.5-1,0.5h-1.4c-0.7,0-1,0-1-0.5
					c0-0.3,0.1-0.7,0.1-1.2V485c0-0.4-0.3-0.7-0.7-0.7c0,0,0,0,0,0h-4.4c-0.4,0-0.7,0.3-0.7,0.7l0,0v1.5c0,0.9,0.1,1.9,0.1,2.6
					c0,0.6-0.3,0.6-1.1,0.6h-1.7c-0.8,0-1-0.1-1-0.7c0-0.7,0.1-1.6,0.1-2.6v-1.5c0-0.4-0.3-0.7-0.7-0.7h0h-4.4
					c-0.4,0-0.7,0.3-0.7,0.7v0.8c0,0.4,0.1,0.9,0.1,1.2c0,0.5-0.3,0.5-1,0.5h-1.4c-0.7,0-1,0-1-0.5c0-0.3,0.1-0.7,0.1-1.2v-2.7
					c0-0.8,0.2-1,1.1-1c0.7,0,1.3,0,1.9,0h5.8c0.2,0,0.3-0.1,0.3-0.3c0,0,0,0,0,0v-0.1c0-0.2-0.1-0.3-0.3-0.3h-2.9
					c-0.9,0-1.8,0-2.8,0c-0.5,0-0.6-0.2-0.6-0.7V480c0-0.6,0.1-0.7,0.6-0.7c0.9,0,1.8,0,2.8,0h10.1c0.9,0,1.8,0,2.8,0
					c0.6,0,0.6,0.1,0.6,0.7v0.9c0,0.5-0.1,0.7-0.6,0.7c-0.9,0-1.8,0-2.8,0H-109.9z M-110.6,501.1c-1.9,0-3.1-0.2-3.1-2.4v-0.1
					c0-0.6-0.3-0.9-0.7-0.9h-2.4c-0.4,0-0.6,0-0.6,0.3c0,0.6-0.2,0.6-1.2,0.6h-1.2c-0.6,0-0.9-0.1-0.9-0.7c0-0.7,0-1.5,0-2.2v-2.4
					c0-0.7,0-1.4,0-2c0-0.8,0.1-0.9,1-0.9h15.7c0.9,0,0.9,0.2,0.9,0.9v4.1c0,0.6,0.1,0.9,0.7,0.9c0.5,0,2,0.3,2,1.1
					c-0.1,1-0.4,1.9-1,2.7c-0.5,0.7-1.4,1.1-2.3,1L-110.6,501.1z M-116.6,485.1c0.5,0,1.1,0,1.4,0c0.4,0,0.4,0.2,0.4,0.6v0.7
					c0,0.5-0.1,0.6-0.4,0.6c-0.3,0-0.8,0-1.4,0h-0.7c-0.6,0-1.2,0-1.4,0c-0.4,0-0.5-0.2-0.5-0.6v-0.7c0-0.5,0.1-0.6,0.5-0.6
					c0.3,0,0.7,0,1.2,0L-116.6,485.1z M-116.6,487.7c0.5,0,1.1,0,1.4,0c0.4,0,0.4,0.2,0.4,0.6v0.6c0,0.5,0,0.7-0.4,0.7
					c-0.3,0-0.8,0-1.4,0h-0.7c-0.6,0-1.2,0-1.4,0c-0.4,0-0.5-0.2-0.5-0.7v-0.7c0-0.5,0.1-0.5,0.4-0.5c0.2,0,0.7,0,1.2,0
					L-116.6,487.7z M-114,493.1c0.2,0,0.3-0.1,0.3-0.3v0c0-0.2-0.1-0.3-0.3-0.3h-3.1c-0.2,0-0.3,0.1-0.3,0.3c0,0,0,0,0,0v0
					c0,0.2,0.1,0.3,0.3,0.3c0,0,0,0,0,0H-114z M-117.1,495c-0.2,0-0.3,0.1-0.3,0.3c0,0,0,0,0,0v0.1c0,0.2,0.1,0.3,0.3,0.3h3.1
					c0.2,0,0.3-0.1,0.3-0.3v-0.1c0-0.1-0.1-0.3-0.2-0.3c0,0,0,0,0,0H-117.1z M-106.8,493.1c0.2,0,0.3-0.1,0.3-0.3v0
					c0-0.2-0.1-0.3-0.3-0.3h-3.1c-0.2,0-0.3,0.1-0.3,0.3v0c0,0.2,0.1,0.3,0.3,0.3H-106.8z M-110,495c-0.2,0-0.3,0.1-0.3,0.3
					c0,0,0,0,0,0v0.1c0,0.2,0.1,0.3,0.3,0.3h3.2c0.2,0,0.3-0.1,0.3-0.3c0,0,0,0,0,0v-0.1c0-0.2-0.1-0.3-0.3-0.3c0,0,0,0,0,0H-110z
					 M-109.8,497.8c-0.2,0-0.4,0.2-0.4,0.4c0,0.4,0.6,0.5,0.9,0.5h4.7c0.3,0,0.8,0,0.8-0.4c0-0.4-0.3-0.4-0.6-0.4h-0.1
					c-0.8,0-1.6,0-2.4,0H-109.8z M-106.9,485.1c0.5,0,1.2,0,1.4,0c0.4,0,0.4,0.2,0.4,0.6v0.7c0,0.4-0.1,0.6-0.4,0.6
					c-0.3,0-0.8,0-1.4,0h-0.8c-0.5,0-1.1,0-1.4,0c-0.4,0-0.4-0.2-0.4-0.7v-0.6c0-0.5,0.1-0.6,0.5-0.6c0.2,0,0.7,0,1.2,0
					L-106.9,485.1z M-106.9,487.7c0.5,0,1.2,0,1.4,0c0.4,0,0.4,0.2,0.4,0.6v0.7c0,0.5,0,0.6-0.4,0.6c-0.3,0-0.8,0-1.4,0h-0.8
					c-0.5,0-1.1,0-1.4,0c-0.4,0-0.4-0.2-0.4-0.7v-0.7c0-0.5,0.1-0.6,0.5-0.6c0.2,0,0.6,0,1.2,0L-106.9,487.7z"/>
				<path id="パス_2520" class="st0" d="M-104.6,510.1c1.7,1.7,2.7,4,2.6,6.4c0,3.5-1.9,6.7-5,8.3c-0.9,0.5-1.9,0.9-3,1.1
					c-0.9,0-2.2-2.3-2.2-3c0-0.2,0.2-0.3,0.9-0.5c2.9-0.8,5.3-2.6,5.3-5.8c0-3.9-3-5.5-3.7-5.5c-0.4,0-0.5,0.5-0.5,0.9
					c-0.3,3.5-1.3,7.7-3.6,10.5c-0.8,1.2-2.2,2-3.6,2.1c-1.6-0.1-3.1-1.1-3.8-2.6c-0.6-1.2-0.8-2.5-0.8-3.7
					c-0.1-5.8,4.6-10.7,10.4-10.8c0.1,0,0.2,0,0.2,0C-108.9,507.5-106.4,508.4-104.6,510.1z M-118.3,518.3c0,0.6,0.2,2.4,1,2.4
					c0.6,0,1.4-1.7,1.7-2.2c0.8-2,1.4-4.2,1.6-6.4c0-0.2-0.1-0.4-0.3-0.4C-115,511.8-118.3,514.1-118.3,518.3z"/>
				<path id="パス_2521" class="st0" d="M-114.8,537.1c0.4,0,0.7-0.3,0.7-0.7l0,0v-0.5c0-0.4-0.3-0.7-0.7-0.7h0h-5.3
					c-0.6,0-1.2,0-1.8,0c-0.7,0-0.7-0.2-0.7-1v-1.1c0-1,0.1-1.2,0.7-1.2c0.4,0,1.1,0,1.8,0h6.4c0.7,0,1.3,0,2,0c0.7,0,1.4,0.1,1.4,1
					s-0.1,1.7-0.1,2.6v2.5c0,0.8,0.1,1.6,0.1,2.3c0,0.6-0.3,0.7-1.2,0.7h-1.5c-0.7,0-0.9,0-1.1-0.4c0-0.1-0.1-0.2-0.2-0.1h-2.8
					c-1.4,0-1.2,0-1.4,1.5c0,0.1,0,0.1,0,0.2c0,0.4,0.3,0.5,0.6,0.5h4.4c0.5,0,1.3,0,2,0c1.6,0,1.6,0.7,1.6,1.5
					c0,2.5-0.5,4.9-1.3,7.2c-0.3,0.8-0.9,1.5-1.6,1.8c-1.3,0.4-2.6,0.7-3.9,0.6c-1.2,0-1.9,0-2.2-0.8c-0.2-0.6-0.3-1.3-0.3-2
					c0-0.8,0.3-0.9,1-0.9c0.6,0,1.1,0.1,1.9,0.1c1,0,1.5,0,1.9-0.7c0.5-0.9,0.7-2,0.7-3c0-0.6-0.3-0.7-1.2-0.7h-3.3
					c-0.3,0-0.6,0.2-0.7,0.5c-0.1,0.2-0.3,0.3-0.6,0.3c-0.5,0-1,0-1.6-0.1c-0.4-0.1-1.2-0.2-1.2-0.7c0-0.3,0.2-1.4,0.3-2.6
					c0.2-1.7,0.3-3.2,0.4-4.9c0.1-1,0.6-1.2,1.9-1.2c0.7,0,1.5,0,2.2,0L-114.8,537.1z M-102.3,549.3c0,1.3,0.1,2.7,0.1,4.1
					c0,0.7-0.2,0.7-1.1,0.7h-1.6c-0.9,0-1.1,0-1.1-0.7c0-1.4,0.1-2.7,0.1-4.1v-15.7c0-0.6,0-1.2-0.1-1.8c0-0.3,0.2-0.3,0.5-0.3
					c1,0,1.8,0,2.9,0.1c0.4,0,0.8,0,0.8,0.4c0,0.2-0.1,0.2-0.2,0.4c-0.2,0.2-0.3,0.4-0.2,0.7L-102.3,549.3z"/>
				<path id="パス_2522" class="st0" d="M-121.5,578c-0.1,0.2-0.2,0.3-0.4,0.3c-0.3,0-0.4-0.3-0.5-0.7c-0.1-0.5-0.7-2.4-0.7-2.7
					c0-0.5,0.4-0.5,0.8-0.6c0.5,0,1-0.4,1-0.9c0-0.1,0-0.1,0-0.2v-10.6c0-0.3-0.2-0.6-0.5-0.6c0,0-0.1,0-0.1,0h-0.1
					c-0.8,0-0.8-0.2-0.8-1.2v-1.2c0-0.8,0.1-1.1,0.8-1.1c0.8,0,1.7,0,2.5,0h5.8c0.8,0,1.7,0,2.5,0c0.7,0,0.8,0.2,0.8,0.9
					c0,0.9,0.4,0.9,1.9,0.9h4.2c0.3,0,0.7,0,1.2,0c0.5-0.1,1,0.1,1.4,0.4c0.4,0.3,0.6,0.8,0.6,1.3c-0.2,1.8-0.5,3.5-1,5.3
					c-0.4,1.5-1,3-1.7,4.4c-0.1,0.2-0.2,0.4-0.2,0.6c0,0.8,2.4,3.4,3.1,4c0.2,0.2,0.5,0.5,0.5,0.8c0,0.7-1.8,2.5-2.4,2.5
					c-0.2,0-0.5-0.3-0.8-0.6c-0.1-0.1-0.1-0.1-0.2-0.2c-0.6-0.6-1.3-1.5-1.8-2.2c-0.2-0.2-0.4-0.6-0.8-0.6c-0.2,0-0.4,0.1-0.4,0.3
					c-0.5,0.6-3,3.5-3.7,3.5c-0.4,0-0.9-0.7-1.2-1c-0.1-0.1-0.2-0.3-0.4-0.3c-0.1,0-0.2,0.2-0.2,0.3c0,0.4,0,0.7,0,1.1
					c0,0.6-0.2,0.7-1.1,0.7h-1.4c-0.8,0-1.1,0-1.1-0.7c0-1,0.1-2,0.1-3c0-0.4-0.1-0.7-0.6-0.7c-0.5,0.1-0.9,0.2-1.3,0.3
					c-1.1,0.3-2.3,0.5-3.4,0.7C-121.4,577.6-121.4,577.7-121.5,578z M-117.3,562.1c-0.4,0-0.7,0.3-0.7,0.7l0,0v0.5
					c0,0.4,0.3,0.7,0.7,0.7h0h1c0.4,0,0.7-0.3,0.7-0.7v-0.5c0-0.4-0.3-0.7-0.7-0.7L-117.3,562.1z M-117.3,566.7
					c-0.4,0-0.7,0.3-0.7,0.7l0,0v0.5c0,0.4,0.3,0.7,0.7,0.7h0h1c0.4,0,0.7-0.3,0.7-0.7v-0.5c0-0.4-0.3-0.7-0.7-0.7H-117.3z
					 M-117.3,571.5c-0.4,0-0.7,0.3-0.7,0.7c0,0,0,0,0,0v0.8c0,0.4,0.1,0.7,0.5,0.7c0.5,0,0.9-0.2,1.3-0.3c0.4-0.2,0.6-0.5,0.5-0.9
					v-0.3c0-0.4-0.3-0.7-0.7-0.7c0,0,0,0,0,0L-117.3,571.5z M-112.2,575.9c0,0.2,0,0.6,0.2,0.6c0.5,0,1.7-1.4,2.1-1.7
					c0.4-0.5,1.5-1.6,1.5-2.3c0-0.3-0.1-0.5-0.2-0.8c-0.8-1.8-1.4-3.7-1.8-5.6c-0.1-0.4-0.2-0.8-0.2-1.2c0-0.3,0.1-0.5,0.4-0.6
					c0.1,0,0.2,0,0.2-0.2c0-0.1-0.1-0.2-0.2-0.2c-0.1,0-0.1,0-0.3,0c-0.7,0-0.7-0.1-0.7-0.8c0-0.1,0-0.3,0-0.4
					c0-0.3-0.2-0.6-0.5-0.6c0,0-0.1,0-0.1,0c-0.3,0-0.5,0.2-0.5,0.5c0,0,0,0,0,0.1L-112.2,575.9z M-105.7,563.9h-0.6
					c-0.5,0-0.8,0.1-0.8,0.5c0,0.1,0.1,0.5,0.1,0.6c0.1,0.8,0.3,1.6,0.5,2.3c0.1,0.5,0.2,0.8,0.4,0.8c0.2,0,0.2-0.2,0.3-0.3
					c0.2-0.6,0.4-1.2,0.5-1.8c0.1-0.6,0.2-1.2,0.2-1.8C-105.1,564-105.3,563.9-105.7,563.9L-105.7,563.9z"/>
			</g>
		</g>
	</g>
	<path id="パス_4668" class="st0" d="M365,245.2c0,1.3-0.2,2.5-0.7,3.7c-0.4,1-1.2,1.9-2.1,2.4c-1.1,0.6-2.4,0.9-3.6,0.9
		c-1.3,0-2.5-0.3-3.6-0.9c-0.9-0.6-1.7-1.4-2.1-2.5c-0.5-1.2-0.7-2.4-0.7-3.7c0-1.3,0.2-2.5,0.7-3.7c0.4-1,1.2-1.9,2.1-2.4
		c1.1-0.6,2.4-0.9,3.7-0.9c1.3-0.1,2.5,0.2,3.6,0.9c0.9,0.6,1.7,1.4,2.1,2.4C364.8,242.7,365.1,243.9,365,245.2z M355.1,245.2
		c-0.1,1.2,0.2,2.3,0.8,3.4c0.6,0.8,1.6,1.3,2.6,1.2c1,0.1,2-0.4,2.6-1.2c0.6-1,0.9-2.2,0.8-3.4c0.1-1.2-0.2-2.3-0.8-3.4
		c-0.6-0.8-1.6-1.3-2.6-1.2c-1-0.1-2,0.4-2.6,1.2C355.3,242.9,355.1,244,355.1,245.2L355.1,245.2z M381.7,238.4v8.8
		c0,0.9-0.2,1.8-0.6,2.5c-0.4,0.8-1.1,1.4-1.9,1.8c-1,0.5-2.1,0.7-3.1,0.7c-1.5,0.1-3-0.4-4.1-1.4c-1-1-1.5-2.3-1.4-3.6v-8.7h2.9
		v8.3c-0.1,0.8,0.2,1.7,0.7,2.4c0.6,0.5,1.3,0.7,2,0.7c0.8,0.1,1.5-0.2,2-0.7c0.5-0.7,0.7-1.5,0.6-2.3v-8.3L381.7,238.4z
		 M391.8,238.4c1.4-0.1,2.9,0.2,4.1,1c0.9,0.7,1.4,1.9,1.3,3.1c0,0.6-0.1,1.1-0.4,1.6c-0.2,0.5-0.5,0.9-0.9,1.2
		c-0.4,0.3-0.8,0.6-1.2,0.8l4,5.9h-3.2l-3.2-5.2h-1.5v5.2h-2.9v-13.6L391.8,238.4z M391.6,240.8h-0.9v3.7h0.9c0.7,0.1,1.4-0.1,2-0.5
		c0.4-0.3,0.7-0.9,0.6-1.4c0-0.5-0.2-1.1-0.7-1.4C393.1,240.9,392.4,240.7,391.6,240.8L391.6,240.8z M411.1,238.4h4.2
		c1.4-0.1,2.8,0.2,4.1,0.8c1,0.5,1.5,1.6,1.4,2.7c0,0.7-0.2,1.4-0.5,2c-0.4,0.5-0.9,0.9-1.6,1v0.1c0.4,0.1,0.8,0.3,1.2,0.5
		c0.4,0.2,0.7,0.6,0.9,1c0.2,0.5,0.3,1.1,0.3,1.7c0,1.1-0.5,2.2-1.3,2.9c-1.1,0.7-2.3,1.1-3.6,1h-5.1L411.1,238.4z M413.9,243.8h1.7
		c0.6,0.1,1.2-0.1,1.7-0.4c0.3-0.3,0.5-0.7,0.5-1.2c0-0.5-0.2-0.9-0.6-1.1c-0.6-0.3-1.2-0.4-1.8-0.3h-1.5V243.8z M413.9,246.1v3.5
		h1.9c0.6,0.1,1.3-0.1,1.8-0.5c0.3-0.4,0.5-0.8,0.5-1.3c0-0.5-0.2-0.9-0.5-1.2c-0.6-0.4-1.2-0.5-1.9-0.5L413.9,246.1z M437.7,238.4
		v8.8c0,0.9-0.2,1.8-0.6,2.5c-0.4,0.8-1.1,1.4-1.9,1.8c-1,0.5-2.1,0.7-3.1,0.7c-1.5,0.1-3-0.4-4.1-1.4c-1-1-1.5-2.3-1.4-3.6v-8.7
		h2.9v8.3c-0.1,0.8,0.2,1.7,0.7,2.4c0.6,0.5,1.3,0.7,2,0.7c0.8,0.1,1.5-0.2,2-0.7c0.5-0.7,0.7-1.5,0.6-2.3v-8.3L437.7,238.4z
		 M451.9,248.2c0,1.1-0.4,2.2-1.3,2.9c-1.1,0.8-2.4,1.2-3.7,1.1c-1.3,0-2.6-0.3-3.8-0.8v-2.7c0.6,0.3,1.3,0.5,2,0.8
		c0.7,0.2,1.4,0.3,2.1,0.4c0.5,0.1,1.1-0.1,1.5-0.4c0.3-0.3,0.5-0.6,0.5-1c0-0.3-0.1-0.6-0.4-0.9c-0.3-0.3-0.6-0.5-0.9-0.7
		c-0.4-0.2-0.8-0.4-1.3-0.7c-0.3-0.2-0.7-0.3-1-0.5c-0.4-0.2-0.7-0.5-1.1-0.8c-0.3-0.3-0.6-0.7-0.8-1.1c-0.2-0.5-0.3-1-0.3-1.6
		c-0.1-1.1,0.4-2.1,1.2-2.8c1-0.7,2.2-1.1,3.4-1c0.7,0,1.4,0.1,2,0.2c0.7,0.2,1.4,0.4,2,0.7l-0.9,2.2c-0.5-0.2-1.1-0.4-1.7-0.6
		c-0.5-0.1-1-0.2-1.5-0.2c-0.5,0-0.9,0.1-1.3,0.4c-0.3,0.2-0.4,0.6-0.4,1c0,0.5,0.2,0.9,0.6,1.1c0.6,0.4,1.3,0.7,1.9,1
		c0.6,0.3,1.2,0.6,1.8,1c0.5,0.3,0.9,0.8,1.1,1.3C451.8,247,451.9,247.6,451.9,248.2L451.9,248.2z M462.3,252h-6.2v-1.6l1.7-0.8
		v-8.8l-1.7-0.8v-1.6h6.2v1.6l-1.7,0.8v8.8l1.7,0.8V252z M479.5,252h-3.6l-5.9-10.3h-0.1c0,0.6,0.1,1.3,0.1,1.9
		c0,0.6,0.1,1.3,0.1,1.9v6.4h-2.6v-13.6h3.6l5.9,10.2h0.1l-0.1-1.9c0-0.6,0-1.2-0.1-1.9v-6.4h2.6V252z M493.6,252h-7.8v-13.6h7.8
		v2.4h-4.9v3h4.6v2.4h-4.6v3.5h4.9V252z M507.3,248.2c0,1.1-0.4,2.2-1.3,2.9c-1.1,0.8-2.4,1.2-3.7,1.1c-1.3,0-2.6-0.3-3.8-0.8v-2.7
		c0.6,0.3,1.3,0.5,2,0.8c0.7,0.2,1.4,0.3,2.1,0.4c0.5,0.1,1.1-0.1,1.5-0.4c0.3-0.3,0.5-0.6,0.4-1c0-0.3-0.1-0.6-0.4-0.9
		c-0.3-0.3-0.6-0.5-0.9-0.7c-0.4-0.2-0.8-0.4-1.3-0.7c-0.3-0.2-0.7-0.3-1-0.5c-0.4-0.2-0.7-0.5-1.1-0.8c-0.3-0.3-0.6-0.7-0.8-1.1
		c-0.2-0.5-0.3-1-0.3-1.6c-0.1-1.1,0.4-2.1,1.2-2.8c1-0.7,2.2-1.1,3.4-1c0.7,0,1.4,0.1,2,0.2c0.7,0.2,1.4,0.4,2,0.7l-0.9,2.2
		c-0.5-0.2-1.1-0.4-1.7-0.6c-0.5-0.1-1-0.2-1.5-0.2c-0.5,0-0.9,0.1-1.3,0.4c-0.3,0.2-0.4,0.6-0.4,1c0,0.5,0.2,0.9,0.6,1.1
		c0.6,0.4,1.3,0.7,1.9,1c0.6,0.3,1.2,0.6,1.8,1c0.5,0.3,0.9,0.8,1.1,1.3C507.1,247,507.3,247.6,507.3,248.2L507.3,248.2z
		 M520.6,248.2c0,1.1-0.4,2.2-1.3,2.9c-1.1,0.8-2.4,1.2-3.7,1.1c-1.3,0-2.6-0.3-3.8-0.8v-2.7c0.6,0.3,1.3,0.5,2,0.8
		c0.7,0.2,1.4,0.3,2.1,0.4c0.5,0.1,1.1-0.1,1.5-0.4c0.3-0.3,0.5-0.6,0.4-1c0-0.3-0.1-0.6-0.4-0.9c-0.3-0.3-0.6-0.5-0.9-0.7
		c-0.4-0.2-0.8-0.4-1.3-0.7c-0.3-0.2-0.7-0.3-1-0.5c-0.4-0.2-0.7-0.5-1.1-0.8c-0.3-0.3-0.6-0.7-0.8-1.1c-0.2-0.5-0.3-1-0.3-1.6
		c-0.1-1.1,0.4-2.1,1.2-2.8c1-0.7,2.2-1.1,3.4-1c0.7,0,1.4,0.1,2,0.2c0.7,0.2,1.4,0.4,2,0.7l-0.9,2.2c-0.5-0.2-1.1-0.4-1.7-0.6
		c-0.5-0.1-1-0.2-1.5-0.2c-0.5,0-0.9,0.1-1.3,0.4c-0.3,0.2-0.4,0.6-0.4,1c0,0.5,0.2,0.9,0.6,1.1c0.6,0.4,1.3,0.7,1.9,1
		c0.6,0.3,1.2,0.6,1.8,1c0.5,0.3,0.9,0.8,1.1,1.3C520.5,247,520.6,247.6,520.6,248.2L520.6,248.2z"/>
	<g id="グループ_1604" transform="translate(-277.566 -729.647)">
		<path id="パス_2998" class="st0" d="M667.1,1034.3c2.7,0,5.5-0.2,8.2-0.2c1.6,0,1.7,0.8,1.7,2.9v3.7c0,2.2-0.2,2.9-1.7,2.9
			c-2.7,0-5.5-0.2-8.2-0.2h-27.7c-2.7,0-5.4,0.2-8.2,0.2c-1.6,0-1.7-0.8-1.7-2.9v-3.7c0-2.1,0.2-2.9,1.7-2.9c2.7,0,5.4,0.2,8.2,0.2
			H667.1z"/>
		<path id="パス_2999" class="st0" d="M702.8,1018.1c-0.1,0.2-0.1,0.4-0.2,0.5c0,0.4,0.4,0.6,0.8,0.6c0.7,0,1.6-0.1,2.4-0.1
			c1.6,0,2.4,0.5,2.4,2.2c0,1.4-0.1,2.9-0.1,4.3v8.2c0,0.7,0.3,0.8,0.8,0.8c1.1,0,1.2,3,1.2,3.8c0,2.2-0.5,2.7-1.2,3.1
			c-0.5,0.3-0.7,0.8-0.7,1.4v10.3c0,1.2,0.1,2.5,0.1,3.8c0,2.1-0.1,3.5-1.4,4.7c-1.6,1.4-4.6,1.8-6.7,1.8c-1.7,0-2.7-0.5-3-2.1
			c-0.2-1.1-0.3-2.2-0.3-3.3c0-1,0.1-2.3,1.5-2.3c0.8,0,1.7,0.1,2.5,0.1c1.2,0,1.2-0.8,1.2-2.7v-9.1c0-0.1,0-0.4-0.2-0.4
			c-0.6,0.2-1,0.7-1.1,1.3c-0.1,0.4-0.1,1.5-0.1,2v2.5c0,1.4,0.1,2.7,0.1,4c0,0.9-0.5,0.9-2,0.9h-0.2c-1.6,0-1.9-0.1-1.9-1.1
			c0-0.6,0.1-2.1,0.1-3.8v-3.6c0-0.4-0.1-1.3-0.7-1.3c-0.7,0-0.7,1.1-0.7,2.1c-0.1,4.6-0.8,9.2-2,13.6c-0.7,2.4-1,3-1.8,3
			c-1-0.1-2-0.4-2.8-0.9c-1.3-0.7-2-1.1-2-2.2c0-0.4,0.1-0.9,0.3-1.3c1.3-3.9,2.1-8,2.2-12.2c0-0.1,0-0.1-0.1-0.1
			c-0.1,0-0.3,0.2-0.6,0.2c-0.7,0-0.9-1.1-1.4-3.5c-0.1-0.7-0.3-1.5-0.4-2.4c-0.1-0.4-0.1-0.8-0.1-1.2c0-0.8,0.6-1,1.2-1.1
			c1.1-0.2,1.4-0.6,1.4-1.7v-10.9c0-1.6-0.1-3-0.1-4.3c0-1.7,0.8-2.2,2.3-2.2c0.7,0,1.2,0.1,1.9,0.1c1,0,1.4-0.1,2.3-4.4
			c0.1-0.5,0.1-1,0.7-1c0.3,0,5.9,1,6.7,1.1c0.6,0.1,1.8,0.3,1.8,1c0,0.6-0.8,0.8-1.2,0.9c-0.2,0-0.4,0.2-0.5,0.4
			C703.1,1017.5,703,1017.8,702.8,1018.1z M701.9,1027.7c0-0.8-0.6-1.5-1.4-1.5c0,0,0,0-0.1,0H697c-0.8,0-1.5,0.7-1.5,1.5
			c0,0,0,0,0,0v7.9c0,0.8,0.1,1.6,1.1,1.6c0.5,0,3.5-0.6,4.1-0.7c0.7,0,1.3-0.7,1.3-1.4c0,0,0-0.1,0-0.1L701.9,1027.7z M699,1027
			c0.5,0,0.8,0.2,1.7,3c0.5,1.3,0.8,2.7,1.1,4c0,1.5-3.5,2.1-3.7,2.1c-0.6,0-0.8-0.9-1.2-2.6c-0.3-1.1-0.6-2.5-1.2-4.2
			c-0.1-0.2-0.1-0.4-0.1-0.6C695.6,1027.6,698.4,1027,699,1027L699,1027z M721.5,1022.4c0-0.8-0.5-1.1-1.2-1.1
			c-1.4,0-1.2,1.6-1.2,2.5c0,3-0.8,6-2.3,8.6c-0.5,1-2,3.5-3.2,3.5c-1.1,0-4.9-2.7-4.9-3.8c0.2-0.6,0.6-1.2,1-1.7
			c2.8-4,2.9-7.7,2.9-11.5c0-2.7,0.1-3.6,2.4-3.6c0.8,0,1.6,0.1,2.4,0.1h5.9c0.8,0,1.6-0.1,2.4-0.1c1.9,0,2.2,0.7,2.2,2.5
			c0,0.9-0.1,1.8-0.1,2.8v4.6c0,1.4,0.1,2.2,0.9,2.2h0.2c0.4,0,1-0.2,1-3.8c0-1.1,0.1-1.8,1.4-1.8c1.3,0,2.5,0.2,3.7,0.6
			c0.8,0.2,1.4,0.5,1.4,1.4c-0.1,2-0.4,4-0.8,6c-1,3.9-2.6,4.4-5.8,4.4h-3.9c-3.3,0-4.5-1.2-4.5-4.5c0-0.9,0.1-2.2,0.1-3.5
			L721.5,1022.4z M724.4,1036.5c2.1,0,4-0.2,4.4-0.2c1.4,0,2.2,0.8,3.4,2.4c0.6,0.6,1,1.4,1.1,2.2c0,2.1-3.8,8-5.1,9.8
			c-0.3,0.3-0.5,0.7-0.6,1.1c0,0.7,0.5,0.9,1,1.2c2.2,1.2,4.5,2.3,6.9,3c0.5,0.2,1.1,0.4,1.1,1.1c0,1.1-2.6,5.5-4.4,5.5
			c-1.4,0-7.5-3.9-8.8-4.8c-0.4-0.3-0.8-0.5-1.2-0.5c-0.6,0.1-1.2,0.4-1.7,0.8c-1.2,0.9-6.9,4.6-8.2,4.6c-1.2,0-3.7-4.6-3.7-5.5
			c0-0.8,0.9-1.1,1.5-1.4c1.9-0.9,3.8-2,5.5-3.2c0.4-0.2,0.6-0.5,0.6-0.9c-0.1-0.4-0.3-0.9-0.7-1.1c-0.8-0.9-3.2-4.1-3.2-5.2
			c0-0.7,0.8-1.2,1.2-1.5c0.2-0.1,0.3-0.2,0.3-0.3c0-0.2-0.3-0.2-0.4-0.2c-0.5,0-1.1,0.1-1.6,0.1c-1.1,0-1.2-0.5-1.2-1.5
			c0-1.4-0.1-2.5-0.1-3.3c0-2,0.2-2.4,1.3-2.4c1.5,0,3,0.2,4.6,0.2L724.4,1036.5z M720.5,1043.5c-0.5,0-0.9,0.1-0.9,0.7
			c0,0.2,1.2,2.4,2,2.4c0.9,0,1.9-2.3,1.9-2.7c0-0.4-0.4-0.4-1.4-0.4H720.5z"/>
		<path id="パス_3000" class="st0" d="M786.1,1045.4c0,1.5,5.9,8,7.3,9.2c0.2,0.2,0.8,0.7,0.8,1.1c0,1.5-4.2,4.4-5.7,4.4
			c-0.4,0-0.7-0.2-1-0.4c-3.3-3-7.2-8.8-9.3-12.7c-1.9-3.4-3.4-7-4.6-10.7c-0.3-0.9-0.5-1.6-2.2-1.6c-0.5,0-1.9,0.1-1.9,0.9
			c0,0.3,0.3,0.6,0.8,1c5.4,4.2,7.3,11.5,7.3,17.7c0,3.2-0.2,6.4-3.4,8c-2.3,1.1-5.8,1.1-8.4,1.1c-3.5,0-4.3-0.8-4.6-4.3
			c-0.1-0.5-0.3-1.1-1-1.1c-0.2,0-0.5,0.1-0.7,0.2c-1.2,0.7-7.2,3.4-8.2,3.4c-1.6,0-3.8-3.3-3.8-4.7c0-0.5,0.3-0.7,1.3-1
			c6.3-2,12.3-5,17.8-8.9c1.1-0.8,1.5-1.1,1.5-1.7c0-0.4-0.3-0.7-0.7-0.7c0,0,0,0,0,0c-0.3,0-0.5,0.2-0.9,0.5
			c-3.3,2.7-9.4,6-13.5,7.7c-0.7,0.3-1.5,0.6-2.3,0.8c-1.4,0-3.2-3.4-3.2-4.6c0-0.5,0.4-0.7,1.5-1.1c4.7-1.7,9.2-3.8,13.5-6.4
			c1.1-0.7,1.6-1,1.6-1.4c0-0.4-0.4-0.5-0.8-0.5c-0.3,0-0.6,0.1-0.9,0.3c-3.6,2-7.3,3.7-11.2,5.1c-0.7,0.3-1.4,0.5-2.1,0.6
			c-1.5,0-3.2-3.6-3.2-4.9c0-0.6,0.4-0.8,1.6-1.1c3-0.8,6-1.8,8.9-3c1.2-0.5,2-0.9,2-1.2c0-0.2-0.2-0.3-0.4-0.3
			c-0.2,0-0.3,0.1-0.7,0.1h-0.2c-1.1,0-2.2,0.1-3.3,0.1c-1.2,0-1.6-0.2-1.6-1.7v-0.4c0-0.7-0.5-1.3-1.2-1.3c0,0,0,0,0,0h-2.9
			c-1,0-2-0.1-2-1.4c0-0.8,0.2-2,0.2-2.9v-2.7c0-1.7-0.2-3-0.2-3.6c0-2,2.2-2,3.6-2c2.1,0,4.2,0.1,6.3,0.1h8.1
			c0.8,0,1.5-0.7,1.5-1.5c0,0,0,0,0,0c0-0.5-0.1-1.8-0.2-2.3c0-0.2-0.1-0.3-0.1-0.5c0-0.7,0.6-0.8,1.2-0.8c1.5,0,5.4,0.3,7.2,0.4
			c1.2,0.1,1.5,0.4,1.5,0.8c0,0.3-0.2,0.5-0.6,0.8c-0.4,0.3-0.5,1-0.5,1.8c0.1,0.8,0.7,1.4,1.5,1.4h7.8c2.1,0,4.2-0.1,6.3-0.1
			c1.4,0,3.6,0.1,3.6,2c0,0.4-0.2,2.2-0.2,3.6v2.8c0,1,0.2,2.2,0.2,2.9c0,1.3-0.7,1.4-3,1.4c-0.7,0-1.2-0.1-1.8-0.1
			c-1.1,0-1.3,0.9-1.3,1.7v0.5c0,0.5,0.9,1.5,1.7,2.1c0.9,0.8,2,2.1,3.2,3.2c0.7,0.6,1.1,1.1,1.1,1.5c0,0.4-0.3,0.6-0.7,0.7
			c-0.2,0-0.4,0-0.5-0.1c-0.2-0.1-0.3-0.1-0.5-0.1c-0.2,0-0.4,0.1-0.5,0.2c-1,0.8-2,1.3-2.7,1.8
			C787,1044.1,786.1,1044.6,786.1,1045.4z M780,1027.9c1.5,0,3-0.1,4.5-0.1h0.3c0.5,0,0.9-0.2,0.9-0.8v-0.9c0-0.3-0.3-0.6-0.6-0.6
			h-29.9c-0.3,0-0.6,0.3-0.7,0.6v0.8c0,0.9,0,0.9,5.7,0.9H780z M769.9,1053.2c0-0.4-0.3-0.7-0.7-0.7c-0.7,0.3-1.3,0.6-1.9,1.1
			c-0.4,0.3-1,0.7-1.5,1c-0.3,0.1-0.5,0.4-0.5,0.7c0,0.4,0.3,0.5,1.2,0.5C769.3,1055.8,769.9,1055.5,769.9,1053.2L769.9,1053.2z
			 M784.6,1034.7c-0.7,0-1.4-0.1-2-0.1c-1,0-1.6,0.1-1.6,0.9c0,0.4,0.2,0.7,0.3,1.1c0.2,0.5,0.5,1.3,1.2,1.3s3.3-2.1,3.3-2.6
			c0-0.6-0.6-0.7-1.1-0.7L784.6,1034.7z"/>
		<path id="パス_3001" class="st0" d="M833.3,1020c-0.4,0-0.7,0.3-0.7,0.7c0,0,0,0,0,0v0.2c0,0.4,0.3,0.7,0.7,0.7c0,0,0,0,0,0
			h12.4c1.4,0,2.8-0.1,4.2-0.1c2.1,0,2.5,0.3,2.5,2v6c0,0.9,0.1,1.9,0.1,2.6c0,1.1-0.7,1.2-2.1,1.2h-3.2c-1.5,0-2.2-0.1-2.2-1.2
			c0-0.7,0.1-1.5,0.1-2.6v-1.7c0-0.8-0.6-1.5-1.5-1.5c0,0,0,0,0,0h-9.6c-0.8,0-1.5,0.7-1.5,1.5c0,0,0,0,0,0v3.4c0,1.9,0.2,4,0.2,5.7
			c0,1.2-0.7,1.4-2.3,1.4h-3.8c-1.6,0-2.2-0.2-2.2-1.5c0-1.5,0.2-3.5,0.2-5.6v-3.4c0-0.8-0.7-1.5-1.5-1.5c0,0,0,0,0,0h-9.7
			c-0.8,0-1.5,0.7-1.5,1.5v1.7c0,0.9,0.1,1.9,0.1,2.6c0,1.1-0.7,1.2-2.2,1.2h-3.2c-1.5,0-2.1-0.1-2.1-1.2c0-0.7,0.1-1.5,0.1-2.6
			v-5.9c0-1.7,0.3-2.1,2.4-2.1c1.4,0,2.8,0.1,4.2,0.1h12.6c0.4,0,0.7-0.3,0.7-0.6c0,0,0,0,0,0v-0.2c0-0.4-0.3-0.7-0.7-0.7h-6.4
			c-2,0-4,0.1-6.1,0.1c-1.1,0-1.3-0.4-1.3-1.5v-1.9c0-1.2,0.1-1.5,1.3-1.5c2,0,4,0.1,6,0.1h22c2,0,4-0.1,6-0.1
			c1.2,0,1.3,0.3,1.3,1.5v1.9c0,1.1-0.1,1.5-1.3,1.5c-2,0-4-0.1-6.1-0.1L833.3,1020z M831.8,1062.6c-4.1,0-6.7-0.4-6.7-5.2v-0.3
			c0-1.3-0.8-1.8-1.6-1.8h-5.2c-1,0-1.4,0.1-1.4,0.7c0,1.3-0.4,1.4-2.6,1.4h-2.7c-1.3,0-2.1-0.1-2.1-1.5c0-1.6,0.1-3.2,0.1-4.8v-5.2
			c0-1.5-0.1-3-0.1-4.5c0-1.7,0.3-2.1,2.2-2.1h34.3c1.9,0,2.1,0.5,2.1,2.1v9c0,1.4,0.2,1.8,1.5,1.9c1.1,0.1,4.3,0.7,4.3,2.4
			c-0.2,2.1-1,4.1-2.1,5.8c-1.3,2-2.8,2.1-4.9,2.1L831.8,1062.6z M818.8,1027.9c1.1,0,2.4-0.1,3.2-0.1c0.8,0,0.9,0.4,0.9,1.4v1.5
			c0,1-0.1,1.4-1,1.4c-0.6,0-1.8-0.1-3-0.1h-1.6c-1.2,0-2.5,0.1-3,0.1c-1,0-1-0.4-1-1.4v-1.5c0-1,0.2-1.2,1-1.2
			c0.6,0,1.5,0.1,2.7,0.1L818.8,1027.9z M818.8,1033.5c1.1,0,2.4-0.1,3.2-0.1c0.8,0,0.9,0.4,0.9,1.4v1.4c0,1.1-0.1,1.5-1,1.5
			c-0.6,0-1.8-0.1-3-0.1h-1.6c-1.2,0-2.5,0.1-3,0.1c-1,0-1-0.4-1-1.5v-1.5c0-1,0.2-1.2,1-1.2c0.5,0,1.4,0.1,2.7,0.1L818.8,1033.5z
			 M824.4,1045.3c0.4,0,0.7-0.3,0.7-0.7v-0.1c0-0.4-0.3-0.7-0.7-0.7h-6.7c-0.4,0-0.7,0.3-0.7,0.7c0,0,0,0,0,0v0.1
			c0,0.4,0.3,0.7,0.6,0.7c0,0,0,0,0,0H824.4z M817.7,1049.3c-0.3,0-0.6,0.3-0.6,0.6c0,0,0,0,0,0v0.3c0,0.3,0.3,0.6,0.6,0.6h6.9
			c0.3,0,0.6-0.3,0.6-0.6v-0.3c0-0.3-0.2-0.6-0.5-0.6c0,0-0.1,0-0.1,0H817.7z M840,1045.3c0.4,0,0.7-0.3,0.7-0.7v-0.1
			c0-0.4-0.3-0.7-0.7-0.7h-6.9c-0.4,0-0.7,0.3-0.7,0.7v0.1c0,0.4,0.3,0.7,0.7,0.7H840z M833.1,1049.3c-0.3,0-0.6,0.3-0.6,0.6
			c0,0,0,0,0,0v0.3c0,0.3,0.3,0.6,0.6,0.6h7c0.3,0,0.6-0.2,0.7-0.6c0,0,0,0,0,0v-0.3c0-0.3-0.3-0.6-0.6-0.7c0,0,0,0-0.1,0H833.1z
			 M833.4,1055.4c-0.5,0-0.9,0.4-0.9,0.8c0,0,0,0,0,0c0,0.9,1.2,1,1.9,1h10.3c0.7,0,1.8-0.1,1.8-1c0-0.8-0.6-0.9-1.3-0.9h-0.2
			c-1.7,0-3.5-0.1-5.3-0.1L833.4,1055.4z M839.9,1027.9c1.1,0,2.5-0.1,3.2-0.1c0.9,0,0.9,0.4,0.9,1.4v1.5c0,0.9-0.1,1.3-1,1.3
			c-0.6,0-1.8-0.1-3.1-0.1h-1.6c-1.2,0-2.4,0.1-3,0.1c-0.9,0-1-0.4-1-1.5v-1.4c0-1.1,0.2-1.3,1.1-1.3c0.5,0,1.4,0.1,2.6,0.1
			L839.9,1027.9z M839.9,1033.5c1.1,0,2.5-0.1,3.2-0.1c0.9,0,0.9,0.4,0.9,1.4v1.5c0,1-0.1,1.4-1,1.4c-0.6,0-1.8-0.1-3.1-0.1h-1.6
			c-1.2,0-2.4,0.1-3,0.1c-0.9,0-1-0.4-1-1.5v-1.5c0-1.1,0.2-1.3,1.1-1.3c0.5,0,1.4,0.1,2.6,0.1L839.9,1033.5z"/>
		<path id="パス_3002" class="st0" d="M872.8,1016.1c0-0.2-0.1-1-0.1-1.2c0-0.2-0.1-0.3-0.1-0.5c0-0.7,0.5-0.7,1-0.7
			c1.6,0,4.7,0.1,5.7,0.2c0.5,0.1,1.7,0.1,1.7,0.8c0,0.3-0.2,0.5-0.5,0.7c-0.2,0.2-0.4,0.5-0.4,0.8c0,0.9,0.8,0.9,1.4,0.9
			c2.2,0,4.5-0.1,6.7-0.1c1.1,0,1.1,0.4,1.1,1.8v1.3c0,1.5-0.1,1.9-1.1,1.9c-2.4,0-4.8-0.1-7.2-0.1h-0.3c-0.4,0-0.7,0.3-0.8,0.6
			c0,0,0,0,0,0.1c0,0.5,0.4,0.6,0.8,0.6h1.9c2.1,0,4.3-0.1,6.4-0.1c1.3,0,1.3,0.5,1.3,2v1c0,1.4-0.1,1.9-1.2,1.9
			c-2.2,0-4.3-0.1-6.5-0.1h-1.8c-0.4,0-0.8,0.2-0.8,0.7c0,0.3,0.3,0.6,0.6,0.6c1.5,0,3.1-0.1,4.6-0.1c1.8,0,3.8,0.1,3.8,1.5
			c0,0.7-0.1,1.4-0.1,3v0.6c0,0.5,0.1,1,0.1,1.6c0,1-0.2,1.2-0.2,1.7s0.3,0.7,0.8,0.8c1.7,0.1,2.8,0.2,2.8,0.7
			c0,0.3-0.2,0.3-0.5,0.6c-0.4,0.4-0.6,0.9-0.5,1.5c0,0.5,0.3,1.1,1.3,1.1h10.9c2.2,0,4.3-0.1,6.5-0.1c1.5,0,1.5,0.5,1.5,2.2v1.7
			c0,1.6-0.2,1.8-1.5,1.8c-1.4,0-2.8-0.1-4.2-0.1c-0.3,0-0.8,0.1-0.8,0.5s0.8,1,1.6,1.5l0.6,0.4c0.4,0.3,1.4,0.9,1.4,1.5
			c0,0.5-0.4,0.7-0.8,0.7c-0.2,0-0.4-0.1-0.7-0.1c-0.4,0-0.9,0.1-1.2,0.4c-0.4,0.2-0.8,0.4-1.1,0.6c-1,0.5-1.4,0.8-1.4,1
			c0,0.4,0.5,0.6,1.2,0.8c2,0.8,4,1.3,6.1,1.6c0.8,0.1,1.2,0.2,1.2,1c0,1.4-1.4,5.4-3.8,5.4c-1.5,0-6.7-2.1-8.3-2.8
			c-2.2-1-4.4-2.2-6.4-3.6c-0.2-0.2-0.6-0.3-0.9-0.4c-0.7,0-0.7,0.7-0.7,0.9v0.3c0,1.4,0,2.5-1.5,2.8c-2.8,0.5-16.8,2.1-19.7,2.2
			c-0.7,0.1-0.8,0.1-0.9,0.5c-0.1,0.3-0.4,0.6-0.8,0.6c-0.5,0-0.9-1.1-1.3-2.6c-0.2-0.5-0.3-1-0.5-1.7c-0.2-0.5-0.3-1-0.3-1.5
			c0-0.9,0.6-0.9,1.3-0.9h0.5c1.6-0.1,3.2-0.2,4.8-0.3c0.9-0.1,1.3-0.6,1.3-1.1c0-0.6-0.5-1.1-1.1-1.1c-0.1,0-0.2,0.1-0.4,0.1
			c-2.6,0.7-5.3,1.1-7.9,1.5c-0.2,0-0.4,0.1-0.6,0.1c-1.1,0-1.4-1.2-1.7-2.2c-0.2-0.9-0.4-1.9-0.5-2.9c0-0.9,0.6-0.9,2.1-1
			c3.4-0.3,5.4-0.7,8.8-1.3c0.2-0.1,0.7-0.2,0.7-0.5c0-0.3-0.3-0.3-0.8-0.3h-2.4c-2.2,0-4.3,0.1-6.6,0.1c-1.3,0-1.4-0.4-1.4-1.7
			v-2.2c0-1.5,0.1-1.8,1.5-1.8c2.2,0,4.3,0.1,6.5,0.1h11.1c0.9,0,1.1-0.5,1.1-0.8c0-0.5,0-1.2-0.8-1.2c-0.9,0-2,0-2-2.9
			c0-0.4,0-1.6,0.7-1.6h0.5c0.6,0,0.7-0.3,0.7-0.9c0-0.4,0-0.9-0.7-0.9h-0.9c-0.3,0-0.7,0.2-0.7,0.6c0,0,0,0,0,0
			c0,2,0.2,3.9,0.2,5.8c0,1.2-0.5,1.3-2.1,1.3h-3.2c-1.6,0-2.1-0.1-2.1-1.3c0-1.8,0.1-3.6,0.1-5.4v-0.4c0-0.3-0.3-0.6-0.6-0.6
			c0,0,0,0,0,0h-0.2c-0.3-0.1-0.7,0.2-0.7,0.5c0,0,0,0.1,0,0.1v0.2c0,1.4,0.1,2.8,0.1,4.2c0,1-0.5,1.1-1.8,1.1h-2.9
			c-1.5,0-2-0.1-2-1.1c0-1.5,0.1-3,0.1-4.6v-0.7c0-1.6-0.1-2.3-0.1-3c0-1.4,1.6-1.5,3.7-1.5c1.3,0,2.5,0.1,3.8,0.1
			c0.3,0,0.6-0.3,0.6-0.6c0-0.4-0.2-0.7-0.8-0.7h-1.6c-2.2,0-4.4,0.1-6.5,0.1c-1.1,0-1.2-0.6-1.2-1.6v-1.5c0-1.3,0.1-1.8,1.2-1.8
			h1.5c0.1,0,0.2-0.1,0.2-0.1c0-0.2-0.3-0.2-0.4-0.3c-0.8-0.2-2.3-0.6-2.3-1.6c0-0.3,0.1-0.6,0.3-0.9c0.8-1.9,1.4-3.9,1.9-5.9
			c0.1-0.5,0.3-0.7,0.8-0.7c0.5,0,2.2,0.3,2.8,0.4c2.3,0.5,3.2,0.6,3.2,1.2c0,0.3-0.3,0.5-0.5,0.6c-0.2,0.1-0.5,0.3-0.5,0.6
			c0,0.4,0.4,0.5,0.8,0.5C872.3,1017.2,872.7,1016.7,872.8,1016.1z M870.1,1022c-0.6,0-1.2,0.4-1.3,1c0,0.3,0.4,0.3,0.8,0.3h2.4
			c0.3,0,0.6-0.2,0.6-0.6c0,0,0-0.1,0-0.1c0-0.3-0.3-0.6-0.6-0.7c0,0,0,0-0.1,0L870.1,1022z M882.2,1054.3c-0.1,0.7,0.5,1.4,1.2,1.5
			c0.1,0,0.2,0,0.3,0c0.4,0,4.3-0.5,5.2-0.7c0.4-0.1,1.1-0.2,1.1-0.7c0-0.3-0.2-0.6-0.4-0.7c-0.7-0.7-1.9-1.9-2.4-2.6
			c-0.3-0.4-0.7-0.7-1.2-0.8c-0.6,0.1-1.1,0.3-1.6,0.5c-0.3,0.1-0.5,0.3-0.8,0.4c-0.8,0.2-1.3,1.1-1.2,1.9L882.2,1054.3z
			 M891.4,1022.1c0-1.5,0-3-0.2-4.5c0-0.2-0.1-0.3-0.1-0.5c0-0.6,0.5-0.7,1-0.7c0.9,0,5.1,0.3,6.2,0.4c0.8,0.1,1.4,0.1,1.4,0.8
			c0,0.5-0.3,0.7-0.7,1c-0.5,0.4-0.5,1-0.5,2.6v5.2c0,1.7,0.1,3.5,0.1,5.3c0,1.6,1.1,1.7,2.1,1.7c1.2,0,1.2-0.5,1.2-2.4v-13
			c0-2.2-0.2-3.2-0.2-3.6c0-0.7,0.6-0.7,1.2-0.7c1.4,0,4.1,0.2,5.7,0.3c0.5,0.1,1.6,0.1,1.6,0.8c0,0.4-0.2,0.7-0.5,0.9
			c-0.4,0.4-0.5,0.7-0.5,2.5v11.8c0,0.9,0.1,3,0.1,3.8c0,4.2-1,7-7.6,7c-2.9,0-3.6-0.3-4-4c-0.1-1-0.5-1.5-1.5-1.5h-3.3
			c-1.1,0-1.7-0.2-1.7-1.4c0-2.5,0.2-5,0.2-7.4L891.4,1022.1z M894.5,1047.9c-0.3,0-0.9,0-0.9,0.5c0,0.4,2.1,2.4,2.9,2.4
			c0.7-0.1,1.3-0.4,1.8-0.8c0.3-0.2,0.6-0.4,0.9-0.6c0.3-0.2,0.9-0.5,0.9-1c0-0.5-0.7-0.5-1.2-0.5L894.5,1047.9z"/>
		<path id="パス_3003" class="st0" d="M932.3,1060.1c-0.6,0-1.1,0.5-1.1,1.1v0.4c0,1.3-0.5,1.5-2.1,1.5h-3.3
			c-2.3,0-2.9-0.1-2.9-1.4c0-2.2,0.2-4.4,0.2-6.6v-7.4c0-1.8-0.1-3.6-0.1-5.3c0-2.1,1.2-2.6,3.1-2.6s3.8,0.2,5.6,0.2h3.5
			c1.8,0,3.7-0.2,5.5-0.2c1.9,0,3.2,0.4,3.2,2.6c0,1.8-0.2,3.5-0.2,5.3v7.4c0,2.2,0.2,4.4,0.2,6.6c0,1.3-0.6,1.4-2.7,1.4h-3
			c-1.8,0-2.3-0.2-2.3-1.4v-0.6c0-0.6-0.5-1-1-1L932.3,1060.1z M931.1,1052c0,0.8,0.6,1.5,1.5,1.5c0,0,0,0,0.1,0h2
			c0.8,0,1.5-0.7,1.5-1.5v-3.5c0-0.8-0.7-1.5-1.5-1.5h-2c-0.8,0-1.5,0.7-1.5,1.5L931.1,1052z M958.8,1029.1c0,2.2,0.2,4.3,0.2,6.6
			c0,1.2-0.6,1.4-2.4,1.4h-3.2c-2,0-2.4-0.1-2.7-0.8c-0.1-0.3-0.2-0.5-1.2-0.5H942c-1,0-1.1,0.3-1.2,0.5c-0.3,0.7-0.7,0.8-2.7,0.8
			h-3.2c-1.8,0-2.4-0.1-2.4-1.4c0-2.1,0.1-4.4,0.1-6.6v-5.3c0-1.8-0.1-3.6-0.1-5.3c0-2.1,1.3-2.5,3.2-2.5c1.9,0,3.8,0.1,5.7,0.1h8.8
			c1.8,0,3.8-0.1,5.6-0.1s3.2,0.3,3.2,2.5c0,1.8-0.1,3.5-0.1,5.3L958.8,1029.1z M940.8,1027.6c0,0.8,0.7,1.5,1.5,1.5c0,0,0,0,0,0
			h6.7c0.8,0,1.5-0.6,1.5-1.5c0,0,0,0,0-0.1v-3.2c0-0.8-0.6-1.5-1.5-1.5c0,0,0,0-0.1,0h-6.7c-0.8,0-1.5,0.6-1.5,1.5c0,0,0,0,0,0.1
			V1027.6z M956.4,1060.1c-0.6,0-1.1,0.5-1.1,1v0.5c0,1.3-0.5,1.5-2.3,1.5h-3.2c-2.2,0-2.9-0.1-2.9-1.4c0-2.2,0.2-4.4,0.2-6.6v-7.4
			c0-1.8-0.1-3.6-0.1-5.3c0-2.1,1.2-2.6,3.1-2.6c1.9,0,3.8,0.2,5.6,0.2h3.7c1.8,0,3.7-0.2,5.5-0.2c1.9,0,3.2,0.4,3.2,2.6
			c0,1.8-0.2,3.5-0.2,5.3v7.4c0,2.2,0.2,4.4,0.2,6.6c0,1.3-0.6,1.4-2.6,1.4h-3c-2.1,0-2.8-0.1-2.8-1.3c0-0.2,0.1-0.4,0.1-0.7
			c0-0.6-0.5-1.1-1.1-1.1c0,0,0,0,0,0L956.4,1060.1z M955.2,1052c0,0.8,0.7,1.5,1.5,1.5c0,0,0,0,0,0h1.7c0.8,0,1.5-0.7,1.5-1.5
			c0,0,0,0,0,0v-3.5c0-0.8-0.7-1.5-1.5-1.5c0,0,0,0,0,0h-1.7c-0.8,0-1.5,0.7-1.5,1.5L955.2,1052z"/>
		<path id="パス_3004" class="st0" d="M1018.8,1025.1c3.8,3.7,5.8,8.7,5.8,14c0,7.6-4.2,14.5-10.9,18.1c-1.4,0.8-4.9,2.4-6.5,2.4
			c-1.9,0-4.8-5-4.8-6.5c0-0.5,0.5-0.7,2.1-1.1c6.3-1.6,11.5-5.6,11.5-12.6c0-8.5-6.5-11.9-8.2-11.9c-0.9,0-1,1-1.1,2
			c-0.6,7.6-2.8,16.8-7.8,22.8c-2,2.4-4.6,4.5-7.9,4.5c-3.6,0-6.6-2.5-8.3-5.6c-1.2-2.5-1.8-5.3-1.8-8.2
			c-0.2-12.7,9.9-23.2,22.6-23.4c0.2,0,0.4,0,0.5,0C1009.7,1019.5,1014.9,1021.2,1018.8,1025.1z M989.1,1042.8
			c0,1.3,0.3,5.3,2.2,5.3c1.3,0,3.2-3.6,3.7-4.7c1.9-3.9,3.4-12,3.4-13.9c0-0.4-0.2-0.8-0.7-0.8
			C996.1,1028.7,989.1,1033.7,989.1,1042.8L989.1,1042.8z"/>
		<path id="パス_3005" class="st0" d="M645.6,1098.4c0.8,0,1.5-0.7,1.5-1.5c0,0,0,0,0,0v-1.1c0-0.8-0.7-1.5-1.5-1.5c0,0,0,0,0,0
			H634c-1.4,0-2.7,0.1-3.9,0.1c-1.4,0-1.5-0.4-1.5-2.1v-2.4c0-2.2,0.1-2.6,1.5-2.6c0.9,0,2.4,0.1,3.9,0.1h13.9
			c1.5,0,2.9-0.1,4.4-0.1c1.5,0,3,0.2,3,2.1s-0.1,3.8-0.1,5.7v5.4c0,1.7,0.2,3.4,0.2,5.1c0,1.2-0.7,1.4-2.6,1.4h-3.3
			c-1.5,0-2.1-0.1-2.3-0.9c-0.1-0.2-0.3-0.3-0.5-0.3h-6.1c-3.2,0-2.7,0.1-3,3.3c0,0.1-0.1,0.3-0.1,0.4c0,0.8,0.7,1,1.3,1h9.6
			c1.1,0,2.9-0.1,4.4-0.1c3.4,0,3.4,1.6,3.4,3.3c0,4.7-1,11.5-2.9,15.8c-0.7,1.7-1.9,3.2-3.6,4c-2.7,1-5.6,1.4-8.5,1.4
			c-2.6,0-4.1,0-4.8-1.8c-0.4-1.4-0.7-2.9-0.7-4.3c0-1.7,0.8-1.9,2.2-1.9c1.2,0,2.4,0.2,4.1,0.2c2.1,0,3.2-0.1,4.1-1.6
			c1-2,1.6-4.3,1.6-6.6c0-1.2-0.7-1.5-2.6-1.5h-7.3c-0.6,0-1.2,0.4-1.5,1c-0.3,0.5-0.7,0.6-1.4,0.6c-1.1,0-2.3-0.1-3.4-0.3
			c-1-0.2-2.6-0.4-2.6-1.6c0-0.7,0.3-3,0.7-5.8c0.4-3.7,0.7-7,0.9-10.6c0.2-2.3,1.2-2.5,4.1-2.5c1.6,0,3.3,0.1,4.8,0.1L645.6,1098.4
			z M672.8,1124.8c0,2.9,0.1,5.9,0.1,8.9c0,1.5-0.5,1.6-2.5,1.6H667c-1.9,0-2.4-0.1-2.4-1.5c0-3,0.2-5.9,0.2-8.9v-34.3
			c0-1.3-0.1-2.7-0.2-4c0-0.7,0.5-0.8,1.1-0.8c2.1,0,3.9,0.1,6.4,0.2c1,0.1,1.8,0.1,1.8,0.8c0,0.3-0.2,0.4-0.5,0.8
			c-0.4,0.4-0.6,0.9-0.5,1.5L672.8,1124.8z"/>
		<path id="パス_3006" class="st0" d="M689.4,1128.9c-0.2,0.3-0.4,0.8-0.8,0.8c-0.7,0-0.9-0.7-1.1-1.4c-0.3-1.1-1.6-5.2-1.6-5.9
			c0-1.1,0.9-1.2,1.7-1.2c1.1,0.1,2.1-0.8,2.1-1.9c0-0.1,0-0.3,0-0.4v-23.1c0.1-0.6-0.4-1.2-1-1.3c-0.1,0-0.2,0-0.3,0h-0.2
			c-1.6,0-1.8-0.5-1.8-2.5v-2.6c0-1.8,0.2-2.4,1.7-2.4c1.8,0,3.6,0.1,5.4,0.1h12.7c1.8,0,3.6-0.1,5.4-0.1c1.5,0,1.7,0.5,1.7,1.9
			c0,2,0.8,2,4.1,2h9.1c0.7,0,1.5-0.1,2.5-0.1c1.1-0.1,2.2,0.1,3.2,0.8c0.8,0.7,1.3,1.7,1.4,2.8c0,2.5-1.5,8.9-2.2,11.5
			c-0.9,3.3-2.1,6.6-3.6,9.7c-0.2,0.4-0.3,0.8-0.4,1.3c0,1.8,5.3,7.3,6.7,8.8c0.4,0.4,1.1,1.1,1.1,1.7c0,1.5-3.8,5.5-5.2,5.5
			c-0.5,0-1.1-0.7-1.7-1.4c-0.1-0.2-0.2-0.3-0.4-0.4c-1.2-1.4-2.9-3.4-3.9-4.8c-0.4-0.5-0.9-1.3-1.6-1.3c-0.4,0-0.8,0.3-1,0.7
			c-1.1,1.3-6.6,7.7-8,7.7c-0.9,0-2-1.4-2.5-2.1c-0.3-0.3-0.5-0.8-0.9-0.8c-0.2,0-0.4,0.3-0.4,0.7c0,0.8,0.1,1.6,0.1,2.4
			c0,1.4-0.5,1.5-2.4,1.5h-3c-1.7,0-2.3-0.1-2.3-1.5c0-2.2,0.2-4.3,0.2-6.5c0-0.9-0.3-1.6-1.2-1.6c-1,0.2-2,0.4-2.9,0.7
			c-2.3,0.6-5,1.1-7.3,1.6C689.7,1128,689.7,1128.2,689.4,1128.9z M698.5,1094.3c-0.8,0-1.5,0.7-1.5,1.5c0,0,0,0,0,0v1
			c0,0.8,0.7,1.5,1.5,1.5c0,0,0,0,0,0h2.1c0.8,0,1.5-0.7,1.5-1.5v-1c0-0.8-0.7-1.5-1.5-1.5H698.5z M698.5,1104.3
			c-0.8,0-1.5,0.7-1.5,1.5c0,0,0,0,0,0v1.1c0,0.8,0.7,1.5,1.5,1.5c0,0,0,0,0,0h2.1c0.8,0,1.5-0.7,1.5-1.5v-1.1
			c0-0.8-0.7-1.5-1.5-1.5H698.5z M698.5,1114.7c-0.8,0-1.5,0.6-1.5,1.5c0,0,0,0,0,0.1v1.8c0,0.8,0.1,1.5,1.1,1.5
			c1-0.1,2-0.3,2.9-0.7c0.8-0.3,1.3-1.2,1.1-2v-0.7c0-0.8-0.6-1.5-1.5-1.5c0,0,0,0-0.1,0H698.5z M709.6,1124.3c0,0.4,0,1.3,0.5,1.3
			c1,0,3.7-3,4.5-3.8c1-1.1,3.3-3.5,3.3-5c-0.1-0.6-0.2-1.1-0.5-1.6c-1.8-3.9-3.2-8-4-12.2c-0.2-0.8-0.3-1.7-0.4-2.5
			c-0.1-0.6,0.3-1.1,0.9-1.3c0.3-0.1,0.5-0.1,0.5-0.4c0-0.2-0.1-0.4-0.3-0.4c-0.2,0-0.3,0.1-0.6,0.1c-1.5,0-1.6-0.3-1.6-1.7
			c0-0.3,0.1-0.6,0.1-0.9c0.1-0.7-0.4-1.3-1.1-1.4c-0.1,0-0.2,0-0.2,0c-0.6,0-1,0.4-1,1c0,0,0,0.1,0,0.1L709.6,1124.3z
			 M723.8,1098.3h-1.2c-1,0-1.8,0.2-1.8,1c0,0.2,0.2,1,0.2,1.3c0.3,1.7,0.7,3.4,1.1,5.1c0.3,1,0.4,1.8,0.8,1.8
			c0.4,0,0.5-0.4,0.6-0.8c0.4-1.3,0.8-2.6,1-3.9c0.3-1.3,0.5-2.6,0.5-3.9C725,1098.4,724.8,1098.3,723.8,1098.3L723.8,1098.3z"/>
		<path id="パス_3007" class="st0" d="M769.2,1088.6c0.5,0.2,0.9,0.5,0.9,0.9c0,0.3-0.2,0.4-0.5,0.5c-0.9,0.4-1.3,0.6-2,2.6l-1,3
			c-0.1,0.3-0.2,0.6-0.2,0.9c0,1.1,0.8,1.3,2.5,1.4c1.3,0.1,2.6,0.2,3.9,0.2c1,0,1.7,0,1.7,1.2c-0.1,1.6-0.4,3.3-0.8,4.8
			c-0.4,1.4-0.7,1.9-1.5,1.9c-2.3-0.1-4.5-0.3-6.7-0.7c-0.1,0-0.3-0.1-0.4-0.1c-1.3,0-1.5,1-1.7,2.1l-0.1,0.4
			c-0.1,0.3-0.1,0.6-0.1,0.9c0,1.4,1.5,1.5,5.4,1.5c1.5,0,2.3,0.1,2.3,1c-0.1,1.8-0.4,3.5-1,5.2c-0.4,1.1-0.8,1.7-2.1,1.7
			c-1.5-0.1-3-0.2-4.5-0.5c-0.1,0-0.3-0.1-0.4-0.1c-1.1,0-1.2,1.1-1.2,1.7v0.3c0,1.2,0.2,2.4,0.8,3.5c0.9,1.7,3.3,2.4,5.2,2.4
			c2,0,4-0.4,5.9-1.3c1.2-0.8,1.8-2.1,1.7-3.5c-0.2-2.6-0.7-5.2-1.6-7.7c-0.2-0.4-0.3-0.8-0.3-1.3c0-0.7,0.4-1,2-1.6
			c1.5-0.6,3-0.9,4.6-1.1c1,0,1.3,1,1.8,2.7c1.1,3.1,1.7,6.4,1.7,9.7c0.2,3.7-1.7,7.3-4.8,9.3c-3.4,2-7.2,3-11.1,2.9
			c-9.4,0-14.2-5.4-14.2-14.6c0-0.7,0.2-2.3,0.2-2.4c0-1.2-0.9-1.5-1.6-1.7c-3.6-1.2-4.3-1.7-4.3-2.7c0.1-1.3,0.4-2.5,0.8-3.7
			c0.4-1.4,0.8-3,2-3c0.6,0.1,1.1,0.3,1.6,0.7c0.7,0.5,1.5,0.8,2.3,1c0.4,0,1-0.2,1.2-1.4c0.2-0.6,0.3-1.2,0.4-1.7
			c0-1-0.7-1.4-1.5-1.7c-4.5-1.6-4.7-2.2-4.7-3c0-1.1,1.3-6.6,2.9-6.6c0.7,0.2,1.4,0.5,2,1c0.9,0.6,1.9,1.1,2.9,1.4
			c0.9,0,1.1-0.7,1.4-1.5c0.4-1.5,1.2-4.2,1.8-6.4c0.2-0.9,0.3-1.2,0.8-1.2C763.9,1086.6,766.6,1087.5,769.2,1088.6z"/>
		<path id="パス_3008" class="st0" d="M810.1,1130.6c0,1.6,0.2,3.5,0.2,4.8s-0.6,1.4-2.4,1.4h-3.2c-1.6,0-2.2-0.1-2.2-1.4
			c0-1.1,0.2-3.1,0.2-4.8v-10.3c0-0.5,0-1.1-0.6-1.1c-0.3,0-0.6,0.3-0.9,0.5c-0.6,0.5-1.2,0.9-2,1.1c-1.1,0-4.2-4-4.2-5.3
			c0-0.6,0.5-1,1-1.3c4.5-3.3,10.5-10.2,13.3-15.1c0.2-0.3,0.4-0.5,0.8-0.5c0.6,0,2.7,1.3,4.2,2.2c0.4,0.3,0.9,0.5,1.1,0.7
			c0.6,0.3,1.5,0.8,1.5,1.5c0,0.5-0.9,0.7-1.2,0.8c-0.7,0.1-0.8,0.3-1.1,0.9c-1.4,2.1-2.9,4.2-4.5,6.1c-0.3,0.2-0.4,0.5-0.5,0.8
			c0,0.3,0.3,0.4,0.5,0.4c0.5,0.1,1.2,0.1,1.2,0.8c0,0.3-0.2,0.4-0.5,0.8c-0.5,0.8-0.7,1.7-0.5,2.7L810.1,1130.6z M812.4,1090.2
			c0.5,0.3,1.5,0.9,1.5,1.5s-0.9,0.6-1.3,0.6c-0.7,0.1-0.8,0.1-1,0.5c-2.5,3.5-5.5,6.7-8.8,9.4c-0.1,0.1-0.3,0.2-0.4,0.4
			c-0.9,0.7-2.4,2-3.2,2c-1.2,0-4.1-3.6-4.1-4.8c0-0.6,0.5-0.9,1-1.3c4-2.8,7.5-6.3,10.3-10.3c0.5-0.8,0.5-0.9,0.9-0.9
			c0.7,0,3.3,1.7,4.7,2.6C812.1,1090,812.3,1090.1,812.4,1090.2z M836.5,1126.5c0,1.5,0.1,2.9,0.1,4.4c0,5.8-5.7,6.1-10.2,6.1
			c-1,0-2.6,0-3.2-1c-0.7-1.6-1.1-3.3-1.1-5.1c0-0.8,0.1-2.1,1.2-2.1c0.7,0,2,0.3,3.5,0.3c1.4,0,1.5-0.3,1.5-3.2v-13.1
			c0-0.8-0.7-1.5-1.5-1.5c0,0,0,0,0,0h-4.4c-2,0-4,0.1-6,0.1c-1.4,0-1.7-0.5-1.7-1.9v-3.8c0-1.5,0.3-2.1,1.6-2.1c2,0,4,0.2,6,0.2
			h14.2c2,0,4-0.2,6-0.2c1.3,0,1.6,0.5,1.6,1.9v3.8c0,1.6-0.3,2.1-1.6,2.1c-1.5,0-3-0.1-4.5-0.1c-1.3,0-1.7,0.5-1.7,1.8
			L836.5,1126.5z M833.9,1090c1.9,0,3.8-0.1,5.6-0.1c1.5,0,1.6,0.8,1.6,2.4v2.8c0,1.8-0.2,2.5-1.7,2.5c-1.8,0-3.6-0.1-5.5-0.1h-9.4
			c-1.8,0-3.6,0.1-5.4,0.1c-1.6,0-1.7-0.6-1.7-2.5v-2.8c0-1.7,0.1-2.4,1.6-2.4c1.8,0,3.8,0.1,5.6,0.1H833.9z"/>
		<path id="パス_3009" class="st0" d="M887.3,1115.6c0,7-4.9,11.5-11,13.9c-2,0.8-6.5,2.2-8.6,2.2c-1,0-1.5-0.7-1.9-1.5
			c-0.7-1.4-1.1-2.8-1.4-4.3c0-0.9,0.9-1.1,2.1-1.3c5-0.5,13.5-2.8,13.5-9.1c0-2.9-2.3-4.3-4.9-4.3c-4.8,0-11.4,2.8-15.6,5.3
			c-0.6,0.4-1.3,0.6-2,0.7c-1.8,0-4.5-4.5-4.5-6.2c0-0.9,0.7-1.1,2.3-1.5c1-0.3,2.9-1,4-1.4c4.6-1.6,10.8-3.9,15.7-3.9
			C881.9,1104.3,887.3,1108.3,887.3,1115.6z"/>
		<path id="パス_3010" class="st0" d="M897.4,1104.6c-0.4-1.9-0.7-3.9-0.9-5.8c0-1.7,0.8-1.7,3.6-1.8c8-0.4,15.9-1.2,23.9-2.2
			c3.9-0.5,8.3-1,12.2-1.7c0.2,0,0.3-0.1,0.5-0.1c1,0,1.3,0.9,1.4,1.8c0.4,2,0.6,4,0.7,6c0,1-0.7,1-2.9,1.1c-2.9,0.1-5.1,0-7.8,1
			c-6.7,2.4-11.2,8.7-11.2,15.9c0,5.2,2.7,6.6,7.4,6.6c1.4,0,3.2-0.2,4-0.2c1,0,1.4,0.2,1.4,1.2c0,2.2-0.3,4.3-0.9,6.4
			c-0.5,1.1-1.1,1.2-2.3,1.2c-10.1,0-18.5-2.6-18.5-14.4c0-4.9,1.6-9.6,4.5-13.5c0.3-0.3,0.5-0.8,0.5-1.2c0-0.5-0.4-0.8-1-0.8
			c-1,0.1-2,0.3-2.9,0.5c-2.9,0.5-6.6,1.4-9.4,2.2c-0.3,0.1-0.5,0.1-0.8,0.1C897.9,1106.9,897.6,1105.4,897.4,1104.6z"/>
		<path id="パス_3011" class="st0" d="M966.4,1129.4c0,3-4.5,4.9-6.3,4.9c-1.2,0-1.6-0.9-2.2-2.1c-0.9-1.8-3.3-4.5-4.6-4.5
			c-0.7,0.1-1.4,0.4-1.8,1c-0.4,0.4-1.1,1-1.4,1c-1.2,0-4.4-6-4.4-7.3c0-0.7,0.5-0.9,1.1-1.2c1.4-0.7,10.2-6,10.8-6.7
			c0.3-0.6,0.5-1.3,0.4-2v-2.1c0.1-0.7-0.5-1.3-1.2-1.4c0,0-0.1,0-0.1,0c-0.2,0-1.5,0.2-1.8,0.3c-1,0.2-2,0.4-3,0.4
			c-1.1,0-2.2-0.1-2.2-5.7c0-2.1,0-2.2,2.1-2.3c1.6-0.1,3.2-0.2,4.7-0.3c0.6,0,1.1-0.3,1.4-0.8c0.3-0.5,0.4-3.3,0.4-4.9v-0.9
			c0-1.1-0.1-2.3-0.1-2.7c-0.1-0.4,0.2-0.8,0.6-0.9c0.1,0,0.1,0,0.2,0c1.2,0,6.5,1.1,8,1.4c0.5,0.1,1,0.3,1,0.7
			c0,0.3-0.3,0.5-0.5,0.6c-0.6,0.5-1,1.2-1.1,2c-0.2,1.2-0.3,2-0.3,2.2c0,0.6,0.5,1.1,1,1.1c0.6-0.1,1.2-0.3,1.7-0.5
			c0.5-0.2,1-0.3,1.5-0.4c0.9,0,1.4,1.2,1.6,3.3c0.1,1.1,0.2,2.1,0.3,3.2c0,1.4-0.6,1.4-5.2,2.2c-0.9,0.2-1.6,0.6-1.6,1.7
			c0,0.8,0.2,1.4,1.1,1.4c0.4-0.1,0.8-0.2,1.2-0.3c2.4-0.8,4.8-1.2,7.3-1.2c6.7,0,13,3.8,13,11.1c0,3.4-1.6,6.7-4.4,8.7
			c-2.9,2.2-8.2,2.9-11.7,2.9c-1.5,0-2.6,0-3-0.8c-0.6-1.6-0.9-3.4-0.9-5.1c0-1,0.1-2.1,1.3-2.1c0.3,0,1.5,0.2,1.9,0.2
			c0.7,0.1,1.7,0.1,2.3,0.1c2.3,0,6.3-0.7,6.3-3.6c0-2.7-2.6-4-4.9-4c-2.1,0-6.7,1-8.4,2.3c-0.5,0.5-0.8,1.2-0.7,1.8
			c0,0.7,0.1,2.3,0.2,3C966,1124.3,966.4,1128.8,966.4,1129.4z M958.3,1125.3c0-0.7-0.1-1.4-0.5-1.4c-0.5,0.1-0.9,0.4-1.2,0.7
			c-0.2,0.2-0.4,0.3-0.4,0.7c0,0.4,0.2,0.6,1.1,1.3c0.2,0.2,0.4,0.3,0.7,0.3c0.4,0,0.4-0.3,0.4-0.7L958.3,1125.3z M986.3,1101.5
			c1.3,1,3.2,2.7,4.3,3.8c0.4,0.2,0.6,0.6,0.7,1.1c0,1.4-3.3,5.2-4.6,5.2c-0.5,0-0.9-0.4-1.3-0.8c-2.4-2.2-5-4.3-7.7-6.3
			c-0.6-0.4-1.2-0.8-1.2-1.4c0-0.8,1.5-2.6,2.1-3.1c0.1-0.1,0.2-0.3,0.3-0.4c0.7-0.8,1.5-1.6,2.1-1.6
			C982,1098,985.5,1100.8,986.3,1101.5L986.3,1101.5z"/>
		<path id="パス_3012" class="st0" d="M1014.1,1094.5c0.8,0.3,1,0.5,1,0.9c0,0.3-0.2,0.4-0.4,0.5c-1.4,0.6-1.9,2-2.4,3.2
			c-1,2.6-1.6,5.3-1.7,8.1c0,0.3,0,0.9,0.5,0.9c0.3,0,0.5-0.3,0.9-1c0.3-0.6,0.6-1.3,1.2-1.3c0.5,0,3,1.6,3,2.4
			c0,0.3-0.1,0.6-0.2,0.9c-1.3,3-3.3,8-3.3,11.1v1.4c0,1.2-1.1,1.8-2.2,2.2c-1,0.4-2.1,0.7-3.2,0.7c-1.7,0-2.2-1.2-2.6-2.6
			c-1.2-4.2-1.9-8.6-1.8-13c0-4,0.4-8,1.3-12c0.3-1.4,0.7-2.9,1-4.4c0.2-0.9,0.3-1.6,0.8-1.6
			C1007,1091.1,1011.9,1093.6,1014.1,1094.5z M1027,1090.5c1.4-0.3,2.7-0.5,4.1-0.7c1,0,1.2,0.4,1.6,1.7c1.2,5.4,1.8,11,1.7,16.6
			c0,9.4-1.6,17.4-8.3,24.4c-1,1.1-3.3,3.4-4.8,3.4c-0.9,0-2.4-1.5-3.1-2.1c-1.4-1.2-2.5-2.3-2.5-3.2c0-0.3,0.2-0.6,0.9-1.1
			c3-2,5.4-4.8,7-8.1c1.7-3.9,2.5-8.2,2.3-12.5c0-5.5-0.7-10.9-2-16.2c0-0.3-0.1-0.5-0.1-0.8C1023.9,1091.3,1024.6,1091,1027,1090.5
			L1027,1090.5z"/>
		<path id="パス_3013" class="st0" d="M1072.1,1090.8c0.3,0.1,0.8,0.1,0.8,0.5c0,0.3-0.2,0.7-0.4,0.9c-0.6,1-0.9,2.2-0.9,3.4
			c0,0.7,0.5,1.2,1.1,1.2c0,0,0.1,0,0.1,0c1,0,6.3-1.2,7.7-1.5c0.7-0.2,1.5-0.4,2.2-0.4c0.8,0,1,1.1,1.1,1.7
			c0.3,1.5,0.5,3.1,0.6,4.6c0,1.3-0.7,1.5-2.4,1.8c-2.7,0.5-5.5,0.9-8.3,1.3c-1.3,0.2-1.9,0.3-1.9,1.5c0,0.8,0.4,1.4,1.2,1.4
			c1.9-0.3,3.9-0.6,5.8-1.1c0.4-0.1,0.9-0.2,1.4-0.2c0.4,0,0.7,0.4,0.9,1.1c0.3,1.7,0.5,3.5,0.4,5.2c0,1.7-1.7,2-6.7,2.5
			c-2.2,0.2-2.6,0.5-2.6,1.5c0,3,0.1,3.4,1.7,4c2.3,0.8,9.6,3.9,9.6,6.4c0,1.2-2.3,5.3-4,5.3c-0.8,0-2.2-1.1-4.1-2.5
			c-0.7-0.6-1.5-1.1-2.4-1.3c-0.8,0-1,0.6-1.2,1.2c-1.7,4.2-6.1,5.4-10.3,5.4c-2.3,0.1-4.6-0.5-6.6-1.7c-2.1-1.4-3.4-3.8-3.4-6.4
			c0-2.4,1.2-4.6,3.1-6c2.3-1.7,5.6-2.2,8.4-2.2h0.6c0.6,0,1.1-0.4,1.1-1c0-0.1,0-0.1,0-0.2c0.1-0.7-0.4-1.4-1.1-1.5
			c0,0-0.1,0-0.1,0c-1,0-4.3,0.3-6.7,0.3c-2.1,0-2.6-0.1-2.9-1.5c-0.5-1.6-0.7-3.3-0.8-5.1c0-0.8,0.1-1.6,1.1-1.6
			c1.6,0,3.9,0.3,6.5,0.3h1.5c1.4,0,2.4-0.1,2.4-1.3c0.1-0.7-0.4-1.3-1.1-1.4c-0.1,0-0.1,0-0.2,0c-1.8,0-5.2,0.2-7.7,0.2h-1.6
			c-2.2,0-3.9-0.1-4.2-0.8c-0.5-1.9-0.7-3.8-0.6-5.7c0-0.8,0.1-1.7,1.1-1.7s6.7,0.5,10.3,0.5h1.2c1.3,0,2.3-0.1,2.3-1.3
			c0-0.5-0.3-3.5-0.4-4.5c-0.1-0.5-0.2-1-0.2-1.5c0-0.7,0.4-0.8,1-0.8C1065.2,1089.8,1070.7,1090.6,1072.1,1090.8z M1058.4,1126.7
			c0,1.3,2,1.4,2.9,1.4c1.5,0,3.3-0.4,3.3-2.2c0-0.8-0.7-0.8-1.7-0.8C1061.9,1125,1058.4,1125.1,1058.4,1126.7L1058.4,1126.7z"/>
		<path id="パス_3014" class="st0" d="M1121.8,1089.5c0.4,0.1,1.3,0.2,1.3,0.6c0,0.2-0.2,0.3-0.4,0.5c-0.5,0.4-0.8,1-0.9,1.6
			c-0.1,0.5-0.1,1.7-0.1,2.5c0,1.4,0.1,2.3,1.7,2.3c4.3,0,8.6-0.5,12.9-0.5c0.8,0,1.5,0.1,1.5,3.9c0,1.4-0.1,2.7-0.3,4.1
			c-0.2,0.4-0.3,0.7-0.8,0.7c-0.3,0-6.1-0.4-7.8-0.4c-1.8-0.1-3.6-0.1-5.5-0.1c-0.8-0.1-1.5,0.5-1.6,1.3c0,0.1,0,0.2,0,0.3v1.3
			c-0.1,1.1,0.2,2.1,0.8,3c1,2.3,1.5,4.8,1.5,7.3c0,8.8-6,19.4-8.8,19.4c-1.5-0.3-3-0.8-4.4-1.5c-1.5-0.7-2.8-1.3-2.8-2
			c0-0.5,0.7-1.1,1.1-1.5c1-1,3.6-3.4,3.6-4.3c0-0.6-0.5-0.7-1-0.7c-5-0.1-6.9-5.8-6.9-9.9c0-4.8,2.2-10.1,7.5-11
			c0.4-0.1,1-0.1,1-0.6c0-0.3-0.2-0.5-0.7-0.5c-0.6,0-4.6,0.4-5.4,0.5c-1.3,0.2-8.9,1.4-10,1.7c-0.3,0.1-0.6,0.1-1,0.2
			c-0.9,0-1.1-1.2-1.4-4.5c-0.2-1.8-0.2-3-0.2-3.5c0-0.8,0.3-0.9,1.6-1c4.9-0.2,9.8-0.6,14.2-0.8c1.4-0.1,2.7-0.2,2.7-2
			c0-2-0.2-4-0.5-5.9c0-0.1-0.1-0.3-0.1-0.4c0-0.4,0.2-0.8,0.7-0.8c0.1,0,0.1,0,0.2,0C1114.3,1088.5,1120.5,1089.3,1121.8,1089.5z
			 M1112.3,1116.7c0,1,0.2,3.8,1.7,3.8s1.8-2.7,1.8-3.8c0-1.1-0.2-3.5-1.8-3.5C1112.5,1113.2,1112.3,1115.6,1112.3,1116.7
			L1112.3,1116.7z"/>
	</g>
</g>
</svg>
