<?xml version="1.0" encoding="utf-8"?>
<!-- Generator: Adobe Illustrator 26.3.1, SVG Export Plug-In . SVG Version: 6.00 Build 0)  -->
<svg version="1.1" id="レイヤー_1" xmlns="http://www.w3.org/2000/svg" xmlns:xlink="http://www.w3.org/1999/xlink" x="0px"
	 y="0px" viewBox="0 0 878 262" style="enable-background:new 0 0 878 262;" xml:space="preserve">
<style type="text/css">
	.st0{fill:#FFFFFF;}
</style>
<g id="グループ_2359" transform="translate(-343.6 -199)">
	<path id="パス_4669" class="st0" d="M901.5,430.6H343.6v-3h557.9V430.6z"/>
	<path id="パス_4670" class="st0" d="M356.7,238.4c1.4-0.1,2.9,0.2,4.1,1c0.9,0.7,1.4,1.9,1.3,3.1c0,0.6-0.1,1.1-0.4,1.6
		c-0.2,0.5-0.5,0.9-0.9,1.2c-0.4,0.3-0.8,0.6-1.2,0.8l4,5.9h-3.2l-3.2-5.2h-1.5v5.2h-2.9v-13.6H356.7z M356.5,240.8h-0.9v3.7h0.9
		c0.7,0.1,1.4-0.1,2-0.5c0.4-0.3,0.7-0.9,0.6-1.4c0-0.5-0.2-1.1-0.7-1.4C357.9,240.9,357.2,240.7,356.5,240.8z M375.9,252h-7.8
		v-13.6h7.8v2.4H371v3h4.6v2.4H371v3.5h4.9V252z M387.3,240.6c-1-0.1-2,0.4-2.5,1.2c-0.6,1-0.9,2.2-0.9,3.4
		c-0.1,1.2,0.2,2.3,0.8,3.4c0.6,0.8,1.6,1.3,2.6,1.2c0.6,0,1.1-0.1,1.7-0.2c0.6-0.1,1.2-0.3,1.8-0.5v2.4c-0.6,0.2-1.2,0.4-1.8,0.5
		c-0.6,0.1-1.3,0.2-2,0.2c-1.2,0.1-2.4-0.2-3.5-0.9c-0.9-0.6-1.6-1.4-2-2.4c-0.5-1.2-0.7-2.4-0.6-3.7c0-1.2,0.2-2.5,0.7-3.6
		c0.5-1,1.2-1.9,2.2-2.5c1-0.6,2.3-0.9,3.5-0.9c0.7,0,1.4,0.1,2,0.3c0.7,0.2,1.3,0.4,1.9,0.7l-0.9,2.3c-0.5-0.2-1-0.4-1.5-0.6
		C388.4,240.7,387.9,240.6,387.3,240.6z M400.8,244l2.8-5.6h3.1l-4.5,8.3v5.3h-2.8v-5.2l-4.5-8.4h3.1L400.8,244z M416.6,240.6
		c-1-0.1-2,0.4-2.5,1.2c-0.6,1-0.9,2.2-0.9,3.4c-0.1,1.2,0.2,2.3,0.8,3.4c0.6,0.8,1.6,1.3,2.6,1.2c0.6,0,1.1-0.1,1.7-0.2
		c0.6-0.1,1.2-0.3,1.8-0.5v2.4c-0.6,0.2-1.2,0.4-1.8,0.5c-0.6,0.1-1.3,0.2-2,0.2c-1.2,0.1-2.4-0.2-3.5-0.9c-0.9-0.6-1.6-1.4-2-2.4
		c-0.5-1.2-0.7-2.4-0.6-3.7c0-1.2,0.2-2.5,0.7-3.6c0.5-1,1.2-1.9,2.2-2.5c1-0.6,2.2-0.9,3.5-0.9c0.7,0,1.4,0.1,2,0.3
		c0.7,0.2,1.3,0.4,1.9,0.7l-0.9,2.3c-0.5-0.2-1-0.4-1.5-0.6C417.6,240.7,417.1,240.6,416.6,240.6z M425.8,252v-13.6h2.9v11.2h5.5
		v2.4H425.8z M447.2,252h-7.8v-13.6h7.8v2.4h-4.9v3h4.6v2.4h-4.6v3.5h4.9V252z M468.7,248.2c0,1.1-0.4,2.2-1.3,2.9
		c-1.1,0.8-2.4,1.2-3.7,1.1c-1.3,0-2.6-0.3-3.8-0.8v-2.7c0.6,0.3,1.3,0.5,2,0.8c0.7,0.2,1.4,0.3,2.1,0.4c0.5,0.1,1.1-0.1,1.5-0.4
		c0.3-0.3,0.5-0.6,0.4-1c0-0.3-0.1-0.6-0.4-0.9c-0.3-0.3-0.6-0.5-0.9-0.7c-0.4-0.2-0.8-0.4-1.3-0.7c-0.3-0.2-0.7-0.3-1-0.5
		c-0.4-0.2-0.7-0.5-1.1-0.8c-0.3-0.3-0.6-0.7-0.8-1.1c-0.2-0.5-0.3-1-0.3-1.6c-0.1-1.1,0.4-2.1,1.2-2.8c1-0.7,2.2-1.1,3.4-1
		c0.7,0,1.4,0.1,2,0.2c0.7,0.2,1.4,0.4,2,0.7l-0.9,2.2c-0.5-0.2-1.1-0.4-1.7-0.6c-0.5-0.1-1-0.2-1.5-0.2c-0.5,0-0.9,0.1-1.3,0.4
		c-0.3,0.2-0.4,0.6-0.4,1c0,0.5,0.2,0.9,0.6,1.1c0.6,0.4,1.3,0.7,1.9,1c0.6,0.3,1.2,0.6,1.8,1c0.5,0.3,0.9,0.8,1.1,1.3
		C468.6,247,468.7,247.6,468.7,248.2z M481.8,252H474v-13.6h7.8v2.4h-4.9v3h4.6v2.4h-4.6v3.5h4.9V252z M491.4,238.4
		c1.4-0.1,2.9,0.2,4.1,1c0.9,0.7,1.4,1.9,1.3,3.1c0,0.6-0.1,1.1-0.4,1.6c-0.2,0.5-0.5,0.9-0.9,1.2c-0.4,0.3-0.8,0.6-1.2,0.8l4,5.9
		h-3.2l-3.2-5.2h-1.5v5.2h-2.9v-13.6H491.4z M491.2,240.8h-0.9v3.7h0.9c0.7,0.1,1.4-0.1,2-0.5c0.4-0.3,0.7-0.9,0.6-1.4
		c0-0.5-0.2-1.1-0.7-1.4C492.7,240.9,491.9,240.7,491.2,240.8z M513.5,238.4l-4.6,13.6h-3.1l-4.6-13.6h2.9l2.5,8.1l0.2,0.8
		c0.1,0.4,0.2,0.8,0.3,1.2c0.1,0.3,0.2,0.7,0.2,1c0-0.3,0.1-0.6,0.2-1s0.2-0.8,0.3-1.2c0.1-0.4,0.2-0.6,0.2-0.8l2.6-8.1H513.5z
		 M523.2,252H517v-1.6l1.7-0.8v-8.8l-1.7-0.8v-1.6h6.2v1.6l-1.7,0.8v8.8l1.7,0.8V252z M534.1,240.6c-1-0.1-2,0.4-2.5,1.2
		c-0.6,1-0.9,2.2-0.9,3.4c-0.1,1.2,0.2,2.3,0.8,3.4c0.6,0.8,1.6,1.3,2.6,1.2c0.6,0,1.1-0.1,1.7-0.2c0.6-0.1,1.2-0.3,1.8-0.5v2.4
		c-0.6,0.2-1.2,0.4-1.8,0.5c-0.6,0.1-1.3,0.2-2,0.2c-1.2,0.1-2.4-0.2-3.5-0.9c-0.9-0.6-1.6-1.4-2-2.4c-0.5-1.2-0.7-2.4-0.6-3.7
		c0-1.2,0.2-2.5,0.7-3.6c0.5-1,1.2-1.9,2.2-2.5c1-0.6,2.2-0.9,3.5-0.9c0.7,0,1.4,0.1,2,0.3c0.7,0.2,1.3,0.4,1.9,0.7l-0.9,2.3
		c-0.5-0.2-1-0.4-1.5-0.6C535.1,240.7,534.6,240.6,534.1,240.6z M551.1,252h-7.8v-13.6h7.8v2.4h-4.9v3h4.6v2.4h-4.6v3.5h4.9V252z"/>
	<g id="グループ_927" transform="translate(73 -17)">
		<rect id="長方形_303" x="1104" y="216" class="st0" width="2" height="262"/>
		<rect id="長方形_304" x="1146" y="216" class="st0" width="2" height="262"/>
		<g id="グループ_1224" transform="translate(685.325 -173.34)">
			<path id="パス_2508" class="st0" d="M448.8,407.2c0.9,0,1.7-0.1,2.5-0.1c0.7,0,0.8,0.3,0.8,1.1v1.1c0,0.8-0.1,1.1-0.8,1.1
				c-0.8,0-1.6-0.1-2.4-0.1c-0.3,0-0.7,0-0.7,0.4c0.3,0.7,0.7,1.4,1.2,2.1c0.8,1.3,1.8,2.5,3,3.5c0.1,0.1,0.3,0.3,0.3,0.4
				c-0.5,1.1-1.4,2-2.4,2.5c-0.6,0-2.4-2.5-2.8-3.1c-0.5-0.7-0.9-1.5-1.3-2.3c-0.2-0.3-0.2-0.5-0.4-0.5c-0.2,0-0.3,0.2-0.4,0.4
				c-1,2-2.3,3.7-3.9,5.2c-0.1,0.1-0.3,0.2-0.4,0.2c-0.6,0-2-1.2-2.3-1.8c-0.1-0.2-0.3-0.5-0.5-0.5c-0.1,0-1,0.2-1.2,0.3
				c-1.5,0.4-3.2,0.7-4.7,1c-0.8,0.1-0.8,0.1-0.9,0.5c-0.1,0.2-0.2,0.3-0.4,0.3c-0.2,0-0.5-0.6-0.8-1.6c-0.1-0.3-0.3-0.7-0.4-1.1
				c-0.1-0.2-0.2-0.5-0.2-0.7c0-0.3,0.1-0.3,2.7-0.5c0.4,0,0.9-0.2,0.9-0.7v-3.9c0-0.4-0.3-0.7-0.7-0.7c-0.6,0-1.3,0-1.9,0
				c-0.5,0-0.5-0.2-0.5-0.9v-1.2c0-0.7,0-0.9,0.5-0.9c0.7,0,1.4,0,2.1,0c0.3,0,0.5-0.2,0.6-0.5c0,0,0-0.1,0-0.1
				c0-0.4-0.1-0.6-0.5-0.6s-0.8,0-1.2,0c-0.6,0-0.5-0.3-0.5-0.8c-0.1-0.3-0.3-0.7-0.5-0.9c-0.2-0.3-0.9-1-0.9-1.4
				c0-0.2,0.2-0.4,0.6-0.7c1.7-1.6,3-3.5,3.8-5.6c0-0.2,0.1-0.4,0.4-0.4c0.1,0,1.2,0.4,2.1,0.8c0.4,0.1,0.8,0.3,0.9,0.3
				c0.2,0.1,0.4,0.2,0.4,0.4c0,0.1-0.1,0.3-0.2,0.3c-0.1,0-0.2,0.1-0.2,0.2c0,0.1,0.1,0.1,0.1,0.2c0.1,0.1,0.3,0.2,0.4,0.4
				c0.7,0.7,1.4,1.3,2.2,1.8c0.3,0,0.3-0.2,0.4-0.9c0-0.3,0.2-1.3,0.2-1.6c0-0.2,0-0.5,0.3-0.5c0.8,0.1,1.6,0.3,2.3,0.5
				c0.2,0,0.3,0.1,0.5,0.1c0.2,0,0.3-0.2,0.3-0.4c0-0.3,0-0.7,0-0.9c0-0.4,0.2-0.4,0.5-0.4s2.8,0.1,3.1,0.2c0.2,0,0.4,0.1,0.4,0.4
				c0,0.2-0.1,0.2-0.3,0.3c-0.3,0.2-0.4,0.4-0.4,0.7v1.9c0,0.4,0.3,0.7,0.7,0.7h0h1.2c0.8,0,1.5-0.1,1.9-0.1c0.4,0,0.5,0.2,0.5,0.9
				v1.7c0,0.6,0,0.8-0.5,0.8c-0.5,0-1.1-0.1-1.9-0.1H448c-0.4,0-0.7,0.3-0.7,0.7c0,0,0,0,0,0.1v0.2c0,0.4,0,0.9,0,1.2
				c0,0.4,0.3,0.7,0.7,0.8c0,0,0,0,0,0L448.8,407.2z M432.6,412c0.1,0.3,0.4,1.8,0.4,2.1c0,0.7-1.9,1-2,1c-0.4,0-0.4-0.3-0.5-0.6
				c-0.2-1-0.4-2-0.8-3c0-0.1-0.1-0.2-0.1-0.3c0-0.5,2-0.8,2.1-0.8C432.1,410.3,432.2,410.4,432.6,412L432.6,412z M436.5,403.1
				c0.4,0,0.6,0,0.6-0.3c0-0.2-0.2-0.4-0.3-0.5c-0.2-0.2-0.7-0.7-0.9-0.9c-0.1-0.1-0.2-0.3-0.4-0.3s-0.3,0.2-0.4,0.4
				c-0.1,0.2-0.5,0.7-0.7,1c-0.1,0.1-0.2,0.2-0.2,0.4c0,0.3,0.5,0.3,0.7,0.3L436.5,403.1z M436.5,406.6c0,0.3,0.2,0.5,0.5,0.5
				c0,0,0,0,0,0c0.5,0,1.1,0,1.6,0c0.5,0,0.5,0.2,0.5,0.9v1.1c0,0.6,0,0.9-0.5,0.9s-1,0-1.5,0c-0.4,0-0.7,0.3-0.7,0.7v3.3
				c0,0.3,0.2,0.5,0.5,0.5c0,0,0,0,0,0c0,0,0.8-0.1,0.8-0.3c0-0.1-0.4-0.2-0.5-0.2c-0.5-0.2-0.8-0.3-0.8-0.6c0-0.1,0-0.2,0.1-0.3
				c0.3-0.8,0.5-1.7,0.7-2.5c0-0.2,0-0.4,0.3-0.4c0.5,0.1,1,0.3,1.5,0.5c1,0.3,1.2,0.4,1.2,0.6c0,0.2-0.2,0.3-0.3,0.4
				c-0.3,0.1-0.3,0.2-0.5,0.8c-0.1,0.4-0.2,0.7-0.4,1c-0.1,0.2-0.1,0.3-0.1,0.5c0,0.1,0,0.2,0.1,0.3c0.1,0.4,0.1,0.8,0.1,1.2v0.3
				c0,0.2,0.1,0.3,0.2,0.3c0.6,0,3.4-4.5,3.4-5.2c0-0.3-0.4-0.4-0.6-0.4c-0.6,0-1.1,0-1.7,0c-0.8,0-0.8-0.3-0.8-1.3v-0.8
				c0-0.9,0-1,0.3-1.2c0.1,0,0.1-0.1,0.1-0.1c0-0.2-0.2-0.2-0.3-0.3c-0.3-0.1-1.1-0.5-1.1-0.8c0-0.2,0.1-0.3,0.1-0.5
				c0.4-1,0.7-2.1,0.9-3.1c0-0.1,0-0.1,0-0.2c0-0.1-0.1-0.1-0.2-0.1c0,0-0.1,0.1-0.1,0.1c-0.1,0.1-0.2,0.3-0.3,0.4
				c-0.4,0.4-0.5,0.5-0.5,0.9c0,0.1,0,0.4,0,0.7v1.1c0,0.5-0.1,0.7-0.5,0.7c-0.4,0-0.8,0-1.2,0c-0.3,0-0.5,0.2-0.5,0.5L436.5,406.6z
				 M443,404.2c-0.4,0-0.6,0.3-0.7,0.6c-0.2,0.6-0.4,1.2-0.6,1.7c0,0.1-0.1,0.2-0.1,0.3c0,0.2,0.2,0.3,0.4,0.3c0.4,0,0.7,0,1,0
				c0.8,0,0.9-0.3,0.9-2.3c0-0.4-0.3-0.7-0.7-0.7c0,0,0,0,0,0H443z M443.6,400.9c0.2,0,0.3-0.1,0.3-0.3v-1.2c0-0.1-0.1-0.2-0.1-0.2
				c-0.3,0-0.4,0.5-0.5,1c0,0.1,0,0.3,0,0.4v0.1C443.3,400.8,443.4,400.9,443.6,400.9L443.6,400.9z"/>
			<path id="パス_2509" class="st0" d="M444.6,424.6c0.1,2-1.3,3.6-3.3,3.8c-0.1,0-0.3,0-0.4,0c-1.8,0.1-3.3-1.3-3.3-3
				c0-0.1,0-0.1,0-0.2c-0.1-1.9,1.4-3.6,3.3-3.7c0.1,0,0.3,0,0.4,0c1.7-0.1,3.2,1.2,3.3,2.9C444.6,424.5,444.6,424.6,444.6,424.6z"
				/>
			<path id="パス_2510" class="st0" d="M434.2,440.3c-1,0-2,0-2.9,0c-0.6,0-0.6-0.3-0.6-1.1V438c0-0.9,0-1.1,0.6-1.1
				c1,0,1.9,0,2.9,0h1.5c0.6,0,0.7-0.6,0.7-1.4c0-0.6-0.1-1.2-0.1-1.7c0-0.4,0.3-0.4,0.6-0.4s3.1,0.1,3.4,0.2c0.2,0,0.4,0.1,0.4,0.4
				c0,0.2-0.2,0.2-0.3,0.3c-0.3,0.2-0.4,0.3-0.4,1.1v7.1c0,1,0,2.4,0,2.6c0,0.6,0.2,0.6,0.5,0.8c0.5,0.2,0.6,2.1,0.6,2.5
				s-0.1,0.5-0.6,0.6c-1,0.2-1.2,0.7-1.7,1.7c-0.8,1.5-2,2.8-3.4,3.8c-0.7,0.5-1.5,0.9-2.3,1.2c-0.9,0-2.1-1.8-2.1-2.3
				c0-0.3,0.4-0.5,0.6-0.6c1-0.4,3.1-1.8,3.1-2.4c0-0.2-0.2-0.2-0.4-0.2c-0.2,0-2.2,0.4-2.4,0.4c-0.2,0.1-0.3,0.2-0.3,0.3
				c-0.1,0.2-0.2,0.4-0.4,0.4s-0.4-0.2-0.5-0.6c-0.3-1-0.5-2.1-0.7-3.1c0-0.4,0.2-0.4,0.7-0.5c1.2-0.1,2.9-0.3,4.1-0.4
				c0.6-0.1,1.5-0.1,1.5-0.9c0-0.3-0.2-0.6-0.5-0.6c-0.1,0-0.1,0-0.2,0h-1.2c-0.9,0-1.8,0.1-2.7,0.1c-0.6,0-0.6-0.3-0.6-1.1v-1.3
				c0-0.9,0-1.1,0.6-1.1c0.9,0,1.8,0.1,2.7,0.1h1.2c0.4,0,0.7-0.3,0.7-0.7v0V441c0-0.4-0.3-0.7-0.7-0.7c0,0,0,0,0,0L434.2,440.3z
				 M442,435.4c0-0.4-0.1-1.3-0.1-1.6c0-0.3,0.2-0.3,0.5-0.3c0.9,0,2.1,0.1,3,0.1c0.2,0,0.7,0,0.7,0.4c0,0.2-0.1,0.2-0.2,0.4
				c-0.2,0.2-0.2,0.7-0.2,1.2v0.7c0,0.5,0.2,0.8,0.7,0.8h2c1,0,1.9-0.1,2.9-0.1c0.6,0,0.6,0.2,0.6,0.9v1.4c0,0.8,0,1-0.6,1
				c-1,0-2,0-2.9,0h-2c-0.4,0-0.7,0.3-0.7,0.7c0,0,0,0,0,0v0.7c0,0.4,0.3,0.7,0.7,0.7c0,0,0,0,0,0h1.1c1,0,2.1-0.1,3.1-0.1
				c0.6,0,0.7,0.3,0.7,1.1v1.4c0,0.8,0,1.1-0.7,1.1c-1,0-2.1-0.1-3.1-0.1h-1.1c-0.4,0-0.7,0.3-0.7,0.7v0v0.7c0,0.4,0.3,0.7,0.7,0.7
				h0h2.3c1,0,2-0.1,3-0.1c0.5,0,0.6,0.3,0.6,1.1v1.2c0,0.8,0,1-0.6,1c-1,0-2-0.1-3-0.1h-2.3c-0.6,0-0.7,0.7-0.7,1.2v0.3
				c0,0.9,0.1,1.9,0.1,2.8c0,0.7-0.3,0.7-1.1,0.7H443c-0.8,0-1.1,0-1.1-0.7c0-1.2,0.1-2.3,0.1-3.4V435.4z"/>
			<path id="パス_2511" class="st0" d="M448.8,470.8c0.9,0,1.7-0.1,2.5-0.1c0.7,0,0.8,0.3,0.8,1.1v1.1c0,0.8-0.1,1.1-0.8,1.1
				c-0.8,0-1.6-0.1-2.4-0.1c-0.3,0-0.7,0-0.7,0.4c0.3,0.7,0.7,1.4,1.2,2.1c0.8,1.3,1.8,2.5,3,3.5c0.1,0.1,0.3,0.3,0.3,0.5
				c-0.5,1.1-1.4,2-2.4,2.5c-0.6,0-2.4-2.5-2.8-3.1c-0.5-0.7-0.9-1.5-1.3-2.3c-0.2-0.3-0.2-0.5-0.4-0.5c-0.2,0-0.3,0.2-0.4,0.4
				c-1,2-2.3,3.7-3.9,5.2c-0.1,0.1-0.3,0.2-0.4,0.2c-0.6,0-2-1.2-2.3-1.8c-0.1-0.2-0.3-0.4-0.5-0.4c-0.1,0-1,0.2-1.2,0.3
				c-1.5,0.4-3.2,0.7-4.7,1c-0.8,0.1-0.8,0.1-0.9,0.5c-0.1,0.2-0.2,0.3-0.4,0.4c-0.2,0-0.5-0.6-0.8-1.6c-0.1-0.3-0.3-0.7-0.4-1.2
				c-0.1-0.2-0.2-0.5-0.2-0.7c0-0.3,0.1-0.3,2.7-0.6c0.4,0,0.9-0.2,0.9-0.7v-3.9c0-0.4-0.3-0.7-0.7-0.7c-0.6,0-1.3,0.1-1.9,0.1
				c-0.5,0-0.5-0.2-0.5-0.9v-1.2c0-0.6,0-0.8,0.5-0.8c0.7,0,1.4,0,2.1,0c0.3,0,0.5-0.2,0.6-0.5c0,0,0-0.1,0-0.1
				c0-0.4-0.1-0.6-0.5-0.6s-0.8,0-1.2,0c-0.6,0-0.5-0.3-0.5-0.8c-0.1-0.3-0.3-0.7-0.5-0.9c-0.2-0.3-0.9-1-0.9-1.4
				c0-0.2,0.2-0.4,0.6-0.7c1.7-1.6,3-3.5,3.8-5.6c0-0.2,0.1-0.4,0.4-0.4c0.1,0,1.2,0.4,2.1,0.8c0.4,0.1,0.8,0.3,0.9,0.3
				c0.2,0.1,0.4,0.2,0.4,0.4c0,0.1-0.1,0.3-0.2,0.3c-0.1,0-0.2,0.1-0.2,0.2c0,0.1,0.1,0.2,0.1,0.2c0.1,0.1,0.3,0.3,0.4,0.4
				c0.7,0.7,1.4,1.3,2.2,1.8c0.3,0,0.3-0.2,0.4-0.9c0-0.3,0.2-1.3,0.2-1.6c0-0.2,0-0.6,0.3-0.6c0.8,0.1,1.6,0.3,2.3,0.6
				c0.2,0,0.3,0.1,0.5,0.1c0.2,0,0.3-0.2,0.3-0.3c0-0.3,0-0.7,0-0.9c0-0.4,0.2-0.4,0.5-0.4s2.8,0.1,3.1,0.2c0.2,0.1,0.4,0.1,0.4,0.4
				c0,0.2-0.1,0.2-0.3,0.3c-0.3,0.2-0.4,0.4-0.4,0.7v1.9c0,0.4,0.3,0.7,0.7,0.7h0h1.2c0.8,0,1.5-0.1,1.9-0.1c0.4,0,0.5,0.2,0.5,0.9
				v1.7c0,0.6,0,0.9-0.5,0.9c-0.5,0-1.1-0.1-1.9-0.1H448c-0.4,0-0.7,0.3-0.7,0.7c0,0,0,0,0,0.1v0.2c0,0.4,0,0.9,0,1.2
				c0,0.4,0.3,0.7,0.7,0.8c0,0,0,0,0,0L448.8,470.8z M432.6,475.6c0.1,0.4,0.4,1.8,0.4,2.1c0,0.7-1.9,1-2,1c-0.4,0-0.4-0.3-0.5-0.6
				c-0.2-1-0.4-2-0.8-3c0-0.1-0.1-0.2-0.1-0.3c0-0.5,2-0.8,2.1-0.8C432.1,473.9,432.2,474,432.6,475.6L432.6,475.6z M436.5,466.7
				c0.4,0,0.6,0,0.6-0.3c0-0.2-0.2-0.4-0.3-0.5c-0.2-0.2-0.7-0.7-0.9-0.9c-0.1-0.1-0.2-0.3-0.4-0.3s-0.3,0.2-0.4,0.4
				c-0.1,0.2-0.5,0.7-0.7,0.9c-0.1,0.1-0.2,0.2-0.2,0.4c0,0.3,0.5,0.3,0.7,0.3L436.5,466.7z M436.5,470.3c0,0.3,0.2,0.5,0.5,0.5
				c0,0,0,0,0,0c0.5,0,1.1,0,1.6,0c0.5,0,0.5,0.2,0.5,0.9v1.1c0,0.6,0,0.9-0.5,0.9s-1-0.1-1.5-0.1c-0.4,0-0.7,0.3-0.7,0.7v3.4
				c0,0.3,0.2,0.5,0.5,0.5c0,0,0,0,0,0c0,0,0.8-0.1,0.8-0.3c0-0.1-0.4-0.2-0.5-0.2c-0.5-0.2-0.8-0.3-0.8-0.6c0-0.1,0-0.2,0.1-0.3
				c0.3-0.8,0.5-1.7,0.7-2.6c0-0.2,0-0.4,0.3-0.4c0.5,0.1,1,0.3,1.5,0.5c1,0.4,1.2,0.4,1.2,0.7c0,0.2-0.2,0.3-0.3,0.3
				c-0.3,0.1-0.3,0.2-0.5,0.9c-0.1,0.3-0.2,0.7-0.4,1c-0.1,0.2-0.1,0.3-0.1,0.5c0,0.1,0,0.2,0.1,0.3c0.1,0.4,0.1,0.8,0.1,1.2v0.3
				c0,0.2,0.1,0.3,0.2,0.3c0.6,0,3.4-4.5,3.4-5.2c0-0.3-0.4-0.4-0.6-0.4c-0.6,0-1.1,0-1.7,0c-0.8,0-0.8-0.3-0.8-1.3V472
				c0-0.9,0-1,0.3-1.2c0.1,0,0.1-0.1,0.1-0.2c0-0.1-0.2-0.2-0.3-0.3c-0.3-0.1-1.1-0.5-1.1-0.8c0-0.2,0.1-0.3,0.1-0.5
				c0.4-1,0.7-2.1,0.9-3.1c0-0.1,0-0.1,0-0.2c0-0.1-0.1-0.1-0.2-0.1c0,0-0.1,0.1-0.1,0.1c-0.1,0.1-0.2,0.3-0.3,0.4
				c-0.4,0.4-0.5,0.5-0.5,0.9c0,0.1,0,0.4,0,0.7v1.1c0,0.5-0.1,0.7-0.5,0.7c-0.4,0-0.8,0-1.2,0c-0.3,0-0.5,0.2-0.5,0.5L436.5,470.3z
				 M443,467.8c-0.4,0-0.6,0.3-0.7,0.6c-0.2,0.6-0.4,1.2-0.6,1.7c0,0.1-0.1,0.2-0.1,0.4c0,0.2,0.2,0.3,0.4,0.3c0.4,0,0.7,0,1,0
				c0.8,0,0.9-0.3,0.9-2.3c0-0.4-0.3-0.7-0.7-0.7c0,0,0,0,0,0H443z M443.6,464.5c0.2,0,0.3-0.1,0.3-0.3V463c0-0.1-0.1-0.2-0.1-0.2
				c-0.3,0-0.4,0.5-0.5,0.9c0,0.1,0,0.3,0,0.4v0.1C443.3,464.4,443.4,464.5,443.6,464.5L443.6,464.5z"/>
			<path id="パス_2512" class="st0" d="M434.2,509.1c-1.1,0-2.2,0.1-3.3,0.1c-0.5,0-0.6-0.3-0.6-1v-1.5c0-0.8,0-1,0.6-1
				c1.1,0,2.2,0,3.3,0h0.3c0.1,0,0.5,0,0.5-0.4c-0.3-0.8-0.7-1.5-1.2-2.1c-0.1-0.1-0.1-0.2-0.2-0.3c-0.1-0.1-0.2-0.3-0.2-0.4
				c0-0.3,0.5-0.5,0.7-0.6c0.1-0.1,0.2-0.1,0.2-0.2s-0.1-0.1-0.2-0.1c-0.3,0-0.6,0-1,0c-0.6,0-0.6-0.4-0.6-1.1v-1.1c0-0.8,0-1,0.7-1
				c1,0,2,0.1,3,0.1h2.3c0.3,0,0.6-0.3,0.6-0.6v-0.5c0-0.2-0.1-0.4-0.3-0.4h-0.3c-0.7,0-1.4,0-2,0c-0.6,0-0.7-0.3-0.7-0.8
				c0-0.2,0-0.5-0.3-0.5c-0.1,0-0.3,0.1-0.4,0.2c-0.6,0.5-1.9,1.3-2.6,1.7c-0.2,0.2-0.5,0.3-0.7,0.3c-1,0-2.2-2-2.2-2.7
				c0-0.2,0.2-0.3,0.7-0.6c3.6-1.6,6.6-4.1,8.8-7.4c0.1-0.2,0.2-0.3,0.4-0.3c0.4,0,2.2,0.3,2.8,0.4c0.9,0.1,1.5,0.2,1.5,0.6
				c0,0.1-0.1,0.2-0.2,0.3c-0.1,0-0.1,0.1-0.1,0.2c0,0.2,0.3,0.4,0.5,0.7c2.1,2.2,4.7,4,7.5,5.1c0.7,0.3,0.9,0.4,0.9,0.7
				c0,0.9-0.9,2.9-1.7,2.9c-1.3-0.5-2.6-1.2-3.8-2.1c-0.1-0.1-0.2-0.1-0.4-0.1c-0.3,0-0.3,0.4-0.3,0.6c0,0.5-0.1,0.8-0.7,0.8
				c-0.7,0-1.4,0-2,0h-0.2c-0.2,0-0.3,0.1-0.3,0.3v0.6c0,0.3,0.3,0.6,0.6,0.6h2.3c1,0,2-0.1,3-0.1c0.6,0,0.7,0.2,0.7,1.1v1.1
				c0,0.7,0,1-0.7,1c-0.2,0-0.4,0-0.6,0c-0.1,0-0.3,0-0.3,0.1s0.4,0.3,0.8,0.5c0.2,0.1,0.5,0.2,0.5,0.5c0,0.2-0.2,0.2-0.4,0.3
				c-0.3,0.1-0.3,0.1-0.8,1c-0.1,0.3-0.3,0.6-0.5,1c-0.1,0.1-0.1,0.3-0.1,0.4c0,0.4,0.4,0.4,0.6,0.4c1,0,2,0,3.1,0
				c0.6,0,0.6,0.3,0.6,1v1.4c0,0.8,0,1.1-0.6,1.1c-1.1,0-2.2-0.1-3.3-0.1L434.2,509.1z M438.5,505.8c0.4,0,0.7-0.3,0.7-0.7
				c0,0,0,0,0,0v-2.9c0-0.4-0.3-0.7-0.7-0.7h-1.2c-0.2,0-0.6,0-0.6,0.3c0,0.2,0.1,0.3,0.2,0.4c0.6,0.8,1,1.7,1.4,2.6
				c0,0.3-0.4,0.5-0.6,0.6c0,0-0.1,0.1-0.1,0.2c0,0.1,0.1,0.1,0.2,0.1L438.5,505.8z M443.5,493.9c0.2,0,0.4,0,0.4-0.2
				c0-0.1-0.2-0.3-0.3-0.4c-0.7-0.6-1.3-1.2-1.9-1.9c-0.2-0.2-0.5-0.5-0.8-0.5s-0.8,0.5-1.4,1.2c-0.4,0.4-0.8,0.8-1.3,1.2
				c-0.1,0.1-0.3,0.2-0.3,0.4c0,0.2,0.2,0.2,0.6,0.2H443.5z M444.5,505.8c0.1,0,0.2,0,0.2-0.1c0-0.1-0.1-0.2-0.2-0.2
				c-0.2-0.1-0.6-0.3-0.6-0.6c0-0.2,0.2-0.4,0.3-0.6l0.1-0.2c0.4-0.7,0.7-1.3,1-2c0-0.3-0.3-0.4-0.6-0.4h-1c-0.4,0-0.7,0.3-0.7,0.7
				v0v2.9c0,0.4,0.3,0.7,0.6,0.7c0,0,0,0,0.1,0L444.5,505.8z"/>
			<path id="パス_2513" class="st0" d="M439.5,535.1c-0.1,0.1-0.2,0.1-0.3,0.1c-0.2,0-0.2-0.1-0.4-0.7c0-0.1-0.1-0.3-0.1-0.4
				c-0.1-0.5-0.3-1-0.4-1.5c0-0.3,0.1-0.3,1.1-0.4c1.4-0.1,1.6,0,1.6-0.4v-0.4c0-0.3-0.2-0.5-0.5-0.5h-1.9c-0.4,0-0.7,0.3-0.7,0.7
				l0,0v2.4c0,0.7,0,1.3,0,2c0,0.6-0.2,0.6-0.9,0.6h-1.5c-0.7,0-1-0.1-1-0.7c0-0.7,0-1.3,0-1.9v-2.4c0-0.8,0-1.6,0-2.2
				c0-0.8,0.7-0.9,1.4-0.9c0.8,0,1.6,0.1,2.4,0.1h2.3c0.2,0,0.3-0.1,0.3-0.3v-0.1c0-0.2-0.1-0.3-0.3-0.3H439c-0.7,0-1.4,0.1-2,0.1
				c-0.8,0-1.2-0.2-1.2-1.1c0-0.4,0-0.9,0-1.3v-0.3c0-0.5,0-0.9,0-1.3c0-0.8,0.4-1.1,1.2-1.1c0.7,0,1.4,0.1,2,0.1h1.6
				c0.1,0,0.4,0,0.4-0.2c0-0.1-0.1-0.2-0.2-0.3c0,0,0,0,0,0c-1.3,0-2.7,0.1-4,0.1c-0.4,0-0.5-0.1-0.7-0.4c-0.1-0.4-0.2-0.9-0.2-1.3
				c0-0.4,0.3-0.4,0.8-0.4h0.4c2.8,0,5.5-0.2,8.2-0.4c0.2,0,0.2-0.1,0.2-0.1c0-0.1-0.1-0.1-0.2-0.1h-10.1c-0.3,0-0.6,0.2-0.6,0.6
				c0,0,0,0,0,0v0.9c0,5.5,0,9.6-1.5,14.4c-0.2,0.8-0.4,0.9-0.8,0.9c-0.6,0-2.9-0.6-2.9-1.3c0-0.3,0.1-0.5,0.2-0.8
				c1.3-3,1.5-7.5,1.5-11.2v-6.4c0-0.4,0-0.8,0-1.2c0-1,0.5-1.2,1.4-1.2c0.9,0,1.7,0.1,2.5,0.1h11.8c0.8,0,1.5-0.1,2.3-0.1
				c0.8,0,1.7,0.1,1.7,1.1c0,0.2,0,0.4,0,0.7c0,0.2,0,0.4,0,0.6v0.6c0,0.4,0.1,0.9,0.1,1.3c0,0.8-0.8,1-1.5,1H449
				c-0.3,0-0.5,0-0.5,0.3c0.1,0.3,0.3,0.6,0.5,0.9c0.1,0.1,0.2,0.3,0.2,0.3c0.1,0.1,0.2,0.3,0.2,0.5c0,0.1-0.1,0.2-0.2,0.3
				c0,0,0,0,0,0c-0.1,0-0.2,0-0.4-0.1c-0.1-0.1-0.3-0.1-0.4-0.1c-0.2,0-0.4,0-0.6,0.1c-1,0.1-1.6,0.2-2.1,0.2
				c-1.1,0.1-1.2,0.2-1.2,0.4v0.1c0,0.2,0.1,0.3,0.3,0.3c0,0,0,0,0,0h2c0.7,0,1.3-0.1,2-0.1c0.8,0,1.2,0.2,1.2,1.1
				c0,0.4,0,0.9,0,1.3v0.3c0,0.4,0,0.9,0,1.3c0,0.8-0.4,1.1-1.2,1.1c-0.7,0-1.4-0.1-2-0.1h-2c-0.2,0-0.3,0.1-0.3,0.3v0.1
				c0,0.2,0.1,0.3,0.3,0.3h2.9c0.8,0,1.6-0.1,2.5-0.1c0.7,0,1.4,0.1,1.4,0.9c0,0.6,0,1.3,0,2.2v0.9c0,0.6,0,1.2,0,1.8
				c0,2.1-2.1,2.3-3.7,2.3c-0.5,0-0.8-0.2-1-1.2c0-0.3-0.2-0.5-0.5-0.5c-0.1,0-0.2-0.3-0.3-0.5c0-0.3-0.3-0.5-0.6-0.5
				c-0.1,0-0.6,0.1-0.8,0.1c-0.9,0.2-1.8,0.3-2.7,0.4c-0.6,0.1-1.3,0.1-1.9,0.2C439.6,534.9,439.6,534.9,439.5,535.1z M446.9,517.8
				c0.2,0,0.3-0.1,0.3-0.3v-0.1c0-0.2-0.1-0.3-0.3-0.3H435c-0.2,0-0.3,0.1-0.3,0.3c0,0,0,0,0,0v0.1c0,0.2,0.1,0.3,0.3,0.3H446.9z
				 M439.2,525.2c-0.2,0-0.3,0.1-0.3,0.3v0.1c0,0.2,0.1,0.3,0.3,0.3h1.5c0.2,0,0.3-0.1,0.3-0.3v-0.1c0-0.2-0.1-0.3-0.3-0.3H439.2z
				 M444.6,525.2c-0.2,0-0.3,0.1-0.3,0.3c0,0,0,0,0,0v0.1c0,0.2,0.1,0.3,0.3,0.3c0,0,0,0,0,0h1.7c0.2,0,0.3-0.1,0.3-0.3v-0.1
				c0-0.2-0.1-0.3-0.3-0.3H444.6z M444.6,531c-0.2,0-0.3,0.1-0.3,0.3v0.3c0,0.1,0.1,0.3,0.2,0.3c0,0,0,0,0,0c0.2,0,0.5,0,0.5-0.2
				c0-0.1,0-0.2,0-0.2c-0.1-0.4-0.1-0.4-0.3-0.4L444.6,531z M448.1,531.6c0-0.3-0.3-0.6-0.6-0.6h-0.1c-0.3,0-0.5,0.1-0.5,0.4
				c0,0.1,0.5,1.7,0.6,1.9c0,0.2,0.1,0.4,0.3,0.4c0.3,0,0.3-0.3,0.3-0.8L448.1,531.6z"/>
			<path id="パス_2514" class="st0" d="M433.4,544.8c0.3,0,0.6-0.3,0.6-0.6c0,0,0,0,0,0v-0.7c0-1.2-0.1-2-0.1-2.2
				c0-0.3,0.2-0.3,0.5-0.3c0.6,0,2.1,0.1,2.8,0.2c0.2,0,0.5,0.1,0.5,0.3c0,0.2-0.1,0.2-0.3,0.3c-0.2,0.1-0.2,0.2-0.2,0.7v1.6
				c0,0.3,0.3,0.6,0.6,0.6c0,0,0,0,0,0h0.5c0.1,0,0.2,0,0.2-0.2c0-0.1-0.1-0.2-0.3-0.3c-0.2-0.1-0.8-0.4-0.8-0.6
				c0-0.1,0-0.1,0.1-0.2c0.3-0.6,0.6-1.2,0.9-1.9c0-0.1,0.1-0.3,0.3-0.3c0.5,0.1,1.1,0.3,1.6,0.6c0.6,0.2,1,0.4,1,0.6
				c0,0.2-0.1,0.3-0.3,0.3c-0.1,0-0.2,0.2-0.4,0.5c-0.1,0.2-0.2,0.5-0.4,0.8c-0.1,0.1-0.1,0.2-0.1,0.2c0,0.2,0.2,0.2,0.4,0.2h0.4
				c0.5,0,0.5,0.2,0.5,0.8v1.3c0,0.6-0.1,0.8-0.5,0.8c-0.5,0-1-0.1-1.4-0.1c-0.2,0-0.4,0-0.4,0.3c0.7,0.8,1.5,1.5,2.4,2.1
				c0.2,0.1,0.4,0.2,0.4,0.4c0,0.6-1.7,2.1-2.2,2.1c-0.4,0-1.5-1.7-1.8-2.1c-0.1-0.1-0.1-0.2-0.2-0.2c-0.1,0-0.2,0.1-0.2,0.2
				c0,0,0,0,0,0c0,0.2,0,0.9,0,1.2c0,0.5-0.2,0.6-1,0.6h-1.5c-0.5,0-0.8-0.1-0.8-0.5c0-0.3,0-0.7,0-0.9c0-0.2-0.1-0.3-0.2-0.3
				s-0.4,0.3-0.5,0.4c-0.2,0.3-1.4,1.8-1.8,1.8c-0.4,0-1-0.7-1.3-1s-0.8-0.8-0.8-1.1c0-0.2,0.3-0.4,0.5-0.5c0.4-0.2,2.2-1.7,2.2-2.1
				c0-0.2-0.3-0.2-0.4-0.2c-0.4,0-0.8,0.1-1.1,0.1c-0.4,0-0.5-0.2-0.5-0.8v-1.3c0-0.6,0-0.8,0.5-0.8h0.3c0.2,0,0.3-0.1,0.3-0.3
				c0-0.1-0.1-0.3-0.2-0.4c-0.2-0.4-0.4-0.8-0.7-1.1c-0.1-0.1-0.1-0.2-0.1-0.3c0-0.5,2-1.2,2.3-1.2c0.5,0,1.4,2.2,1.4,2.3
				c0,0.3-0.7,0.7-1,0.8c-0.1,0-0.3,0.1-0.3,0.3c0,0.1,0.1,0.1,0.2,0.1L433.4,544.8z M437.2,553.6c0,0.4,0.3,0.7,0.7,0.7
				c0.9,0,1.7-0.1,2.6-0.1c0.6,0,0.7,0.2,0.7,0.9v1.2c0,0.7-0.1,0.9-0.7,0.9c-0.7,0-1.3,0-2,0c-0.2,0-0.4,0-0.4,0.3
				c0,0.5,1.8,2.1,2.2,2.4c0.1,0.1,0.2,0.2,0.2,0.3c-0.4,1-1.2,1.9-2.2,2.3c-0.4,0-1.7-1.7-2-2.1c-0.1-0.1-0.2-0.2-0.4-0.2
				c-0.2,0-0.5,0.2-0.6,0.4c-0.5,0.7-2.8,3.2-3.5,3.2c-0.6,0-2.2-2.2-2.2-2.5c0-0.2,0.2-0.3,0.4-0.3c1.4-0.7,3.4-2.9,3.4-3.3
				c0-0.2-0.2-0.3-0.4-0.3c-0.7,0-1.4,0-2.1,0c-0.6,0-0.6-0.2-0.6-0.9v-1.3c0-0.6,0-0.8,0.6-0.8c0.8,0,1.6,0.1,2.4,0.1
				c0.4,0,0.7-0.2,0.8-0.6c0,0,0-0.1,0-0.1v-0.2c0-0.2,0-0.4,0-0.5c0-0.3,0.1-0.5,0.4-0.5c0.9,0,1.5,0,2.6,0.1c0.7,0,0.9,0,0.9,0.3
				c0,0.2-0.1,0.2-0.2,0.3C437.3,553.3,437.2,553.4,437.2,553.6L437.2,553.6z M441.7,549.5c0-0.8,0-1.6,0-2.3c0-0.9,0.4-1.2,1.2-1.2
				h0.2c0.5,0,1-0.4,1-0.9c0,0,0,0,0-0.1c0-0.3-0.2-0.3-0.5-0.3c-0.6,0-1.3,0.1-1.9,0.1c-0.5,0-0.5-0.2-0.5-1v-1.2c0-0.7,0-1,0.5-1
				c0.6,0,1.4,0.1,2.2,0.1h5.3c0.9,0,1.6-0.1,2.2-0.1c0.5,0,0.5,0.2,0.5,0.8v1.5c0,0.7,0,0.9-0.5,0.9c-0.6,0-1.5-0.1-2.3-0.1h-0.5
				c-0.6,0-1.2,0.3-1.4,0.9c0,0.3,0.4,0.4,0.6,0.4c0.6,0,1.3,0,1.9,0c0.9,0,1.3,0.2,1.3,1.1c0,0.8-0.1,1.6-0.1,2.4v6
				c0,0.8,0.1,1.6,0.1,2.4c0,1.2-0.7,1.2-1.5,1.2c0,0-0.2,0-0.2,0c-0.1,0-0.2,0.1-0.2,0.2c0,0,0,0,0,0c0,0.3,2.3,1.5,2.7,1.7
				c0.2,0.1,0.4,0.2,0.4,0.4c0,0.6-1.3,2.3-1.9,2.3c-0.5,0-3.9-2.4-3.9-2.8c0-0.3,0.5-0.8,0.8-1.1c0.1-0.1,0.4-0.4,0.4-0.5
				c0-0.2-0.2-0.3-0.3-0.3h-2.2c-0.1,0-0.3,0.1-0.3,0.2s0.5,0.6,0.7,0.8c0,0.1,0.1,0.1,0.1,0.1c0.2,0.2,0.7,0.7,0.7,0.9
				c0,0.2-0.2,0.3-0.3,0.3c0,0,0,0,0,0c-0.1,0-0.2,0-0.2,0h-0.1c-0.1,0-0.1,0-0.2,0.1c-0.6,0.5-3.3,2.4-3.9,2.4
				c-0.6,0-1.9-1.8-1.9-2.3c0-0.2,0.4-0.4,0.5-0.5c0.4-0.2,2.8-1.5,2.8-1.8c0-0.1-0.2-0.1-0.2-0.1c0,0-0.1,0-0.2,0
				c-0.8,0-1-0.5-1-1.2c0-0.8,0-1.6,0-2.4L441.7,549.5z M447.9,549.2c0-0.2-0.1-0.3-0.3-0.3c0,0,0,0,0,0h-2c-0.2,0-0.3,0.1-0.3,0.3
				c0,0,0,0,0,0v0.2c0,0.2,0.1,0.3,0.3,0.3c0,0,0,0,0,0h2c0.2,0,0.3-0.1,0.3-0.3c0,0,0,0,0,0V549.2z M447.9,552.5
				c0-0.2-0.1-0.3-0.3-0.3c0,0,0,0,0,0h-2c-0.2,0-0.3,0.1-0.3,0.3c0,0,0,0,0,0v0.1c0,0.2,0.1,0.3,0.3,0.3c0,0,0,0,0,0h2
				c0.2,0,0.3-0.1,0.3-0.3c0,0,0,0,0,0V552.5z M447.9,555.6c0-0.2-0.1-0.3-0.3-0.3c0,0,0,0,0,0h-2c-0.2,0-0.3,0.1-0.3,0.3
				c0,0,0,0,0,0v0.2c0,0.2,0.1,0.3,0.3,0.3c0,0,0,0,0,0h2c0.2,0,0.3-0.1,0.3-0.3c0,0,0,0,0,0V555.6z"/>
			<path id="パス_2515" class="st0" d="M448.5,572.9c1.7,1.7,2.7,4,2.6,6.4c0,3.5-1.9,6.7-5,8.3c-0.9,0.5-1.9,0.9-3,1.1
				c-0.9,0-2.2-2.3-2.2-3c0-0.2,0.2-0.3,0.9-0.5c2.9-0.8,5.3-2.6,5.3-5.8c0-3.9-3-5.5-3.7-5.5c-0.4,0-0.5,0.4-0.5,0.9
				c-0.3,3.5-1.3,7.7-3.6,10.5c-0.8,1.2-2.2,2-3.6,2.1c-1.6-0.1-3.1-1.1-3.8-2.6c-0.6-1.2-0.8-2.5-0.8-3.7
				c-0.1-5.8,4.6-10.7,10.4-10.8c0.1,0,0.2,0,0.2,0C444.3,570.3,446.7,571.2,448.5,572.9z M434.8,581.1c0,0.6,0.1,2.4,1,2.4
				c0.6,0,1.5-1.7,1.7-2.2c0.8-2,1.4-4.2,1.6-6.4c0-0.2-0.1-0.4-0.3-0.4C438.1,574.6,434.8,576.9,434.8,581.1z"/>
			<path id="パス_2516" class="st0" d="M439.1,613.2c-0.3,0-0.6,0-0.6,0.3c0,0.2,0.3,0.6,0.5,0.8c0.2,0.2,0.4,0.5,0.5,0.6
				c0.1,0.2,0.2,0.4,0.3,0.6c0,0.2-0.1,0.3-0.3,0.3c-0.1,0-0.2,0-0.3,0c-0.1,0-0.3-0.1-0.4-0.1c-0.2,0-0.3,0-0.5,0.1
				c-2.1,0.6-4.2,1.1-6.3,1.4c-0.2,0-0.5,0.1-0.6,0.1c-0.5,0-0.7-0.6-1-1c-0.3-0.6-0.5-1.2-0.7-1.8c0-0.2,0.3-0.2,0.6-0.2
				c1.6-0.1,3.1-0.3,4.7-0.6c0.3-0.1,0.4-0.1,0.4-0.2c0-0.1-0.1-0.2-0.3-0.2c-0.3,0-0.7,0-1.1,0c-0.7,0-1.4-0.1-1.4-1.1
				c0-0.5,0-1.1,0-1.8v-5.8c0-0.7,0-1.3,0-1.8c0-0.9,0.6-1.1,1.4-1.1c0.8,0,1.6,0,2.5,0h9.4c0.8,0,1.6,0,2.4,0s1.4,0.1,1.4,1.1
				c0,0.5,0,1.1,0,1.8v5.8c0,0.7,0,1.2,0,1.8c0,0.9-0.6,1.1-1.4,1.1c-0.6,0-1.1,0-1.7,0c-0.1,0-0.3,0-0.3,0.1c0,0.2,0.1,0.2,0.5,0.3
				c1.6,0.4,3.3,0.7,4.9,0.9c0.4,0.1,0.6,0.1,0.6,0.2c0,0.2-0.6,2.7-1.7,2.7c-1.8-0.3-3.6-0.6-5.4-1.1c-0.8-0.2-1.6-0.5-2.4-0.9
				c-0.1-0.1-0.2-0.2-0.2-0.3c0-0.4,0.5-0.9,0.8-1.2c0.1-0.1,0.1-0.2,0.1-0.3c0-0.3-0.4-0.3-0.6-0.3L439.1,613.2z M447.2,595.2
				c0.7,0,1.5-0.1,2.3-0.1c0.8,0,1.9,0,1.9,1.1c0,0.4-0.1,0.8-0.1,1.6v0.7c0,0.7,0.1,1.2,0.1,1.5c0,1.1-1,1.1-1.9,1.1
				c-0.8,0-1.5,0-2.3,0h-12.4c-0.8,0-1.5,0-2.3,0c-0.8,0-1.9,0-1.9-1.1c0-0.3,0.1-0.8,0.1-1.6v-0.7c0-0.8-0.1-1.2-0.1-1.6
				c0-1.1,1.1-1.1,1.9-1.1c0.7,0,1.5,0.1,2.3,0.1L447.2,595.2z M434.6,597.6c-0.3,0-0.5,0.2-0.5,0.5v0.1c0,0.3,0.2,0.5,0.5,0.5h1.4
				c0.3,0,0.5-0.2,0.5-0.4c0,0,0,0,0,0v-0.1c0-0.3-0.2-0.5-0.4-0.5c0,0,0,0,0,0H434.6z M445.9,604.6c0-0.2-0.1-0.3-0.3-0.3
				c0,0,0,0,0,0h-9c-0.2,0-0.3,0.1-0.3,0.3v0.2c0,0.2,0.1,0.3,0.3,0.3h9c0.2,0,0.3-0.1,0.3-0.3c0,0,0,0,0,0V604.6z M445.9,607.5
				c0-0.2-0.1-0.4-0.4-0.4c0,0,0,0,0,0h-8.8c-0.2,0-0.4,0.2-0.4,0.4c0,0,0,0,0,0v0.1c0,0.2,0.2,0.4,0.4,0.4c0,0,0,0,0,0h8.8
				C445.7,608,445.9,607.8,445.9,607.5L445.9,607.5L445.9,607.5z M445.9,610.3c0-0.2-0.2-0.4-0.4-0.5c0,0,0,0,0,0h-8.7
				c-0.3,0-0.5,0.2-0.5,0.4c0,0,0,0,0,0v0.1c0,0.3,0.2,0.5,0.5,0.4c0,0,0,0,0,0h8.7C445.7,610.8,445.9,610.7,445.9,610.3
				C445.9,610.4,445.9,610.4,445.9,610.3L445.9,610.3z M440.2,597.6c-0.3,0-0.5,0.2-0.5,0.4c0,0,0,0,0,0v0.1c0,0.3,0.2,0.5,0.5,0.5
				h1.5c0.3,0,0.5-0.2,0.5-0.5v-0.1c0-0.3-0.2-0.5-0.5-0.5H440.2z M445.9,597.6c-0.3,0-0.5,0.2-0.5,0.4c0,0,0,0,0,0v0.1
				c0,0.3,0.2,0.5,0.4,0.5c0,0,0,0,0,0h1.6c0.3,0,0.5-0.2,0.5-0.4c0,0,0,0,0,0v-0.1c0-0.3-0.2-0.5-0.5-0.5H445.9z"/>
			<path id="パス_2517" class="st0" d="M431.6,641.4c-0.1,0.2-0.2,0.4-0.4,0.4c-0.3,0-0.4-0.3-0.5-0.7c-0.1-0.5-0.7-2.4-0.7-2.7
				c0-0.5,0.4-0.5,0.8-0.6c0.5,0,1-0.4,1-0.9c0-0.1,0-0.1,0-0.2v-10.6c0-0.3-0.2-0.6-0.5-0.6c0,0-0.1,0-0.1,0H431
				c-0.8,0-0.8-0.2-0.8-1.1v-1.2c0-0.8,0.1-1.1,0.8-1.1c0.8,0,1.7,0.1,2.5,0.1h5.8c0.8,0,1.7-0.1,2.5-0.1c0.7,0,0.8,0.2,0.8,0.9
				c0,0.9,0.4,0.9,1.9,0.9h4.2c0.3,0,0.7,0,1.1,0c0.5-0.1,1,0.1,1.5,0.4c0.4,0.3,0.6,0.8,0.6,1.3c-0.2,1.8-0.5,3.5-1,5.3
				c-0.4,1.5-1,3-1.6,4.4c-0.1,0.2-0.2,0.4-0.2,0.6c0,0.8,2.4,3.4,3.1,4c0.2,0.2,0.5,0.5,0.5,0.8c0,0.7-1.8,2.5-2.4,2.5
				c-0.2,0-0.5-0.3-0.8-0.6c-0.1-0.1-0.1-0.1-0.2-0.2c-0.5-0.6-1.3-1.5-1.8-2.2c-0.2-0.2-0.4-0.6-0.8-0.6c-0.2,0-0.4,0.1-0.5,0.3
				c-0.5,0.6-3,3.5-3.7,3.5c-0.4,0-0.9-0.7-1.1-0.9c-0.1-0.1-0.2-0.3-0.4-0.3c-0.1,0-0.2,0.1-0.2,0.3c0,0.3,0,0.7,0,1.1
				c0,0.7-0.2,0.7-1.1,0.7h-1.4c-0.8,0-1,0-1-0.7c0-1,0.1-2,0.1-3c0-0.4-0.1-0.7-0.6-0.7c-0.5,0.1-0.9,0.2-1.4,0.3
				c-1,0.3-2.3,0.5-3.4,0.7C431.8,641,431.7,641,431.6,641.4z M435.8,625.4c-0.4,0-0.7,0.3-0.7,0.7l0,0v0.5c0,0.4,0.3,0.7,0.7,0.7h0
				h1c0.4,0,0.7-0.3,0.7-0.7v-0.5c0-0.4-0.3-0.7-0.7-0.7H435.8z M435.8,630.1c-0.4,0-0.7,0.3-0.7,0.7l0,0v0.5c0,0.4,0.3,0.7,0.7,0.7
				h0h1c0.4,0,0.7-0.3,0.7-0.7v-0.5c0-0.4-0.3-0.7-0.7-0.7H435.8z M435.8,634.8c-0.4,0-0.7,0.3-0.7,0.7c0,0,0,0,0,0v0.8
				c0,0.4,0,0.7,0.5,0.7c0.5,0,0.9-0.2,1.3-0.3c0.4-0.2,0.6-0.5,0.5-0.9v-0.3c0-0.4-0.3-0.7-0.7-0.7c0,0,0,0,0,0L435.8,634.8z
				 M440.9,639.2c0,0.2,0,0.6,0.2,0.6c0.4,0,1.7-1.4,2-1.8c0.5-0.5,1.5-1.6,1.5-2.3c0-0.3-0.1-0.5-0.2-0.8c-0.8-1.8-1.4-3.7-1.8-5.6
				c-0.1-0.4-0.2-0.8-0.2-1.1c0-0.3,0.1-0.5,0.4-0.6c0.1,0,0.2,0,0.2-0.2c0-0.1,0-0.2-0.1-0.2c-0.1,0-0.1,0-0.3,0
				c-0.7,0-0.7-0.1-0.7-0.8c0-0.2,0-0.3,0-0.4c0-0.3-0.2-0.6-0.5-0.6c0,0-0.1,0-0.1,0c-0.3,0-0.5,0.2-0.5,0.5c0,0,0,0,0,0.1V639.2z
				 M447.4,627.3h-0.5c-0.5,0-0.9,0.1-0.9,0.5c0,0.1,0.1,0.5,0.1,0.6c0.1,0.8,0.3,1.6,0.5,2.3c0.1,0.5,0.2,0.8,0.4,0.8
				c0.2,0,0.2-0.2,0.3-0.3c0.2-0.6,0.4-1.2,0.5-1.8c0.1-0.6,0.2-1.2,0.2-1.8C448,627.3,447.9,627.3,447.4,627.3L447.4,627.3z"/>
		</g>
	</g>
	<g id="グループ_1603" transform="translate(304.329 -1254.347)">
		<path id="パス_2980" class="st0" d="M89.2,1562.2c1.9,0,3.7-0.2,5.6-0.2c1.5,0,1.7,0.7,1.7,2.4v2.5c0,1.8-0.1,2.5-1.7,2.5
			c-1.8,0-3.5-0.2-5.3-0.2c-0.6,0-1.5,0.1-1.5,0.9c0,0.8,2,3.8,2.6,4.6c1.9,2.8,4,5.4,6.5,7.7c0.2,0.2,0.7,0.6,0.7,1
			c0,1.2-4.2,5.5-5.4,5.5c-1.2,0-5.3-5.6-6.1-6.8c-1.1-1.6-2-3.3-2.9-5c-0.4-0.7-0.5-1.1-0.9-1.1c-0.5,0-0.8,0.5-0.9,0.9
			c-2.2,4.3-5.1,8.2-8.6,11.5c-0.2,0.3-0.6,0.5-0.9,0.5c-1.4,0-4.4-2.7-5.1-3.9c-0.2-0.4-0.6-1-1.2-1c-0.2,0-2.2,0.5-2.6,0.7
			c-3.3,0.8-7,1.6-10.3,2.1c-1.7,0.3-1.8,0.3-2.1,1c-0.1,0.4-0.5,0.7-0.9,0.8c-0.5,0-1-1.3-1.7-3.5c-0.3-0.7-0.6-1.6-0.9-2.5
			c-0.2-0.5-0.4-1-0.4-1.6c0-0.7,0.3-0.7,5.9-1.2c0.9-0.1,2-0.4,2-1.6v-8.6c0-0.8-0.7-1.5-1.5-1.5c-1.4,0-2.9,0.1-4.3,0.1
			c-1.1,0-1.2-0.5-1.2-1.9v-2.6c0-1.4,0.1-1.9,1.2-1.9c1.5,0,3.1,0.1,4.6,0.1c0.6,0.1,1.2-0.4,1.3-1c0-0.1,0-0.1,0-0.2
			c0-0.8-0.3-1.3-1.1-1.3s-1.6,0.1-2.5,0.1c-1.3,0-1.2-0.7-1.2-1.7c-0.1-0.8-0.6-1.4-1.2-1.9c-0.5-0.6-2-2.2-2-3
			c0-0.4,0.5-0.8,1.3-1.5c3.7-3.4,6.6-7.6,8.4-12.3c0.1-0.4,0.3-0.8,0.8-0.8c0.3,0,2.7,0.9,4.6,1.6c0.9,0.3,1.7,0.6,2,0.7
			c0.4,0.2,0.9,0.4,0.9,0.9c0,0.3-0.2,0.6-0.5,0.7c-0.3,0-0.5,0.2-0.5,0.4c0,0.2,0.2,0.3,0.3,0.4c0.2,0.1,0.7,0.7,0.8,0.8
			c0.7,0.7,4.2,4,4.9,4c0.7,0,0.7-0.5,0.9-1.9c0.1-0.7,0.4-2.9,0.5-3.5c0-0.4,0-1.2,0.6-1.2c1.7,0.3,3.4,0.7,5.1,1.2
			c0.3,0.1,0.7,0.2,1,0.2c0.5,0,0.7-0.4,0.7-0.8c0-0.7-0.1-1.5-0.1-2c0-0.8,0.5-1,1.2-1s6.3,0.3,6.8,0.4c0.5,0.1,0.9,0.2,0.9,0.8
			c0,0.4-0.3,0.5-0.6,0.7c-0.7,0.4-0.8,0.8-0.8,1.6v4.3c0,0.8,0.7,1.5,1.5,1.5c0,0,0,0,0,0h2.6c1.7,0,3.3-0.1,4.3-0.1
			c0.9,0,1,0.5,1,1.9v3.7c0,1.4-0.1,1.9-1,1.9c-1.2,0-2.5-0.2-4.3-0.2h-2.6c-0.9,0-1.6,0.8-1.5,1.7c0,0,0,0.1,0,0.1v0.6
			c0,0.9-0.1,1.9-0.1,2.6c-0.1,0.9,0.6,1.6,1.4,1.7c0,0,0.1,0,0.1,0L89.2,1562.2z M53.5,1572.8c0.2,0.8,0.8,3.9,0.8,4.6
			c0,1.5-4.2,2.1-4.5,2.1c-0.8,0-0.9-0.6-1-1.3c-0.4-2.2-1-4.5-1.6-6.6c-0.1-0.2-0.1-0.5-0.2-0.7c0-1.2,4.5-1.8,4.7-1.8
			C52.5,1569,52.7,1569.3,53.5,1572.8L53.5,1572.8z M62,1553.2c0.8,0,1.4-0.1,1.4-0.7c0-0.4-0.5-0.9-0.8-1.2c-0.4-0.4-1.6-1.6-1.9-2
			c-0.3-0.3-0.5-0.6-0.9-0.6s-0.7,0.5-0.9,0.8c-0.3,0.5-1.2,1.6-1.6,2.1c-0.3,0.2-0.4,0.5-0.4,0.9c0,0.7,1,0.7,1.5,0.7L62,1553.2z
			 M62,1561c0,0.6,0.5,1.1,1.1,1c0,0,0,0,0.1,0c1.2,0,2.4-0.1,3.6-0.1c1.1,0,1.2,0.4,1.2,2v2.5c0,1.4-0.1,1.9-1.2,1.9
			s-2.1-0.1-3.2-0.1c-0.9,0-1.6,0.7-1.6,1.5v7.4c0,0.6,0.5,1.2,1.2,1.2c0,0,0,0,0,0c0.1,0,1.6-0.2,1.6-0.6c0-0.3-0.8-0.5-1-0.5
			c-1.1-0.4-1.7-0.7-1.7-1.3c0-0.3,0.1-0.5,0.2-0.7c0.7-1.8,1.2-3.7,1.5-5.6c0.1-0.5,0.1-0.9,0.7-0.9c1.2,0.3,2.3,0.6,3.4,1
			c2.2,0.8,2.7,0.9,2.7,1.4c0,0.4-0.4,0.6-0.7,0.8c-0.6,0.2-0.7,0.5-1.1,1.9c-0.2,0.8-0.5,1.5-0.8,2.3c-0.1,0.3-0.2,0.7-0.2,1
			c0,0.2,0.1,0.5,0.2,0.7c0.1,0.9,0.2,1.8,0.2,2.6v0.7c0,0.3,0.2,0.7,0.5,0.7c1.4,0,7.6-9.8,7.6-11.5c0-0.7-0.8-0.9-1.3-0.9
			c-1.3,0-2.5,0.1-3.8,0.1c-1.6,0-1.8-0.6-1.8-2.9v-1.7c0-2,0.1-2.3,0.7-2.6c0.1,0,0.2-0.2,0.2-0.3c0-0.3-0.4-0.5-0.7-0.6
			c-0.7-0.3-2.5-1-2.5-1.8c0.1-0.4,0.2-0.7,0.3-1c0.8-2.2,1.5-4.5,2-6.8c0-0.2,0.1-0.3,0.1-0.4c0-0.2-0.2-0.3-0.3-0.3
			c-0.1,0-0.3,0.2-0.3,0.3c-0.2,0.3-0.5,0.6-0.7,0.8c-0.8,0.8-1.2,1.2-1.2,1.9c0,0.3,0.1,0.8,0.1,1.5v2.5c0,1.1-0.2,1.5-1.2,1.5
			c-0.9,0-1.8-0.1-2.7-0.1c-0.6,0-1.1,0.5-1.1,1L62,1561z M76.4,1555.6c-0.9,0-1.3,0.6-1.5,1.4c-0.4,1.3-0.9,2.6-1.4,3.8
			c-0.1,0.2-0.1,0.5-0.2,0.8c0,0.5,0.5,0.6,0.9,0.6c0.8,0,1.5,0.1,2.3,0.1c1.8,0,2-0.6,2-5c0-0.8-0.6-1.5-1.4-1.6c0,0-0.1,0-0.1,0
			L76.4,1555.6z M77.7,1548.5c0.4,0,0.7-0.3,0.7-0.7v-2.6c0-0.2-0.1-0.4-0.3-0.4c-0.7,0-0.8,1.2-1,2.1c0,0.3,0,0.6-0.1,0.8v0.3
			c0,0.3,0.2,0.5,0.5,0.5H77.7z"/>
		<path id="パス_2981" class="st0" d="M121.8,1563.5c0,4.7-3,8.3-8.2,8.3c-3.9,0.2-7.2-2.8-7.4-6.7c0-0.2,0-0.3,0-0.5
			c0-4.3,2.8-8.1,8.2-8.1C118.7,1556.6,121.8,1559.4,121.8,1563.5z"/>
		<path id="パス_2982" class="st0" d="M141,1554.2c-2.2,0-4.3,0.1-6.5,0.1c-1.3,0-1.4-0.7-1.4-2.5v-2.6c0-1.9,0.1-2.5,1.4-2.5
			c2.1,0,4.3,0.1,6.4,0.1h3.3c1.3,0,1.5-1.4,1.5-3c0-1.3-0.2-2.7-0.2-3.7c0-0.9,0.6-1,1.4-1s6.8,0.3,7.4,0.4c0.4,0.1,1,0.2,1,0.8
			c0,0.4-0.4,0.5-0.7,0.7c-0.8,0.4-0.9,0.7-0.9,2.5v15.7c0,2.1-0.1,5.2-0.1,5.8c0,1.3,0.4,1.4,1.1,1.7c1,0.5,1.3,4.5,1.3,5.5
			s-0.3,1.1-1.4,1.4c-2.3,0.5-2.7,1.5-3.8,3.8c-1.8,3.3-4.4,6.2-7.5,8.4c-1,0.7-4.1,2.6-5.1,2.6c-2,0-4.6-4-4.6-5.2
			c0-0.7,0.8-1,1.4-1.2c2.1-0.9,6.9-4,6.9-5.2c0-0.4-0.4-0.5-0.8-0.5c-0.4,0-4.8,0.8-5.3,0.9c-0.3,0.1-0.6,0.4-0.8,0.7
			c-0.2,0.4-0.4,0.9-0.9,0.9s-0.8-0.4-1-1.4c-0.6-2.3-1.1-4.5-1.5-6.9c0-0.8,0.5-1,1.5-1c2.6-0.2,6.4-0.7,9-1c1.3-0.2,3.4-0.2,3.4-2
			c0.1-0.7-0.3-1.3-1-1.4c-0.1,0-0.3,0-0.4,0h-2.6c-2,0-4,0.2-6,0.2c-1.3,0-1.4-0.6-1.4-2.4v-2.8c0-1.9,0.1-2.5,1.4-2.5
			c2,0,4,0.2,6,0.2h2.7c0.8,0,1.5-0.7,1.5-1.5c0,0,0,0,0,0v-0.8c0-0.8-0.6-1.5-1.5-1.5c0,0-0.1,0-0.1,0L141,1554.2z M158.1,1543.4
			c0-0.9-0.2-2.9-0.2-3.4c0-0.7,0.5-0.8,1.1-0.8c2,0,4.7,0.1,6.7,0.2c0.5,0.1,1.5,0,1.5,0.8c0,0.3-0.3,0.5-0.5,0.8
			c-0.4,0.4-0.5,1.5-0.5,2.6v1.5c0,1,0.4,1.8,1.6,1.8h4.3c2.1,0,4.3-0.1,6.4-0.1c1.3,0,1.4,0.5,1.4,2v3.1c0,1.7-0.1,2.3-1.4,2.3
			c-2.1,0-4.3-0.1-6.4-0.1h-4.4c-0.8,0-1.5,0.6-1.5,1.5c0,0,0,0.1,0,0.1v1.6c0,0.8,0.6,1.5,1.5,1.5c0,0,0,0,0.1,0h2.5
			c2.3,0,4.6-0.1,6.8-0.1c1.4,0,1.5,0.6,1.5,2.3v3.1c0,1.8-0.1,2.4-1.5,2.4c-2.3,0-4.6-0.2-6.8-0.2h-2.5c-0.8,0-1.5,0.7-1.5,1.5
			c0,0,0,0,0,0v1.6c0,0.8,0.7,1.5,1.5,1.5c0,0,0,0,0,0h5.2c2.2,0,4.3-0.2,6.5-0.2c1.2,0,1.3,0.7,1.3,2.4v2.6c0,1.7-0.1,2.3-1.3,2.3
			c-2.2,0-4.3-0.2-6.5-0.2h-5.2c-1.4,0-1.5,1.5-1.5,2.6v0.6c0,2.1,0.2,4.1,0.2,6.2c0,1.4-0.6,1.6-2.5,1.6h-3.5
			c-1.8,0-2.4-0.1-2.4-1.5c0-2.5,0.2-5.1,0.2-7.6L158.1,1543.4z"/>
		<path id="パス_2983" class="st0" d="M232.2,1562.2c1.9,0,3.7-0.2,5.6-0.2c1.5,0,1.7,0.7,1.7,2.4v2.5c0,1.8-0.1,2.5-1.7,2.5
			c-1.8,0-3.5-0.2-5.3-0.2c-0.6,0-1.5,0.1-1.5,0.9c0,0.8,2,3.8,2.6,4.6c1.9,2.8,4,5.4,6.5,7.7c0.2,0.2,0.7,0.6,0.7,1
			c0,1.2-4.2,5.5-5.4,5.5c-1.2,0-5.3-5.6-6.1-6.8c-1.1-1.6-2-3.3-2.9-5c-0.4-0.7-0.6-1.1-0.9-1.1c-0.5,0-0.8,0.5-0.9,0.9
			c-2.2,4.3-5.1,8.2-8.6,11.5c-0.2,0.3-0.6,0.5-0.9,0.5c-1.4,0-4.4-2.7-5.1-3.9c-0.2-0.4-0.6-1-1.2-1c-0.2,0-2.2,0.5-2.6,0.7
			c-3.3,0.8-7,1.6-10.3,2.1c-1.7,0.3-1.8,0.3-2.1,1c-0.1,0.4-0.5,0.7-0.9,0.8c-0.5,0-1-1.3-1.7-3.5c-0.3-0.7-0.6-1.6-0.9-2.5
			c-0.2-0.5-0.4-1-0.4-1.6c0-0.7,0.3-0.7,5.9-1.2c0.9-0.1,2-0.4,2-1.6v-8.6c0-0.8-0.7-1.5-1.5-1.5c-1.4,0-2.9,0.1-4.3,0.1
			c-1.1,0-1.2-0.5-1.2-1.9v-2.6c0-1.4,0.1-1.9,1.2-1.9c1.5,0,3.1,0.1,4.6,0.1c0.6,0.1,1.2-0.4,1.3-1c0-0.1,0-0.1,0-0.2
			c0-0.8-0.3-1.3-1.1-1.3s-1.6,0.1-2.5,0.1c-1.3,0-1.2-0.7-1.2-1.7c-0.1-0.8-0.6-1.4-1.2-1.9c-0.6-0.6-2-2.2-2-3
			c0-0.4,0.6-0.8,1.3-1.5c3.7-3.4,6.6-7.6,8.4-12.3c0.1-0.4,0.3-0.8,0.8-0.8c0.3,0,2.7,0.9,4.6,1.6c0.9,0.3,1.7,0.6,2,0.7
			c0.4,0.2,0.9,0.4,0.9,0.9c0,0.3-0.2,0.6-0.5,0.7c-0.3,0-0.5,0.2-0.5,0.4c0,0.2,0.2,0.3,0.3,0.4c0.2,0.1,0.7,0.7,0.8,0.8
			c0.7,0.7,4.2,4,4.9,4c0.7,0,0.7-0.5,0.9-1.9c0.1-0.7,0.4-2.9,0.5-3.5c0-0.4,0-1.2,0.6-1.2c1.7,0.3,3.4,0.7,5.1,1.2
			c0.3,0.1,0.7,0.2,1,0.2c0.5,0,0.7-0.4,0.7-0.8c0-0.7-0.1-1.5-0.1-2c0-0.8,0.5-1,1.2-1s6.3,0.3,6.8,0.4c0.5,0.1,0.9,0.2,0.9,0.8
			c0,0.4-0.3,0.5-0.6,0.7c-0.7,0.4-0.8,0.8-0.8,1.6v4.3c0,0.8,0.7,1.5,1.5,1.5c0,0,0,0,0,0h2.6c1.7,0,3.3-0.1,4.3-0.1
			c0.9,0,1,0.5,1,1.9v3.7c0,1.4-0.1,1.9-1,1.9c-1.2,0-2.5-0.2-4.3-0.2h-2.6c-0.9,0-1.6,0.8-1.5,1.7c0,0,0,0.1,0,0.1v0.6
			c0,0.9-0.1,1.9-0.1,2.6c-0.1,0.9,0.6,1.6,1.4,1.7c0,0,0.1,0,0.1,0L232.2,1562.2z M196.5,1572.8c0.2,0.8,0.8,3.9,0.8,4.6
			c0,1.5-4.2,2.1-4.5,2.1c-0.8,0-0.9-0.6-1-1.3c-0.4-2.2-1-4.5-1.6-6.6c-0.1-0.2-0.1-0.5-0.2-0.7c0-1.2,4.5-1.8,4.7-1.8
			C195.5,1569,195.7,1569.3,196.5,1572.8L196.5,1572.8z M205,1553.2c0.8,0,1.4-0.1,1.4-0.7c0-0.4-0.5-0.9-0.8-1.2
			c-0.4-0.4-1.6-1.6-1.9-2c-0.3-0.3-0.5-0.6-0.9-0.6s-0.7,0.5-0.9,0.8c-0.3,0.5-1.2,1.6-1.6,2.1c-0.3,0.2-0.4,0.5-0.4,0.9
			c0,0.7,1,0.7,1.5,0.7L205,1553.2z M205,1561c0,0.6,0.5,1.1,1.1,1c0,0,0,0,0.1,0c1.2,0,2.4-0.1,3.6-0.1c1.1,0,1.2,0.4,1.2,2v2.5
			c0,1.4-0.1,1.9-1.2,1.9s-2.1-0.1-3.2-0.1c-0.9,0-1.6,0.7-1.6,1.5v7.4c0,0.6,0.5,1.2,1.2,1.2c0,0,0,0,0,0c0.1,0,1.6-0.2,1.6-0.6
			c0-0.3-0.8-0.5-1-0.5c-1.1-0.4-1.7-0.7-1.7-1.3c0-0.3,0.1-0.5,0.2-0.7c0.7-1.8,1.2-3.7,1.5-5.6c0.1-0.5,0.1-0.9,0.7-0.9
			c1.2,0.3,2.3,0.6,3.4,1c2.2,0.8,2.7,0.9,2.7,1.4c0,0.4-0.4,0.6-0.7,0.8c-0.6,0.2-0.7,0.5-1.1,1.9c-0.2,0.8-0.5,1.5-0.8,2.3
			c-0.1,0.3-0.2,0.7-0.2,1c0,0.2,0.1,0.5,0.2,0.7c0.1,0.9,0.2,1.8,0.2,2.6v0.7c0,0.3,0.2,0.7,0.6,0.7c1.4,0,7.6-9.8,7.6-11.5
			c0-0.7-0.8-0.9-1.3-0.9c-1.3,0-2.5,0.1-3.8,0.1c-1.6,0-1.8-0.6-1.8-2.9v-1.7c0-2,0.1-2.3,0.7-2.6c0.1,0,0.2-0.2,0.2-0.3
			c0-0.3-0.4-0.5-0.7-0.6c-0.7-0.3-2.5-1-2.5-1.8c0.1-0.4,0.2-0.7,0.3-1c0.8-2.2,1.5-4.5,2-6.8c0-0.2,0.1-0.3,0.1-0.4
			c0-0.2-0.2-0.3-0.3-0.3c-0.1,0-0.3,0.2-0.3,0.3c-0.2,0.3-0.5,0.6-0.7,0.8c-0.8,0.8-1.2,1.2-1.2,1.9c0,0.3,0.1,0.8,0.1,1.5v2.5
			c0,1.1-0.2,1.5-1.2,1.5c-0.9,0-1.8-0.1-2.7-0.1c-0.6,0-1.1,0.5-1.1,1L205,1561z M219.4,1555.6c-0.9,0-1.3,0.6-1.5,1.4
			c-0.4,1.3-0.9,2.6-1.4,3.8c-0.1,0.2-0.1,0.5-0.2,0.8c0,0.5,0.5,0.6,0.9,0.6c0.8,0,1.5,0.1,2.3,0.1c1.8,0,2-0.6,2-5
			c0-0.8-0.6-1.5-1.4-1.6c0,0-0.1,0-0.1,0L219.4,1555.6z M220.7,1548.5c0.4,0,0.7-0.3,0.7-0.7v-2.6c0-0.2-0.1-0.4-0.3-0.4
			c-0.7,0-0.8,1.2-1,2.1c0,0.3,0,0.6-0.1,0.8v0.3c0,0.3,0.2,0.5,0.5,0.5H220.7z"/>
		<path id="パス_2984" class="st0" d="M259.1,1587.4c-2.4,0-4.8,0.2-7.3,0.2c-1.2,0-1.3-0.7-1.3-2.3v-3.2c0-1.6,0.1-2.2,1.4-2.2
			c2.4,0,4.8,0.1,7.2,0.1h0.7c0.3,0,1.2,0,1.2-0.9c0-0.8-1.8-3.3-2.6-4.7c-0.2-0.3-0.3-0.4-0.4-0.6c-0.2-0.3-0.4-0.6-0.4-0.9
			c0-0.7,1.2-1.2,1.6-1.4c0.2-0.1,0.4-0.2,0.4-0.5s-0.3-0.3-0.5-0.3c-0.7,0-1.4,0.1-2.2,0.1c-1.3,0-1.4-0.8-1.4-2.4v-2.4
			c0-1.8,0.1-2.3,1.5-2.3c2.3,0,4.5,0.2,6.7,0.2h5.1c0.7,0,1.3-0.6,1.3-1.3v-1.2c0-0.5-0.2-0.8-0.7-0.8h-0.6c-1.5,0-3,0.1-4.4,0.1
			c-1.4,0-1.5-0.7-1.5-1.9c0-0.5-0.1-1.2-0.7-1.2c-0.3,0-0.6,0.2-0.8,0.4c-1.4,1-4.2,2.9-5.7,3.7c-0.5,0.4-1,0.6-1.6,0.6
			c-2.3,0-4.8-4.4-4.8-6c0-0.6,0.4-0.7,1.5-1.2c7.1-3.2,15.2-9.4,19.3-16.2c0.3-0.4,0.4-0.7,1-0.7c0.9,0,4.9,0.7,6.2,0.9
			c1.9,0.3,3.2,0.4,3.2,1.3c0,0.3-0.2,0.5-0.5,0.7c-0.2,0.1-0.3,0.3-0.3,0.5c0,0.4,0.6,1,1.1,1.5c4.6,4.9,10.2,8.7,16.4,11.3
			c1.6,0.7,1.9,0.8,1.9,1.5c0,1.9-2,6.4-3.7,6.4c-1.2,0-7.1-3.7-8.3-4.6c-0.2-0.2-0.5-0.3-0.8-0.3c-0.7,0-0.7,0.9-0.7,1.3
			c0,1.2-0.3,1.6-1.5,1.6c-1.5,0-3-0.1-4.5-0.1h-0.5c-0.4,0-0.7,0.3-0.7,0.8v1.2c0,0.7,0.6,1.3,1.3,1.3h5c2.2,0,4.4-0.2,6.7-0.2
			c1.3,0,1.5,0.5,1.5,2.4v2.5c0,1.6-0.1,2.2-1.5,2.2c-0.5,0-0.9-0.1-1.4-0.1c-0.2,0-0.7,0-0.7,0.3s1,0.7,1.8,1
			c0.4,0.2,1.2,0.5,1.2,1c0,0.4-0.5,0.6-0.8,0.6c-0.7,0.2-0.8,0.3-1.8,2.3c-0.3,0.6-0.7,1.3-1.2,2.3c-0.2,0.3-0.3,0.6-0.3,0.9
			c0,0.8,0.8,0.9,1.4,0.9c2.3,0,4.5-0.1,6.8-0.1c1.3,0,1.4,0.6,1.4,2.2v3.1c0,1.7-0.1,2.4-1.4,2.4c-2.4,0-4.8-0.2-7.2-0.2
			L259.1,1587.4z M268.6,1580c0.8,0,1.5-0.6,1.5-1.5c0,0,0-0.1,0-0.1v-6.3c0-0.8-0.7-1.5-1.5-1.5H266c-0.4,0-1.3,0-1.3,0.7
			c0,0.3,0.2,0.6,0.4,0.9c0.6,0.9,3,4.8,3,5.8c0,0.7-0.9,1.2-1.4,1.4c-0.1,0.1-0.3,0.2-0.3,0.4c0,0.3,0.3,0.3,0.5,0.3L268.6,1580z
			 M279.6,1553.9c0.4,0,0.9-0.1,0.9-0.5c0-0.3-0.4-0.6-0.6-0.8c-1.5-1.3-2.9-2.6-4.2-4.1c-0.4-0.5-1-1.2-1.7-1.2s-1.8,1.2-3.2,2.6
			c-0.8,0.8-1.8,1.8-2.8,2.7c-0.2,0.2-0.7,0.6-0.7,0.9c0,0.4,0.5,0.4,1.3,0.4L279.6,1553.9z M281.6,1580c0.2,0,0.5,0,0.5-0.3
			c0-0.2-0.3-0.4-0.5-0.4c-0.5-0.3-1.3-0.7-1.3-1.3c0.1-0.5,0.3-1,0.7-1.4l0.3-0.5c0.7-1.3,2.1-3.8,2.1-4.5c0-0.7-0.7-0.9-1.3-0.9
			h-2.2c-0.8,0-1.5,0.7-1.5,1.5c0,0,0,0,0,0v6.3c0,0.8,0.6,1.5,1.4,1.5c0,0,0.1,0,0.1,0L281.6,1580z"/>
		<path id="パス_2985" class="st0" d="M329.6,1585.4c-0.2,0.2-0.4,0.3-0.7,0.3c-0.4,0-0.5-0.3-0.9-1.4c-0.1-0.3-0.1-0.6-0.2-0.8
			c-0.3-1-0.6-2.1-0.8-3.2c0-0.7,0.3-0.6,2.4-0.8c3.1-0.2,3.6-0.1,3.6-0.9v-1c0-0.6-0.5-1-1-1h-4.2c-0.8,0-1.5,0.7-1.5,1.5
			c0,0,0,0,0,0v5.3c0,1.4,0.1,2.9,0.1,4.3c0,1.3-0.5,1.4-2,1.4h-3.2c-1.6,0-2.1-0.1-2.1-1.4c0-1.4,0.1-2.9,0.1-4.3v-5.3
			c0-1.8-0.1-3.4-0.1-4.7c0-1.9,1.6-2,3.1-2c1.8,0,3.6,0.2,5.4,0.2h5.1c0.3,0,0.6-0.3,0.6-0.6v-0.2c0-0.3-0.3-0.6-0.6-0.6h-3.8
			c-1.5,0-3,0.1-4.4,0.1c-1.8,0-2.6-0.4-2.6-2.3c0-1,0.1-2,0.1-2.9v-0.7c0-1-0.1-2-0.1-3c0-1.8,0.9-2.3,2.6-2.3c1.5,0,3,0.2,4.5,0.2
			h3.6c0.3,0,0.8,0,0.8-0.5c0-0.3-0.2-0.5-0.5-0.6c0,0-0.1,0-0.1,0c-2.9,0-5.9,0.2-8.8,0.2c-0.8,0-1.2-0.2-1.5-0.9
			c-0.3-1-0.4-2-0.4-3c0-0.9,0.6-0.9,1.7-0.9h0.9c6,0,12.2-0.3,18.1-0.9c0.4-0.1,0.5-0.1,0.5-0.3c0-0.2-0.2-0.2-0.4-0.2h-22.1
			c-0.7,0-1.3,0.5-1.3,1.2c0,0,0,0.1,0,0.1v2c0,12.1,0,21.1-3.2,31.6c-0.5,1.8-0.9,2.1-1.8,2.1c-1.3,0-6.4-1.4-6.4-2.9
			c0.1-0.6,0.2-1.2,0.5-1.7c2.9-6.7,3.2-16.4,3.2-24.5v-14.1c0-0.9-0.1-1.8-0.1-2.6c0-2.1,1.1-2.6,3.1-2.6c1.9,0,3.7,0.2,5.6,0.2
			H346c1.7,0,3.4-0.2,5-0.2c1.8,0,3.8,0.2,3.8,2.4c0,0.5,0,1-0.1,1.4c0,0.5-0.1,0.9-0.1,1.4v1.2c0,1,0.2,2,0.2,3
			c0,1.9-1.8,2.3-3.4,2.3h-0.8c-0.6,0-1.2,0.1-1.2,0.7c0.3,0.7,0.6,1.4,1,2.1c0.2,0.3,0.4,0.6,0.5,0.8c0.2,0.3,0.4,0.7,0.4,1
			c0,0.3-0.2,0.5-0.5,0.6c0,0-0.1,0-0.1,0c-0.3,0-0.5-0.1-0.8-0.2c-0.3-0.1-0.6-0.2-0.9-0.2c-0.4,0-0.8,0-1.3,0.1
			c-2.1,0.2-3.6,0.4-4.7,0.4c-2.4,0.2-2.7,0.3-2.7,0.9v0.2c0,0.3,0.2,0.6,0.6,0.7c0,0,0,0,0,0h4.5c1.5,0,3-0.2,4.4-0.2
			c1.7,0,2.6,0.4,2.6,2.3c0,1-0.1,2-0.1,3v0.7c0,0.9,0.1,1.9,0.1,2.9c0,1.8-0.8,2.4-2.6,2.4c-1.5,0-3-0.2-4.5-0.2h-4.5
			c-0.3,0-0.6,0.3-0.6,0.6v0.2c0,0.3,0.3,0.6,0.6,0.6h6.3c1.8,0,3.6-0.2,5.4-0.2c1.5,0,3,0.2,3,2c0,1.2-0.1,2.9-0.1,4.7v2.1
			c0,1.3,0.1,2.6,0.1,3.8c0,4.7-4.6,5.1-8.2,5.1c-1.2,0-1.8-0.3-2.1-2.7c-0.1-0.7-0.4-1.1-1-1.1c-0.3,0-0.5-0.6-0.6-1
			c-0.1-0.7-0.7-1.1-1.3-1.1c-0.2,0-1.3,0.2-1.6,0.2c-2,0.3-4,0.7-6,0.9c-1.4,0.2-2.8,0.3-4.2,0.6
			C330,1584.9,330,1584.9,329.6,1585.4z M346,1547.4c0.4,0,0.7-0.3,0.7-0.7v-0.2c0-0.4-0.3-0.7-0.7-0.7h-26.2
			c-0.4,0-0.7,0.3-0.7,0.7c0,0,0,0,0,0v0.2c0,0.4,0.3,0.7,0.7,0.7H346z M329.1,1563.7c-0.4,0-0.7,0.3-0.7,0.7v0.2
			c0,0.4,0.3,0.7,0.7,0.7h3.2c0.4,0,0.7-0.3,0.7-0.7v-0.2c0-0.4-0.3-0.7-0.7-0.7H329.1z M341,1563.7c-0.4,0-0.7,0.3-0.7,0.7
			c0,0,0,0,0,0v0.2c0,0.4,0.3,0.7,0.7,0.7c0,0,0,0,0,0h3.8c0.4,0,0.7-0.3,0.7-0.7v-0.2c0-0.4-0.3-0.7-0.7-0.7H341z M340.9,1576.5
			c-0.3,0-0.6,0.3-0.6,0.6v0.7c0,0.3,0.2,0.6,0.5,0.7c0,0,0.1,0,0.1,0c0.4,0,1.2-0.1,1.2-0.5c0-0.2-0.1-0.3-0.1-0.5
			c-0.2-0.9-0.3-0.9-0.6-0.9L340.9,1576.5z M348.7,1577.8c0-0.7-0.6-1.3-1.3-1.3h-0.3c-0.6,0-1,0.3-1,0.9c0,0.2,1.2,3.6,1.3,4.2
			c0.1,0.4,0.2,0.8,0.7,0.8c0.7,0,0.7-0.8,0.7-1.8V1577.8z"/>
		<path id="パス_2986" class="st0" d="M392.1,1541.6c0.7,0.2,1.3,0.4,1.3,0.7c0,0.3-0.4,0.5-1,1c-0.3,0.2-0.8,2.1-1,3.1
			c-0.1,0.1-0.1,0.3-0.1,0.4c0,0.2-0.1,0.4-0.1,0.6c0,0.4,0.3,0.7,0.7,0.8c0.4-0.1,0.8-0.2,1.2-0.3c0.3-0.1,0.6-0.2,0.9-0.2
			c0.5,0,0.7,0.3,0.8,0.8c0.3,1.9,0.5,3.8,0.5,5.7c0,1.3-0.8,1.5-5.1,2.3c-1.9,0.3-2,0.7-2.6,2.5c-0.9,2.5-2,5-3.1,7.5
			c-1.4,3.2-2.9,6.5-4.6,9.7c-0.4,0.8-1,1.6-1.3,2.3c-0.3,0.6-0.5,0.8-1.2,0.8c-1.9,0-7.1-2.3-7.1-3.7c0.3-0.8,0.7-1.5,1.2-2.2
			c1.1-1.9,7.1-12.8,7.1-14.2c0-0.5-0.4-0.8-0.9-0.8c0,0,0,0,0,0c-0.3,0-1.4,0.1-1.8,0.2c-0.6,0.1-1.8,0.2-2.4,0.2
			c-1.2,0-1.6-0.5-2-5.2c-0.1-0.4-0.2-1.4-0.2-1.9c0-0.8,0.4-1,1.1-1c0.9,0,2.3,0.1,3.5,0.1c5,0,5.7-0.1,6.3-1.5
			c0.8-2.8,1.3-5.6,1.4-8.5c0-0.4,0-0.9,0.4-0.9C384.4,1539.7,391,1541.3,392.1,1541.6z M399.4,1558.8c0.9,0.2,1.4,0.6,1.4,1.6
			c0,0.5-0.1,1.5-0.1,2.5c0,2.7,0.2,5.4,0.4,8.1c0.1,1.3,0.3,1.6,1.6,2.1c1.5,0.6,8.5,3.8,8.5,5.4c0,1.2-3.1,5.7-4.8,5.7
			c-0.4,0-1.2-0.5-2.4-1.4c-0.3-0.3-0.7-0.5-1-0.8c-0.2-0.2-0.6-0.3-0.9-0.3c-0.6,0-1.1,0.4-1.2,0.9c-0.5,1-1.1,1.8-1.9,2.6
			c-1.7,1.6-4.3,2.1-6.6,2.1c-5.2,0-10.7-2.5-10.7-8.5c0-5.5,4.8-7.9,9.7-7.9h0.4c0.7,0.1,1.3-0.4,1.3-1.1c0-0.1,0-0.1,0-0.2
			c0-0.9-0.5-5.8-0.7-7.5c-0.1-0.9-0.2-1.7-0.2-2.6c0-1.2,0.4-1.6,1.6-1.6C395.8,1558.2,397.6,1558.4,399.4,1558.8L399.4,1558.8z
			 M389.8,1578.9c0.1,1,1,1.8,2,1.6c1.3,0,1.7-0.7,1.7-1.8c0-0.7-0.1-1.3-1.6-1.3C390.9,1577.4,389.8,1577.8,389.8,1578.9
			L389.8,1578.9z M408.7,1552.3c1.3,1.2,4.7,4.4,4.7,5.6c0,1.7-4.4,5.5-5.8,5.5c-0.7,0-1.2-0.8-1.5-1.4c-1.9-2.7-4.3-5.1-6.9-7.1
			c-0.4-0.3-1-0.7-1-1.2c0-0.9,3.5-5.4,5.1-5.4C404.3,1548.3,407.8,1551.5,408.7,1552.3L408.7,1552.3z"/>
		<path id="パス_2987" class="st0" d="M437.8,1542.7c1.3-0.2,2.6-0.3,4-0.4c1.5,0,1.5,0.1,2,5.3c0.1,1.9,0.4,3.7,0.8,5.5
			c0.2,0.7,0.4,1.4,1.3,1.4c0.9,0,4.8-2.3,7.5-3.8c0.7-0.5,1.5-0.8,2.3-1c0.7,0,1.9,1.9,2.5,3c0.8,1.2,2.3,3.7,2.3,4.7
			c0,0.6-0.6,0.8-1.8,1.2c-0.2,0.1-0.5,0.2-0.8,0.3c-5.6,2-10.9,4.6-15.9,7.7c-2.1,1.4-5.4,3.7-5.4,6.4c0,3.7,7,3.7,9.5,3.7
			c4.8,0.1,9.5-0.4,14.2-1.5c0.2,0,0.4-0.1,0.5-0.1c0.4,0,0.7,0.4,0.8,1.1c0.2,1.8,0.3,3.6,0.3,5.4c0,1.9-0.4,2.2-2.3,2.5
			c-4.7,0.5-9.4,0.8-14.1,0.8c-4.3,0-8.4-0.3-12.2-2.4c-3.4-1.9-5.5-5.5-5.4-9.4c0-5.3,3.2-9.6,7.5-12.4c0.7-0.4,1.3-0.7,1.3-1.6
			c-0.2-1.1-0.5-2.1-0.9-3.2c-0.9-3.7-1.8-7.5-3-11.2c-0.1-0.2-0.1-0.4-0.2-0.7C432.7,1543.4,433.6,1543.2,437.8,1542.7z
			 M463.2,1546.9c0.8,1.2,2,3,2,3.6c0,1.1-3.1,2.7-3.6,2.7c-0.3,0-0.4-0.1-1.2-1.5c-1-1.6-1.8-2.9-2.9-4.4c-0.2-0.2-0.3-0.5-0.3-0.8
			c0-0.8,3.1-2.3,3.7-2.3C461.5,1544.3,462.9,1546.4,463.2,1546.9L463.2,1546.9z M467.6,1540.5c0.5,0.7,1.1,1.4,1.6,2.1
			c0.4,0.6,2.1,3,2.1,3.6c0,1.2-3.1,2.7-3.6,2.7c-0.4,0-0.6-0.4-0.8-0.8c-1-1.8-2.2-3.5-3.4-5.2c-0.2-0.2-0.3-0.3-0.3-0.6
			c0-0.8,3.2-2.3,3.7-2.3C467.3,1540.1,467.4,1540.2,467.6,1540.5L467.6,1540.5z"/>
		<path id="パス_2988" class="st0" d="M67.5,1640.5c0,1.5,0.1,3.1,0.1,4.6c0,3.6-0.4,5.7-4.9,5.8c-0.8,0.1-1.6,0.1-1.6,1.6
			c0,2.5,0.1,5.1,0.1,7.6c0,1.3-0.4,1.5-2,1.5h-2.4c-1.6,0-1.9-0.4-1.9-1.5c0-2.8,0.1-5.6,0.1-8.3v-22.8c0-0.4-0.3-0.7-0.7-0.7h-0.2
			c-0.4,0-0.7,0.3-0.7,0.7v12.4c0,2.7,0.1,5.4,0.1,8.1c0,1.2-0.2,1.5-1.6,1.5H50c-1.3,0-1.5-0.2-1.5-2.3c0-1.6,0.1-4.8,0.1-7.4
			v-11.5c0-1.9-0.1-3.8-0.1-5.7c0-1.8,0.3-3.2,2.4-3.2c0.8,0,1.5,0.2,2.3,0.2c0.8,0.1,1.6-0.5,1.7-1.4c0-0.1,0-0.1,0-0.2v-2.8
			c0-1.2,0-2.4-0.2-3.6c0-0.2-0.1-0.3-0.1-0.5c0-0.7,0.4-0.9,1-0.9s4.8,0.3,6.3,0.4c0.7,0.1,0.9,0.3,0.9,0.6c0,0.3-0.3,0.6-0.7,0.9
			c-0.6,0.5-0.7,1.5-0.7,3.3v2.6c0,0.9,0.8,1.6,1.7,1.5c0,0,0,0,0,0c0.4,0,1.8-0.2,2.2-0.2c1.9,0,2.3,1.4,2.3,3
			c0,1.9-0.1,3.9-0.1,5.8L67.5,1640.5z M61.1,1643.1c0,0.5,0.5,0.7,0.9,0.7c0.7,0,0.7-0.5,0.7-2v-12.9c0-0.4-0.3-0.7-0.7-0.7h-0.2
			c-0.4,0-0.7,0.3-0.7,0.7c0,0,0,0,0,0V1643.1z M89.7,1613.1c1.9,0,3.7-0.1,5.5-0.1c1.3,0,1.4,0.6,1.4,2.1v2.1
			c0,1.5-0.1,2.1-1.3,2.1c-1.9,0-3.8-0.1-5.7-0.1h-15c-1.9,0-3.8,0.1-5.7,0.1c-1.2,0-1.3-0.7-1.3-2.1v-2.2c0-1.5,0.1-2,1.4-2
			c1.9,0,3.7,0.1,5.6,0.1L89.7,1613.1z M69.3,1642.9c0-1.6-0.1-3.1-0.1-4.3c0-1.6,1.4-1.7,2.9-1.7c1.2,0,2.5,0.1,3.7,0.1h13.1
			c1.2,0,2.4-0.1,3.7-0.1s2.9,0,2.9,1.7c0,1.4-0.1,2.9-0.1,4.3v13.1c0,1.6,0.1,3.3,0.1,4.6c0,0.8-0.4,0.9-1.3,0.9h-3.5
			c-1.6,0-2.3,0-2.3-1c0-0.2,0.1-0.3,0.1-0.6c0-0.7-0.6-1.3-1.3-1.3h-9.6c-0.7,0-1.3,0.5-1.3,1.3c0,0,0,0,0,0v0.6c0,1-0.5,1-2.3,1
			h-3.3c-1,0-1.4-0.2-1.4-0.9c0-1.4,0.2-3.6,0.2-5.4L69.3,1642.9z M86.3,1621c1.3,0,2.7-0.2,4-0.2c1.6,0,2.4,0.6,2.4,2.3
			c0,1-0.1,2.2-0.1,3.3v3.2c0,1.2,0.1,2.3,0.1,3.3c0,1.6-0.8,2.2-2.3,2.2c-1.4,0-2.7-0.1-4.1-0.1h-8c-1.4,0-2.7,0.1-4.1,0.1
			c-1.6,0-2.3-0.5-2.3-2.2c0-1,0.1-2.1,0.1-3.3v-3.2c0-1.3-0.1-2.3-0.1-3.3c0-1.6,0.7-2.3,2.3-2.3c1.4,0,2.7,0.2,4.1,0.2H86.3z
			 M79,1643.7c0-0.6-0.5-1-1-1c0,0,0,0,0,0h-0.8c-0.6,0-1,0.5-1,1c0,0,0,0,0,0v0.1c0,0.6,0.4,1,1,1c0,0,0,0,0.1,0h0.8
			c0.6,0,1-0.4,1-1c0,0,0,0,0-0.1L79,1643.7z M79,1651.2c0-0.6-0.4-1.1-1-1.1c0,0,0,0,0,0h-0.8c-0.6,0-1.1,0.5-1,1.1c0,0,0,0,0,0
			v0.2c0,0.6,0.4,1.1,1,1.1c0,0,0,0,0,0h0.8c0.6,0,1.1-0.5,1-1.1c0,0,0,0,0,0L79,1651.2z M78.8,1628.4c0,0.6,0.5,1,1,1h4.9
			c0.6,0,1-0.5,1-1v-0.6c0-0.6-0.4-1-1-1c0,0,0,0-0.1,0h-4.9c-0.6,0-1,0.5-1,1c0,0,0,0,0,0L78.8,1628.4z M85.4,1643.8
			c0,0.6,0.5,1,1,1h1c0.6,0,1-0.5,1-1c0,0,0,0,0,0v-0.1c0-0.6-0.5-1-1-1h-1c-0.6,0-1,0.5-1,1L85.4,1643.8z M85.4,1651.4
			c0,0.6,0.5,1.1,1,1.1h1c0.6,0,1-0.5,1-1.1v-0.2c0-0.6-0.5-1.1-1-1.1h-1c-0.6,0-1,0.4-1,1c0,0,0,0.1,0,0.1L85.4,1651.4z"/>
		<path id="パス_2989" class="st0" d="M145.6,1617.8c2.5,0,5-0.2,7.5-0.2c1.5,0,1.6,0.6,1.6,2.3v3c0,1.8-0.1,2.4-1.6,2.4
			c-2.5,0-5.1-0.2-7.5-0.2h-25.8c-0.8,0-1.5,0.7-1.5,1.5c0,0,0,0,0,0v8.2c0.1,7-1,14-3.3,20.7c-0.6,1.8-1.5,3.6-2.5,5.2
			c-0.3,0.4-0.8,0.6-1.3,0.5c-1.5,0-5.9-1.9-5.9-3.6c0.2-0.5,0.4-1,0.7-1.5c0.1-0.2,0.2-0.4,0.2-0.5c3.1-6.9,4.1-14.7,4.1-22.2v-7.3
			c0-2-0.1-3.9-0.1-5.8c0-2.4,1.4-2.8,3.5-2.8c2.1,0,4.3,0.2,6.4,0.2h5.5c0.8,0,1.5-0.7,1.5-1.5c0,0,0-0.1,0-0.1
			c0-1-0.1-2.5-0.2-3.5c0-0.2-0.1-0.4-0.1-0.5c0-0.7,0.6-0.8,1.2-0.8c0.4,0,0.7,0,1.5,0.1c2.3,0.2,5.5,0.4,6.5,0.6
			c0.5,0.1,0.9,0.3,0.9,0.8c0,0.4-0.3,0.6-0.6,0.8c-0.6,0.5-0.6,1.3-0.6,2.7c0,0.8,0.7,1.5,1.5,1.5L145.6,1617.8z M130.2,1648.4
			c-0.2,0.5-0.3,1-0.4,1.5c0,0.6,0.5,0.8,1,0.8s8.2-0.8,9.4-0.9c0.7-0.1,1.9-0.1,1.9-1c0-0.5-3.1-5.4-3.7-6.3
			c-0.2-0.3-0.4-0.7-0.4-1c0-1,1.8-1.9,3.5-2.7c0.3-0.2,0.6-0.3,0.9-0.4c0.6-0.4,1.2-0.6,1.9-0.7c0.5,0,0.9,0.3,1.2,0.7
			c1.5,2,4,6.4,5.3,8.8c0.9,1.5,5,9.1,5,10.3c0,1.3-5.3,3.7-6.5,3.7c-0.8,0-1.1-0.9-2.3-3.4c-0.4-0.9-0.8-1.4-1.9-1.4
			c-0.4,0.1-21.4,2.9-23.7,3.1c-0.3,0.1-0.6,0.3-0.8,0.7c-0.3,0.4-0.5,0.7-0.9,0.7c-0.8,0-1-0.7-1.4-2.9c-0.2-0.9-0.9-4.3-0.9-5
			c0-1,0.5-1,2.4-1.2c1.2-0.1,1.6-0.2,2.1-1.4c2-6.3,5.8-18.4,6.6-23.4c0.1-0.7,0.2-1.3,1-1.3c0.4,0,4.5,1.1,6.7,1.8
			c0.9,0.3,2.2,0.7,2.2,1.3c0,0.3-0.3,0.5-0.5,0.6c-0.8,0.3-1,0.4-1.3,1.2C134.4,1636.5,132.3,1642.5,130.2,1648.4z"/>
		<path id="パス_2990" class="st0" d="M191.1,1613.9c0.9,1,1.9,2,2.8,2.9l0.6,0.6c1.1,1.2,3.2,3.3,3.2,3.9c0,0.3-0.3,0.4-1,0.4
			c-0.5,0-1,0.2-1.4,0.5c-2.4,1.8-4.6,3.5-6.9,5.4c-2.5,2.1-5,4.2-7.4,6.4c-0.6,0.4-1,1.1-1,1.8c0,0.9,1.3,2.4,2.3,3.3
			c0.2,0.2,0.3,0.4,0.5,0.5c3.1,3.1,6.3,6,9.6,8.9c1.8,1.5,4.5,4.1,4.5,5.2c0,1.7-4.9,6.3-6.5,6.3c-0.3,0-1-0.5-1.7-1.4
			c-3.4-4-7-7.8-10.8-11.4c-2.2-2.1-4.2-4.3-6.1-6.6c-1.2-1.5-1.9-3.3-1.9-5.3c0-1.5,0.4-2.9,1.3-4.1c1.5-2.1,5.4-5.1,7.6-6.9
			c3.6-3,7.6-6.5,10.4-10.2c0.3-0.4,0.6-0.8,1-0.8C190.6,1613.4,190.9,1613.6,191.1,1613.9z"/>
		<path id="パス_2991" class="st0" d="M231.6,1652.6c-0.7,0-1.3,0.1-1.3,0.7c0,0.4,0.7,1.2,1.1,1.8c0.4,0.5,0.8,1,1,1.3
			c0.3,0.4,0.5,0.9,0.6,1.4c0,0.4-0.3,0.6-0.7,0.7c-0.2,0-0.4,0-0.7-0.1c-0.3-0.1-0.6-0.2-0.9-0.2c-0.4,0-0.7,0.1-1.1,0.2
			c-4.5,1.4-9.1,2.5-13.8,3.1c-0.4,0.1-1.2,0.1-1.4,0.1c-1,0-1.6-1.2-2.1-2.2c-0.7-1.2-1.1-2.5-1.5-3.9c0-0.5,0.6-0.5,1.3-0.5
			c3.5-0.3,6.9-0.8,10.3-1.4c0.7-0.2,0.8-0.2,0.8-0.4c0-0.2-0.2-0.3-0.7-0.3c-0.7,0-1.6,0.1-2.4,0.1c-1.6,0-3.1-0.2-3.1-2.4
			c0-1.2,0.1-2.5,0.1-3.9v-12.7c0-1.5-0.1-2.8-0.1-3.9c0-2,1.3-2.4,3-2.4c1.8,0,3.6,0.1,5.4,0.1h20.8c1.8,0,3.6-0.1,5.3-0.1
			s3.1,0.3,3.1,2.4c0,1.1-0.1,2.5-0.1,3.9v12.7c0,1.4,0.1,2.7,0.1,3.9c0,2.1-1.3,2.4-3.1,2.4c-1.3,0-2.5-0.1-3.7-0.1
			c-0.2,0-0.7,0.1-0.7,0.3c0,0.3,0.3,0.4,1,0.6c3.6,0.8,7.2,1.5,10.8,1.9c0.9,0.1,1.4,0.2,1.4,0.6c0,0.5-1.3,5.9-3.8,5.9
			c-1.9,0-9.7-1.9-11.8-2.5c-1.8-0.5-3.6-1.2-5.3-1.9c-0.3-0.1-0.4-0.4-0.4-0.7c0-0.8,1.2-2,1.7-2.7c0.2-0.2,0.3-0.5,0.3-0.8
			c0-0.7-0.8-0.7-1.3-0.7L231.6,1652.6z M249.4,1612.9c1.6,0,3.3-0.1,5-0.1c1.8,0,4.1,0.1,4.1,2.5c0,0.9-0.2,1.9-0.2,3.5v1.6
			c0,1.5,0.2,2.6,0.2,3.4c0,2.4-2.3,2.5-4.1,2.5c-1.6,0-3.3-0.1-5-0.1h-27.2c-1.7,0-3.4,0.1-5.1,0.1c-1.8,0-4.1-0.1-4.1-2.4
			c0-0.8,0.2-1.7,0.2-3.5v-1.6c0-1.8-0.2-2.7-0.2-3.5c0-2.4,2.4-2.5,4.2-2.5c1.6,0,3.3,0.1,5,0.1H249.4z M221.7,1618.3
			c-0.6,0-1,0.5-1,1v0.2c0,0.6,0.5,1,1,1c0,0,0,0,0,0h3.1c0.6,0,1-0.4,1-1c0,0,0,0,0-0.1v-0.2c0-0.6-0.4-1-1-1c0,0,0,0-0.1,0H221.7z
			 M246.4,1633.6c0-0.4-0.3-0.7-0.7-0.7c0,0,0,0,0,0H226c-0.4,0-0.7,0.3-0.7,0.7v0.5c0,0.4,0.3,0.7,0.7,0.7h19.8
			c0.4,0,0.7-0.3,0.7-0.7c0,0,0,0,0,0L246.4,1633.6z M246.4,1639.9c0-0.5-0.3-0.9-0.8-0.9c0,0-0.1,0-0.1,0h-19.4
			c-0.5,0-0.9,0.4-0.9,0.9c0,0,0,0,0,0v0.2c0,0.5,0.4,0.9,0.9,0.9c0,0,0,0,0,0h19.4c0.5,0,0.9-0.4,0.9-0.9c0,0,0,0,0,0L246.4,1639.9
			z M246.4,1646.2c0-0.5-0.4-1-0.9-1c0,0-0.1,0-0.1,0h-19.1c-0.6,0-1,0.4-1,1c0,0,0,0,0,0v0.1c0,0.6,0.5,1,1,1c0,0,0,0,0,0h19.1
			c0.6,0,1-0.4,1-1c0,0,0,0,0,0L246.4,1646.2z M234,1618.3c-0.6,0-1,0.4-1,1c0,0,0,0,0,0.1v0.2c0,0.6,0.5,1,1,1c0,0,0,0,0,0h3.3
			c0.6,0,1-0.5,1-1v-0.2c0-0.6-0.5-1-1-1H234z M246.4,1618.3c-0.6,0-1,0.4-1,1c0,0,0,0,0,0.1v0.2c0,0.6,0.4,1,1,1c0,0,0,0,0.1,0h3.5
			c0.6,0,1-0.4,1-1c0,0,0,0,0-0.1v-0.2c0-0.6-0.5-1-1-1H246.4z"/>
		<path id="パス_2992" class="st0" d="M272.6,1655.3c-0.2,0.3-0.4,0.8-0.8,0.8c-0.7,0-0.9-0.7-1.2-1.4c-0.3-1.1-1.6-5.2-1.6-5.9
			c0-1.1,0.9-1.2,1.7-1.3c1.1,0.1,2.1-0.8,2.2-1.9c0-0.1,0-0.3,0-0.4v-23.3c0.1-0.6-0.4-1.2-1-1.3c-0.1,0-0.2,0-0.3,0h-0.2
			c-1.6,0-1.8-0.5-1.8-2.5v-2.6c0-1.8,0.2-2.4,1.8-2.4c1.8,0,3.7,0.1,5.5,0.1h12.8c1.8,0,3.7-0.1,5.5-0.1c1.5,0,1.8,0.5,1.8,1.9
			c0,2,0.8,2,4.1,2h9.2c0.7,0,1.5-0.1,2.5-0.1c1.1-0.1,2.3,0.1,3.2,0.8c0.8,0.7,1.3,1.7,1.4,2.8c0,2.5-1.5,9-2.2,11.6
			c-0.9,3.4-2.1,6.6-3.6,9.8c-0.2,0.4-0.3,0.8-0.4,1.3c0,1.8,5.3,7.4,6.8,8.9c0.4,0.4,1.2,1.2,1.2,1.8c0,1.5-3.8,5.6-5.3,5.6
			c-0.5,0-1.1-0.7-1.7-1.4c-0.1-0.2-0.2-0.3-0.4-0.4c-1.2-1.4-2.9-3.4-4-4.9c-0.4-0.6-0.9-1.3-1.6-1.3c-0.4,0-0.8,0.3-1,0.7
			c-1.1,1.3-6.7,7.7-8.1,7.7c-0.9,0-2-1.4-2.5-2.1c-0.3-0.3-0.5-0.8-0.9-0.8c-0.2,0-0.4,0.3-0.4,0.7c0,0.8,0.1,1.6,0.1,2.4
			c0,1.4-0.5,1.5-2.4,1.5h-3.1c-1.7,0-2.3-0.1-2.3-1.5c0-2.2,0.2-4.4,0.2-6.5c0-0.9-0.3-1.6-1.3-1.6c-1,0.2-2,0.4-3,0.7
			c-2.3,0.6-5.1,1.2-7.4,1.6C273,1654.4,272.9,1654.6,272.6,1655.3z M281.8,1620.3c-0.8,0-1.5,0.7-1.5,1.5c0,0,0,0,0,0v1
			c0,0.8,0.7,1.5,1.5,1.5c0,0,0,0,0,0h2.1c0.8,0,1.5-0.7,1.5-1.5v-1c0-0.8-0.7-1.5-1.5-1.5H281.8z M281.8,1630.5
			c-0.8,0-1.5,0.7-1.5,1.5c0,0,0,0,0,0v1.1c0,0.8,0.7,1.5,1.5,1.5c0,0,0,0,0,0h2.1c0.8,0,1.5-0.7,1.5-1.5v-1.1
			c0-0.8-0.7-1.5-1.5-1.5H281.8z M281.8,1640.9c-0.8,0-1.5,0.6-1.5,1.5c0,0,0,0,0,0.1v1.9c0,0.8,0.1,1.5,1.1,1.5c1-0.1,2-0.3,3-0.7
			c0.8-0.3,1.3-1.2,1.2-2v-0.7c0-0.8-0.6-1.5-1.5-1.5c0,0-0.1,0-0.1,0L281.8,1640.9z M293,1650.6c0,0.4,0,1.3,0.5,1.3
			c1,0,3.7-3,4.5-3.8c1-1.1,3.3-3.6,3.3-5.1c-0.1-0.6-0.2-1.1-0.5-1.6c-1.8-3.9-3.2-8.1-4.1-12.3c-0.2-0.8-0.3-1.7-0.4-2.5
			c-0.1-0.6,0.3-1.1,0.9-1.3c0.3-0.1,0.5-0.1,0.5-0.4c0-0.2-0.1-0.4-0.3-0.4c-0.2,0-0.3,0.1-0.6,0.1c-1.5,0-1.6-0.3-1.6-1.8
			c0-0.3,0.1-0.6,0.1-0.9c0.1-0.7-0.4-1.3-1.1-1.4c-0.1,0-0.2,0-0.3,0c-0.6,0-1,0.5-1,1c0,0,0,0.1,0,0.1L293,1650.6z M307.3,1624.4
			h-1.2c-1,0-1.9,0.2-1.9,1c0,0.2,0.2,1,0.2,1.3c0.3,1.7,0.7,3.5,1.2,5.2c0.3,1,0.4,1.8,0.8,1.8c0.4,0,0.5-0.4,0.6-0.8
			c0.4-1.3,0.8-2.6,1-3.9c0.3-1.3,0.5-2.6,0.5-3.9C308.6,1624.5,308.3,1624.4,307.3,1624.4L307.3,1624.4z"/>
		<path id="パス_2993" class="st0" d="M341.1,1622.6c0.5,0.1,1.2,0.3,1.2,0.8c0,0.2-0.2,0.4-0.5,0.7c-0.6,0.7-1,1.5-1,2.4
			c-0.5,2.5-0.7,5.1-0.7,7.7c-0.1,3.6,0.6,7.2,2,10.5c0.4,0.9,1.4,2.7,2.6,2.7c1.3,0,2.5-2.3,3-3.1c0.4-0.7,0.9-1.4,1.7-1.4
			c1.6,0,5.7,3.1,5.7,4.4s-2.5,4.2-3.5,5.3c-1.9,2.1-3.8,4-6.9,4c-3.7,0-6.8-2.7-8.8-5.5c-4.1-5.7-4.4-13.7-4.4-20.5
			c0-1,0.2-7.7,0.3-8.5c0.1-0.6,0.3-0.9,0.9-0.9C333.3,1621.2,339.7,1622.4,341.1,1622.6z M361.2,1620.9c1.5,0,5.8,3.4,8.2,7.3
			c2.1,3.4,3.5,7.3,4.1,11.3c0.1,0.9,0.3,2.2,0.3,2.9c0,1.2-0.3,1.6-1.4,2c-1.7,0.6-3.4,0.9-5.2,0.9c-2,0-2.1-0.7-2.3-2.8
			c-0.5-6.6-2.8-11.8-8-15.5c-0.3-0.2-0.5-0.5-0.5-0.9C356.3,1624.7,359.5,1620.9,361.2,1620.9L361.2,1620.9z"/>
		<path id="パス_2994" class="st0" d="M406.4,1613.1c1,0.3,2.7,0.8,2.7,1.3c0,0.3-0.3,0.4-0.5,0.5c-0.8,0.4-1,1.3-1.5,3.1
			c-0.1,0.5-0.3,1.1-0.5,1.8c0,0.2-0.1,0.3-0.1,0.5c0,0.5,0.4,1,0.9,1c0.1,0,0.1,0,0.2,0c1.5-0.3,3-0.8,4.4-1.4
			c0.4-0.2,0.9-0.3,1.4-0.4c1.5,0,1.5,5.4,1.5,7.1c0,0.8-0.2,1.1-1.1,1.4c-2.2,0.7-5.7,1.5-7.9,2c-2.4,0.5-2.5,0.5-3.2,2.5
			c-2.3,6.6-7,18.6-10.5,24.3c-0.4,0.7-0.8,1.3-1.7,1.3s-6.6-2.5-6.6-4.1c0.2-0.8,0.6-1.5,1.1-2.1c3.7-5.7,6.7-11.7,9-18.1
			c0.2-0.4,0.3-0.8,0.4-1.3c0-0.8-0.6-0.9-1.2-0.9c-1.1,0-2.4,0.2-3.6,0.2c-1.2,0-1.9-0.2-2.2-1.4c-0.3-1.9-0.5-3.9-0.6-5.8
			c0-0.7,0.1-1.3,1-1.3c0.5,0,3,0.3,5.9,0.3c2.7,0,3.6,0,4.1-1.4c0.8-3.3,1.3-6.7,1.6-10.1c0-0.3,0.1-0.6,0.4-0.6
			C400.3,1611.5,405.4,1612.9,406.4,1613.1z M405,1647.4c2.3,2.7,6.4,3.3,9.7,3.3c2.8,0.1,5.6-0.3,8.3-1.2c0.2-0.1,0.4-0.1,0.6-0.1
			c0.9,0,1,1.2,1,3v1.6c0,3,0,3.7-1,4c-3.1,0.5-6.2,0.7-9.3,0.7c-3.9,0-9.2-0.5-12.5-2.9c-0.9-0.7-2.6-2.2-2.6-3.5
			c0-0.9,2-3.4,2.7-4.2c0.4-0.5,1.4-1.6,2.1-1.6C404.4,1646.6,404.8,1647.1,405,1647.4z M410.4,1630.7c4.2,0,8.4,0.6,12.5,1.6
			c0.8,0.2,1.4,0.4,1.4,1.3c-0.2,2.1-0.8,4.1-1.6,6c-0.2,0.4-0.6,0.7-1,0.7c-0.5-0.1-0.9-0.2-1.4-0.4c-3-1.1-6.2-1.6-9.4-1.5h-2
			c-1.3,0-1.6-0.2-1.6-1.2C407.1,1631,408.2,1630.7,410.4,1630.7z"/>
		<path id="パス_2995" class="st0" d="M454.2,1617c0.4,0.1,1.2,0.3,1.2,0.8c0,0.2-0.2,0.4-0.4,0.4c-0.9,0.5-1,1.2-1.3,2.5
			c-1.3,6.8-1.9,13.7-1.8,20.5c0,4.3,0,8.8,4.4,8.8c3.5-0.2,6.7-1.9,8.8-4.7c1.8-2.3,3-5.1,3.5-8c0.2-1.1,0.4-2.1,1.3-2.1
			c1.2,0,2.9,1.5,3.7,2.3c1,0.9,2.6,2.4,2.6,3.7c0,1.6-1.5,5.3-2.4,6.8c-3.5,6.5-9.7,10.8-17.2,10.8c-3.9,0-8.1-1.3-10.6-4.5
			c-2.7-3.5-3.1-9.3-3.1-13.7c0-6.3,0.5-13.1,1-19c0.1-1.2,0.2-3,0.2-4.3c0-1.2,0-1.9,0.9-1.9C446.5,1615.4,452.4,1616.7,454.2,1617
			z"/>
		<path id="パス_2996" class="st0" d="M511.5,1614.7c0.3,0.1,0.8,0.1,0.8,0.5c0,0.3-0.2,0.7-0.4,0.9c-0.6,1-0.9,2.2-0.9,3.5
			c0,0.7,0.5,1.2,1.1,1.3c0,0,0,0,0.1,0c1,0,6.3-1.2,7.7-1.5c0.7-0.2,1.5-0.4,2.3-0.4c0.8,0,1,1.1,1.2,1.7c0.3,1.5,0.5,3.1,0.6,4.7
			c0,1.3-0.7,1.5-2.4,1.9c-2.7,0.5-5.6,0.9-8.4,1.3c-1.3,0.2-1.9,0.3-1.9,1.5c0,0.8,0.4,1.4,1.2,1.4c2-0.3,3.9-0.7,5.8-1.2
			c0.4-0.1,0.9-0.2,1.4-0.2c0.4,0,0.7,0.4,0.9,1.2c0.3,1.7,0.5,3.5,0.4,5.3c0,1.8-1.7,2-6.8,2.5c-2.2,0.2-2.6,0.5-2.6,1.5
			c0,3,0.1,3.5,1.8,4c2.3,0.8,9.7,3.9,9.7,6.5c0,1.2-2.3,5.3-4.1,5.3c-0.8,0-2.2-1.1-4.1-2.5c-0.7-0.6-1.5-1.1-2.4-1.3
			c-0.8,0-1,0.6-1.3,1.2c-1.8,4.3-6.1,5.5-10.4,5.5c-2.3,0.1-4.7-0.5-6.7-1.7c-2.2-1.5-3.4-3.9-3.5-6.5c0-2.4,1.2-4.6,3.1-6
			c2.4-1.7,5.7-2.3,8.5-2.3h0.6c0.6,0,1.1-0.4,1.2-1c0-0.1,0-0.1,0-0.2c0.1-0.7-0.4-1.4-1.1-1.5c0,0-0.1,0-0.1,0
			c-1,0-4.4,0.3-6.8,0.3c-2.1,0-2.6-0.1-3-1.5c-0.5-1.7-0.7-3.4-0.8-5.1c0-0.8,0.1-1.6,1.1-1.6c1.6,0,4,0.3,6.6,0.3h1.5
			c1.4,0,2.4-0.1,2.4-1.3c0.1-0.7-0.4-1.3-1.1-1.4c-0.1,0-0.1,0-0.2,0c-1.9,0-5.2,0.2-7.8,0.2h-1.6c-2.2,0-4-0.1-4.3-0.8
			c-0.5-1.9-0.7-3.8-0.6-5.8c0-0.8,0.1-1.7,1.1-1.7s6.8,0.5,10.4,0.5h1.2c1.3,0,2.3-0.1,2.3-1.3c0-0.5-0.3-3.6-0.4-4.6
			c-0.1-0.5-0.2-1-0.2-1.5c0-0.7,0.4-0.8,1-0.8C504.5,1613.7,510.1,1614.5,511.5,1614.7z M497.7,1651c0,1.3,2,1.4,3,1.4
			c1.5,0,3.3-0.4,3.3-2.3c0-0.8-0.7-0.8-1.7-0.8C501.1,1649.3,497.7,1649.4,497.7,1651L497.7,1651z"/>
		<path id="パス_2997" class="st0" d="M562.8,1613.4c0.4,0.1,1.3,0.2,1.3,0.6c0,0.2-0.2,0.3-0.4,0.5c-0.5,0.4-0.8,1-0.9,1.6
			c-0.1,0.6-0.1,1.7-0.1,2.5c0,1.4,0.1,2.3,1.7,2.3c4.3,0,8.7-0.5,13-0.5c0.8,0,1.5,0.1,1.5,3.9c0,1.4-0.1,2.8-0.3,4.1
			c-0.2,0.4-0.3,0.7-0.8,0.7c-0.3,0-6.2-0.4-7.9-0.4c-1.8-0.1-3.7-0.1-5.5-0.1c-0.8-0.1-1.5,0.5-1.6,1.3c0,0.1,0,0.2,0,0.3v1.3
			c-0.1,1.1,0.2,2.1,0.8,3c1,2.3,1.5,4.9,1.5,7.4c0,8.8-6.1,19.5-8.9,19.5c-1.6-0.3-3.1-0.8-4.4-1.5c-1.5-0.7-2.8-1.3-2.8-2
			c0-0.5,0.7-1.2,1.2-1.5c1-1,3.7-3.5,3.7-4.3c0-0.6-0.5-0.7-1-0.7c-5.1-0.1-7-5.8-7-10c0-4.9,2.3-10.2,7.6-11.1
			c0.4-0.1,1-0.1,1-0.6c0-0.3-0.2-0.5-0.7-0.5c-0.6,0-4.6,0.4-5.5,0.5c-1.3,0.2-9,1.4-10.1,1.7c-0.3,0.1-0.7,0.1-1,0.2
			c-0.9,0-1.2-1.3-1.4-4.6c-0.2-1.8-0.2-3.1-0.2-3.5c0-0.8,0.3-0.9,1.6-1c5-0.2,9.9-0.6,14.3-0.8c1.4-0.1,2.7-0.2,2.7-2
			c0-2-0.2-4-0.5-6c0-0.1-0.1-0.3-0.1-0.4c0-0.4,0.2-0.8,0.7-0.8c0.1,0,0.1,0,0.2,0C555.2,1612.4,561.5,1613.2,562.8,1613.4z
			 M553.1,1640.9c0,1,0.2,3.8,1.7,3.8s1.9-2.7,1.9-3.8c0-1.2-0.2-3.6-1.8-3.6C553.4,1637.3,553.1,1639.8,553.1,1640.9L553.1,1640.9z
			"/>
	</g>
</g>
</svg>
