<?xml version="1.0" encoding="utf-8"?>
<!-- Generator: Adobe Illustrator 26.3.1, SVG Export Plug-In . SVG Version: 6.00 Build 0)  -->
<svg version="1.1" id="レイヤー_1" xmlns="http://www.w3.org/2000/svg" xmlns:xlink="http://www.w3.org/1999/xlink" x="0px"
	 y="0px" viewBox="0 0 300 260" style="enable-background:new 0 0 300 260;" xml:space="preserve">
<style type="text/css">
	.st0{fill:none;}
	.st1{enable-background:new    ;}
	.st2{fill:#FFFFFF;}
</style>
<rect id="長方形_395" class="st0" width="300" height="260"/>
<g class="st1">
	<path class="st2" d="M74.6,47.3c-0.4,0-0.7,0-1,0.1v-0.8c-0.4,0.4-0.5,0.5-0.9,0.8c-0.3-0.9-0.4-1-0.8-1.7c1.5-1.1,2.4-2.1,3.1-3.7
		h1.9c0.7,1.2,1.3,1.9,2.6,2.8c-0.4,0.5-0.6,0.8-1,1.5c-0.2-0.2-0.2-0.2-0.4-0.3v1.3c-0.3,0-0.6-0.1-1.1-0.1h-0.5v1.3h0.7
		c0.6,0,1.1,0,1.4-0.1v1.7C78.2,50,77.8,50,77.2,50h-0.7v4.4c0.8-0.2,1.2-0.3,2.2-0.6V55c1.7-1,2.8-2.5,3.2-4.6h-1.1
		c-0.7,0-1.3,0-1.8,0.1v-1.9c0.4,0.1,1.1,0.1,1.7,0.1h1.4c0.1-0.7,0.1-1.3,0.1-2.4h-1.6c-0.3,0.8-0.4,1.2-0.8,2.1
		c-0.6-0.5-1-0.7-1.6-0.9c1-1.6,1.6-3.5,1.6-5.1l1.6,0.3c-0.1,0.4-0.1,0.4-0.2,1.1c-0.1,0.3-0.1,0.5-0.2,0.9h1.2c0-2.5,0-2.5-0.1-3
		H84c-0.1,0.5-0.1,0.5-0.1,3h1.2c0.9,0,1.3,0,1.8-0.1v1.8c-0.5-0.1-1.2-0.1-1.8-0.1H84c0,0.3,0,0.3,0,1.2c0,0.3,0,0.6-0.1,1.3h1.6
		c0.8,0,1.4,0,1.8-0.1v1.8c-0.5-0.1-1.1-0.1-1.8-0.1H84c0.3,1.1,0.8,2.1,1.4,2.9c0.5,0.8,1.2,1.4,2.4,2.1c-0.6,0.8-0.7,1-1.1,1.8
		c-1.8-1.4-2.8-2.7-3.6-4.6c-0.4,0.9-0.9,1.8-1.6,2.6c-0.6,0.7-1.4,1.4-2.5,2.1c-0.4-0.8-0.5-1-1-1.6c-1.1,0.3-2.1,0.6-4.8,1.2
		c-0.4,0.1-0.4,0.1-0.6,0.2c-0.2,0-0.2,0-0.3,0.1l-0.3-2c0.6,0,1.4-0.1,2.9-0.4v-4.7h-1.1c-0.7,0-1.1,0-1.6,0.1v-1.7
		c0.5,0.1,0.9,0.1,1.7,0.1h1v-1.3L74.6,47.3L74.6,47.3z M73.1,54.6c-0.2-1.4-0.4-2.2-0.8-3.4l1.3-0.4c0.4,1.2,0.6,1.8,0.8,3.3
		L73.1,54.6z M74.6,45.9h2.5c0.3,0,0.5,0,0.7,0c-0.9-0.8-1.2-1.2-1.9-2.3c-0.5,1-0.8,1.4-1.7,2.3H74.6z M76.9,53.5
		c0.4-1,0.6-1.7,0.7-2.8l1.3,0.4c-0.3,1.4-0.5,1.9-0.9,2.8L76.9,53.5z"/>
	<path class="st2" d="M95,49.5c0,1.1-0.9,2-2,2s-2-0.9-2-2s0.9-2,2-2S95,48.4,95,49.5z"/>
	<path class="st2" d="M100.5,45.9c-0.9,0-1.3,0-1.7,0.1v-1.9c0.4,0.1,0.9,0.1,1.7,0.1h3v-0.5c0-0.8,0-1.3-0.1-1.9h2
		c-0.1,0.5-0.1,0.8-0.1,2v4.6c0,0.6,0,1.3-0.1,1.9l1-0.3v1.7c-0.3,0.1-0.6,0.2-1.2,0.4c-0.2,1.2-0.7,2.3-1.5,3.2
		c-0.7,0.8-1.6,1.5-3.1,2.4c-0.4-0.6-0.7-1.1-1.3-1.6c1.3-0.6,1.9-1,2.6-1.6c0.6-0.5,0.9-1,1.2-1.7C102,53,102,53,99.7,53.6
		c-0.4,0.1-0.8,0.2-1,0.3l-0.4-2c1,0,2.8-0.3,5-0.9c0.1-0.6,0.1-1,0.1-1.5h-2.5c-0.8,0-1.3,0-1.7,0.1v-1.8c0.4,0.1,0.8,0.1,1.7,0.1
		h2.6v-1.8h-3V45.9z M109,55.3c0,1.1,0,1.5,0.1,2.1h-2c0.1-0.6,0.1-1,0.1-2.1V43.8c0-1,0-1.5-0.1-2.1h2c-0.1,0.5-0.1,1-0.1,2.1v0.4
		h3c0.9,0,1.3,0,1.7-0.1V46c-0.4-0.1-0.9-0.1-1.7-0.1h-3v2h2.7c0.9,0,1.3,0,1.7-0.1v1.8c-0.5-0.1-0.9-0.1-1.7-0.1H109v2.3h3.2
		c0.9,0,1.3,0,1.8-0.1v1.9c-0.5-0.1-1-0.1-1.8-0.1H109V55.3z"/>
	<path class="st2" d="M118.6,47.3c-0.4,0-0.7,0-1,0.1v-0.8c-0.4,0.4-0.5,0.5-0.9,0.8c-0.3-0.9-0.4-1-0.8-1.7
		c1.5-1.1,2.4-2.1,3.1-3.7h1.9c0.7,1.2,1.3,1.9,2.6,2.8c-0.4,0.5-0.6,0.8-1,1.5c-0.2-0.2-0.2-0.2-0.4-0.3v1.3
		c-0.3,0-0.6-0.1-1.1-0.1h-0.5v1.3h0.7c0.6,0,1.1,0,1.4-0.1v1.7c-0.4-0.1-0.8-0.1-1.4-0.1h-0.7v4.4c0.8-0.2,1.2-0.3,2.2-0.6V55
		c1.7-1,2.8-2.5,3.2-4.6h-1.1c-0.7,0-1.3,0-1.8,0.1v-1.9c0.4,0.1,1.1,0.1,1.7,0.1h1.4c0.1-0.7,0.1-1.3,0.1-2.4h-1.6
		c-0.3,0.8-0.4,1.2-0.8,2.1c-0.6-0.5-1-0.7-1.6-0.9c1-1.6,1.6-3.5,1.6-5.1l1.6,0.3c-0.1,0.4-0.1,0.4-0.2,1.1
		c-0.1,0.3-0.1,0.5-0.2,0.9h1.2c0-2.5,0-2.5-0.1-3h1.9c-0.1,0.5-0.1,0.5-0.1,3h1.2c0.9,0,1.3,0,1.8-0.1v1.8
		c-0.5-0.1-1.2-0.1-1.8-0.1h-1.3c0,0.3,0,0.3,0,1.2c0,0.3,0,0.6-0.1,1.3h1.6c0.8,0,1.4,0,1.8-0.1v1.8c-0.5-0.1-1.1-0.1-1.8-0.1h-1.5
		c0.3,1.1,0.8,2.1,1.4,2.9c0.5,0.8,1.2,1.4,2.4,2.1c-0.6,0.8-0.7,1-1.1,1.8c-1.8-1.4-2.8-2.7-3.6-4.6c-0.4,0.9-0.9,1.8-1.6,2.6
		c-0.6,0.7-1.4,1.4-2.5,2.1c-0.4-0.8-0.5-1-1-1.6c-1.1,0.3-2.1,0.6-4.8,1.2c-0.4,0.1-0.4,0.1-0.6,0.2c-0.2,0-0.2,0-0.3,0.1l-0.3-2
		c0.6,0,1.4-0.1,2.9-0.4v-4.7h-1.1c-0.7,0-1.1,0-1.6,0.1v-1.7c0.5,0.1,0.9,0.1,1.7,0.1h1v-1.3L118.6,47.3L118.6,47.3z M117.1,54.6
		c-0.2-1.4-0.4-2.2-0.8-3.4l1.3-0.4c0.4,1.2,0.6,1.8,0.8,3.3L117.1,54.6z M118.6,45.9h2.5c0.3,0,0.5,0,0.7,0
		c-0.9-0.8-1.2-1.2-1.9-2.3c-0.5,1-0.8,1.4-1.7,2.3H118.6z M120.9,53.5c0.4-1,0.6-1.7,0.7-2.8l1.3,0.4c-0.3,1.4-0.5,1.9-0.9,2.8
		L120.9,53.5z"/>
	<path class="st2" d="M138.6,48c-0.7,0-1.2,0-1.7,0.1v-0.8c-1,0.6-1.6,0.9-2.8,1.4c-0.4-0.9-0.5-1.1-1-1.8c3.2-1.1,5.7-2.9,6.9-5
		h2.1c0.7,1,1.4,1.7,2.6,2.6c1.4,1.1,2.7,1.7,4.5,2.3c-0.4,0.6-0.7,1.2-0.9,1.9c-1.3-0.6-1.9-0.8-3-1.5v0.9c-0.5-0.1-1-0.1-1.7-0.1
		h-1.7v1.6h4.3c0.9,0,1.4,0,1.9-0.1v1.9c-0.5-0.1-1.1-0.1-1.9-0.1h-4.3v3.8h4.6c0.9,0,1.4,0,2-0.1v2c-0.6-0.1-1.3-0.1-2-0.1h-10.7
		c-0.8,0-1.4,0-2.1,0.1v-2c0.6,0.1,1.2,0.1,2.1,0.1h4.3v-3.8h-4c-0.7,0-1.3,0-1.8,0.1v-1.9c0.5,0.1,1,0.1,1.9,0.1h4V48L138.6,48
		L138.6,48z M137.4,51.5c0.6,1,0.9,1.7,1.4,2.8l-1.7,0.7c-0.4-1.1-0.8-2-1.3-2.8L137.4,51.5z M138.6,46.4h5.3c0.2,0,0.2,0,0.4,0
		c-1.3-1-2.2-1.7-3.1-2.9c-0.9,1.2-1.6,1.8-3,2.9H138.6z M146.7,52.2c-0.2,0.4-0.2,0.4-0.9,1.6c-0.1,0.1-0.1,0.2-0.7,1.2l-1.6-0.6
		c0.5-0.8,0.9-1.8,1.3-2.9L146.7,52.2z"/>
	<path class="st2" d="M159.1,53.5H156v2.4c0,0.7,0,1.1,0.1,1.5h-1.9c0.1-0.5,0.1-1,0.1-1.8v-2.3c0-0.6,0-1-0.1-1.4
		c0.4,0,0.7,0.1,1.5,0.1h3.4v-0.7h-2.7c-0.8,0-1,0-1.4,0.1c0-0.2,0-0.2,0-0.4c0-0.1,0-0.4,0-0.7v-1.2c0-0.3,0-0.7-0.1-1.1
		c0.4,0.1,0.6,0.1,1.5,0.1h2.6v-0.6c-1.3,0.1-1.9,0.1-3.9,0.1c-0.1-0.5-0.3-0.8-0.6-1.2c0.6,0,1,0,1.3,0c1.8,0,4.5-0.1,5.8-0.3
		c0.9-0.1,1.4-0.2,2-0.3h-9.5c-0.1,6.2-0.5,8.7-2,11.6c-0.5-0.7-0.9-1.1-1.5-1.5c0.6-1.1,0.9-1.9,1.1-3.1c0.4-1.9,0.6-4.6,0.6-8.8
		c0-0.8,0-1.2-0.1-1.8c0.6,0.1,1.3,0.1,2.2,0.1h9.3c0.9,0,1.4,0,2-0.1c-0.1,0.4-0.1,0.7-0.1,1.3v1.1c0,0.6,0,0.7,0.1,1.4
		c-0.6,0-1.1-0.1-1.9-0.1l1.1,1.1c-1.9,0.3-2.5,0.4-4.2,0.5v0.7h2.9c0.7,0,1.1,0,1.5-0.1c-0.1,0.6-0.1,0.6-0.1,1.2v1.1
		c0,0.5,0,0.5,0.1,1.1c-0.5-0.1-0.6-0.1-1.4-0.1h-3v0.7h3.7c0.8,0,1.2,0,1.7-0.1c-0.1,0.4-0.1,0.8-0.1,1.5v2.4c0,0.6-0.2,1-0.6,1.2
		c-0.3,0.2-0.7,0.2-1.5,0.2c-0.4,0-0.6,0-1.3,0c-0.1-0.6-0.1-0.9-0.3-1.5c0.2,0,0.3,0.1,0.5,0.1c-0.1-0.2-0.1-0.2-0.2-0.4
		c-1.7,0.3-1.9,0.3-5.5,0.7c-0.2,0-0.3,0-0.4,0.1l-0.2-1.6c0.3,0,0.5,0,0.9,0c0.5,0,0.9,0,1.8-0.1L159.1,53.5L159.1,53.5z M164,44.4
		v-0.8h-9.8v0.8H164z M156.7,49.3v0.8h2.4v-0.8H156.7z M160.8,50.1h2.6v-0.8h-2.6V50.1z M160.8,54.4c0.6-0.1,0.8-0.1,1.2-0.1
		c-0.1-0.2-0.2-0.2-0.3-0.4l0.8-0.4h-1.7V54.4z M162.8,53.5c0.4,0.6,0.9,1.3,1.2,2l-0.7,0.4c0.3,0,0.4,0,0.5,0
		c0.3,0,0.4-0.1,0.4-0.4v-2.1h-1.4V53.5z"/>
	<path class="st2" d="M171.7,54.6c-0.7,0-1.2,0-1.8,0.1c0.1-0.5,0.1-1.1,0.1-2v-3.9c0-0.9,0-1.4-0.1-1.9c0.5,0,0.9,0.1,1.8,0.1h8.6
		c1,0,1.4,0,1.9-0.1c-0.1,0.6-0.1,1-0.1,1.9v4c0,1,0,1.5,0.1,1.9c-0.6-0.1-1.1-0.1-1.8-0.1h-1.3c1.2,0.7,2.8,1.1,4.9,1.3
		c-0.4,0.5-0.6,0.9-0.9,1.6c-1.5-0.2-2.3-0.4-3.3-0.8c-1-0.4-1.6-0.7-2.5-1.3l1-0.8h-4.8l1.1,0.8c-0.8,0.6-1.4,0.9-2.3,1.3
		c-1.1,0.4-1.8,0.6-3.1,0.9c-0.2-0.6-0.5-1-1-1.5c2.2-0.3,3.7-0.8,4.7-1.5H171.7z M183.1,44.9c0,0.6,0,1,0.1,1.4
		c-0.4,0-0.9-0.1-1.8-0.1h-10.8c-0.9,0-1.4,0-1.8,0.1c0.1-0.4,0.1-0.7,0.1-1.4v-1.3c0-0.6,0-1-0.1-1.4c0.5,0.1,1,0.1,1.9,0.1h10.6
		c1,0,1.4,0,1.9-0.1c-0.1,0.5-0.1,0.8-0.1,1.4L183.1,44.9L183.1,44.9z M173,43.7h-2.4v1.1h2.4V43.7z M171.8,49h8.4v-0.7h-8.4V49z
		 M171.8,51.1h8.4v-0.7h-8.4V51.1z M171.8,53.2h8.4v-0.8h-8.4V53.2z M177.1,43.7h-2.3v1.1h2.3V43.7z M181.3,44.8v-1.1h-2.5v1.1
		H181.3z"/>
	<path class="st2" d="M192.8,55.6c0,0.9,0,1.4,0.1,1.8h-2c0.1-0.5,0.1-1.2,0.1-1.8V54c-1.7,0.5-2.9,0.8-3.6,1
		c-0.6,0.1-1.1,0.3-1.4,0.4l-0.5-1.9c0.4,0,0.7-0.1,1.3-0.2V44c-0.6,0-0.8,0-1.1,0.1v-1.8c0.5,0.1,1,0.1,1.5,0.1h5.2
		c0.7,0,1.1,0,1.5-0.1v1.1c0.3,0,0.7,0,1.1,0h4.5c0.5,0,0.9,0,1.4-0.1c0,0.2-0.1,0.6-0.1,1.1c-0.3,2.9-1.1,5.8-2.4,8.1
		c1,1.3,1.7,2,3.3,3c-0.4,0.7-0.8,1.3-1,1.9c-1.7-1.2-2.4-1.9-3.4-3.2c-1,1.3-1.8,2.1-3.4,3.2C193.6,56.6,193.3,56.2,192.8,55.6
		L192.8,55.6L192.8,55.6z M188.6,45.8h2.4v-1.9h-2.4V45.8z M188.6,49.1h2.4v-1.8h-2.4V49.1z M188.6,52.9c1.1-0.2,1.2-0.2,2.4-0.5
		v-1.6h-2.4V52.9z M192.8,55.3c1.6-1,2.3-1.6,3.4-3c-0.6-1.1-0.9-2-1.3-3c-0.4-1.3-0.5-2.2-0.8-4.3c-0.3,0-0.4,0-0.7,0.1V44
		c-0.2,0-0.3,0-0.6,0L192.8,55.3L192.8,55.3z M195.8,45c0.3,2.8,0.6,3.9,1.4,5.6c0.8-1.5,1.2-3.1,1.6-5.6H195.8z"/>
	<path class="st2" d="M210,52c-1,2.2-2.1,3.2-3.5,3.2c-1.9,0-3.3-2-3.3-4.7c0-1.9,0.7-3.6,1.9-4.9c1.4-1.6,3.4-2.4,5.8-2.4
		c4.1,0,6.7,2.5,6.7,6.3c0,2.9-1.5,5.3-4.1,6.3c-0.8,0.3-1.5,0.5-2.7,0.7c-0.3-0.9-0.5-1.3-1-2c1.6-0.2,2.6-0.5,3.4-0.9
		c1.5-0.8,2.4-2.4,2.4-4.2c0-1.6-0.7-3-2.1-3.8c-0.5-0.3-1-0.4-1.7-0.5C211.5,47.8,210.9,50.1,210,52z M207.5,46
		c-1.4,1-2.3,2.8-2.3,4.6c0,1.4,0.6,2.5,1.3,2.5c0.6,0,1.1-0.7,1.8-2.2c0.6-1.5,1.2-3.8,1.4-5.7C208.9,45.2,208.2,45.5,207.5,46z"/>
</g>
<g class="st1">
	<path class="st2" d="M107.3,73.6c0.4,0.1,0.7,0.1,1.4,0.1h3.4c0.7,0,1,0,1.4-0.1v1.7c-0.4,0-0.6-0.1-1.3-0.1h-3.5
		c-0.6,0-0.9,0-1.4,0.1L107.3,73.6L107.3,73.6z M107.7,86.5c0.1-0.5,0.1-1.1,0.1-1.6v-2.5c0-0.5,0-0.9-0.1-1.3
		c0.4,0.1,0.8,0.1,1.3,0.1h2.9c0.7,0,0.8,0,1.2-0.1c0,0.3-0.1,0.6-0.1,1.2V85c0,0.5,0,0.9,0.1,1.3h-1.7v-0.6h-2v0.8L107.7,86.5
		L107.7,86.5z M107.8,71.2c0.5,0.1,0.7,0.1,1.4,0.1h2.4c0.7,0,1,0,1.4-0.1v1.7c-0.4-0.1-0.8-0.1-1.4-0.1h-2.4c-0.6,0-1,0-1.4,0.1
		V71.2z M107.9,76.2c0.4,0,0.6,0.1,1.1,0.1h3c0.6,0,0.7,0,1.1-0.1v1.5c-0.4-0.1-0.5-0.1-1.1-0.1h-3c-0.6,0-0.7,0-1.1,0.1V76.2z
		 M107.9,78.6c0.4,0,0.6,0.1,1.1,0.1h3c0.6,0,0.7,0,1.1-0.1v1.5c-0.4,0-0.6-0.1-1.1-0.1h-3c-0.5,0-0.7,0-1.1,0.1V78.6z M109.4,84.2
		h2v-1.7h-2V84.2z M118.4,74c0.6-1,1.1-2.1,1.5-3.3l1.8,0.7c-0.8,1.6-1,1.9-1.4,2.7h0.7c0.8,0,1.1,0,1.5-0.1v1.8
		c-0.4-0.1-0.9-0.1-1.7-0.1h-2v1.7h1.7c0.8,0,1.2,0,1.6-0.1v1.8c-0.4-0.1-0.8-0.1-1.6-0.1h-1.7v1.9h2.2c0.7,0,1.2,0,1.8-0.1v1.9
		c-0.5-0.1-1-0.1-1.7-0.1h-2.2v1.8c0,0.8,0,1.4,0.1,2h-2.1c0.1-0.6,0.1-1.2,0.1-2v-1.8h-1.6c-0.8,0-1.3,0-1.8,0.1v-1.9
		c0.5,0.1,1,0.1,1.8,0.1h1.6V79h-1.3c-0.8,0-1.1,0-1.5,0.1v-1.8c0.4,0.1,0.8,0.1,1.5,0.1h1.3v-1.7h-1.6c-0.8,0-1.2,0-1.6,0.1V74
		c0.4,0.1,0.7,0.1,1.5,0.1L118.4,74L118.4,74z M115.7,74c-0.4-1-0.7-1.7-1.3-2.5l1.6-0.7c0.6,0.9,0.8,1.3,1.3,2.5L115.7,74z"/>
	<path class="st2" d="M128.8,71.5c-0.1,0.5-0.1,1-0.2,2.3c-0.1,1.6-0.2,5-0.2,6.2c0,1.6,0.1,2.2,0.4,2.7c0.4,0.6,1.2,0.9,2.3,0.9
		c1.8,0,3.3-1,4.1-2.9c0.4-0.9,0.6-1.7,0.8-2.9c0.9,0.7,1.2,0.9,2.1,1.3c-0.7,2.3-1.2,3.4-2,4.3c-1.3,1.4-3,2.2-5.1,2.2
		c-1.2,0-2.3-0.3-3-0.7c-1.2-0.8-1.7-2.1-1.7-4.4c0-0.9,0-2.6,0.1-6.9c0-0.5,0-0.9,0-1.1c0-0.5,0-0.7-0.1-1.2L128.8,71.5z"/>
	<path class="st2" d="M143.3,72.5c-0.1,0.6-0.1,1.5-0.1,2.6c0,1.5,0.1,3.5,0.3,4.6c0.3,1.8,0.8,2.9,1.4,2.9c0.3,0,0.5-0.3,0.7-0.7
		c0.4-0.9,0.7-1.9,0.9-3.1c0.6,0.7,0.9,0.9,1.7,1.5c-0.9,3.3-1.9,4.7-3.3,4.7c-1.1,0-2.1-0.8-2.7-2.5c-0.7-1.7-1-4.2-1.1-8.9
		c0-0.6,0-0.7-0.1-1.1H143.3z M151.3,73.3c2.1,2.6,3.3,5.4,3.8,9.1l-2.1,0.8c-0.1-1.6-0.5-3.4-1.1-4.9s-1.4-2.9-2.4-4.2L151.3,73.3z
		"/>
	<path class="st2" d="M157.8,75c1.2,0.6,1.8,1,3.1,2.1l-1.1,1.5c-1.1-1.1-1.5-1.4-3.1-2.3L157.8,75z M160.9,80.8c-0.6,2-1,3-1.7,4.3
		c-0.1,0.3-0.2,0.3-0.4,0.7c-0.1,0.2-0.1,0.2-0.2,0.4l-1.6-1.4c0.3-0.3,0.5-0.6,0.8-1.1c0.7-1.3,1.1-2.2,1.6-4.1L160.9,80.8z
		 M160.2,74.5c-1-1.1-1.5-1.6-2.8-2.4l1.2-1.3c1.1,0.7,1.7,1.3,2.7,2.3v-0.9c0.5,0.1,1,0.1,1.9,0.1h2.3v-0.2c0-0.6,0-0.9-0.1-1.3h2
		c-0.1,0.4-0.1,0.7-0.1,1.3v0.2h3.1c0.8,0,1.4,0,1.9-0.1V74c-0.5-0.1-1-0.1-1.9-0.1h-4c-0.4,0.8-0.8,1.5-1.3,2.2
		c1.7-0.1,2.1-0.1,3.6-0.3c-0.3-0.3-0.5-0.5-1-1l1.4-0.8c1.2,1.1,2.1,2.1,3.1,3.5l-1.6,1.1c-0.4-0.6-0.5-0.9-0.9-1.3
		c-2.4,0.3-3.6,0.4-7.5,0.6c-0.3,0-0.7,0.1-1.1,0.1l-0.2-1.8c0.3,0,0.9,0.1,2,0.1c0.6-0.8,1-1.4,1.3-2.2h-1.3c-0.7,0-1.3,0-1.8,0.1
		v-0.8L160.2,74.5z M164.1,78.4c0,0.3,0,0.3-0.1,1.8c-0.1,2.1-0.3,3.1-1.1,4.2c-0.5,0.7-0.8,1.1-1.9,1.9c-0.5-0.7-0.7-0.9-1.3-1.4
		c2-1.3,2.6-2.5,2.6-5.4c0-0.5,0-0.7-0.1-1.1H164.1z M165.2,85.7c0.1-0.5,0.1-1,0.1-1.6V80c0-0.6,0-1-0.1-1.4h1.9
		C167,79,167,79.4,167,80v4.2c0,0.6,0,1.2,0.1,1.6L165.2,85.7L165.2,85.7z M170.1,84c0,0.3,0.1,0.4,0.5,0.4s0.5-0.1,0.6-0.2
		c0.1-0.2,0.1-1.2,0.2-2.4c0.6,0.3,1,0.5,1.6,0.6c-0.1,2.2-0.2,2.7-0.5,3.1c-0.3,0.4-0.8,0.5-1.9,0.5c-1,0-1.5-0.1-1.8-0.4
		c-0.2-0.2-0.3-0.4-0.3-1v-4.7c0-0.9,0-1.2-0.1-1.6h1.9c-0.1,0.4-0.1,0.7-0.1,1.6V84H170.1z"/>
	<path class="st2" d="M179.3,77c0.5-0.5,0.8-0.9,2.1-1.8c1.5-1.1,2.5-1.6,3.6-1.6c1.4,0,2.4,0.9,2.4,2.3c0,0.6-0.1,1.3-0.4,2.6
		c-0.6,2.6-0.7,3.3-0.7,3.8s0.3,0.8,0.7,0.8s0.8-0.3,1.2-0.9c0.4-0.6,0.8-1.3,1-1.9c0.4,0.9,0.6,1.3,1.1,2c-0.5,0.9-0.7,1.2-1.2,1.7
		c-0.7,0.8-1.6,1.2-2.5,1.2c-0.6,0-1.1-0.2-1.5-0.4c-0.6-0.5-0.9-1.1-0.9-2.1s0.1-1.4,0.7-4.3c0.3-1.1,0.4-1.8,0.4-2.1
		c0-0.4-0.2-0.6-0.7-0.6s-1.3,0.3-2.1,0.9c-1.2,0.9-2.4,2-3.1,2.8c0,0.8,0,1.2,0,1.7c0,0.1,0,0.1,0,2c0,2.1,0,2.2,0.1,2.8h-2.2
		c0.1-0.7,0.1-0.7,0.1-2.7c0-1.8,0-1.8,0-2.3l0,0c-0.2,0.2-0.3,0.5-1.2,1.4c-0.4,0.4-0.6,0.7-0.8,1l-1-2c0.4-0.3,0.7-0.5,1.1-1
		c1.6-1.6,1.6-1.6,1.9-1.9c0-0.8,0-1,0.1-1.7c0-0.4,0-0.4,0-0.9c-1.8,0.1-2.1,0.2-2.6,0.2l-0.1-1.9c0.3,0,0.5,0,0.7,0
		c0.3,0,1.3-0.1,2.1-0.1c0-0.3,0-0.3,0-0.6c0-0.5,0-1,0-1.4s0-0.6-0.1-1h2.2c-0.1,0.2-0.1,0.2-0.1,0.6c0,0.1,0,0.3-0.1,0.6
		c0,0.3,0,0.5-0.1,1.5c0,0,0.1,0,0.2-0.1l0.6,0.7c-0.2,0.1-0.2,0.2-0.5,0.5c-0.1,0.1-0.1,0.1-0.2,0.3c-0.1,0.1-0.1,0.1-0.2,0.3v1
		C179.4,76.7,179.3,76.8,179.3,77L179.3,77z"/>
</g>
<g id="グループ_1096" transform="translate(283 696.53)">
	<g id="グループ_219" transform="translate(302 2256.769)">
		<path class="st2" d="M-393-2752.3h-84c-3.6,0-6.8,1.4-9.2,3.8c-2.3,2.4-3.8,5.6-3.8,9.2c0,7.2,5.8,13,13,13h84
			c3.6,0,6.8-1.4,9.2-3.8c2.3-2.3,3.8-5.6,3.8-9.2C-380-2746.5-385.8-2752.3-393-2752.3z M-452-2736.7h-1.1v-4.2l-2.1,3.5h-0.5
			l-2.1-3.4v4.1h-1.1v-6.3h1l2.5,4.2l2.4-4.2h1V-2736.7z M-447.1-2736.6c-2,0-3.4-1.4-3.4-3.2c0-1.9,1.4-3.2,3.4-3.2
			s3.4,1.4,3.4,3.2C-443.7-2737.9-445.1-2736.6-447.1-2736.6z M-438.1-2736.7l-1.3-1.8c-0.1,0-0.2,0-0.2,0h-1.4v1.8h-1.2v-6.3h2.6
			c1.7,0,2.7,0.8,2.7,2.2c0,1-0.5,1.7-1.3,2l1.4,2.1H-438.1z M-430.6-2736.7h-4.7v-6.3h4.6v1h-3.4v1.6h3v1h-3v1.7h3.5V-2736.7z
			 M-409.2-2737.2v-1.5h-14.1v-2h14.1v-1.5l6.4,2.5L-409.2-2737.2z"/>
		<path class="st2" d="M-444.9-2739.8c0,1.3-0.9,2.2-2.2,2.2c-1.3,0-2.2-0.9-2.2-2.2s0.9-2.2,2.2-2.2
			C-445.8-2742-444.9-2741.1-444.9-2739.8z"/>
		<path class="st2" d="M-438-2740.8c0,0.8-0.6,1.3-1.6,1.3h-1.4v-2.5h1.3C-438.6-2742-438.1-2741.5-438-2740.8z"/>
	</g>
</g>
<g id="グループ_1099" transform="translate(167 -31.69)">
	<g id="グループ_1098" transform="translate(418 2901)">
		<path id="パス_1812" class="st2" d="M-412.8-2743.5v38.1c0,0.5,0.4,0.9,0.9,0.9h1c1.7-4.3,6.6-6.4,10.9-4.7
			c2.2,0.9,3.9,2.6,4.7,4.7h14.3c0.5,0,0.9-0.4,0.9-0.9c0-3.4,0-19.2,0-19.6c0-0.5-0.1-1-0.3-1.5c-0.4-0.9-7-16.4-7.2-17
			c-0.2-0.5-0.6-0.8-1.1-0.7h-23.4C-412.5-2744.3-412.8-2743.9-412.8-2743.5z M-385.7-2712.3c0-0.5,0.4-0.9,0.9-0.9h2.2
			c0.5,0,0.9,0.4,0.9,0.9v5.2c0,0.5-0.4,0.9-0.9,0.9h-2.2c-0.5,0-0.9-0.4-0.9-0.9V-2712.3z M-398.3-2741c0-0.5,0.4-0.9,0.9-0.9h7.3
			c0.4,0,0.7,0.2,0.8,0.5l5.7,13.6c0.2,0.5,0,1-0.5,1.2c-0.1,0-0.2,0.1-0.3,0.1h-13c-0.5,0-0.9-0.4-0.9-0.9V-2741z M-410.5-2741.1
			c0-0.4,0.3-0.7,0.7-0.7h8.5c0.4,0,0.7,0.3,0.7,0.7l0,0v14c0,0.4-0.3,0.7-0.7,0.7l0,0h-8.5c-0.4,0-0.7-0.3-0.7-0.7l0,0V-2741.1z"/>
		<path id="パス_1813" class="st2" d="M-489.1-2717.7h68.3c1.2,0,2.1-0.9,2.1-2.1l0,0v-27.4c0-0.6,0.5-1.1,1.1-1.1l0,0h8
			c0.6,0,1.1,0.5,1.1,1.1l0,0v0.7c0,0.6-0.5,1.1-1.1,1.1l0,0h-5v40c0,0.5-0.4,0.9-0.9,0.9h-35.1c-1.7-4.3-6.6-6.4-10.9-4.7
			c-2.2,0.9-3.9,2.6-4.7,4.7h-0.3c-1.7-4.3-6.6-6.4-10.9-4.7c-2.2,0.9-3.9,2.6-4.7,4.7h-7c-0.5,0-0.9-0.4-0.9-0.9v-11.4
			C-490-2717.3-489.6-2717.7-489.1-2717.7z"/>
		<path id="パス_1814" class="st2" d="M-403.1-2707.4c3.3,0,6,2.7,6,6c0,3.3-2.7,6-6,6c-3.3,0-6-2.7-6-6
			C-409.1-2704.7-406.4-2707.4-403.1-2707.4L-403.1-2707.4z"/>
		<path id="パス_1815" class="st2" d="M-458.4-2707.4c3.3,0,6,2.7,6,6c0,3.3-2.7,6-6,6c-3.3,0-6-2.7-6-6
			C-464.4-2704.7-461.7-2707.4-458.4-2707.4L-458.4-2707.4z"/>
		<path id="パス_1816" class="st2" d="M-474.4-2707.4c3.3,0,6,2.7,6,6c0,3.3-2.7,6-6,6c-3.3,0-6-2.7-6-6
			C-480.4-2704.7-477.7-2707.4-474.4-2707.4L-474.4-2707.4z"/>
		<path id="長方形_398" class="st2" d="M-446.8-2703h30.4c1,0,1.8,0.8,1.8,1.8v0.5c0,1-0.8,1.8-1.8,1.8h-30.4
			c-1,0-1.8-0.8-1.8-1.8v-0.5C-448.6-2702.2-447.8-2703-446.8-2703z"/>
		<path id="パス_1817" class="st2" d="M-394.2-2703h13.2c0.5,0,0.9,0.4,0.9,0.9v2.4c0,0.5-0.4,0.9-0.9,0.9h-13.2
			c-0.4,0-0.8-0.3-0.9-0.7c0-0.1,0-0.1,0-0.2v-2.4C-395.1-2702.6-394.6-2703-394.2-2703L-394.2-2703z"/>
		<path id="長方形_399" class="st2" d="M-488.2-2703h3.2c1,0,1.8,0.8,1.8,1.8l0,0v0.5c0,1-0.8,1.8-1.8,1.8l0,0h-3.2
			c-1,0-1.8-0.8-1.8-1.8v-0.5C-490-2702.2-489.2-2703-488.2-2703z"/>
		<path id="長方形_400" class="st2" d="M-487.8-2737.4h65.2c1.2,0,2.2,1,2.2,2.2v19.9c0,1.2-1,2.2-2.2,2.2h-65.2
			c-1.2,0-2.2-1-2.2-2.2v-20C-489.9-2736.5-488.9-2737.4-487.8-2737.4z"/>
		<g id="グループ_1097" transform="translate(5.02 0)">
			<path id="パス_1818" class="st2" d="M-431.7-2745.8h-12.1v-3.8h-16.4v-2.4h-15.4v6.7H-490v6.3h58.3V-2745.8z"/>
		</g>
	</g>
</g>
</svg>
