<?xml version="1.0" encoding="utf-8"?>
<!-- Generator: Adobe Illustrator 26.3.1, SVG Export Plug-In . SVG Version: 6.00 Build 0)  -->
<svg version="1.1" id="レイヤー_1" xmlns="http://www.w3.org/2000/svg" xmlns:xlink="http://www.w3.org/1999/xlink" x="0px"
	 y="0px" viewBox="0 0 777 74" style="enable-background:new 0 0 777 74;" xml:space="preserve">
<style type="text/css">
	.st0{fill:#0A684C;}
</style>
<path id="パス_4666" class="st0" d="M68,36.7c0.1,6.6-1.1,13.2-3.7,19.4c-2.3,5.3-6.2,9.8-11.2,12.8c-5,3.1-11.4,4.6-19.2,4.6
	S19.9,72,14.8,68.9c-5-3-8.9-7.5-11.2-12.9C1.1,49.9-0.1,43.3,0,36.6C-0.2,30,1.1,23.4,3.6,17.3C6,12,9.9,7.5,14.8,4.6
	c5-3,11.5-4.6,19.3-4.6c7.7,0,14.1,1.5,19.1,4.6c5,3,8.9,7.5,11.1,12.8C66.9,23.5,68.1,30.1,68,36.7z M15.9,36.7
	c0,7.5,1.4,13.4,4.3,17.6c2.9,4.3,7.5,6.5,13.8,6.5c6.5,0,11.1-2.1,13.9-6.5c2.8-4.3,4.2-10.2,4.2-17.6c0-7.5-1.4-13.3-4.2-17.6
	c-2.8-4.3-7.4-6.4-13.8-6.5c-6.4,0-11,2.2-13.9,6.5C17.3,23.4,15.9,29.2,15.9,36.7z M145.9,1.1v46.2c0.1,4.7-1,9.2-3.2,13.4
	c-2.3,4.1-5.7,7.3-9.9,9.4c-4.4,2.3-9.9,3.4-16.5,3.4c-9.5,0-16.7-2.4-21.6-7.2S87.3,55,87.3,47.1v-46h15.1v43.7
	c0,5.9,1.2,10.1,3.6,12.5c2.4,2.4,6,3.5,10.7,3.5c4.9,0,8.5-1.3,10.8-3.9s3.4-6.7,3.4-12.2V1.1L145.9,1.1z M189.2,1.1
	c9.7,0,16.9,1.8,21.6,5.3c4.6,3.5,6.9,8.9,6.9,16.1c0.1,3-0.6,5.9-1.9,8.5c-1.2,2.4-2.9,4.5-4.9,6.2c-2,1.7-4.2,3.1-6.6,4.2l21,31.1
	h-16.8l-17-27.4h-8.1v27.4h-15.1V1.1L189.2,1.1z M188.1,13.5h-4.6v19.3h4.9c5,0,8.6-0.8,10.8-2.5c2.2-1.7,3.3-4.1,3.2-7.4
	c0-3.4-1.2-5.8-3.5-7.2C196.6,14.2,193,13.5,188.1,13.5z M270.4,1.1h22.2c9.5,0,16.6,1.3,21.5,4c4.9,2.7,7.4,7.4,7.4,14.1
	c0.1,3.6-0.9,7.2-2.9,10.3c-1.9,2.8-4.8,4.6-8.1,5.1v0.5c2.3,0.5,4.4,1.4,6.5,2.5c2,1.2,3.6,3,4.6,5.1c1.2,2.8,1.8,5.9,1.7,9
	c0,6.5-2.4,11.5-7,15.2c-4.7,3.7-11.1,5.5-19.2,5.5h-26.7V1.1z M285.5,29.4h8.8c4.4,0,7.5-0.7,9.1-2s2.5-3.4,2.5-6.2s-1-4.7-3-5.9
	c-2-1.2-5.2-1.8-9.5-1.8h-8L285.5,29.4z M285.5,41.4V60h9.9c4.5,0,7.7-0.9,9.5-2.7c1.8-1.9,2.8-4.4,2.7-7c0.1-2.5-0.9-4.8-2.8-6.5
	c-1.8-1.6-5.1-2.4-10-2.5H285.5z M400.7,1.1v46.2c0.1,4.7-1,9.2-3.2,13.4c-2.3,4.1-5.7,7.3-9.9,9.4c-4.4,2.3-9.9,3.4-16.5,3.4
	c-9.5,0-16.7-2.4-21.6-7.2s-7.4-11.2-7.4-19.2v-46h15.1v43.7c0,5.9,1.2,10.1,3.6,12.5c2.4,2.4,6,3.5,10.7,3.5
	c4.9,0,8.5-1.3,10.8-3.9s3.4-6.7,3.4-12.2V1.1H400.7z M465.3,52.7c0,6.3-2.3,11.4-6.9,15.2c-4.6,3.8-11.1,5.7-19.5,5.7
	c-7,0.1-13.9-1.3-20.2-4.3V55.1c3.4,1.5,6.9,2.8,10.5,4.1c3.5,1.2,7.2,1.8,10.9,1.8c3.7,0,6.4-0.7,8-2.2c1.5-1.4,2.4-3.4,2.4-5.4
	c0-1.7-0.6-3.4-1.9-4.6c-1.5-1.4-3.1-2.6-5-3.6c-2.1-1.1-4.4-2.3-7.1-3.5c-1.7-0.8-3.5-1.8-5.4-2.9c-2-1.1-3.9-2.5-5.5-4.1
	c-1.8-1.7-3.3-3.7-4.4-6c-1.2-2.6-1.8-5.5-1.7-8.4c0-6.4,2.2-11.4,6.5-14.9c4.3-3.6,10.2-5.3,17.7-5.3c3.6,0,7.1,0.4,10.6,1.3
	c3.6,1,7.2,2.2,10.6,3.7l-4.9,11.8c-2.9-1.2-5.8-2.2-8.8-3.1c-2.6-0.7-5.3-1.1-8-1.1c-2.9,0-5.1,0.7-6.6,2c-1.5,1.3-2.4,3.2-2.3,5.2
	c0,2.5,1.3,4.8,3.4,6c3.3,2,6.6,3.8,10.1,5.4c3.3,1.5,6.4,3.3,9.4,5.4c2.4,1.7,4.5,4,5.9,6.6C464.7,46.2,465.4,49.4,465.3,52.7z
	 M510,72.5h-32.5v-8.6l8.7-4V13.7l-8.7-4V1.1H510v8.6l-8.7,4v46.2l8.7,4V72.5z M590.5,72.5h-19.2l-31.1-54h-0.4
	c0.1,3.4,0.3,6.8,0.5,10.2c0.2,3.4,0.3,6.8,0.5,10.2v33.6h-13.5V1.1h19.1l31,53.5h0.3l-0.4-9.8c-0.1-3.3-0.2-6.6-0.3-9.9V1.1h13.6
	L590.5,72.5z M654.6,72.5h-41.1V1.1h41.1v12.4h-26v15.7h24.2v12.4h-24.2V60h26L654.6,72.5z M716.6,52.7c0,6.3-2.3,11.4-6.8,15.1
	c-4.6,3.8-11,5.7-19.5,5.7c-7,0.1-13.9-1.3-20.2-4.3V55.1c3.4,1.5,6.9,2.8,10.5,4.1c3.5,1.2,7.2,1.8,10.9,1.8c3.7,0,6.4-0.7,8-2.2
	c1.5-1.4,2.4-3.4,2.3-5.4c0-1.7-0.6-3.4-1.8-4.6c-1.5-1.4-3.1-2.6-5-3.6c-2.1-1.1-4.4-2.3-7.1-3.5c-1.7-0.8-3.5-1.8-5.4-2.9
	c-2-1.1-3.9-2.5-5.5-4.1c-1.8-1.7-3.3-3.7-4.3-6c-1.2-2.6-1.8-5.5-1.7-8.4c0-6.4,2.2-11.4,6.5-14.9c4.3-3.6,10.2-5.3,17.7-5.3
	c3.6,0,7.1,0.4,10.6,1.3c3.6,1,7.2,2.2,10.6,3.7l-4.9,11.8c-2.9-1.2-5.8-2.2-8.8-3.1c-2.6-0.7-5.3-1.1-8-1.1c-2.9,0-5.1,0.7-6.6,2
	c-1.5,1.3-2.4,3.2-2.3,5.2c0,2.5,1.3,4.8,3.4,6c3.3,2,6.6,3.8,10.1,5.4c3.3,1.5,6.4,3.3,9.3,5.4c2.4,1.7,4.5,4,6,6.6
	C716,46.2,716.7,49.4,716.6,52.7L716.6,52.7z M776.7,52.7c0,6.3-2.3,11.4-6.8,15.1c-4.6,3.8-11,5.7-19.4,5.7
	c-7,0.1-13.9-1.3-20.2-4.3V55.1c3.4,1.5,6.9,2.8,10.5,4.1c3.5,1.2,7.2,1.8,10.9,1.8c3.7,0,6.4-0.7,8-2.2c1.5-1.4,2.4-3.4,2.3-5.4
	c0-1.7-0.6-3.4-1.8-4.6c-1.5-1.4-3.1-2.6-5-3.6c-2.1-1.1-4.4-2.3-7.1-3.5c-1.7-0.8-3.5-1.8-5.4-2.9c-2-1.1-3.9-2.5-5.5-4.1
	c-1.8-1.7-3.3-3.7-4.3-6c-1.2-2.6-1.8-5.5-1.7-8.4c0-6.4,2.2-11.4,6.5-14.9c4.3-3.6,10.2-5.3,17.7-5.4c3.6,0,7.1,0.4,10.6,1.3
	c3.6,1,7.2,2.2,10.6,3.7l-4.9,11.8c-2.9-1.2-5.8-2.2-8.8-3.1c-2.6-0.7-5.3-1.1-8-1.1c-2.9,0-5.1,0.7-6.6,2c-1.5,1.3-2.4,3.2-2.3,5.2
	c0,2.5,1.3,4.8,3.4,6c3.3,2,6.6,3.8,10.1,5.4c3.3,1.5,6.4,3.3,9.3,5.4c2.4,1.7,4.5,4,6,6.6C776.1,46.2,776.8,49.4,776.7,52.7
	L776.7,52.7z"/>
</svg>
